<?xml version="1.0" encoding="UTF-8"?>
<!DOCTYPE svg PUBLIC "-//W3C//DTD SVG 1.1//EN" "http://www.w3.org/Graphics/SVG/1.1/DTD/svg11.dtd">
<svg width="167mm" height="76mm" viewBox="0 0 16700 7600" version="1.1" xmlns="http://www.w3.org/2000/svg" xmlns:xlink="http://www.w3.org/1999/xlink" stroke-width="28.222" stroke-linejoin="round" xml:space="preserve">
 <path fill="rgb(255,255,255)" stroke="none" d="M 8326,7606 L 13,7606 13,13 16638,13 16638,7606 8326,7606 Z"/>
 <path fill="none" stroke="rgb(217,217,217)" stroke-width="26" stroke-linejoin="round" d="M 8326,7606 L 13,7606 13,13 16638,13 16638,7606 8326,7606 Z"/>
 <path fill="none" stroke="rgb(217,217,217)" stroke-width="26" stroke-linejoin="round" d="M 5306,1796 L 5306,7453"/>
 <path fill="none" stroke="rgb(217,217,217)" stroke-width="26" stroke-linejoin="round" d="M 7761,1796 L 7761,7453"/>
 <path fill="none" stroke="rgb(217,217,217)" stroke-width="26" stroke-linejoin="round" d="M 10216,1796 L 10216,7453"/>
 <path fill="none" stroke="rgb(217,217,217)" stroke-width="26" stroke-linejoin="round" d="M 12671,1796 L 12671,7453"/>
 <path fill="none" stroke="rgb(217,217,217)" stroke-width="26" stroke-linejoin="round" d="M 15126,1796 L 15126,7453"/>
 <path fill="none" stroke="rgb(242,242,242)" stroke-width="26" stroke-linejoin="round" d="M 5797,1796 L 5797,7453"/>
 <path fill="none" stroke="rgb(242,242,242)" stroke-width="26" stroke-linejoin="round" d="M 6288,1796 L 6288,7453"/>
 <path fill="none" stroke="rgb(242,242,242)" stroke-width="26" stroke-linejoin="round" d="M 6779,1796 L 6779,7453"/>
 <path fill="none" stroke="rgb(242,242,242)" stroke-width="26" stroke-linejoin="round" d="M 7270,1796 L 7270,7453"/>
 <path fill="none" stroke="rgb(242,242,242)" stroke-width="26" stroke-linejoin="round" d="M 8252,1796 L 8252,7453"/>
 <path fill="none" stroke="rgb(242,242,242)" stroke-width="26" stroke-linejoin="round" d="M 8743,1796 L 8743,7453"/>
 <path fill="none" stroke="rgb(242,242,242)" stroke-width="26" stroke-linejoin="round" d="M 9234,1796 L 9234,7453"/>
 <path fill="none" stroke="rgb(242,242,242)" stroke-width="26" stroke-linejoin="round" d="M 9725,1796 L 9725,7453"/>
 <path fill="none" stroke="rgb(242,242,242)" stroke-width="26" stroke-linejoin="round" d="M 10708,1796 L 10708,7453"/>
 <path fill="none" stroke="rgb(242,242,242)" stroke-width="26" stroke-linejoin="round" d="M 11198,1796 L 11198,7453"/>
 <path fill="none" stroke="rgb(242,242,242)" stroke-width="26" stroke-linejoin="round" d="M 11689,1796 L 11689,7453"/>
 <path fill="none" stroke="rgb(242,242,242)" stroke-width="26" stroke-linejoin="round" d="M 12180,1796 L 12180,7453"/>
 <path fill="none" stroke="rgb(242,242,242)" stroke-width="26" stroke-linejoin="round" d="M 13163,1796 L 13163,7453"/>
 <path fill="none" stroke="rgb(242,242,242)" stroke-width="26" stroke-linejoin="round" d="M 13654,1796 L 13654,7453"/>
 <path fill="none" stroke="rgb(242,242,242)" stroke-width="26" stroke-linejoin="round" d="M 14144,1796 L 14144,7453"/>
 <path fill="none" stroke="rgb(242,242,242)" stroke-width="26" stroke-linejoin="round" d="M 14635,1796 L 14635,7453"/>
 <path fill="none" stroke="rgb(242,242,242)" stroke-width="26" stroke-linejoin="round" d="M 15618,1796 L 15618,7453"/>
 <path fill="none" stroke="rgb(242,242,242)" stroke-width="26" stroke-linejoin="round" d="M 16109,1796 L 16109,7453"/>
 <path fill="none" stroke="rgb(217,217,217)" stroke-width="26" stroke-linejoin="round" d="M 5306,7453 L 5306,1796"/>
 <path fill="rgb(237,125,49)" stroke="none" d="M 12426,7013 L 12426,7264 16306,7264 16306,7013 12426,7013 Z"/>
 <path fill="rgb(237,125,49)" stroke="none" d="M 8448,6384 L 8448,6635 16109,6635 16109,6384 8448,6384 Z"/>
 <path fill="rgb(237,125,49)" stroke="none" d="M 6730,5756 L 6730,6007 15569,6007 15569,5756 6730,5756 Z"/>
 <path fill="rgb(237,125,49)" stroke="none" d="M 8694,5127 L 8694,5379 15323,5379 15323,5127 8694,5127 Z"/>
 <path fill="rgb(237,125,49)" stroke="none" d="M 8007,4498 L 8007,4750 13114,4750 13114,4498 8007,4498 Z"/>
 <path fill="rgb(237,125,49)" stroke="none" d="M 6828,3869 L 6828,4121 9382,4121 9382,3869 6828,3869 Z"/>
 <path fill="rgb(237,125,49)" stroke="none" d="M 6631,3242 L 6631,3493 7810,3493 7810,3242 6631,3242 Z"/>
 <path fill="rgb(237,125,49)" stroke="none" d="M 6190,2613 L 6190,2864 8596,2864 8596,2613 6190,2613 Z"/>
 <path fill="rgb(237,125,49)" stroke="none" d="M 5306,1984 L 5306,2235 12671,2235 12671,1984 5306,1984 Z"/>
 <text class="TextShape"><tspan class="TextParagraph" font-family="Calibri, sans-serif" font-size="317px" font-weight="400"><tspan class="TextPosition" x="1138" y="2216"><tspan fill="rgb(89,89,89)" stroke="none">Búsqueda de información</tspan></tspan></tspan></text>
 <text class="TextShape"><tspan class="TextParagraph" font-family="Calibri, sans-serif" font-size="317px" font-weight="400"><tspan class="TextPosition" x="1958" y="2844"><tspan fill="rgb(89,89,89)" stroke="none">Análisis del proyecto</tspan></tspan></tspan></text>
 <text class="TextShape"><tspan class="TextParagraph" font-family="Calibri, sans-serif" font-size="317px" font-weight="400"><tspan class="TextPosition" x="2090" y="3473"><tspan fill="rgb(89,89,89)" stroke="none">Obtención de datos</tspan></tspan></tspan></text>
 <text class="TextShape"><tspan class="TextParagraph" font-family="Calibri, sans-serif" font-size="317px" font-weight="400"><tspan class="TextPosition" x="1878" y="4102"><tspan fill="rgb(89,89,89)" stroke="none">Exploración de datos</tspan></tspan></tspan></text>
 <text class="TextShape"><tspan class="TextParagraph" font-family="Calibri, sans-serif" font-size="317px" font-weight="400"><tspan class="TextPosition" x="2327" y="4731"><tspan fill="rgb(89,89,89)" stroke="none">Limpieza de datos</tspan></tspan></tspan></text>
 <text class="TextShape"><tspan class="TextParagraph" font-family="Calibri, sans-serif" font-size="317px" font-weight="400"><tspan class="TextPosition" x="346" y="5359"><tspan fill="rgb(89,89,89)" stroke="none">Implementación de algoritmos</tspan></tspan></tspan></text>
 <text class="TextShape"><tspan class="TextParagraph" font-family="Calibri, sans-serif" font-size="317px" font-weight="400"><tspan class="TextPosition" x="1033" y="5987"><tspan fill="rgb(89,89,89)" stroke="none">Documentación de código</tspan></tspan></tspan></text>
 <text class="TextShape"><tspan class="TextParagraph" font-family="Calibri, sans-serif" font-size="317px" font-weight="400"><tspan class="TextPosition" x="3014" y="6616"><tspan fill="rgb(89,89,89)" stroke="none">Experimentos</tspan></tspan></tspan></text>
 <text class="TextShape"><tspan class="TextParagraph" font-family="Calibri, sans-serif" font-size="317px" font-weight="400"><tspan class="TextPosition" x="1561" y="7245"><tspan fill="rgb(89,89,89)" stroke="none">Redacción de memoria</tspan></tspan></tspan></text>
 <text class="TextShape"><tspan class="TextParagraph" font-family="Calibri, sans-serif" font-size="317px" font-weight="400"><tspan class="TextPosition" x="4898" y="1618"><tspan fill="rgb(89,89,89)" stroke="none">7-oct</tspan></tspan></tspan></text>
 <text class="TextShape"><tspan class="TextParagraph" font-family="Calibri, sans-serif" font-size="317px" font-weight="400"><tspan class="TextPosition" x="7207" y="1618"><tspan fill="rgb(89,89,89)" stroke="none">26-nov</tspan></tspan></tspan></text>
 <text class="TextShape"><tspan class="TextParagraph" font-family="Calibri, sans-serif" font-size="317px" font-weight="400"><tspan class="TextPosition" x="9662" y="1618"><tspan fill="rgb(89,89,89)" stroke="none">15-ene</tspan></tspan></tspan></text>
 <text class="TextShape"><tspan class="TextParagraph" font-family="Calibri, sans-serif" font-size="317px" font-weight="400"><tspan class="TextPosition" x="12196" y="1618"><tspan fill="rgb(89,89,89)" stroke="none">6-mar</tspan></tspan></tspan></text>
 <text class="TextShape"><tspan class="TextParagraph" font-family="Calibri, sans-serif" font-size="317px" font-weight="400"><tspan class="TextPosition" x="14599" y="1618"><tspan fill="rgb(89,89,89)" stroke="none">25-abr</tspan></tspan></tspan></text>
 <text class="TextShape"><tspan class="TextParagraph" font-family="Calibri, sans-serif" font-size="492px" font-weight="400"><tspan class="TextPosition" x="4086" y="921"><tspan fill="rgb(89,89,89)" stroke="none">Planificación - Diagrama de Gantt</tspan></tspan></tspan></text>
</svg>