<?xml version="1.0" encoding="utf-8" standalone="no"?>
<!DOCTYPE svg PUBLIC "-//W3C//DTD SVG 1.1//EN"
  "http://www.w3.org/Graphics/SVG/1.1/DTD/svg11.dtd">
<svg xmlns:xlink="http://www.w3.org/1999/xlink" width="1080pt" height="576pt" viewBox="0 0 1080 576" xmlns="http://www.w3.org/2000/svg" version="1.1">
 <metadata>
  <rdf:RDF xmlns:dc="http://purl.org/dc/elements/1.1/" xmlns:cc="http://creativecommons.org/ns#" xmlns:rdf="http://www.w3.org/1999/02/22-rdf-syntax-ns#">
   <cc:Work>
    <dc:type rdf:resource="http://purl.org/dc/dcmitype/StillImage"/>
    <dc:date>2022-05-15T21:55:51.067588</dc:date>
    <dc:format>image/svg+xml</dc:format>
    <dc:creator>
     <cc:Agent>
      <dc:title>Matplotlib v3.5.1, https://matplotlib.org/</dc:title>
     </cc:Agent>
    </dc:creator>
   </cc:Work>
  </rdf:RDF>
 </metadata>
 <defs>
  <style type="text/css">*{stroke-linejoin: round; stroke-linecap: butt}</style>
 </defs>
 <g id="figure_1">
  <g id="patch_1">
   <path d="M 0 576 
L 1080 576 
L 1080 0 
L 0 0 
L 0 576 
z
" style="fill: none"/>
  </g>
  <g id="axes_1">
   <g id="patch_2">
    <path d="M 135 504 
L 972 504 
L 972 69.12 
L 135 69.12 
z
" style="fill: #ffffff"/>
   </g>
   <g id="matplotlib.axis_1">
    <g id="xtick_1">
     <g id="line2d_1">
      <defs>
       <path id="m3f3dbde523" d="M 0 0 
L 0 3.5 
" style="stroke: #000000; stroke-width: 0.8"/>
      </defs>
      <g>
       <use xlink:href="#m3f3dbde523" x="173.045455" y="504" style="stroke: #000000; stroke-width: 0.8"/>
      </g>
     </g>
     <g id="text_1">
      <!-- 0 -->
      <g transform="translate(169.864205 518.598438)scale(0.1 -0.1)">
       <defs>
        <path id="DejaVuSans-30" d="M 2034 4250 
Q 1547 4250 1301 3770 
Q 1056 3291 1056 2328 
Q 1056 1369 1301 889 
Q 1547 409 2034 409 
Q 2525 409 2770 889 
Q 3016 1369 3016 2328 
Q 3016 3291 2770 3770 
Q 2525 4250 2034 4250 
z
M 2034 4750 
Q 2819 4750 3233 4129 
Q 3647 3509 3647 2328 
Q 3647 1150 3233 529 
Q 2819 -91 2034 -91 
Q 1250 -91 836 529 
Q 422 1150 422 2328 
Q 422 3509 836 4129 
Q 1250 4750 2034 4750 
z
" transform="scale(0.015625)"/>
       </defs>
       <use xlink:href="#DejaVuSans-30"/>
      </g>
     </g>
    </g>
    <g id="xtick_2">
     <g id="line2d_2">
      <g>
       <use xlink:href="#m3f3dbde523" x="300.929335" y="504" style="stroke: #000000; stroke-width: 0.8"/>
      </g>
     </g>
     <g id="text_2">
      <!-- 20 -->
      <g transform="translate(294.566835 518.598438)scale(0.1 -0.1)">
       <defs>
        <path id="DejaVuSans-32" d="M 1228 531 
L 3431 531 
L 3431 0 
L 469 0 
L 469 531 
Q 828 903 1448 1529 
Q 2069 2156 2228 2338 
Q 2531 2678 2651 2914 
Q 2772 3150 2772 3378 
Q 2772 3750 2511 3984 
Q 2250 4219 1831 4219 
Q 1534 4219 1204 4116 
Q 875 4013 500 3803 
L 500 4441 
Q 881 4594 1212 4672 
Q 1544 4750 1819 4750 
Q 2544 4750 2975 4387 
Q 3406 4025 3406 3419 
Q 3406 3131 3298 2873 
Q 3191 2616 2906 2266 
Q 2828 2175 2409 1742 
Q 1991 1309 1228 531 
z
" transform="scale(0.015625)"/>
       </defs>
       <use xlink:href="#DejaVuSans-32"/>
       <use xlink:href="#DejaVuSans-30" x="63.623047"/>
      </g>
     </g>
    </g>
    <g id="xtick_3">
     <g id="line2d_3">
      <g>
       <use xlink:href="#m3f3dbde523" x="428.813216" y="504" style="stroke: #000000; stroke-width: 0.8"/>
      </g>
     </g>
     <g id="text_3">
      <!-- 40 -->
      <g transform="translate(422.450716 518.598438)scale(0.1 -0.1)">
       <defs>
        <path id="DejaVuSans-34" d="M 2419 4116 
L 825 1625 
L 2419 1625 
L 2419 4116 
z
M 2253 4666 
L 3047 4666 
L 3047 1625 
L 3713 1625 
L 3713 1100 
L 3047 1100 
L 3047 0 
L 2419 0 
L 2419 1100 
L 313 1100 
L 313 1709 
L 2253 4666 
z
" transform="scale(0.015625)"/>
       </defs>
       <use xlink:href="#DejaVuSans-34"/>
       <use xlink:href="#DejaVuSans-30" x="63.623047"/>
      </g>
     </g>
    </g>
    <g id="xtick_4">
     <g id="line2d_4">
      <g>
       <use xlink:href="#m3f3dbde523" x="556.697097" y="504" style="stroke: #000000; stroke-width: 0.8"/>
      </g>
     </g>
     <g id="text_4">
      <!-- 60 -->
      <g transform="translate(550.334597 518.598438)scale(0.1 -0.1)">
       <defs>
        <path id="DejaVuSans-36" d="M 2113 2584 
Q 1688 2584 1439 2293 
Q 1191 2003 1191 1497 
Q 1191 994 1439 701 
Q 1688 409 2113 409 
Q 2538 409 2786 701 
Q 3034 994 3034 1497 
Q 3034 2003 2786 2293 
Q 2538 2584 2113 2584 
z
M 3366 4563 
L 3366 3988 
Q 3128 4100 2886 4159 
Q 2644 4219 2406 4219 
Q 1781 4219 1451 3797 
Q 1122 3375 1075 2522 
Q 1259 2794 1537 2939 
Q 1816 3084 2150 3084 
Q 2853 3084 3261 2657 
Q 3669 2231 3669 1497 
Q 3669 778 3244 343 
Q 2819 -91 2113 -91 
Q 1303 -91 875 529 
Q 447 1150 447 2328 
Q 447 3434 972 4092 
Q 1497 4750 2381 4750 
Q 2619 4750 2861 4703 
Q 3103 4656 3366 4563 
z
" transform="scale(0.015625)"/>
       </defs>
       <use xlink:href="#DejaVuSans-36"/>
       <use xlink:href="#DejaVuSans-30" x="63.623047"/>
      </g>
     </g>
    </g>
    <g id="xtick_5">
     <g id="line2d_5">
      <g>
       <use xlink:href="#m3f3dbde523" x="684.580978" y="504" style="stroke: #000000; stroke-width: 0.8"/>
      </g>
     </g>
     <g id="text_5">
      <!-- 80 -->
      <g transform="translate(678.218478 518.598438)scale(0.1 -0.1)">
       <defs>
        <path id="DejaVuSans-38" d="M 2034 2216 
Q 1584 2216 1326 1975 
Q 1069 1734 1069 1313 
Q 1069 891 1326 650 
Q 1584 409 2034 409 
Q 2484 409 2743 651 
Q 3003 894 3003 1313 
Q 3003 1734 2745 1975 
Q 2488 2216 2034 2216 
z
M 1403 2484 
Q 997 2584 770 2862 
Q 544 3141 544 3541 
Q 544 4100 942 4425 
Q 1341 4750 2034 4750 
Q 2731 4750 3128 4425 
Q 3525 4100 3525 3541 
Q 3525 3141 3298 2862 
Q 3072 2584 2669 2484 
Q 3125 2378 3379 2068 
Q 3634 1759 3634 1313 
Q 3634 634 3220 271 
Q 2806 -91 2034 -91 
Q 1263 -91 848 271 
Q 434 634 434 1313 
Q 434 1759 690 2068 
Q 947 2378 1403 2484 
z
M 1172 3481 
Q 1172 3119 1398 2916 
Q 1625 2713 2034 2713 
Q 2441 2713 2670 2916 
Q 2900 3119 2900 3481 
Q 2900 3844 2670 4047 
Q 2441 4250 2034 4250 
Q 1625 4250 1398 4047 
Q 1172 3844 1172 3481 
z
" transform="scale(0.015625)"/>
       </defs>
       <use xlink:href="#DejaVuSans-38"/>
       <use xlink:href="#DejaVuSans-30" x="63.623047"/>
      </g>
     </g>
    </g>
    <g id="xtick_6">
     <g id="line2d_6">
      <g>
       <use xlink:href="#m3f3dbde523" x="812.464859" y="504" style="stroke: #000000; stroke-width: 0.8"/>
      </g>
     </g>
     <g id="text_6">
      <!-- 100 -->
      <g transform="translate(802.921109 518.598438)scale(0.1 -0.1)">
       <defs>
        <path id="DejaVuSans-31" d="M 794 531 
L 1825 531 
L 1825 4091 
L 703 3866 
L 703 4441 
L 1819 4666 
L 2450 4666 
L 2450 531 
L 3481 531 
L 3481 0 
L 794 0 
L 794 531 
z
" transform="scale(0.015625)"/>
       </defs>
       <use xlink:href="#DejaVuSans-31"/>
       <use xlink:href="#DejaVuSans-30" x="63.623047"/>
       <use xlink:href="#DejaVuSans-30" x="127.246094"/>
      </g>
     </g>
    </g>
    <g id="xtick_7">
     <g id="line2d_7">
      <g>
       <use xlink:href="#m3f3dbde523" x="940.348739" y="504" style="stroke: #000000; stroke-width: 0.8"/>
      </g>
     </g>
     <g id="text_7">
      <!-- 120 -->
      <g transform="translate(930.804989 518.598438)scale(0.1 -0.1)">
       <use xlink:href="#DejaVuSans-31"/>
       <use xlink:href="#DejaVuSans-32" x="63.623047"/>
       <use xlink:href="#DejaVuSans-30" x="127.246094"/>
      </g>
     </g>
    </g>
    <g id="text_8">
     <!-- Iterations -->
     <g transform="translate(529.686719 532.276562)scale(0.1 -0.1)">
      <defs>
       <path id="DejaVuSans-49" d="M 628 4666 
L 1259 4666 
L 1259 0 
L 628 0 
L 628 4666 
z
" transform="scale(0.015625)"/>
       <path id="DejaVuSans-74" d="M 1172 4494 
L 1172 3500 
L 2356 3500 
L 2356 3053 
L 1172 3053 
L 1172 1153 
Q 1172 725 1289 603 
Q 1406 481 1766 481 
L 2356 481 
L 2356 0 
L 1766 0 
Q 1100 0 847 248 
Q 594 497 594 1153 
L 594 3053 
L 172 3053 
L 172 3500 
L 594 3500 
L 594 4494 
L 1172 4494 
z
" transform="scale(0.015625)"/>
       <path id="DejaVuSans-65" d="M 3597 1894 
L 3597 1613 
L 953 1613 
Q 991 1019 1311 708 
Q 1631 397 2203 397 
Q 2534 397 2845 478 
Q 3156 559 3463 722 
L 3463 178 
Q 3153 47 2828 -22 
Q 2503 -91 2169 -91 
Q 1331 -91 842 396 
Q 353 884 353 1716 
Q 353 2575 817 3079 
Q 1281 3584 2069 3584 
Q 2775 3584 3186 3129 
Q 3597 2675 3597 1894 
z
M 3022 2063 
Q 3016 2534 2758 2815 
Q 2500 3097 2075 3097 
Q 1594 3097 1305 2825 
Q 1016 2553 972 2059 
L 3022 2063 
z
" transform="scale(0.015625)"/>
       <path id="DejaVuSans-72" d="M 2631 2963 
Q 2534 3019 2420 3045 
Q 2306 3072 2169 3072 
Q 1681 3072 1420 2755 
Q 1159 2438 1159 1844 
L 1159 0 
L 581 0 
L 581 3500 
L 1159 3500 
L 1159 2956 
Q 1341 3275 1631 3429 
Q 1922 3584 2338 3584 
Q 2397 3584 2469 3576 
Q 2541 3569 2628 3553 
L 2631 2963 
z
" transform="scale(0.015625)"/>
       <path id="DejaVuSans-61" d="M 2194 1759 
Q 1497 1759 1228 1600 
Q 959 1441 959 1056 
Q 959 750 1161 570 
Q 1363 391 1709 391 
Q 2188 391 2477 730 
Q 2766 1069 2766 1631 
L 2766 1759 
L 2194 1759 
z
M 3341 1997 
L 3341 0 
L 2766 0 
L 2766 531 
Q 2569 213 2275 61 
Q 1981 -91 1556 -91 
Q 1019 -91 701 211 
Q 384 513 384 1019 
Q 384 1609 779 1909 
Q 1175 2209 1959 2209 
L 2766 2209 
L 2766 2266 
Q 2766 2663 2505 2880 
Q 2244 3097 1772 3097 
Q 1472 3097 1187 3025 
Q 903 2953 641 2809 
L 641 3341 
Q 956 3463 1253 3523 
Q 1550 3584 1831 3584 
Q 2591 3584 2966 3190 
Q 3341 2797 3341 1997 
z
" transform="scale(0.015625)"/>
       <path id="DejaVuSans-69" d="M 603 3500 
L 1178 3500 
L 1178 0 
L 603 0 
L 603 3500 
z
M 603 4863 
L 1178 4863 
L 1178 4134 
L 603 4134 
L 603 4863 
z
" transform="scale(0.015625)"/>
       <path id="DejaVuSans-6f" d="M 1959 3097 
Q 1497 3097 1228 2736 
Q 959 2375 959 1747 
Q 959 1119 1226 758 
Q 1494 397 1959 397 
Q 2419 397 2687 759 
Q 2956 1122 2956 1747 
Q 2956 2369 2687 2733 
Q 2419 3097 1959 3097 
z
M 1959 3584 
Q 2709 3584 3137 3096 
Q 3566 2609 3566 1747 
Q 3566 888 3137 398 
Q 2709 -91 1959 -91 
Q 1206 -91 779 398 
Q 353 888 353 1747 
Q 353 2609 779 3096 
Q 1206 3584 1959 3584 
z
" transform="scale(0.015625)"/>
       <path id="DejaVuSans-6e" d="M 3513 2113 
L 3513 0 
L 2938 0 
L 2938 2094 
Q 2938 2591 2744 2837 
Q 2550 3084 2163 3084 
Q 1697 3084 1428 2787 
Q 1159 2491 1159 1978 
L 1159 0 
L 581 0 
L 581 3500 
L 1159 3500 
L 1159 2956 
Q 1366 3272 1645 3428 
Q 1925 3584 2291 3584 
Q 2894 3584 3203 3211 
Q 3513 2838 3513 2113 
z
" transform="scale(0.015625)"/>
       <path id="DejaVuSans-73" d="M 2834 3397 
L 2834 2853 
Q 2591 2978 2328 3040 
Q 2066 3103 1784 3103 
Q 1356 3103 1142 2972 
Q 928 2841 928 2578 
Q 928 2378 1081 2264 
Q 1234 2150 1697 2047 
L 1894 2003 
Q 2506 1872 2764 1633 
Q 3022 1394 3022 966 
Q 3022 478 2636 193 
Q 2250 -91 1575 -91 
Q 1294 -91 989 -36 
Q 684 19 347 128 
L 347 722 
Q 666 556 975 473 
Q 1284 391 1588 391 
Q 1994 391 2212 530 
Q 2431 669 2431 922 
Q 2431 1156 2273 1281 
Q 2116 1406 1581 1522 
L 1381 1569 
Q 847 1681 609 1914 
Q 372 2147 372 2553 
Q 372 3047 722 3315 
Q 1072 3584 1716 3584 
Q 2034 3584 2315 3537 
Q 2597 3491 2834 3397 
z
" transform="scale(0.015625)"/>
      </defs>
      <use xlink:href="#DejaVuSans-49"/>
      <use xlink:href="#DejaVuSans-74" x="29.492188"/>
      <use xlink:href="#DejaVuSans-65" x="68.701172"/>
      <use xlink:href="#DejaVuSans-72" x="130.224609"/>
      <use xlink:href="#DejaVuSans-61" x="171.337891"/>
      <use xlink:href="#DejaVuSans-74" x="232.617188"/>
      <use xlink:href="#DejaVuSans-69" x="271.826172"/>
      <use xlink:href="#DejaVuSans-6f" x="299.609375"/>
      <use xlink:href="#DejaVuSans-6e" x="360.791016"/>
      <use xlink:href="#DejaVuSans-73" x="424.169922"/>
     </g>
    </g>
   </g>
   <g id="matplotlib.axis_2">
    <g id="ytick_1">
     <g id="line2d_8">
      <defs>
       <path id="md403504eae" d="M 0 0 
L -3.5 0 
" style="stroke: #000000; stroke-width: 0.8"/>
      </defs>
      <g>
       <use xlink:href="#md403504eae" x="135" y="484.727528" style="stroke: #000000; stroke-width: 0.8"/>
      </g>
     </g>
     <g id="text_9">
      <!-- 0 -->
      <g transform="translate(121.6375 488.526746)scale(0.1 -0.1)">
       <use xlink:href="#DejaVuSans-30"/>
      </g>
     </g>
    </g>
    <g id="ytick_2">
     <g id="line2d_9">
      <g>
       <use xlink:href="#md403504eae" x="135" y="435.247496" style="stroke: #000000; stroke-width: 0.8"/>
      </g>
     </g>
     <g id="text_10">
      <!-- 1 -->
      <g transform="translate(121.6375 439.046714)scale(0.1 -0.1)">
       <use xlink:href="#DejaVuSans-31"/>
      </g>
     </g>
    </g>
    <g id="ytick_3">
     <g id="line2d_10">
      <g>
       <use xlink:href="#md403504eae" x="135" y="385.767464" style="stroke: #000000; stroke-width: 0.8"/>
      </g>
     </g>
     <g id="text_11">
      <!-- 2 -->
      <g transform="translate(121.6375 389.566683)scale(0.1 -0.1)">
       <use xlink:href="#DejaVuSans-32"/>
      </g>
     </g>
    </g>
    <g id="ytick_4">
     <g id="line2d_11">
      <g>
       <use xlink:href="#md403504eae" x="135" y="336.287432" style="stroke: #000000; stroke-width: 0.8"/>
      </g>
     </g>
     <g id="text_12">
      <!-- 3 -->
      <g transform="translate(121.6375 340.086651)scale(0.1 -0.1)">
       <defs>
        <path id="DejaVuSans-33" d="M 2597 2516 
Q 3050 2419 3304 2112 
Q 3559 1806 3559 1356 
Q 3559 666 3084 287 
Q 2609 -91 1734 -91 
Q 1441 -91 1130 -33 
Q 819 25 488 141 
L 488 750 
Q 750 597 1062 519 
Q 1375 441 1716 441 
Q 2309 441 2620 675 
Q 2931 909 2931 1356 
Q 2931 1769 2642 2001 
Q 2353 2234 1838 2234 
L 1294 2234 
L 1294 2753 
L 1863 2753 
Q 2328 2753 2575 2939 
Q 2822 3125 2822 3475 
Q 2822 3834 2567 4026 
Q 2313 4219 1838 4219 
Q 1578 4219 1281 4162 
Q 984 4106 628 3988 
L 628 4550 
Q 988 4650 1302 4700 
Q 1616 4750 1894 4750 
Q 2613 4750 3031 4423 
Q 3450 4097 3450 3541 
Q 3450 3153 3228 2886 
Q 3006 2619 2597 2516 
z
" transform="scale(0.015625)"/>
       </defs>
       <use xlink:href="#DejaVuSans-33"/>
      </g>
     </g>
    </g>
    <g id="ytick_5">
     <g id="line2d_12">
      <g>
       <use xlink:href="#md403504eae" x="135" y="286.8074" style="stroke: #000000; stroke-width: 0.8"/>
      </g>
     </g>
     <g id="text_13">
      <!-- 4 -->
      <g transform="translate(121.6375 290.606619)scale(0.1 -0.1)">
       <use xlink:href="#DejaVuSans-34"/>
      </g>
     </g>
    </g>
    <g id="ytick_6">
     <g id="line2d_13">
      <g>
       <use xlink:href="#md403504eae" x="135" y="237.327368" style="stroke: #000000; stroke-width: 0.8"/>
      </g>
     </g>
     <g id="text_14">
      <!-- 5 -->
      <g transform="translate(121.6375 241.126587)scale(0.1 -0.1)">
       <defs>
        <path id="DejaVuSans-35" d="M 691 4666 
L 3169 4666 
L 3169 4134 
L 1269 4134 
L 1269 2991 
Q 1406 3038 1543 3061 
Q 1681 3084 1819 3084 
Q 2600 3084 3056 2656 
Q 3513 2228 3513 1497 
Q 3513 744 3044 326 
Q 2575 -91 1722 -91 
Q 1428 -91 1123 -41 
Q 819 9 494 109 
L 494 744 
Q 775 591 1075 516 
Q 1375 441 1709 441 
Q 2250 441 2565 725 
Q 2881 1009 2881 1497 
Q 2881 1984 2565 2268 
Q 2250 2553 1709 2553 
Q 1456 2553 1204 2497 
Q 953 2441 691 2322 
L 691 4666 
z
" transform="scale(0.015625)"/>
       </defs>
       <use xlink:href="#DejaVuSans-35"/>
      </g>
     </g>
    </g>
    <g id="ytick_7">
     <g id="line2d_14">
      <g>
       <use xlink:href="#md403504eae" x="135" y="187.847336" style="stroke: #000000; stroke-width: 0.8"/>
      </g>
     </g>
     <g id="text_15">
      <!-- 6 -->
      <g transform="translate(121.6375 191.646555)scale(0.1 -0.1)">
       <use xlink:href="#DejaVuSans-36"/>
      </g>
     </g>
    </g>
    <g id="ytick_8">
     <g id="line2d_15">
      <g>
       <use xlink:href="#md403504eae" x="135" y="138.367305" style="stroke: #000000; stroke-width: 0.8"/>
      </g>
     </g>
     <g id="text_16">
      <!-- 7 -->
      <g transform="translate(121.6375 142.166523)scale(0.1 -0.1)">
       <defs>
        <path id="DejaVuSans-37" d="M 525 4666 
L 3525 4666 
L 3525 4397 
L 1831 0 
L 1172 0 
L 2766 4134 
L 525 4134 
L 525 4666 
z
" transform="scale(0.015625)"/>
       </defs>
       <use xlink:href="#DejaVuSans-37"/>
      </g>
     </g>
    </g>
    <g id="ytick_9">
     <g id="line2d_16">
      <g>
       <use xlink:href="#md403504eae" x="135" y="88.887273" style="stroke: #000000; stroke-width: 0.8"/>
      </g>
     </g>
     <g id="text_17">
      <!-- 8 -->
      <g transform="translate(121.6375 92.686491)scale(0.1 -0.1)">
       <use xlink:href="#DejaVuSans-38"/>
      </g>
     </g>
    </g>
    <g id="text_18">
     <!-- Factor -->
     <g transform="translate(115.557812 301.867813)rotate(-90)scale(0.1 -0.1)">
      <defs>
       <path id="DejaVuSans-46" d="M 628 4666 
L 3309 4666 
L 3309 4134 
L 1259 4134 
L 1259 2759 
L 3109 2759 
L 3109 2228 
L 1259 2228 
L 1259 0 
L 628 0 
L 628 4666 
z
" transform="scale(0.015625)"/>
       <path id="DejaVuSans-63" d="M 3122 3366 
L 3122 2828 
Q 2878 2963 2633 3030 
Q 2388 3097 2138 3097 
Q 1578 3097 1268 2742 
Q 959 2388 959 1747 
Q 959 1106 1268 751 
Q 1578 397 2138 397 
Q 2388 397 2633 464 
Q 2878 531 3122 666 
L 3122 134 
Q 2881 22 2623 -34 
Q 2366 -91 2075 -91 
Q 1284 -91 818 406 
Q 353 903 353 1747 
Q 353 2603 823 3093 
Q 1294 3584 2113 3584 
Q 2378 3584 2631 3529 
Q 2884 3475 3122 3366 
z
" transform="scale(0.015625)"/>
      </defs>
      <use xlink:href="#DejaVuSans-46"/>
      <use xlink:href="#DejaVuSans-61" x="48.394531"/>
      <use xlink:href="#DejaVuSans-63" x="109.673828"/>
      <use xlink:href="#DejaVuSans-74" x="164.654297"/>
      <use xlink:href="#DejaVuSans-6f" x="203.863281"/>
      <use xlink:href="#DejaVuSans-72" x="265.044922"/>
     </g>
    </g>
   </g>
   <g id="line2d_17">
    <path d="M 173.045455 481.758726 
L 179.439649 482.253526 
L 185.833843 482.253526 
L 192.228037 482.253526 
L 198.622231 484.232727 
L 205.016425 484.232727 
L 211.410619 484.232727 
L 217.804813 484.232727 
L 224.199007 484.232727 
L 230.593201 484.232727 
L 236.987395 484.232727 
L 243.381589 484.232727 
L 249.775783 484.232727 
L 256.169977 484.232727 
L 262.564171 484.232727 
L 268.958365 484.232727 
L 275.352559 484.232727 
L 281.746753 484.232727 
L 288.140947 484.232727 
L 294.535141 484.232727 
L 300.929335 484.232727 
L 307.323529 484.232727 
L 313.717723 484.232727 
L 320.111917 484.232727 
L 326.506112 484.232727 
L 332.900306 484.232727 
L 339.2945 484.232727 
L 345.688694 484.232727 
L 352.082888 484.232727 
L 358.477082 484.232727 
L 364.871276 484.232727 
L 371.26547 484.232727 
L 377.659664 484.232727 
L 384.053858 484.232727 
L 390.448052 484.232727 
L 396.842246 484.232727 
L 403.23644 484.232727 
L 409.630634 484.232727 
L 416.024828 484.232727 
L 422.419022 484.232727 
L 428.813216 484.232727 
L 435.20741 484.232727 
L 441.601604 484.232727 
L 447.995798 484.232727 
L 454.389992 484.232727 
L 460.784186 484.232727 
L 467.17838 484.232727 
L 473.572574 484.232727 
L 479.966769 484.232727 
L 486.360963 484.232727 
L 492.755157 484.232727 
L 499.149351 484.232727 
L 505.543545 484.232727 
L 511.937739 484.232727 
L 518.331933 484.232727 
L 524.726127 484.232727 
L 531.120321 484.232727 
L 537.514515 484.232727 
L 543.908709 484.232727 
L 550.302903 484.232727 
L 556.697097 484.232727 
L 563.091291 484.232727 
L 569.485485 484.232727 
L 575.879679 484.232727 
L 582.273873 484.232727 
L 588.668067 484.232727 
L 595.062261 484.232727 
L 601.456455 484.232727 
L 607.850649 484.232727 
L 614.244843 484.232727 
L 620.639037 484.232727 
L 627.033231 484.232727 
L 633.427426 484.232727 
L 639.82162 484.232727 
L 646.215814 484.232727 
L 652.610008 484.232727 
L 659.004202 484.232727 
L 665.398396 484.232727 
L 671.79259 484.232727 
L 678.186784 484.232727 
L 684.580978 484.232727 
L 690.975172 484.232727 
L 697.369366 484.232727 
L 703.76356 484.232727 
L 710.157754 484.232727 
L 716.551948 484.232727 
L 722.946142 484.232727 
L 729.340336 484.232727 
L 735.73453 484.232727 
L 742.128724 484.232727 
L 748.522918 484.232727 
L 754.917112 484.232727 
L 761.311306 484.232727 
L 767.7055 484.232727 
L 774.099694 484.232727 
L 780.493888 484.232727 
L 786.888083 484.232727 
L 793.282277 484.232727 
L 799.676471 484.232727 
L 806.070665 484.232727 
L 812.464859 484.232727 
L 818.859053 484.232727 
L 825.253247 484.232727 
L 831.647441 483.737927 
L 838.041635 483.737927 
L 844.435829 483.737927 
L 850.830023 483.737927 
L 857.224217 483.737927 
L 863.618411 483.737927 
L 870.012605 483.737927 
L 876.406799 483.737927 
L 882.800993 483.737927 
L 889.195187 483.737927 
L 895.589381 483.737927 
L 901.983575 483.737927 
L 908.377769 483.737927 
L 914.771963 483.737927 
L 921.166157 483.737927 
L 927.560351 483.737927 
L 933.954545 483.737927 
" clip-path="url(#pf728c42276)" style="fill: none; stroke: #1f77b4; stroke-width: 1.5; stroke-linecap: square"/>
   </g>
   <g id="line2d_18">
    <path d="M 173.045455 88.887273 
L 179.439649 237.327368 
L 185.833843 237.327368 
L 192.228037 237.327368 
L 198.622231 212.587352 
L 205.016425 212.587352 
L 211.410619 212.587352 
L 217.804813 237.327368 
L 224.199007 262.067384 
L 230.593201 262.067384 
L 236.987395 385.767464 
L 243.381589 385.767464 
L 249.775783 385.767464 
L 256.169977 385.767464 
L 262.564171 385.767464 
L 268.958365 435.247496 
L 275.352559 435.247496 
L 281.746753 435.247496 
L 288.140947 435.247496 
L 294.535141 435.247496 
L 300.929335 435.247496 
L 307.323529 435.247496 
L 313.717723 435.247496 
L 320.111917 435.247496 
L 326.506112 435.247496 
L 332.900306 435.247496 
L 339.2945 435.247496 
L 345.688694 435.247496 
L 352.082888 435.247496 
L 358.477082 435.247496 
L 364.871276 435.247496 
L 371.26547 435.247496 
L 377.659664 435.247496 
L 384.053858 435.247496 
L 390.448052 435.247496 
L 396.842246 435.247496 
L 403.23644 435.247496 
L 409.630634 435.247496 
L 416.024828 435.247496 
L 422.419022 435.247496 
L 428.813216 435.247496 
L 435.20741 435.247496 
L 441.601604 435.247496 
L 447.995798 435.247496 
L 454.389992 435.247496 
L 460.784186 435.247496 
L 467.17838 435.247496 
L 473.572574 435.247496 
L 479.966769 435.247496 
L 486.360963 435.247496 
L 492.755157 435.247496 
L 499.149351 435.247496 
L 505.543545 435.247496 
L 511.937739 435.247496 
L 518.331933 435.247496 
L 524.726127 435.247496 
L 531.120321 435.247496 
L 537.514515 435.247496 
L 543.908709 435.247496 
L 550.302903 435.247496 
L 556.697097 435.247496 
L 563.091291 435.247496 
L 569.485485 435.247496 
L 575.879679 435.247496 
L 582.273873 435.247496 
L 588.668067 435.247496 
L 595.062261 435.247496 
L 601.456455 435.247496 
L 607.850649 435.247496 
L 614.244843 435.247496 
L 620.639037 435.247496 
L 627.033231 435.247496 
L 633.427426 435.247496 
L 639.82162 435.247496 
L 646.215814 435.247496 
L 652.610008 435.247496 
L 659.004202 435.247496 
L 665.398396 435.247496 
L 671.79259 435.247496 
L 678.186784 435.247496 
L 684.580978 435.247496 
L 690.975172 435.247496 
L 697.369366 435.247496 
L 703.76356 435.247496 
L 710.157754 435.247496 
L 716.551948 435.247496 
L 722.946142 435.247496 
L 729.340336 435.247496 
L 735.73453 435.247496 
L 742.128724 435.247496 
L 748.522918 435.247496 
L 754.917112 435.247496 
L 761.311306 435.247496 
L 767.7055 435.247496 
L 774.099694 435.247496 
L 780.493888 435.247496 
L 786.888083 435.247496 
L 793.282277 435.247496 
L 799.676471 435.247496 
L 806.070665 435.247496 
L 812.464859 435.247496 
L 818.859053 435.247496 
L 825.253247 435.247496 
L 831.647441 435.247496 
L 838.041635 435.247496 
L 844.435829 435.247496 
L 850.830023 435.247496 
L 857.224217 435.247496 
L 863.618411 435.247496 
L 870.012605 435.247496 
L 876.406799 435.247496 
L 882.800993 435.247496 
L 889.195187 435.247496 
L 895.589381 435.247496 
L 901.983575 435.247496 
L 908.377769 435.247496 
L 914.771963 435.247496 
L 921.166157 435.247496 
L 927.560351 435.247496 
L 933.954545 435.247496 
" clip-path="url(#pf728c42276)" style="fill: none; stroke: #ff7f0e; stroke-width: 1.5; stroke-linecap: square"/>
   </g>
   <g id="line2d_19">
    <path d="M 173.045455 143.315308 
L 179.439649 128.471298 
L 185.833843 128.471298 
L 192.228037 128.471298 
L 198.622231 143.315308 
L 205.016425 143.315308 
L 211.410619 143.315308 
L 217.804813 143.315308 
L 224.199007 143.315308 
L 230.593201 143.315308 
L 236.987395 143.315308 
L 243.381589 143.315308 
L 249.775783 143.315308 
L 256.169977 143.315308 
L 262.564171 143.315308 
L 268.958365 143.315308 
L 275.352559 143.315308 
L 281.746753 143.315308 
L 288.140947 143.315308 
L 294.535141 143.315308 
L 300.929335 143.315308 
L 307.323529 143.315308 
L 313.717723 143.315308 
L 320.111917 143.315308 
L 326.506112 143.315308 
L 332.900306 143.315308 
L 339.2945 143.315308 
L 345.688694 143.315308 
L 352.082888 143.315308 
L 358.477082 143.315308 
L 364.871276 143.315308 
L 371.26547 143.315308 
L 377.659664 143.315308 
L 384.053858 143.315308 
L 390.448052 143.315308 
L 396.842246 143.315308 
L 403.23644 153.211314 
L 409.630634 153.211314 
L 416.024828 153.211314 
L 422.419022 153.211314 
L 428.813216 153.211314 
L 435.20741 153.211314 
L 441.601604 153.211314 
L 447.995798 153.211314 
L 454.389992 153.211314 
L 460.784186 153.211314 
L 467.17838 153.211314 
L 473.572574 311.547416 
L 479.966769 311.547416 
L 486.360963 311.547416 
L 492.755157 311.547416 
L 499.149351 311.547416 
L 505.543545 311.547416 
L 511.937739 311.547416 
L 518.331933 311.547416 
L 524.726127 311.547416 
L 531.120321 311.547416 
L 537.514515 311.547416 
L 543.908709 311.547416 
L 550.302903 311.547416 
L 556.697097 311.547416 
L 563.091291 311.547416 
L 569.485485 311.547416 
L 575.879679 311.547416 
L 582.273873 311.547416 
L 588.668067 311.547416 
L 595.062261 311.547416 
L 601.456455 311.547416 
L 607.850649 311.547416 
L 614.244843 306.599413 
L 620.639037 306.599413 
L 627.033231 306.599413 
L 633.427426 306.599413 
L 639.82162 306.599413 
L 646.215814 306.599413 
L 652.610008 306.599413 
L 659.004202 306.599413 
L 665.398396 306.599413 
L 671.79259 306.599413 
L 678.186784 306.599413 
L 684.580978 306.599413 
L 690.975172 306.599413 
L 697.369366 306.599413 
L 703.76356 306.599413 
L 710.157754 306.599413 
L 716.551948 306.599413 
L 722.946142 306.599413 
L 729.340336 306.599413 
L 735.73453 306.599413 
L 742.128724 306.599413 
L 748.522918 306.599413 
L 754.917112 306.599413 
L 761.311306 306.599413 
L 767.7055 306.599413 
L 774.099694 306.599413 
L 780.493888 306.599413 
L 786.888083 306.599413 
L 793.282277 306.599413 
L 799.676471 306.599413 
L 806.070665 306.599413 
L 812.464859 306.599413 
L 818.859053 306.599413 
L 825.253247 306.599413 
L 831.647441 291.755403 
L 838.041635 291.755403 
L 844.435829 291.755403 
L 850.830023 306.599413 
L 857.224217 306.599413 
L 863.618411 306.599413 
L 870.012605 306.599413 
L 876.406799 306.599413 
L 882.800993 306.599413 
L 889.195187 306.599413 
L 895.589381 306.599413 
L 901.983575 306.599413 
L 908.377769 306.599413 
L 914.771963 306.599413 
L 921.166157 306.599413 
L 927.560351 306.599413 
L 933.954545 306.599413 
" clip-path="url(#pf728c42276)" style="fill: none; stroke: #2ca02c; stroke-width: 1.5; stroke-linecap: square"/>
   </g>
   <g id="patch_3">
    <path d="M 135 504 
L 135 69.12 
" style="fill: none; stroke: #000000; stroke-width: 0.8; stroke-linejoin: miter; stroke-linecap: square"/>
   </g>
   <g id="patch_4">
    <path d="M 972 504 
L 972 69.12 
" style="fill: none; stroke: #000000; stroke-width: 0.8; stroke-linejoin: miter; stroke-linecap: square"/>
   </g>
   <g id="patch_5">
    <path d="M 135 504 
L 972 504 
" style="fill: none; stroke: #000000; stroke-width: 0.8; stroke-linejoin: miter; stroke-linecap: square"/>
   </g>
   <g id="patch_6">
    <path d="M 135 69.12 
L 972 69.12 
" style="fill: none; stroke: #000000; stroke-width: 0.8; stroke-linejoin: miter; stroke-linecap: square"/>
   </g>
   <g id="legend_1">
    <g id="patch_7">
     <path d="M 846.6875 121.710625 
L 965 121.710625 
Q 967 121.710625 967 119.710625 
L 967 76.12 
Q 967 74.12 965 74.12 
L 846.6875 74.12 
Q 844.6875 74.12 844.6875 76.12 
L 844.6875 119.710625 
Q 844.6875 121.710625 846.6875 121.710625 
z
" style="fill: #ffffff; opacity: 0.8; stroke: #cccccc; stroke-linejoin: miter"/>
    </g>
    <g id="line2d_20">
     <path d="M 848.6875 82.218437 
L 858.6875 82.218437 
L 868.6875 82.218437 
" style="fill: none; stroke: #1f77b4; stroke-width: 1.5; stroke-linecap: square"/>
    </g>
    <g id="text_19">
     <!-- eta -->
     <g transform="translate(876.6875 85.718437)scale(0.1 -0.1)">
      <use xlink:href="#DejaVuSans-65"/>
      <use xlink:href="#DejaVuSans-74" x="61.523438"/>
      <use xlink:href="#DejaVuSans-61" x="100.732422"/>
     </g>
    </g>
    <g id="line2d_21">
     <path d="M 848.6875 96.896563 
L 858.6875 96.896563 
L 868.6875 96.896563 
" style="fill: none; stroke: #ff7f0e; stroke-width: 1.5; stroke-linecap: square"/>
    </g>
    <g id="text_20">
     <!-- max_depth -->
     <g transform="translate(876.6875 100.396563)scale(0.1 -0.1)">
      <defs>
       <path id="DejaVuSans-6d" d="M 3328 2828 
Q 3544 3216 3844 3400 
Q 4144 3584 4550 3584 
Q 5097 3584 5394 3201 
Q 5691 2819 5691 2113 
L 5691 0 
L 5113 0 
L 5113 2094 
Q 5113 2597 4934 2840 
Q 4756 3084 4391 3084 
Q 3944 3084 3684 2787 
Q 3425 2491 3425 1978 
L 3425 0 
L 2847 0 
L 2847 2094 
Q 2847 2600 2669 2842 
Q 2491 3084 2119 3084 
Q 1678 3084 1418 2786 
Q 1159 2488 1159 1978 
L 1159 0 
L 581 0 
L 581 3500 
L 1159 3500 
L 1159 2956 
Q 1356 3278 1631 3431 
Q 1906 3584 2284 3584 
Q 2666 3584 2933 3390 
Q 3200 3197 3328 2828 
z
" transform="scale(0.015625)"/>
       <path id="DejaVuSans-78" d="M 3513 3500 
L 2247 1797 
L 3578 0 
L 2900 0 
L 1881 1375 
L 863 0 
L 184 0 
L 1544 1831 
L 300 3500 
L 978 3500 
L 1906 2253 
L 2834 3500 
L 3513 3500 
z
" transform="scale(0.015625)"/>
       <path id="DejaVuSans-5f" d="M 3263 -1063 
L 3263 -1509 
L -63 -1509 
L -63 -1063 
L 3263 -1063 
z
" transform="scale(0.015625)"/>
       <path id="DejaVuSans-64" d="M 2906 2969 
L 2906 4863 
L 3481 4863 
L 3481 0 
L 2906 0 
L 2906 525 
Q 2725 213 2448 61 
Q 2172 -91 1784 -91 
Q 1150 -91 751 415 
Q 353 922 353 1747 
Q 353 2572 751 3078 
Q 1150 3584 1784 3584 
Q 2172 3584 2448 3432 
Q 2725 3281 2906 2969 
z
M 947 1747 
Q 947 1113 1208 752 
Q 1469 391 1925 391 
Q 2381 391 2643 752 
Q 2906 1113 2906 1747 
Q 2906 2381 2643 2742 
Q 2381 3103 1925 3103 
Q 1469 3103 1208 2742 
Q 947 2381 947 1747 
z
" transform="scale(0.015625)"/>
       <path id="DejaVuSans-70" d="M 1159 525 
L 1159 -1331 
L 581 -1331 
L 581 3500 
L 1159 3500 
L 1159 2969 
Q 1341 3281 1617 3432 
Q 1894 3584 2278 3584 
Q 2916 3584 3314 3078 
Q 3713 2572 3713 1747 
Q 3713 922 3314 415 
Q 2916 -91 2278 -91 
Q 1894 -91 1617 61 
Q 1341 213 1159 525 
z
M 3116 1747 
Q 3116 2381 2855 2742 
Q 2594 3103 2138 3103 
Q 1681 3103 1420 2742 
Q 1159 2381 1159 1747 
Q 1159 1113 1420 752 
Q 1681 391 2138 391 
Q 2594 391 2855 752 
Q 3116 1113 3116 1747 
z
" transform="scale(0.015625)"/>
       <path id="DejaVuSans-68" d="M 3513 2113 
L 3513 0 
L 2938 0 
L 2938 2094 
Q 2938 2591 2744 2837 
Q 2550 3084 2163 3084 
Q 1697 3084 1428 2787 
Q 1159 2491 1159 1978 
L 1159 0 
L 581 0 
L 581 4863 
L 1159 4863 
L 1159 2956 
Q 1366 3272 1645 3428 
Q 1925 3584 2291 3584 
Q 2894 3584 3203 3211 
Q 3513 2838 3513 2113 
z
" transform="scale(0.015625)"/>
      </defs>
      <use xlink:href="#DejaVuSans-6d"/>
      <use xlink:href="#DejaVuSans-61" x="97.412109"/>
      <use xlink:href="#DejaVuSans-78" x="158.691406"/>
      <use xlink:href="#DejaVuSans-5f" x="217.871094"/>
      <use xlink:href="#DejaVuSans-64" x="267.871094"/>
      <use xlink:href="#DejaVuSans-65" x="331.347656"/>
      <use xlink:href="#DejaVuSans-70" x="392.871094"/>
      <use xlink:href="#DejaVuSans-74" x="456.347656"/>
      <use xlink:href="#DejaVuSans-68" x="495.556641"/>
     </g>
    </g>
    <g id="line2d_22">
     <path d="M 848.6875 111.852812 
L 858.6875 111.852812 
L 868.6875 111.852812 
" style="fill: none; stroke: #2ca02c; stroke-width: 1.5; stroke-linecap: square"/>
    </g>
    <g id="text_21">
     <!-- min_child_weight -->
     <g transform="translate(876.6875 115.352812)scale(0.1 -0.1)">
      <defs>
       <path id="DejaVuSans-6c" d="M 603 4863 
L 1178 4863 
L 1178 0 
L 603 0 
L 603 4863 
z
" transform="scale(0.015625)"/>
       <path id="DejaVuSans-77" d="M 269 3500 
L 844 3500 
L 1563 769 
L 2278 3500 
L 2956 3500 
L 3675 769 
L 4391 3500 
L 4966 3500 
L 4050 0 
L 3372 0 
L 2619 2869 
L 1863 0 
L 1184 0 
L 269 3500 
z
" transform="scale(0.015625)"/>
       <path id="DejaVuSans-67" d="M 2906 1791 
Q 2906 2416 2648 2759 
Q 2391 3103 1925 3103 
Q 1463 3103 1205 2759 
Q 947 2416 947 1791 
Q 947 1169 1205 825 
Q 1463 481 1925 481 
Q 2391 481 2648 825 
Q 2906 1169 2906 1791 
z
M 3481 434 
Q 3481 -459 3084 -895 
Q 2688 -1331 1869 -1331 
Q 1566 -1331 1297 -1286 
Q 1028 -1241 775 -1147 
L 775 -588 
Q 1028 -725 1275 -790 
Q 1522 -856 1778 -856 
Q 2344 -856 2625 -561 
Q 2906 -266 2906 331 
L 2906 616 
Q 2728 306 2450 153 
Q 2172 0 1784 0 
Q 1141 0 747 490 
Q 353 981 353 1791 
Q 353 2603 747 3093 
Q 1141 3584 1784 3584 
Q 2172 3584 2450 3431 
Q 2728 3278 2906 2969 
L 2906 3500 
L 3481 3500 
L 3481 434 
z
" transform="scale(0.015625)"/>
      </defs>
      <use xlink:href="#DejaVuSans-6d"/>
      <use xlink:href="#DejaVuSans-69" x="97.412109"/>
      <use xlink:href="#DejaVuSans-6e" x="125.195312"/>
      <use xlink:href="#DejaVuSans-5f" x="188.574219"/>
      <use xlink:href="#DejaVuSans-63" x="238.574219"/>
      <use xlink:href="#DejaVuSans-68" x="293.554688"/>
      <use xlink:href="#DejaVuSans-69" x="356.933594"/>
      <use xlink:href="#DejaVuSans-6c" x="384.716797"/>
      <use xlink:href="#DejaVuSans-64" x="412.5"/>
      <use xlink:href="#DejaVuSans-5f" x="475.976562"/>
      <use xlink:href="#DejaVuSans-77" x="525.976562"/>
      <use xlink:href="#DejaVuSans-65" x="607.763672"/>
      <use xlink:href="#DejaVuSans-69" x="669.287109"/>
      <use xlink:href="#DejaVuSans-67" x="697.070312"/>
      <use xlink:href="#DejaVuSans-68" x="760.546875"/>
      <use xlink:href="#DejaVuSans-74" x="823.925781"/>
     </g>
    </g>
   </g>
  </g>
 </g>
 <defs>
  <clipPath id="pf728c42276">
   <rect x="135" y="69.12" width="837" height="434.88"/>
  </clipPath>
 </defs>
</svg>
