<?xml version="1.0" encoding="utf-8" standalone="no"?>
<!DOCTYPE svg PUBLIC "-//W3C//DTD SVG 1.1//EN"
  "http://www.w3.org/Graphics/SVG/1.1/DTD/svg11.dtd">
<svg xmlns:xlink="http://www.w3.org/1999/xlink" width="1080pt" height="576pt" viewBox="0 0 1080 576" xmlns="http://www.w3.org/2000/svg" version="1.1">
 <metadata>
  <rdf:RDF xmlns:dc="http://purl.org/dc/elements/1.1/" xmlns:cc="http://creativecommons.org/ns#" xmlns:rdf="http://www.w3.org/1999/02/22-rdf-syntax-ns#">
   <cc:Work>
    <dc:type rdf:resource="http://purl.org/dc/dcmitype/StillImage"/>
    <dc:date>2022-05-15T22:19:24.909021</dc:date>
    <dc:format>image/svg+xml</dc:format>
    <dc:creator>
     <cc:Agent>
      <dc:title>Matplotlib v3.5.1, https://matplotlib.org/</dc:title>
     </cc:Agent>
    </dc:creator>
   </cc:Work>
  </rdf:RDF>
 </metadata>
 <defs>
  <style type="text/css">*{stroke-linejoin: round; stroke-linecap: butt}</style>
 </defs>
 <g id="figure_1">
  <g id="patch_1">
   <path d="M 0 576 
L 1080 576 
L 1080 0 
L 0 0 
z
" style="fill: #ffffff"/>
  </g>
  <g id="axes_1">
   <g id="patch_2">
    <path d="M 135 504 
L 972 504 
L 972 69.12 
L 135 69.12 
z
" style="fill: #ffffff"/>
   </g>
   <g id="matplotlib.axis_1">
    <g id="xtick_1">
     <g id="line2d_1">
      <path d="M 173.045455 504 
L 173.045455 69.12 
" clip-path="url(#pe7b69b1c45)" style="fill: none; stroke: #cccccc; stroke-linecap: round"/>
     </g>
     <g id="text_1">
      <!-- 0 -->
      <g style="fill: #262626" transform="translate(169.54608 521.858281)scale(0.11 -0.11)">
       <defs>
        <path id="DejaVuSans-30" d="M 2034 4250 
Q 1547 4250 1301 3770 
Q 1056 3291 1056 2328 
Q 1056 1369 1301 889 
Q 1547 409 2034 409 
Q 2525 409 2770 889 
Q 3016 1369 3016 2328 
Q 3016 3291 2770 3770 
Q 2525 4250 2034 4250 
z
M 2034 4750 
Q 2819 4750 3233 4129 
Q 3647 3509 3647 2328 
Q 3647 1150 3233 529 
Q 2819 -91 2034 -91 
Q 1250 -91 836 529 
Q 422 1150 422 2328 
Q 422 3509 836 4129 
Q 1250 4750 2034 4750 
z
" transform="scale(0.015625)"/>
       </defs>
       <use xlink:href="#DejaVuSans-30"/>
      </g>
     </g>
    </g>
    <g id="xtick_2">
     <g id="line2d_2">
      <path d="M 300.929335 504 
L 300.929335 69.12 
" clip-path="url(#pe7b69b1c45)" style="fill: none; stroke: #cccccc; stroke-linecap: round"/>
     </g>
     <g id="text_2">
      <!-- 20 -->
      <g style="fill: #262626" transform="translate(293.930585 521.858281)scale(0.11 -0.11)">
       <defs>
        <path id="DejaVuSans-32" d="M 1228 531 
L 3431 531 
L 3431 0 
L 469 0 
L 469 531 
Q 828 903 1448 1529 
Q 2069 2156 2228 2338 
Q 2531 2678 2651 2914 
Q 2772 3150 2772 3378 
Q 2772 3750 2511 3984 
Q 2250 4219 1831 4219 
Q 1534 4219 1204 4116 
Q 875 4013 500 3803 
L 500 4441 
Q 881 4594 1212 4672 
Q 1544 4750 1819 4750 
Q 2544 4750 2975 4387 
Q 3406 4025 3406 3419 
Q 3406 3131 3298 2873 
Q 3191 2616 2906 2266 
Q 2828 2175 2409 1742 
Q 1991 1309 1228 531 
z
" transform="scale(0.015625)"/>
       </defs>
       <use xlink:href="#DejaVuSans-32"/>
       <use xlink:href="#DejaVuSans-30" x="63.623047"/>
      </g>
     </g>
    </g>
    <g id="xtick_3">
     <g id="line2d_3">
      <path d="M 428.813216 504 
L 428.813216 69.12 
" clip-path="url(#pe7b69b1c45)" style="fill: none; stroke: #cccccc; stroke-linecap: round"/>
     </g>
     <g id="text_3">
      <!-- 40 -->
      <g style="fill: #262626" transform="translate(421.814466 521.858281)scale(0.11 -0.11)">
       <defs>
        <path id="DejaVuSans-34" d="M 2419 4116 
L 825 1625 
L 2419 1625 
L 2419 4116 
z
M 2253 4666 
L 3047 4666 
L 3047 1625 
L 3713 1625 
L 3713 1100 
L 3047 1100 
L 3047 0 
L 2419 0 
L 2419 1100 
L 313 1100 
L 313 1709 
L 2253 4666 
z
" transform="scale(0.015625)"/>
       </defs>
       <use xlink:href="#DejaVuSans-34"/>
       <use xlink:href="#DejaVuSans-30" x="63.623047"/>
      </g>
     </g>
    </g>
    <g id="xtick_4">
     <g id="line2d_4">
      <path d="M 556.697097 504 
L 556.697097 69.12 
" clip-path="url(#pe7b69b1c45)" style="fill: none; stroke: #cccccc; stroke-linecap: round"/>
     </g>
     <g id="text_4">
      <!-- 60 -->
      <g style="fill: #262626" transform="translate(549.698347 521.858281)scale(0.11 -0.11)">
       <defs>
        <path id="DejaVuSans-36" d="M 2113 2584 
Q 1688 2584 1439 2293 
Q 1191 2003 1191 1497 
Q 1191 994 1439 701 
Q 1688 409 2113 409 
Q 2538 409 2786 701 
Q 3034 994 3034 1497 
Q 3034 2003 2786 2293 
Q 2538 2584 2113 2584 
z
M 3366 4563 
L 3366 3988 
Q 3128 4100 2886 4159 
Q 2644 4219 2406 4219 
Q 1781 4219 1451 3797 
Q 1122 3375 1075 2522 
Q 1259 2794 1537 2939 
Q 1816 3084 2150 3084 
Q 2853 3084 3261 2657 
Q 3669 2231 3669 1497 
Q 3669 778 3244 343 
Q 2819 -91 2113 -91 
Q 1303 -91 875 529 
Q 447 1150 447 2328 
Q 447 3434 972 4092 
Q 1497 4750 2381 4750 
Q 2619 4750 2861 4703 
Q 3103 4656 3366 4563 
z
" transform="scale(0.015625)"/>
       </defs>
       <use xlink:href="#DejaVuSans-36"/>
       <use xlink:href="#DejaVuSans-30" x="63.623047"/>
      </g>
     </g>
    </g>
    <g id="xtick_5">
     <g id="line2d_5">
      <path d="M 684.580978 504 
L 684.580978 69.12 
" clip-path="url(#pe7b69b1c45)" style="fill: none; stroke: #cccccc; stroke-linecap: round"/>
     </g>
     <g id="text_5">
      <!-- 80 -->
      <g style="fill: #262626" transform="translate(677.582228 521.858281)scale(0.11 -0.11)">
       <defs>
        <path id="DejaVuSans-38" d="M 2034 2216 
Q 1584 2216 1326 1975 
Q 1069 1734 1069 1313 
Q 1069 891 1326 650 
Q 1584 409 2034 409 
Q 2484 409 2743 651 
Q 3003 894 3003 1313 
Q 3003 1734 2745 1975 
Q 2488 2216 2034 2216 
z
M 1403 2484 
Q 997 2584 770 2862 
Q 544 3141 544 3541 
Q 544 4100 942 4425 
Q 1341 4750 2034 4750 
Q 2731 4750 3128 4425 
Q 3525 4100 3525 3541 
Q 3525 3141 3298 2862 
Q 3072 2584 2669 2484 
Q 3125 2378 3379 2068 
Q 3634 1759 3634 1313 
Q 3634 634 3220 271 
Q 2806 -91 2034 -91 
Q 1263 -91 848 271 
Q 434 634 434 1313 
Q 434 1759 690 2068 
Q 947 2378 1403 2484 
z
M 1172 3481 
Q 1172 3119 1398 2916 
Q 1625 2713 2034 2713 
Q 2441 2713 2670 2916 
Q 2900 3119 2900 3481 
Q 2900 3844 2670 4047 
Q 2441 4250 2034 4250 
Q 1625 4250 1398 4047 
Q 1172 3844 1172 3481 
z
" transform="scale(0.015625)"/>
       </defs>
       <use xlink:href="#DejaVuSans-38"/>
       <use xlink:href="#DejaVuSans-30" x="63.623047"/>
      </g>
     </g>
    </g>
    <g id="xtick_6">
     <g id="line2d_6">
      <path d="M 812.464859 504 
L 812.464859 69.12 
" clip-path="url(#pe7b69b1c45)" style="fill: none; stroke: #cccccc; stroke-linecap: round"/>
     </g>
     <g id="text_6">
      <!-- 100 -->
      <g style="fill: #262626" transform="translate(801.966734 521.858281)scale(0.11 -0.11)">
       <defs>
        <path id="DejaVuSans-31" d="M 794 531 
L 1825 531 
L 1825 4091 
L 703 3866 
L 703 4441 
L 1819 4666 
L 2450 4666 
L 2450 531 
L 3481 531 
L 3481 0 
L 794 0 
L 794 531 
z
" transform="scale(0.015625)"/>
       </defs>
       <use xlink:href="#DejaVuSans-31"/>
       <use xlink:href="#DejaVuSans-30" x="63.623047"/>
       <use xlink:href="#DejaVuSans-30" x="127.246094"/>
      </g>
     </g>
    </g>
    <g id="xtick_7">
     <g id="line2d_7">
      <path d="M 940.348739 504 
L 940.348739 69.12 
" clip-path="url(#pe7b69b1c45)" style="fill: none; stroke: #cccccc; stroke-linecap: round"/>
     </g>
     <g id="text_7">
      <!-- 120 -->
      <g style="fill: #262626" transform="translate(929.850614 521.858281)scale(0.11 -0.11)">
       <use xlink:href="#DejaVuSans-31"/>
       <use xlink:href="#DejaVuSans-32" x="63.623047"/>
       <use xlink:href="#DejaVuSans-30" x="127.246094"/>
      </g>
     </g>
    </g>
    <g id="text_8">
     <!-- Iterations -->
     <g style="fill: #262626" transform="translate(524.924062 537.264063)scale(0.12 -0.12)">
      <defs>
       <path id="DejaVuSans-49" d="M 628 4666 
L 1259 4666 
L 1259 0 
L 628 0 
L 628 4666 
z
" transform="scale(0.015625)"/>
       <path id="DejaVuSans-74" d="M 1172 4494 
L 1172 3500 
L 2356 3500 
L 2356 3053 
L 1172 3053 
L 1172 1153 
Q 1172 725 1289 603 
Q 1406 481 1766 481 
L 2356 481 
L 2356 0 
L 1766 0 
Q 1100 0 847 248 
Q 594 497 594 1153 
L 594 3053 
L 172 3053 
L 172 3500 
L 594 3500 
L 594 4494 
L 1172 4494 
z
" transform="scale(0.015625)"/>
       <path id="DejaVuSans-65" d="M 3597 1894 
L 3597 1613 
L 953 1613 
Q 991 1019 1311 708 
Q 1631 397 2203 397 
Q 2534 397 2845 478 
Q 3156 559 3463 722 
L 3463 178 
Q 3153 47 2828 -22 
Q 2503 -91 2169 -91 
Q 1331 -91 842 396 
Q 353 884 353 1716 
Q 353 2575 817 3079 
Q 1281 3584 2069 3584 
Q 2775 3584 3186 3129 
Q 3597 2675 3597 1894 
z
M 3022 2063 
Q 3016 2534 2758 2815 
Q 2500 3097 2075 3097 
Q 1594 3097 1305 2825 
Q 1016 2553 972 2059 
L 3022 2063 
z
" transform="scale(0.015625)"/>
       <path id="DejaVuSans-72" d="M 2631 2963 
Q 2534 3019 2420 3045 
Q 2306 3072 2169 3072 
Q 1681 3072 1420 2755 
Q 1159 2438 1159 1844 
L 1159 0 
L 581 0 
L 581 3500 
L 1159 3500 
L 1159 2956 
Q 1341 3275 1631 3429 
Q 1922 3584 2338 3584 
Q 2397 3584 2469 3576 
Q 2541 3569 2628 3553 
L 2631 2963 
z
" transform="scale(0.015625)"/>
       <path id="DejaVuSans-61" d="M 2194 1759 
Q 1497 1759 1228 1600 
Q 959 1441 959 1056 
Q 959 750 1161 570 
Q 1363 391 1709 391 
Q 2188 391 2477 730 
Q 2766 1069 2766 1631 
L 2766 1759 
L 2194 1759 
z
M 3341 1997 
L 3341 0 
L 2766 0 
L 2766 531 
Q 2569 213 2275 61 
Q 1981 -91 1556 -91 
Q 1019 -91 701 211 
Q 384 513 384 1019 
Q 384 1609 779 1909 
Q 1175 2209 1959 2209 
L 2766 2209 
L 2766 2266 
Q 2766 2663 2505 2880 
Q 2244 3097 1772 3097 
Q 1472 3097 1187 3025 
Q 903 2953 641 2809 
L 641 3341 
Q 956 3463 1253 3523 
Q 1550 3584 1831 3584 
Q 2591 3584 2966 3190 
Q 3341 2797 3341 1997 
z
" transform="scale(0.015625)"/>
       <path id="DejaVuSans-69" d="M 603 3500 
L 1178 3500 
L 1178 0 
L 603 0 
L 603 3500 
z
M 603 4863 
L 1178 4863 
L 1178 4134 
L 603 4134 
L 603 4863 
z
" transform="scale(0.015625)"/>
       <path id="DejaVuSans-6f" d="M 1959 3097 
Q 1497 3097 1228 2736 
Q 959 2375 959 1747 
Q 959 1119 1226 758 
Q 1494 397 1959 397 
Q 2419 397 2687 759 
Q 2956 1122 2956 1747 
Q 2956 2369 2687 2733 
Q 2419 3097 1959 3097 
z
M 1959 3584 
Q 2709 3584 3137 3096 
Q 3566 2609 3566 1747 
Q 3566 888 3137 398 
Q 2709 -91 1959 -91 
Q 1206 -91 779 398 
Q 353 888 353 1747 
Q 353 2609 779 3096 
Q 1206 3584 1959 3584 
z
" transform="scale(0.015625)"/>
       <path id="DejaVuSans-6e" d="M 3513 2113 
L 3513 0 
L 2938 0 
L 2938 2094 
Q 2938 2591 2744 2837 
Q 2550 3084 2163 3084 
Q 1697 3084 1428 2787 
Q 1159 2491 1159 1978 
L 1159 0 
L 581 0 
L 581 3500 
L 1159 3500 
L 1159 2956 
Q 1366 3272 1645 3428 
Q 1925 3584 2291 3584 
Q 2894 3584 3203 3211 
Q 3513 2838 3513 2113 
z
" transform="scale(0.015625)"/>
       <path id="DejaVuSans-73" d="M 2834 3397 
L 2834 2853 
Q 2591 2978 2328 3040 
Q 2066 3103 1784 3103 
Q 1356 3103 1142 2972 
Q 928 2841 928 2578 
Q 928 2378 1081 2264 
Q 1234 2150 1697 2047 
L 1894 2003 
Q 2506 1872 2764 1633 
Q 3022 1394 3022 966 
Q 3022 478 2636 193 
Q 2250 -91 1575 -91 
Q 1294 -91 989 -36 
Q 684 19 347 128 
L 347 722 
Q 666 556 975 473 
Q 1284 391 1588 391 
Q 1994 391 2212 530 
Q 2431 669 2431 922 
Q 2431 1156 2273 1281 
Q 2116 1406 1581 1522 
L 1381 1569 
Q 847 1681 609 1914 
Q 372 2147 372 2553 
Q 372 3047 722 3315 
Q 1072 3584 1716 3584 
Q 2034 3584 2315 3537 
Q 2597 3491 2834 3397 
z
" transform="scale(0.015625)"/>
      </defs>
      <use xlink:href="#DejaVuSans-49"/>
      <use xlink:href="#DejaVuSans-74" x="29.492188"/>
      <use xlink:href="#DejaVuSans-65" x="68.701172"/>
      <use xlink:href="#DejaVuSans-72" x="130.224609"/>
      <use xlink:href="#DejaVuSans-61" x="171.337891"/>
      <use xlink:href="#DejaVuSans-74" x="232.617188"/>
      <use xlink:href="#DejaVuSans-69" x="271.826172"/>
      <use xlink:href="#DejaVuSans-6f" x="299.609375"/>
      <use xlink:href="#DejaVuSans-6e" x="360.791016"/>
      <use xlink:href="#DejaVuSans-73" x="424.169922"/>
     </g>
    </g>
   </g>
   <g id="matplotlib.axis_2">
    <g id="ytick_1">
     <g id="line2d_8">
      <path d="M 135 484.456213 
L 972 484.456213 
" clip-path="url(#pe7b69b1c45)" style="fill: none; stroke: #cccccc; stroke-linecap: round"/>
     </g>
     <g id="text_9">
      <!-- 0.0 -->
      <g style="fill: #262626" transform="translate(108.006563 488.635353)scale(0.11 -0.11)">
       <defs>
        <path id="DejaVuSans-2e" d="M 684 794 
L 1344 794 
L 1344 0 
L 684 0 
L 684 794 
z
" transform="scale(0.015625)"/>
       </defs>
       <use xlink:href="#DejaVuSans-30"/>
       <use xlink:href="#DejaVuSans-2e" x="63.623047"/>
       <use xlink:href="#DejaVuSans-30" x="95.410156"/>
      </g>
     </g>
    </g>
    <g id="ytick_2">
     <g id="line2d_9">
      <path d="M 135 428.584893 
L 972 428.584893 
" clip-path="url(#pe7b69b1c45)" style="fill: none; stroke: #cccccc; stroke-linecap: round"/>
     </g>
     <g id="text_10">
      <!-- 2.5 -->
      <g style="fill: #262626" transform="translate(108.006563 432.764034)scale(0.11 -0.11)">
       <defs>
        <path id="DejaVuSans-35" d="M 691 4666 
L 3169 4666 
L 3169 4134 
L 1269 4134 
L 1269 2991 
Q 1406 3038 1543 3061 
Q 1681 3084 1819 3084 
Q 2600 3084 3056 2656 
Q 3513 2228 3513 1497 
Q 3513 744 3044 326 
Q 2575 -91 1722 -91 
Q 1428 -91 1123 -41 
Q 819 9 494 109 
L 494 744 
Q 775 591 1075 516 
Q 1375 441 1709 441 
Q 2250 441 2565 725 
Q 2881 1009 2881 1497 
Q 2881 1984 2565 2268 
Q 2250 2553 1709 2553 
Q 1456 2553 1204 2497 
Q 953 2441 691 2322 
L 691 4666 
z
" transform="scale(0.015625)"/>
       </defs>
       <use xlink:href="#DejaVuSans-32"/>
       <use xlink:href="#DejaVuSans-2e" x="63.623047"/>
       <use xlink:href="#DejaVuSans-35" x="95.410156"/>
      </g>
     </g>
    </g>
    <g id="ytick_3">
     <g id="line2d_10">
      <path d="M 135 372.713574 
L 972 372.713574 
" clip-path="url(#pe7b69b1c45)" style="fill: none; stroke: #cccccc; stroke-linecap: round"/>
     </g>
     <g id="text_11">
      <!-- 5.0 -->
      <g style="fill: #262626" transform="translate(108.006563 376.892715)scale(0.11 -0.11)">
       <use xlink:href="#DejaVuSans-35"/>
       <use xlink:href="#DejaVuSans-2e" x="63.623047"/>
       <use xlink:href="#DejaVuSans-30" x="95.410156"/>
      </g>
     </g>
    </g>
    <g id="ytick_4">
     <g id="line2d_11">
      <path d="M 135 316.842255 
L 972 316.842255 
" clip-path="url(#pe7b69b1c45)" style="fill: none; stroke: #cccccc; stroke-linecap: round"/>
     </g>
     <g id="text_12">
      <!-- 7.5 -->
      <g style="fill: #262626" transform="translate(108.006563 321.021396)scale(0.11 -0.11)">
       <defs>
        <path id="DejaVuSans-37" d="M 525 4666 
L 3525 4666 
L 3525 4397 
L 1831 0 
L 1172 0 
L 2766 4134 
L 525 4134 
L 525 4666 
z
" transform="scale(0.015625)"/>
       </defs>
       <use xlink:href="#DejaVuSans-37"/>
       <use xlink:href="#DejaVuSans-2e" x="63.623047"/>
       <use xlink:href="#DejaVuSans-35" x="95.410156"/>
      </g>
     </g>
    </g>
    <g id="ytick_5">
     <g id="line2d_12">
      <path d="M 135 260.970936 
L 972 260.970936 
" clip-path="url(#pe7b69b1c45)" style="fill: none; stroke: #cccccc; stroke-linecap: round"/>
     </g>
     <g id="text_13">
      <!-- 10.0 -->
      <g style="fill: #262626" transform="translate(101.007812 265.150076)scale(0.11 -0.11)">
       <use xlink:href="#DejaVuSans-31"/>
       <use xlink:href="#DejaVuSans-30" x="63.623047"/>
       <use xlink:href="#DejaVuSans-2e" x="127.246094"/>
       <use xlink:href="#DejaVuSans-30" x="159.033203"/>
      </g>
     </g>
    </g>
    <g id="ytick_6">
     <g id="line2d_13">
      <path d="M 135 205.099617 
L 972 205.099617 
" clip-path="url(#pe7b69b1c45)" style="fill: none; stroke: #cccccc; stroke-linecap: round"/>
     </g>
     <g id="text_14">
      <!-- 12.5 -->
      <g style="fill: #262626" transform="translate(101.007812 209.278757)scale(0.11 -0.11)">
       <use xlink:href="#DejaVuSans-31"/>
       <use xlink:href="#DejaVuSans-32" x="63.623047"/>
       <use xlink:href="#DejaVuSans-2e" x="127.246094"/>
       <use xlink:href="#DejaVuSans-35" x="159.033203"/>
      </g>
     </g>
    </g>
    <g id="ytick_7">
     <g id="line2d_14">
      <path d="M 135 149.228297 
L 972 149.228297 
" clip-path="url(#pe7b69b1c45)" style="fill: none; stroke: #cccccc; stroke-linecap: round"/>
     </g>
     <g id="text_15">
      <!-- 15.0 -->
      <g style="fill: #262626" transform="translate(101.007812 153.407438)scale(0.11 -0.11)">
       <use xlink:href="#DejaVuSans-31"/>
       <use xlink:href="#DejaVuSans-35" x="63.623047"/>
       <use xlink:href="#DejaVuSans-2e" x="127.246094"/>
       <use xlink:href="#DejaVuSans-30" x="159.033203"/>
      </g>
     </g>
    </g>
    <g id="ytick_8">
     <g id="line2d_15">
      <path d="M 135 93.356978 
L 972 93.356978 
" clip-path="url(#pe7b69b1c45)" style="fill: none; stroke: #cccccc; stroke-linecap: round"/>
     </g>
     <g id="text_16">
      <!-- 17.5 -->
      <g style="fill: #262626" transform="translate(101.007812 97.536119)scale(0.11 -0.11)">
       <use xlink:href="#DejaVuSans-31"/>
       <use xlink:href="#DejaVuSans-37" x="63.623047"/>
       <use xlink:href="#DejaVuSans-2e" x="127.246094"/>
       <use xlink:href="#DejaVuSans-35" x="159.033203"/>
      </g>
     </g>
    </g>
    <g id="text_17">
     <!-- Factor -->
     <g style="fill: #262626" transform="translate(94.512187 304.929375)rotate(-90)scale(0.12 -0.12)">
      <defs>
       <path id="DejaVuSans-46" d="M 628 4666 
L 3309 4666 
L 3309 4134 
L 1259 4134 
L 1259 2759 
L 3109 2759 
L 3109 2228 
L 1259 2228 
L 1259 0 
L 628 0 
L 628 4666 
z
" transform="scale(0.015625)"/>
       <path id="DejaVuSans-63" d="M 3122 3366 
L 3122 2828 
Q 2878 2963 2633 3030 
Q 2388 3097 2138 3097 
Q 1578 3097 1268 2742 
Q 959 2388 959 1747 
Q 959 1106 1268 751 
Q 1578 397 2138 397 
Q 2388 397 2633 464 
Q 2878 531 3122 666 
L 3122 134 
Q 2881 22 2623 -34 
Q 2366 -91 2075 -91 
Q 1284 -91 818 406 
Q 353 903 353 1747 
Q 353 2603 823 3093 
Q 1294 3584 2113 3584 
Q 2378 3584 2631 3529 
Q 2884 3475 3122 3366 
z
" transform="scale(0.015625)"/>
      </defs>
      <use xlink:href="#DejaVuSans-46"/>
      <use xlink:href="#DejaVuSans-61" x="48.394531"/>
      <use xlink:href="#DejaVuSans-63" x="109.673828"/>
      <use xlink:href="#DejaVuSans-74" x="164.654297"/>
      <use xlink:href="#DejaVuSans-6f" x="203.863281"/>
      <use xlink:href="#DejaVuSans-72" x="265.044922"/>
     </g>
    </g>
   </g>
   <g id="line2d_16">
    <path d="M 173.045455 469.92967 
L 179.439649 484.232727 
L 185.833843 484.232727 
L 192.228037 484.232727 
L 198.622231 484.232727 
L 205.016425 484.232727 
L 211.410619 484.232727 
L 217.804813 484.232727 
L 224.199007 484.232727 
L 230.593201 484.232727 
L 236.987395 484.232727 
L 243.381589 484.232727 
L 249.775783 484.232727 
L 256.169977 484.232727 
L 262.564171 484.232727 
L 268.958365 484.232727 
L 275.352559 484.232727 
L 281.746753 484.232727 
L 288.140947 484.232727 
L 294.535141 484.232727 
L 300.929335 484.232727 
L 307.323529 484.232727 
L 313.717723 484.232727 
L 320.111917 484.232727 
L 326.506112 484.232727 
L 332.900306 484.232727 
L 339.2945 484.232727 
L 345.688694 484.232727 
L 352.082888 484.232727 
L 358.477082 484.232727 
L 364.871276 484.232727 
L 371.26547 484.232727 
L 377.659664 484.232727 
L 384.053858 484.232727 
L 390.448052 484.232727 
L 396.842246 484.232727 
L 403.23644 484.232727 
L 409.630634 484.232727 
L 416.024828 484.232727 
L 422.419022 484.232727 
L 428.813216 484.232727 
L 435.20741 484.232727 
L 441.601604 484.232727 
L 447.995798 484.232727 
L 454.389992 484.232727 
L 460.784186 484.232727 
L 467.17838 484.232727 
L 473.572574 484.232727 
L 479.966769 484.232727 
L 486.360963 484.232727 
L 492.755157 484.232727 
L 499.149351 484.232727 
L 505.543545 484.232727 
L 511.937739 484.232727 
L 518.331933 484.232727 
L 524.726127 484.232727 
L 531.120321 484.232727 
L 537.514515 484.232727 
L 543.908709 484.232727 
L 550.302903 484.232727 
L 556.697097 484.232727 
L 563.091291 484.232727 
L 569.485485 484.232727 
L 575.879679 484.232727 
L 582.273873 484.232727 
L 588.668067 484.232727 
L 595.062261 484.232727 
L 601.456455 484.232727 
L 607.850649 484.232727 
L 614.244843 484.232727 
L 620.639037 484.232727 
L 627.033231 484.232727 
L 633.427426 484.232727 
L 639.82162 484.232727 
L 646.215814 484.232727 
L 652.610008 484.232727 
L 659.004202 484.232727 
L 665.398396 484.232727 
L 671.79259 484.232727 
L 678.186784 484.232727 
L 684.580978 484.232727 
L 690.975172 484.232727 
L 697.369366 484.232727 
L 703.76356 484.232727 
L 710.157754 484.232727 
L 716.551948 484.232727 
L 722.946142 484.232727 
L 729.340336 484.232727 
L 735.73453 484.232727 
L 742.128724 484.232727 
L 748.522918 484.232727 
L 754.917112 484.232727 
L 761.311306 484.232727 
L 767.7055 484.232727 
L 774.099694 484.232727 
L 780.493888 484.232727 
L 786.888083 484.232727 
L 793.282277 484.232727 
L 799.676471 484.232727 
L 806.070665 484.232727 
L 812.464859 484.232727 
L 818.859053 484.232727 
L 825.253247 484.232727 
L 831.647441 484.232727 
L 838.041635 484.232727 
L 844.435829 484.232727 
L 850.830023 484.232727 
L 857.224217 484.232727 
L 863.618411 484.232727 
L 870.012605 484.232727 
L 876.406799 484.232727 
L 882.800993 484.232727 
L 889.195187 484.232727 
L 895.589381 484.232727 
L 901.983575 484.232727 
L 908.377769 484.232727 
L 914.771963 484.232727 
L 921.166157 484.232727 
L 927.560351 484.232727 
L 933.954545 484.232727 
" clip-path="url(#pe7b69b1c45)" style="fill: none; stroke: #4c72b0; stroke-width: 1.5; stroke-linecap: round"/>
   </g>
   <g id="line2d_17">
    <path d="M 173.045455 283.319463 
L 179.439649 361.53931 
L 185.833843 428.584893 
L 192.228037 450.933421 
L 198.622231 462.107685 
L 205.016425 473.281949 
L 211.410619 473.281949 
L 217.804813 473.281949 
L 224.199007 473.281949 
L 230.593201 473.281949 
L 236.987395 473.281949 
L 243.381589 473.281949 
L 249.775783 473.281949 
L 256.169977 473.281949 
L 262.564171 473.281949 
L 268.958365 473.281949 
L 275.352559 473.281949 
L 281.746753 473.281949 
L 288.140947 473.281949 
L 294.535141 473.281949 
L 300.929335 473.281949 
L 307.323529 473.281949 
L 313.717723 473.281949 
L 320.111917 473.281949 
L 326.506112 473.281949 
L 332.900306 473.281949 
L 339.2945 473.281949 
L 345.688694 473.281949 
L 352.082888 473.281949 
L 358.477082 473.281949 
L 364.871276 473.281949 
L 371.26547 473.281949 
L 377.659664 473.281949 
L 384.053858 473.281949 
L 390.448052 473.281949 
L 396.842246 473.281949 
L 403.23644 473.281949 
L 409.630634 473.281949 
L 416.024828 473.281949 
L 422.419022 473.281949 
L 428.813216 473.281949 
L 435.20741 473.281949 
L 441.601604 473.281949 
L 447.995798 473.281949 
L 454.389992 473.281949 
L 460.784186 473.281949 
L 467.17838 473.281949 
L 473.572574 473.281949 
L 479.966769 473.281949 
L 486.360963 473.281949 
L 492.755157 473.281949 
L 499.149351 473.281949 
L 505.543545 473.281949 
L 511.937739 473.281949 
L 518.331933 473.281949 
L 524.726127 473.281949 
L 531.120321 473.281949 
L 537.514515 473.281949 
L 543.908709 473.281949 
L 550.302903 473.281949 
L 556.697097 473.281949 
L 563.091291 473.281949 
L 569.485485 473.281949 
L 575.879679 473.281949 
L 582.273873 473.281949 
L 588.668067 473.281949 
L 595.062261 473.281949 
L 601.456455 473.281949 
L 607.850649 473.281949 
L 614.244843 473.281949 
L 620.639037 473.281949 
L 627.033231 473.281949 
L 633.427426 473.281949 
L 639.82162 473.281949 
L 646.215814 473.281949 
L 652.610008 473.281949 
L 659.004202 473.281949 
L 665.398396 473.281949 
L 671.79259 473.281949 
L 678.186784 473.281949 
L 684.580978 473.281949 
L 690.975172 473.281949 
L 697.369366 473.281949 
L 703.76356 473.281949 
L 710.157754 473.281949 
L 716.551948 473.281949 
L 722.946142 473.281949 
L 729.340336 473.281949 
L 735.73453 473.281949 
L 742.128724 473.281949 
L 748.522918 473.281949 
L 754.917112 473.281949 
L 761.311306 473.281949 
L 767.7055 473.281949 
L 774.099694 473.281949 
L 780.493888 473.281949 
L 786.888083 473.281949 
L 793.282277 473.281949 
L 799.676471 473.281949 
L 806.070665 473.281949 
L 812.464859 473.281949 
L 818.859053 473.281949 
L 825.253247 473.281949 
L 831.647441 473.281949 
L 838.041635 473.281949 
L 844.435829 473.281949 
L 850.830023 473.281949 
L 857.224217 473.281949 
L 863.618411 473.281949 
L 870.012605 473.281949 
L 876.406799 473.281949 
L 882.800993 473.281949 
L 889.195187 473.281949 
L 895.589381 473.281949 
L 901.983575 473.281949 
L 908.377769 473.281949 
L 914.771963 473.281949 
L 921.166157 473.281949 
L 927.560351 473.281949 
L 933.954545 473.281949 
" clip-path="url(#pe7b69b1c45)" style="fill: none; stroke: #dd8452; stroke-width: 1.5; stroke-linecap: round"/>
   </g>
   <g id="line2d_18">
    <path d="M 173.045455 149.228297 
L 179.439649 133.584328 
L 185.833843 225.213292 
L 192.228037 88.887273 
L 198.622231 88.887273 
L 205.016425 225.213292 
L 211.410619 274.380052 
L 217.804813 274.380052 
L 224.199007 292.258875 
L 230.593201 292.258875 
L 236.987395 292.258875 
L 243.381589 292.258875 
L 249.775783 292.258875 
L 256.169977 292.258875 
L 262.564171 292.258875 
L 268.958365 292.258875 
L 275.352559 292.258875 
L 281.746753 292.258875 
L 288.140947 292.258875 
L 294.535141 292.258875 
L 300.929335 292.258875 
L 307.323529 294.493727 
L 313.717723 294.493727 
L 320.111917 294.493727 
L 326.506112 294.493727 
L 332.900306 294.493727 
L 339.2945 294.493727 
L 345.688694 294.493727 
L 352.082888 294.493727 
L 358.477082 294.493727 
L 364.871276 294.493727 
L 371.26547 294.493727 
L 377.659664 294.493727 
L 384.053858 294.493727 
L 390.448052 294.493727 
L 396.842246 294.493727 
L 403.23644 294.493727 
L 409.630634 294.493727 
L 416.024828 294.493727 
L 422.419022 294.493727 
L 428.813216 294.493727 
L 435.20741 294.493727 
L 441.601604 294.493727 
L 447.995798 294.493727 
L 454.389992 294.493727 
L 460.784186 294.493727 
L 467.17838 294.493727 
L 473.572574 294.493727 
L 479.966769 294.493727 
L 486.360963 294.493727 
L 492.755157 294.493727 
L 499.149351 294.493727 
L 505.543545 294.493727 
L 511.937739 294.493727 
L 518.331933 294.493727 
L 524.726127 294.493727 
L 531.120321 294.493727 
L 537.514515 294.493727 
L 543.908709 294.493727 
L 550.302903 294.493727 
L 556.697097 294.493727 
L 563.091291 294.493727 
L 569.485485 294.493727 
L 575.879679 294.493727 
L 582.273873 294.493727 
L 588.668067 294.493727 
L 595.062261 294.493727 
L 601.456455 294.493727 
L 607.850649 294.493727 
L 614.244843 294.493727 
L 620.639037 294.493727 
L 627.033231 294.493727 
L 633.427426 294.493727 
L 639.82162 294.493727 
L 646.215814 294.493727 
L 652.610008 294.493727 
L 659.004202 294.493727 
L 665.398396 294.493727 
L 671.79259 294.493727 
L 678.186784 294.493727 
L 684.580978 294.493727 
L 690.975172 294.493727 
L 697.369366 294.493727 
L 703.76356 294.493727 
L 710.157754 294.493727 
L 716.551948 294.493727 
L 722.946142 294.493727 
L 729.340336 294.493727 
L 735.73453 294.493727 
L 742.128724 294.493727 
L 748.522918 294.493727 
L 754.917112 294.493727 
L 761.311306 294.493727 
L 767.7055 294.493727 
L 774.099694 294.493727 
L 780.493888 294.493727 
L 786.888083 294.493727 
L 793.282277 294.493727 
L 799.676471 294.493727 
L 806.070665 294.493727 
L 812.464859 294.493727 
L 818.859053 294.493727 
L 825.253247 294.493727 
L 831.647441 294.493727 
L 838.041635 294.493727 
L 844.435829 294.493727 
L 850.830023 294.493727 
L 857.224217 294.493727 
L 863.618411 294.493727 
L 870.012605 294.493727 
L 876.406799 294.493727 
L 882.800993 294.493727 
L 889.195187 294.493727 
L 895.589381 294.493727 
L 901.983575 294.493727 
L 908.377769 294.493727 
L 914.771963 294.493727 
L 921.166157 294.493727 
L 927.560351 294.493727 
L 933.954545 294.493727 
" clip-path="url(#pe7b69b1c45)" style="fill: none; stroke: #55a868; stroke-width: 1.5; stroke-linecap: round"/>
   </g>
   <g id="patch_3">
    <path d="M 135 504 
L 135 69.12 
" style="fill: none; stroke: #cccccc; stroke-width: 1.25; stroke-linejoin: miter; stroke-linecap: square"/>
   </g>
   <g id="patch_4">
    <path d="M 972 504 
L 972 69.12 
" style="fill: none; stroke: #cccccc; stroke-width: 1.25; stroke-linejoin: miter; stroke-linecap: square"/>
   </g>
   <g id="patch_5">
    <path d="M 135 504 
L 972 504 
" style="fill: none; stroke: #cccccc; stroke-width: 1.25; stroke-linejoin: miter; stroke-linecap: square"/>
   </g>
   <g id="patch_6">
    <path d="M 135 69.12 
L 972 69.12 
" style="fill: none; stroke: #cccccc; stroke-width: 1.25; stroke-linejoin: miter; stroke-linecap: square"/>
   </g>
   <g id="legend_1">
    <g id="patch_7">
     <path d="M 834.15625 126.969688 
L 964.3 126.969688 
Q 966.5 126.969688 966.5 124.769688 
L 966.5 76.82 
Q 966.5 74.62 964.3 74.62 
L 834.15625 74.62 
Q 831.95625 74.62 831.95625 76.82 
L 831.95625 124.769688 
Q 831.95625 126.969688 834.15625 126.969688 
z
" style="fill: #ffffff; opacity: 0.8; stroke: #cccccc; stroke-linejoin: miter"/>
    </g>
    <g id="line2d_19">
     <path d="M 836.35625 83.528281 
L 847.35625 83.528281 
L 858.35625 83.528281 
" style="fill: none; stroke: #4c72b0; stroke-width: 1.5; stroke-linecap: round"/>
    </g>
    <g id="text_18">
     <!-- eta -->
     <g style="fill: #262626" transform="translate(867.15625 87.378281)scale(0.11 -0.11)">
      <use xlink:href="#DejaVuSans-65"/>
      <use xlink:href="#DejaVuSans-74" x="61.523438"/>
      <use xlink:href="#DejaVuSans-61" x="100.732422"/>
     </g>
    </g>
    <g id="line2d_20">
     <path d="M 836.35625 99.674219 
L 847.35625 99.674219 
L 858.35625 99.674219 
" style="fill: none; stroke: #dd8452; stroke-width: 1.5; stroke-linecap: round"/>
    </g>
    <g id="text_19">
     <!-- max_depth -->
     <g style="fill: #262626" transform="translate(867.15625 103.524219)scale(0.11 -0.11)">
      <defs>
       <path id="DejaVuSans-6d" d="M 3328 2828 
Q 3544 3216 3844 3400 
Q 4144 3584 4550 3584 
Q 5097 3584 5394 3201 
Q 5691 2819 5691 2113 
L 5691 0 
L 5113 0 
L 5113 2094 
Q 5113 2597 4934 2840 
Q 4756 3084 4391 3084 
Q 3944 3084 3684 2787 
Q 3425 2491 3425 1978 
L 3425 0 
L 2847 0 
L 2847 2094 
Q 2847 2600 2669 2842 
Q 2491 3084 2119 3084 
Q 1678 3084 1418 2786 
Q 1159 2488 1159 1978 
L 1159 0 
L 581 0 
L 581 3500 
L 1159 3500 
L 1159 2956 
Q 1356 3278 1631 3431 
Q 1906 3584 2284 3584 
Q 2666 3584 2933 3390 
Q 3200 3197 3328 2828 
z
" transform="scale(0.015625)"/>
       <path id="DejaVuSans-78" d="M 3513 3500 
L 2247 1797 
L 3578 0 
L 2900 0 
L 1881 1375 
L 863 0 
L 184 0 
L 1544 1831 
L 300 3500 
L 978 3500 
L 1906 2253 
L 2834 3500 
L 3513 3500 
z
" transform="scale(0.015625)"/>
       <path id="DejaVuSans-5f" d="M 3263 -1063 
L 3263 -1509 
L -63 -1509 
L -63 -1063 
L 3263 -1063 
z
" transform="scale(0.015625)"/>
       <path id="DejaVuSans-64" d="M 2906 2969 
L 2906 4863 
L 3481 4863 
L 3481 0 
L 2906 0 
L 2906 525 
Q 2725 213 2448 61 
Q 2172 -91 1784 -91 
Q 1150 -91 751 415 
Q 353 922 353 1747 
Q 353 2572 751 3078 
Q 1150 3584 1784 3584 
Q 2172 3584 2448 3432 
Q 2725 3281 2906 2969 
z
M 947 1747 
Q 947 1113 1208 752 
Q 1469 391 1925 391 
Q 2381 391 2643 752 
Q 2906 1113 2906 1747 
Q 2906 2381 2643 2742 
Q 2381 3103 1925 3103 
Q 1469 3103 1208 2742 
Q 947 2381 947 1747 
z
" transform="scale(0.015625)"/>
       <path id="DejaVuSans-70" d="M 1159 525 
L 1159 -1331 
L 581 -1331 
L 581 3500 
L 1159 3500 
L 1159 2969 
Q 1341 3281 1617 3432 
Q 1894 3584 2278 3584 
Q 2916 3584 3314 3078 
Q 3713 2572 3713 1747 
Q 3713 922 3314 415 
Q 2916 -91 2278 -91 
Q 1894 -91 1617 61 
Q 1341 213 1159 525 
z
M 3116 1747 
Q 3116 2381 2855 2742 
Q 2594 3103 2138 3103 
Q 1681 3103 1420 2742 
Q 1159 2381 1159 1747 
Q 1159 1113 1420 752 
Q 1681 391 2138 391 
Q 2594 391 2855 752 
Q 3116 1113 3116 1747 
z
" transform="scale(0.015625)"/>
       <path id="DejaVuSans-68" d="M 3513 2113 
L 3513 0 
L 2938 0 
L 2938 2094 
Q 2938 2591 2744 2837 
Q 2550 3084 2163 3084 
Q 1697 3084 1428 2787 
Q 1159 2491 1159 1978 
L 1159 0 
L 581 0 
L 581 4863 
L 1159 4863 
L 1159 2956 
Q 1366 3272 1645 3428 
Q 1925 3584 2291 3584 
Q 2894 3584 3203 3211 
Q 3513 2838 3513 2113 
z
" transform="scale(0.015625)"/>
      </defs>
      <use xlink:href="#DejaVuSans-6d"/>
      <use xlink:href="#DejaVuSans-61" x="97.412109"/>
      <use xlink:href="#DejaVuSans-78" x="158.691406"/>
      <use xlink:href="#DejaVuSans-5f" x="217.871094"/>
      <use xlink:href="#DejaVuSans-64" x="267.871094"/>
      <use xlink:href="#DejaVuSans-65" x="331.347656"/>
      <use xlink:href="#DejaVuSans-70" x="392.871094"/>
      <use xlink:href="#DejaVuSans-74" x="456.347656"/>
      <use xlink:href="#DejaVuSans-68" x="495.556641"/>
     </g>
    </g>
    <g id="line2d_21">
     <path d="M 836.35625 116.126094 
L 847.35625 116.126094 
L 858.35625 116.126094 
" style="fill: none; stroke: #55a868; stroke-width: 1.5; stroke-linecap: round"/>
    </g>
    <g id="text_20">
     <!-- min_child_weight -->
     <g style="fill: #262626" transform="translate(867.15625 119.976094)scale(0.11 -0.11)">
      <defs>
       <path id="DejaVuSans-6c" d="M 603 4863 
L 1178 4863 
L 1178 0 
L 603 0 
L 603 4863 
z
" transform="scale(0.015625)"/>
       <path id="DejaVuSans-77" d="M 269 3500 
L 844 3500 
L 1563 769 
L 2278 3500 
L 2956 3500 
L 3675 769 
L 4391 3500 
L 4966 3500 
L 4050 0 
L 3372 0 
L 2619 2869 
L 1863 0 
L 1184 0 
L 269 3500 
z
" transform="scale(0.015625)"/>
       <path id="DejaVuSans-67" d="M 2906 1791 
Q 2906 2416 2648 2759 
Q 2391 3103 1925 3103 
Q 1463 3103 1205 2759 
Q 947 2416 947 1791 
Q 947 1169 1205 825 
Q 1463 481 1925 481 
Q 2391 481 2648 825 
Q 2906 1169 2906 1791 
z
M 3481 434 
Q 3481 -459 3084 -895 
Q 2688 -1331 1869 -1331 
Q 1566 -1331 1297 -1286 
Q 1028 -1241 775 -1147 
L 775 -588 
Q 1028 -725 1275 -790 
Q 1522 -856 1778 -856 
Q 2344 -856 2625 -561 
Q 2906 -266 2906 331 
L 2906 616 
Q 2728 306 2450 153 
Q 2172 0 1784 0 
Q 1141 0 747 490 
Q 353 981 353 1791 
Q 353 2603 747 3093 
Q 1141 3584 1784 3584 
Q 2172 3584 2450 3431 
Q 2728 3278 2906 2969 
L 2906 3500 
L 3481 3500 
L 3481 434 
z
" transform="scale(0.015625)"/>
      </defs>
      <use xlink:href="#DejaVuSans-6d"/>
      <use xlink:href="#DejaVuSans-69" x="97.412109"/>
      <use xlink:href="#DejaVuSans-6e" x="125.195312"/>
      <use xlink:href="#DejaVuSans-5f" x="188.574219"/>
      <use xlink:href="#DejaVuSans-63" x="238.574219"/>
      <use xlink:href="#DejaVuSans-68" x="293.554688"/>
      <use xlink:href="#DejaVuSans-69" x="356.933594"/>
      <use xlink:href="#DejaVuSans-6c" x="384.716797"/>
      <use xlink:href="#DejaVuSans-64" x="412.5"/>
      <use xlink:href="#DejaVuSans-5f" x="475.976562"/>
      <use xlink:href="#DejaVuSans-77" x="525.976562"/>
      <use xlink:href="#DejaVuSans-65" x="607.763672"/>
      <use xlink:href="#DejaVuSans-69" x="669.287109"/>
      <use xlink:href="#DejaVuSans-67" x="697.070312"/>
      <use xlink:href="#DejaVuSans-68" x="760.546875"/>
      <use xlink:href="#DejaVuSans-74" x="823.925781"/>
     </g>
    </g>
   </g>
  </g>
 </g>
 <defs>
  <clipPath id="pe7b69b1c45">
   <rect x="135" y="69.12" width="837" height="434.88"/>
  </clipPath>
 </defs>
</svg>
