<?xml version="1.0" encoding="utf-8" standalone="no"?>
<!DOCTYPE svg PUBLIC "-//W3C//DTD SVG 1.1//EN"
  "http://www.w3.org/Graphics/SVG/1.1/DTD/svg11.dtd">
<svg xmlns:xlink="http://www.w3.org/1999/xlink" width="1080pt" height="576pt" viewBox="0 0 1080 576" xmlns="http://www.w3.org/2000/svg" version="1.1">
 <metadata>
  <rdf:RDF xmlns:dc="http://purl.org/dc/elements/1.1/" xmlns:cc="http://creativecommons.org/ns#" xmlns:rdf="http://www.w3.org/1999/02/22-rdf-syntax-ns#">
   <cc:Work>
    <dc:type rdf:resource="http://purl.org/dc/dcmitype/StillImage"/>
    <dc:date>2023-11-27T23:20:28.412251</dc:date>
    <dc:format>image/svg+xml</dc:format>
    <dc:creator>
     <cc:Agent>
      <dc:title>Matplotlib v3.5.2, https://matplotlib.org/</dc:title>
     </cc:Agent>
    </dc:creator>
   </cc:Work>
  </rdf:RDF>
 </metadata>
 <defs>
  <style type="text/css">*{stroke-linejoin: round; stroke-linecap: butt}</style>
 </defs>
 <g id="figure_1">
  <g id="patch_1">
   <path d="M 0 576 
L 1080 576 
L 1080 0 
L 0 0 
z
" style="fill: #ffffff"/>
  </g>
  <g id="axes_1">
   <g id="patch_2">
    <path d="M 135 512.64 
L 972 512.64 
L 972 69.12 
L 135 69.12 
z
" style="fill: #ffffff"/>
   </g>
   <g id="matplotlib.axis_1">
    <g id="xtick_1">
     <g id="line2d_1">
      <path d="M 173.045455 512.64 
L 173.045455 69.12 
" clip-path="url(#p1e021f7080)" style="fill: none; stroke: #cccccc; stroke-linecap: round"/>
     </g>
     <g id="text_1">
      <!-- $\mathdefault{0}$ -->
      <g style="fill: #262626" transform="translate(170.305721 529.750347)scale(0.11 -0.11)">
       <defs>
        <path id="CMR17-30" d="M 2688 2038 
C 2688 2430 2682 3099 2413 3613 
C 2176 4063 1798 4224 1466 4224 
C 1158 4224 768 4082 525 3620 
C 269 3137 243 2539 243 2038 
C 243 1671 250 1112 448 623 
C 723 -39 1216 -128 1466 -128 
C 1760 -128 2208 -7 2470 604 
C 2662 1048 2688 1568 2688 2038 
z
M 1466 -26 
C 1056 -26 813 328 723 816 
C 653 1196 653 1749 653 2109 
C 653 2604 653 3015 736 3407 
C 858 3954 1216 4121 1466 4121 
C 1728 4121 2067 3947 2189 3420 
C 2272 3054 2278 2623 2278 2109 
C 2278 1691 2278 1176 2202 797 
C 2067 96 1690 -26 1466 -26 
z
" transform="scale(0.015625)"/>
       </defs>
       <use xlink:href="#CMR17-30" transform="scale(0.996264)"/>
      </g>
     </g>
    </g>
    <g id="xtick_2">
     <g id="line2d_2">
      <path d="M 328.333024 512.64 
L 328.333024 69.12 
" clip-path="url(#p1e021f7080)" style="fill: none; stroke: #cccccc; stroke-linecap: round"/>
     </g>
     <g id="text_2">
      <!-- $\mathdefault{10}$ -->
      <g style="fill: #262626" transform="translate(322.853557 529.750347)scale(0.11 -0.11)">
       <defs>
        <path id="CMR17-31" d="M 1702 4083 
C 1702 4217 1696 4224 1606 4224 
C 1357 3927 979 3833 621 3820 
C 602 3820 570 3820 563 3808 
C 557 3795 557 3782 557 3648 
C 755 3648 1088 3686 1344 3839 
L 1344 467 
C 1344 243 1331 166 781 166 
L 589 166 
L 589 0 
C 896 6 1216 12 1523 12 
C 1830 12 2150 6 2458 0 
L 2458 166 
L 2266 166 
C 1715 166 1702 236 1702 467 
L 1702 4083 
z
" transform="scale(0.015625)"/>
       </defs>
       <use xlink:href="#CMR17-31" transform="scale(0.996264)"/>
       <use xlink:href="#CMR17-30" transform="translate(45.690477 0)scale(0.996264)"/>
      </g>
     </g>
    </g>
    <g id="xtick_3">
     <g id="line2d_3">
      <path d="M 483.620594 512.64 
L 483.620594 69.12 
" clip-path="url(#p1e021f7080)" style="fill: none; stroke: #cccccc; stroke-linecap: round"/>
     </g>
     <g id="text_3">
      <!-- $\mathdefault{20}$ -->
      <g style="fill: #262626" transform="translate(478.141126 529.750347)scale(0.11 -0.11)">
       <defs>
        <path id="CMR17-32" d="M 2669 990 
L 2554 990 
C 2490 537 2438 460 2413 422 
C 2381 371 1920 371 1830 371 
L 602 371 
C 832 620 1280 1073 1824 1596 
C 2214 1966 2669 2400 2669 3033 
C 2669 3788 2067 4224 1395 4224 
C 691 4224 262 3603 262 3027 
C 262 2777 448 2745 525 2745 
C 589 2745 781 2783 781 3007 
C 781 3206 614 3264 525 3264 
C 486 3264 448 3257 422 3244 
C 544 3788 915 4057 1306 4057 
C 1862 4057 2227 3616 2227 3033 
C 2227 2477 1901 1998 1536 1583 
L 262 147 
L 262 0 
L 2515 0 
L 2669 990 
z
" transform="scale(0.015625)"/>
       </defs>
       <use xlink:href="#CMR17-32" transform="scale(0.996264)"/>
       <use xlink:href="#CMR17-30" transform="translate(45.690477 0)scale(0.996264)"/>
      </g>
     </g>
    </g>
    <g id="xtick_4">
     <g id="line2d_4">
      <path d="M 638.908163 512.64 
L 638.908163 69.12 
" clip-path="url(#p1e021f7080)" style="fill: none; stroke: #cccccc; stroke-linecap: round"/>
     </g>
     <g id="text_4">
      <!-- $\mathdefault{30}$ -->
      <g style="fill: #262626" transform="translate(633.428696 529.750347)scale(0.11 -0.11)">
       <defs>
        <path id="CMR17-33" d="M 1414 2176 
C 1984 2176 2234 1673 2234 1094 
C 2234 322 1824 25 1453 25 
C 1114 25 563 193 390 691 
C 422 678 454 678 486 678 
C 640 678 755 780 755 947 
C 755 1132 614 1216 486 1216 
C 378 1216 211 1164 211 927 
C 211 335 787 -128 1466 -128 
C 2176 -128 2720 432 2720 1087 
C 2720 1718 2208 2176 1600 2246 
C 2086 2347 2554 2776 2554 3353 
C 2554 3856 2048 4224 1472 4224 
C 890 4224 378 3862 378 3347 
C 378 3123 544 3084 627 3084 
C 762 3084 877 3167 877 3334 
C 877 3500 762 3584 627 3584 
C 602 3584 570 3584 544 3571 
C 730 3999 1235 4076 1459 4076 
C 1683 4076 2106 3966 2106 3347 
C 2106 3167 2080 2851 1862 2574 
C 1670 2329 1453 2316 1242 2297 
C 1210 2297 1062 2284 1037 2284 
C 992 2278 966 2272 966 2227 
C 966 2182 973 2176 1101 2176 
L 1414 2176 
z
" transform="scale(0.015625)"/>
       </defs>
       <use xlink:href="#CMR17-33" transform="scale(0.996264)"/>
       <use xlink:href="#CMR17-30" transform="translate(45.690477 0)scale(0.996264)"/>
      </g>
     </g>
    </g>
    <g id="xtick_5">
     <g id="line2d_5">
      <path d="M 794.195733 512.64 
L 794.195733 69.12 
" clip-path="url(#p1e021f7080)" style="fill: none; stroke: #cccccc; stroke-linecap: round"/>
     </g>
     <g id="text_5">
      <!-- $\mathdefault{40}$ -->
      <g style="fill: #262626" transform="translate(788.716266 529.750347)scale(0.11 -0.11)">
       <defs>
        <path id="CMR17-34" d="M 2150 4147 
C 2150 4281 2144 4288 2029 4288 
L 128 1254 
L 128 1088 
L 1779 1088 
L 1779 460 
C 1779 230 1766 166 1318 166 
L 1197 166 
L 1197 0 
C 1402 12 1747 12 1965 12 
C 2182 12 2528 12 2733 0 
L 2733 166 
L 2611 166 
C 2163 166 2150 230 2150 460 
L 2150 1088 
L 2803 1088 
L 2803 1254 
L 2150 1254 
L 2150 4147 
z
M 1798 3723 
L 1798 1254 
L 256 1254 
L 1798 3723 
z
" transform="scale(0.015625)"/>
       </defs>
       <use xlink:href="#CMR17-34" transform="scale(0.996264)"/>
       <use xlink:href="#CMR17-30" transform="translate(45.690477 0)scale(0.996264)"/>
      </g>
     </g>
    </g>
    <g id="xtick_6">
     <g id="line2d_6">
      <path d="M 949.483302 512.64 
L 949.483302 69.12 
" clip-path="url(#p1e021f7080)" style="fill: none; stroke: #cccccc; stroke-linecap: round"/>
     </g>
     <g id="text_6">
      <!-- $\mathdefault{50}$ -->
      <g style="fill: #262626" transform="translate(944.003835 529.750347)scale(0.11 -0.11)">
       <defs>
        <path id="CMR17-35" d="M 730 3750 
C 794 3724 1056 3641 1325 3641 
C 1920 3641 2246 3961 2432 4140 
C 2432 4191 2432 4224 2394 4224 
C 2387 4224 2374 4224 2323 4198 
C 2099 4102 1837 4032 1517 4032 
C 1325 4032 1037 4055 723 4191 
C 653 4224 640 4224 634 4224 
C 602 4224 595 4217 595 4090 
L 595 2231 
C 595 2113 595 2080 659 2080 
C 691 2080 704 2093 736 2139 
C 941 2435 1222 2560 1542 2560 
C 1766 2560 2246 2415 2246 1293 
C 2246 1087 2246 716 2054 422 
C 1894 159 1645 25 1370 25 
C 947 25 518 319 403 812 
C 429 806 480 793 506 793 
C 589 793 749 838 749 1036 
C 749 1209 627 1280 506 1280 
C 358 1280 262 1190 262 1011 
C 262 454 704 -128 1382 -128 
C 2042 -128 2669 441 2669 1267 
C 2669 2054 2170 2662 1549 2662 
C 1222 2662 947 2540 730 2304 
L 730 3750 
z
" transform="scale(0.015625)"/>
       </defs>
       <use xlink:href="#CMR17-35" transform="scale(0.996264)"/>
       <use xlink:href="#CMR17-30" transform="translate(45.690477 0)scale(0.996264)"/>
      </g>
     </g>
    </g>
    <g id="text_7">
     <!-- Iterations -->
     <g style="fill: #262626" transform="translate(530.739785 544.183421)scale(0.12 -0.12)">
      <defs>
       <path id="CMSS17-49" d="M 1094 4416 
L 557 4416 
L 557 0 
L 1094 0 
L 1094 4416 
z
" transform="scale(0.015625)"/>
       <path id="CMSS17-74" d="M 1069 2380 
L 1901 2380 
L 1901 2752 
L 1069 2752 
L 1069 3520 
L 614 3520 
L 614 2752 
L 109 2752 
L 109 2380 
L 602 2380 
L 602 751 
C 602 384 685 -64 1107 -64 
C 1427 -64 1722 25 2003 172 
L 1901 551 
C 1747 416 1562 339 1363 339 
C 1082 339 1069 699 1069 860 
L 1069 2380 
z
" transform="scale(0.015625)"/>
       <path id="CMSS17-65" d="M 2502 1375 
C 2502 1587 2490 2001 2285 2347 
C 2061 2713 1696 2816 1421 2816 
C 755 2816 192 2184 192 1363 
C 192 579 774 -64 1510 -64 
C 1798 -64 2150 19 2470 249 
C 2470 275 2458 414 2451 421 
C 2451 433 2432 629 2432 655 
C 2125 408 1773 326 1517 326 
C 1107 326 666 667 646 1375 
L 2502 1375 
z
M 698 1728 
C 781 2086 1062 2425 1421 2425 
C 1517 2425 1965 2412 2080 1728 
L 698 1728 
z
" transform="scale(0.015625)"/>
       <path id="CMSS17-72" d="M 954 1369 
C 954 1974 1395 2379 1958 2392 
L 1958 2816 
C 1549 2809 1165 2604 934 2270 
L 934 2783 
L 480 2783 
L 480 0 
L 954 0 
L 954 1369 
z
" transform="scale(0.015625)"/>
       <path id="CMSS17-61" d="M 2406 1789 
C 2406 2399 1978 2816 1402 2816 
C 1120 2816 813 2764 461 2559 
L 499 2133 
C 659 2250 934 2438 1395 2438 
C 1722 2438 1920 2185 1920 1782 
L 1920 1536 
C 896 1504 256 1209 256 711 
C 256 452 416 -64 947 -64 
C 1043 -64 1562 -52 1933 224 
L 1933 -13 
L 2406 -13 
L 2406 1789 
z
M 1920 824 
C 1920 711 1920 559 1728 446 
C 1562 339 1350 326 1261 326 
C 941 326 723 503 723 723 
C 723 1165 1722 1209 1920 1216 
L 1920 824 
z
" transform="scale(0.015625)"/>
       <path id="CMSS17-69" d="M 979 4224 
L 442 4224 
L 442 3686 
L 979 3686 
L 979 4224 
z
M 947 2752 
L 474 2752 
L 474 0 
L 947 0 
L 947 2752 
z
" transform="scale(0.015625)"/>
       <path id="CMSS17-6f" d="M 2829 1356 
C 2829 2175 2221 2816 1504 2816 
C 768 2816 173 2156 173 1356 
C 173 544 787 -64 1498 -64 
C 2227 -64 2829 563 2829 1356 
z
M 1504 339 
C 1050 339 659 710 659 1407 
C 659 2150 1114 2425 1498 2425 
C 1914 2425 2342 2124 2342 1407 
C 2342 684 1926 339 1504 339 
z
" transform="scale(0.015625)"/>
       <path id="CMSS17-6e" d="M 2618 1878 
C 2618 2283 2522 2816 1798 2816 
C 1389 2816 1120 2604 941 2386 
L 941 2783 
L 474 2783 
L 474 0 
L 960 0 
L 960 1556 
C 960 1962 1114 2425 1549 2425 
C 2112 2425 2131 2045 2131 1826 
L 2131 0 
L 2618 0 
L 2618 1878 
z
" transform="scale(0.015625)"/>
       <path id="CMSS17-73" d="M 2061 2623 
C 1683 2803 1389 2816 1197 2816 
C 742 2816 198 2655 198 2009 
C 198 1363 902 1222 1094 1183 
C 1389 1126 1715 1062 1715 742 
C 1715 339 1254 339 1171 339 
C 915 339 563 409 243 639 
L 166 211 
C 531 0 883 -64 1178 -64 
C 1965 -64 2163 416 2163 780 
C 2163 1094 1984 1305 1862 1401 
C 1651 1567 1574 1587 1050 1695 
C 960 1708 646 1779 646 2067 
C 646 2431 1050 2431 1139 2431 
C 1555 2431 1811 2303 1984 2207 
L 2061 2623 
z
" transform="scale(0.015625)"/>
      </defs>
      <use xlink:href="#CMSS17-49" transform="scale(0.996264)"/>
      <use xlink:href="#CMSS17-74" transform="translate(25.783926 0)scale(0.996264)"/>
      <use xlink:href="#CMSS17-65" transform="translate(59.615492 0)scale(0.996264)"/>
      <use xlink:href="#CMSS17-72" transform="translate(101.254314 0)scale(0.996264)"/>
      <use xlink:href="#CMSS17-61" transform="translate(133.164087 0)scale(0.996264)"/>
      <use xlink:href="#CMSS17-74" transform="translate(178.086007 0)scale(0.996264)"/>
      <use xlink:href="#CMSS17-69" transform="translate(211.917574 0)scale(0.996264)"/>
      <use xlink:href="#CMSS17-6f" transform="translate(234.098297 0)scale(0.996264)"/>
      <use xlink:href="#CMSS17-6e" transform="translate(280.941921 0)scale(0.996264)"/>
      <use xlink:href="#CMSS17-73" transform="translate(329.146864 0)scale(0.996264)"/>
     </g>
    </g>
   </g>
   <g id="matplotlib.axis_2">
    <g id="ytick_1">
     <g id="line2d_7">
      <path d="M 135 493.025602 
L 972 493.025602 
" clip-path="url(#p1e021f7080)" style="fill: none; stroke: #cccccc; stroke-linecap: round"/>
     </g>
     <g id="text_8">
      <!-- $\mathdefault{0}$ -->
      <g style="fill: #262626" transform="translate(120.020533 496.830776)scale(0.11 -0.11)">
       <use xlink:href="#CMR17-30" transform="scale(0.996264)"/>
      </g>
     </g>
    </g>
    <g id="ytick_2">
     <g id="line2d_8">
      <path d="M 135 438.465386 
L 972 438.465386 
" clip-path="url(#p1e021f7080)" style="fill: none; stroke: #cccccc; stroke-linecap: round"/>
     </g>
     <g id="text_9">
      <!-- $\mathdefault{1}$ -->
      <g style="fill: #262626" transform="translate(120.020533 442.270559)scale(0.11 -0.11)">
       <use xlink:href="#CMR17-31" transform="scale(0.996264)"/>
      </g>
     </g>
    </g>
    <g id="ytick_3">
     <g id="line2d_9">
      <path d="M 135 383.905169 
L 972 383.905169 
" clip-path="url(#p1e021f7080)" style="fill: none; stroke: #cccccc; stroke-linecap: round"/>
     </g>
     <g id="text_10">
      <!-- $\mathdefault{2}$ -->
      <g style="fill: #262626" transform="translate(120.020533 387.710342)scale(0.11 -0.11)">
       <use xlink:href="#CMR17-32" transform="scale(0.996264)"/>
      </g>
     </g>
    </g>
    <g id="ytick_4">
     <g id="line2d_10">
      <path d="M 135 329.344953 
L 972 329.344953 
" clip-path="url(#p1e021f7080)" style="fill: none; stroke: #cccccc; stroke-linecap: round"/>
     </g>
     <g id="text_11">
      <!-- $\mathdefault{3}$ -->
      <g style="fill: #262626" transform="translate(120.020533 333.150126)scale(0.11 -0.11)">
       <use xlink:href="#CMR17-33" transform="scale(0.996264)"/>
      </g>
     </g>
    </g>
    <g id="ytick_5">
     <g id="line2d_11">
      <path d="M 135 274.784736 
L 972 274.784736 
" clip-path="url(#p1e021f7080)" style="fill: none; stroke: #cccccc; stroke-linecap: round"/>
     </g>
     <g id="text_12">
      <!-- $\mathdefault{4}$ -->
      <g style="fill: #262626" transform="translate(120.020533 278.589909)scale(0.11 -0.11)">
       <use xlink:href="#CMR17-34" transform="scale(0.996264)"/>
      </g>
     </g>
    </g>
    <g id="ytick_6">
     <g id="line2d_12">
      <path d="M 135 220.22452 
L 972 220.22452 
" clip-path="url(#p1e021f7080)" style="fill: none; stroke: #cccccc; stroke-linecap: round"/>
     </g>
     <g id="text_13">
      <!-- $\mathdefault{5}$ -->
      <g style="fill: #262626" transform="translate(120.020533 224.029693)scale(0.11 -0.11)">
       <use xlink:href="#CMR17-35" transform="scale(0.996264)"/>
      </g>
     </g>
    </g>
    <g id="ytick_7">
     <g id="line2d_13">
      <path d="M 135 165.664303 
L 972 165.664303 
" clip-path="url(#p1e021f7080)" style="fill: none; stroke: #cccccc; stroke-linecap: round"/>
     </g>
     <g id="text_14">
      <!-- $\mathdefault{6}$ -->
      <g style="fill: #262626" transform="translate(120.020533 169.469476)scale(0.11 -0.11)">
       <defs>
        <path id="CMR17-36" d="M 678 2198 
C 678 3712 1395 4076 1811 4076 
C 1946 4076 2272 4049 2400 3782 
C 2298 3782 2106 3782 2106 3558 
C 2106 3385 2246 3328 2336 3328 
C 2394 3328 2566 3353 2566 3571 
C 2566 3987 2246 4224 1805 4224 
C 1043 4224 243 3411 243 2011 
C 243 257 966 -128 1478 -128 
C 2099 -128 2688 431 2688 1295 
C 2688 2101 2170 2688 1517 2688 
C 1126 2688 838 2430 678 1979 
L 678 2198 
z
M 1478 25 
C 691 25 691 1212 691 1450 
C 691 1914 909 2585 1504 2585 
C 1613 2585 1926 2585 2138 2140 
C 2253 1889 2253 1624 2253 1302 
C 2253 954 2253 696 2118 438 
C 1978 173 1773 25 1478 25 
z
" transform="scale(0.015625)"/>
       </defs>
       <use xlink:href="#CMR17-36" transform="scale(0.996264)"/>
      </g>
     </g>
    </g>
    <g id="ytick_8">
     <g id="line2d_14">
      <path d="M 135 111.104087 
L 972 111.104087 
" clip-path="url(#p1e021f7080)" style="fill: none; stroke: #cccccc; stroke-linecap: round"/>
     </g>
     <g id="text_15">
      <!-- $\mathdefault{7}$ -->
      <g style="fill: #262626" transform="translate(120.020533 114.90926)scale(0.11 -0.11)">
       <defs>
        <path id="CMR17-37" d="M 2886 3955 
L 2886 4096 
L 1382 4096 
C 634 4096 621 4166 595 4288 
L 480 4288 
L 294 3104 
L 410 3104 
C 429 3226 474 3552 550 3673 
C 589 3724 1062 3724 1171 3724 
L 2579 3724 
L 1869 2670 
C 1395 1961 1069 1003 1069 166 
C 1069 89 1069 -128 1299 -128 
C 1530 -128 1530 89 1530 172 
L 1530 466 
C 1530 1514 1709 2204 2003 2644 
L 2886 3955 
z
" transform="scale(0.015625)"/>
       </defs>
       <use xlink:href="#CMR17-37" transform="scale(0.996264)"/>
      </g>
     </g>
    </g>
    <g id="text_16">
     <!-- Factor -->
     <g style="fill: #262626" transform="translate(113.695937 306.311535)rotate(-90)scale(0.12 -0.12)">
      <defs>
       <path id="CMSS17-46" d="M 2918 1984 
L 2918 2374 
L 1101 2374 
L 1101 3993 
L 1882 3993 
C 1958 3993 2035 3987 2112 3987 
L 3168 3987 
L 3168 4403 
L 563 4403 
L 563 0 
L 1101 0 
L 1101 1984 
L 2918 1984 
z
" transform="scale(0.015625)"/>
       <path id="CMSS17-63" d="M 2464 2540 
C 2464 2585 2170 2713 2093 2739 
C 1882 2816 1613 2816 1542 2816 
C 710 2816 211 2092 211 1363 
C 211 595 768 -64 1517 -64 
C 1946 -64 2253 76 2502 243 
L 2464 665 
C 2189 454 1869 339 1523 339 
C 1024 339 698 774 698 1369 
C 698 1830 909 2412 1549 2412 
C 1901 2412 2099 2342 2394 2143 
L 2464 2540 
z
" transform="scale(0.015625)"/>
      </defs>
      <use xlink:href="#CMSS17-46" transform="scale(0.996264)"/>
      <use xlink:href="#CMSS17-61" transform="translate(50.687105 0)scale(0.996264)"/>
      <use xlink:href="#CMSS17-63" transform="translate(95.609026 0)scale(0.996264)"/>
      <use xlink:href="#CMSS17-74" transform="translate(137.247848 0)scale(0.996264)"/>
      <use xlink:href="#CMSS17-6f" transform="translate(171.079415 0)scale(0.996264)"/>
      <use xlink:href="#CMSS17-72" transform="translate(215.320584 0)scale(0.996264)"/>
     </g>
    </g>
   </g>
   <g id="line2d_15">
    <path d="M 173.045455 481.567957 
L 188.574212 484.84157 
L 204.102968 465.745494 
L 219.631725 465.745494 
L 235.160482 491.934398 
L 250.689239 491.934398 
L 266.217996 491.934398 
L 281.746753 486.478376 
L 297.27551 486.478376 
L 312.804267 486.478376 
L 328.333024 492.48 
L 343.861781 492.48 
L 359.390538 492.48 
L 374.919295 492.48 
L 390.448052 492.48 
L 405.976809 492.48 
L 421.505566 492.48 
L 437.034323 492.48 
L 452.56308 492.48 
L 468.091837 492.48 
L 483.620594 492.48 
L 499.149351 492.48 
L 514.678108 492.48 
L 530.206865 492.48 
L 545.735622 492.48 
L 561.264378 492.48 
L 576.793135 492.48 
L 592.321892 492.48 
L 607.850649 492.48 
L 623.379406 492.48 
L 638.908163 492.48 
L 654.43692 492.48 
L 669.965677 492.48 
L 685.494434 492.48 
L 701.023191 492.48 
L 716.551948 492.48 
L 732.080705 492.48 
L 747.609462 492.48 
L 763.138219 492.48 
L 778.666976 492.48 
L 794.195733 492.48 
L 809.72449 492.48 
L 825.253247 492.48 
L 840.782004 492.48 
L 856.310761 492.48 
L 871.839518 492.48 
L 887.368275 492.48 
L 902.897032 492.48 
L 918.425788 492.48 
L 933.954545 492.48 
" clip-path="url(#p1e021f7080)" style="fill: none; stroke: #4c72b0; stroke-width: 1.5; stroke-linecap: round"/>
   </g>
   <g id="line2d_16">
    <path d="M 173.045455 411.185277 
L 188.574212 438.465386 
L 204.102968 465.745494 
L 219.631725 465.745494 
L 235.160482 465.745494 
L 250.689239 465.745494 
L 266.217996 465.745494 
L 281.746753 465.745494 
L 297.27551 465.745494 
L 312.804267 465.745494 
L 328.333024 438.465386 
L 343.861781 438.465386 
L 359.390538 438.465386 
L 374.919295 438.465386 
L 390.448052 438.465386 
L 405.976809 438.465386 
L 421.505566 438.465386 
L 437.034323 438.465386 
L 452.56308 438.465386 
L 468.091837 438.465386 
L 483.620594 438.465386 
L 499.149351 438.465386 
L 514.678108 438.465386 
L 530.206865 438.465386 
L 545.735622 438.465386 
L 561.264378 438.465386 
L 576.793135 438.465386 
L 592.321892 438.465386 
L 607.850649 438.465386 
L 623.379406 438.465386 
L 638.908163 438.465386 
L 654.43692 438.465386 
L 669.965677 438.465386 
L 685.494434 438.465386 
L 701.023191 438.465386 
L 716.551948 438.465386 
L 732.080705 438.465386 
L 747.609462 438.465386 
L 763.138219 438.465386 
L 778.666976 438.465386 
L 794.195733 438.465386 
L 809.72449 438.465386 
L 825.253247 438.465386 
L 840.782004 438.465386 
L 856.310761 438.465386 
L 871.839518 438.465386 
L 887.368275 438.465386 
L 902.897032 438.465386 
L 918.425788 438.465386 
L 933.954545 438.465386 
" clip-path="url(#p1e021f7080)" style="fill: none; stroke: #dd8452; stroke-width: 1.5; stroke-linecap: round"/>
   </g>
   <g id="line2d_17">
    <path d="M 173.045455 312.976888 
L 188.574212 340.256996 
L 204.102968 89.28 
L 219.631725 312.976888 
L 235.160482 449.377429 
L 250.689239 449.377429 
L 266.217996 449.377429 
L 281.746753 127.472152 
L 297.27551 460.289472 
L 312.804267 460.289472 
L 328.333024 122.01613 
L 343.861781 122.01613 
L 359.390538 492.48 
L 374.919295 492.48 
L 390.448052 492.48 
L 405.976809 492.48 
L 421.505566 492.48 
L 437.034323 492.48 
L 452.56308 492.48 
L 468.091837 492.48 
L 483.620594 492.48 
L 499.149351 492.48 
L 514.678108 492.48 
L 530.206865 492.48 
L 545.735622 492.48 
L 561.264378 492.48 
L 576.793135 492.48 
L 592.321892 492.48 
L 607.850649 492.48 
L 623.379406 492.48 
L 638.908163 492.48 
L 654.43692 492.48 
L 669.965677 492.48 
L 685.494434 492.48 
L 701.023191 492.48 
L 716.551948 492.48 
L 732.080705 492.48 
L 747.609462 492.48 
L 763.138219 492.48 
L 778.666976 492.48 
L 794.195733 492.48 
L 809.72449 492.48 
L 825.253247 492.48 
L 840.782004 492.48 
L 856.310761 492.48 
L 871.839518 492.48 
L 887.368275 492.48 
L 902.897032 492.48 
L 918.425788 492.48 
L 933.954545 492.48 
" clip-path="url(#p1e021f7080)" style="fill: none; stroke: #55a868; stroke-width: 1.5; stroke-linecap: round"/>
   </g>
   <g id="patch_3">
    <path d="M 135 512.64 
L 135 69.12 
" style="fill: none; stroke: #cccccc; stroke-width: 1.25; stroke-linejoin: miter; stroke-linecap: square"/>
   </g>
   <g id="patch_4">
    <path d="M 972 512.64 
L 972 69.12 
" style="fill: none; stroke: #cccccc; stroke-width: 1.25; stroke-linejoin: miter; stroke-linecap: square"/>
   </g>
   <g id="patch_5">
    <path d="M 135 512.64 
L 972 512.64 
" style="fill: none; stroke: #cccccc; stroke-width: 1.25; stroke-linejoin: miter; stroke-linecap: square"/>
   </g>
   <g id="patch_6">
    <path d="M 135 69.12 
L 972 69.12 
" style="fill: none; stroke: #cccccc; stroke-width: 1.25; stroke-linejoin: miter; stroke-linecap: square"/>
   </g>
   <g id="legend_1">
    <g id="patch_7">
     <path d="M 853.020719 123.912684 
L 964.3 123.912684 
Q 966.5 123.912684 966.5 121.712684 
L 966.5 76.82 
Q 966.5 74.62 964.3 74.62 
L 853.020719 74.62 
Q 850.820719 74.62 850.820719 76.82 
L 850.820719 121.712684 
Q 850.820719 123.912684 853.020719 123.912684 
z
" style="fill: #ffffff; opacity: 0.8; stroke: #cccccc; stroke-linejoin: miter"/>
    </g>
    <g id="line2d_18">
     <path d="M 855.220719 82.87 
L 866.220719 82.87 
L 877.220719 82.87 
" style="fill: none; stroke: #4c72b0; stroke-width: 1.5; stroke-linecap: round"/>
    </g>
    <g id="text_17">
     <!-- eta -->
     <g style="fill: #262626" transform="translate(886.020719 86.72)scale(0.11 -0.11)">
      <use xlink:href="#CMSS17-65" transform="scale(0.996264)"/>
      <use xlink:href="#CMSS17-74" transform="translate(41.638822 0)scale(0.996264)"/>
      <use xlink:href="#CMSS17-61" transform="translate(75.470389 0)scale(0.996264)"/>
     </g>
    </g>
    <g id="line2d_19">
     <path d="M 855.220719 98.200895 
L 866.220719 98.200895 
L 877.220719 98.200895 
" style="fill: none; stroke: #dd8452; stroke-width: 1.5; stroke-linecap: round"/>
    </g>
    <g id="text_18">
     <!-- max_depth -->
     <g style="fill: #262626" transform="translate(886.020719 102.050895)scale(0.11 -0.11)">
      <defs>
       <path id="CMSS17-6d" d="M 4288 1878 
C 4288 2309 4179 2816 3462 2816 
C 2982 2816 2694 2515 2566 2328 
C 2451 2668 2182 2816 1798 2816 
C 1363 2816 1088 2566 941 2386 
L 941 2783 
L 474 2783 
L 474 0 
L 960 0 
L 960 1556 
C 960 1936 1101 2425 1555 2425 
C 2138 2425 2138 2013 2138 1826 
L 2138 0 
L 2624 0 
L 2624 1556 
C 2624 1936 2765 2425 3219 2425 
C 3802 2425 3802 2013 3802 1826 
L 3802 0 
L 4288 0 
L 4288 1878 
z
" transform="scale(0.015625)"/>
       <path id="CMSS17-78" d="M 1587 1420 
L 2656 2752 
L 2099 2752 
L 1363 1785 
L 602 2752 
L 32 2752 
L 1139 1420 
L 0 0 
L 563 0 
L 1363 1126 
L 2195 0 
L 2758 0 
L 1587 1420 
z
" transform="scale(0.015625)"/>
       <path id="CMSS17-64" d="M 2611 4416 
L 2138 4416 
L 2138 2495 
C 1939 2662 1613 2816 1254 2816 
C 672 2816 211 2179 211 1375 
C 211 572 666 -64 1235 -64 
C 1677 -64 1971 172 2125 307 
L 2125 -13 
L 2611 -13 
L 2611 4416 
z
M 2125 851 
C 2125 760 2125 663 1926 488 
C 1798 378 1645 326 1498 326 
C 1152 326 698 585 698 1369 
C 698 2185 1210 2425 1562 2425 
C 1798 2425 1990 2308 2125 2114 
L 2125 851 
z
" transform="scale(0.015625)"/>
       <path id="CMSS17-70" d="M 966 275 
C 1178 70 1466 -64 1773 -64 
C 2368 -64 2880 553 2880 1382 
C 2880 2147 2496 2816 1946 2816 
C 1626 2816 1242 2700 954 2470 
L 954 2764 
L 480 2764 
L 480 -1280 
L 966 -1280 
L 966 275 
z
M 966 2088 
C 1018 2166 1235 2412 1587 2412 
C 2035 2412 2394 1946 2394 1382 
C 2394 741 1958 326 1530 326 
C 1402 326 1267 358 1139 468 
C 966 624 966 721 966 812 
L 966 2088 
z
" transform="scale(0.015625)"/>
       <path id="CMSS17-68" d="M 2618 1878 
C 2618 2283 2522 2816 1798 2816 
C 1395 2816 1133 2617 947 2399 
L 947 4416 
L 474 4416 
L 474 0 
L 960 0 
L 960 1556 
C 960 1962 1114 2425 1549 2425 
C 2112 2425 2131 2045 2131 1826 
L 2131 0 
L 2618 0 
L 2618 1878 
z
" transform="scale(0.015625)"/>
      </defs>
      <use xlink:href="#CMSS17-6d" transform="scale(0.996264)"/>
      <use xlink:href="#CMSS17-61" transform="translate(74.229254 0)scale(0.996264)"/>
      <use xlink:href="#CMSS17-78" transform="translate(119.151175 0)scale(0.996264)"/>
      <use xlink:href="#CMSS17-64" transform="translate(195.878812 0)scale(0.996264)"/>
      <use xlink:href="#CMSS17-65" transform="translate(244.083755 0)scale(0.996264)"/>
      <use xlink:href="#CMSS17-70" transform="translate(285.722577 0)scale(0.996264)"/>
      <use xlink:href="#CMSS17-74" transform="translate(333.92752 0)scale(0.996264)"/>
      <use xlink:href="#CMSS17-68" transform="translate(367.759087 0)scale(0.996264)"/>
      <path d="M 167.772328 0 
L 195.878812 0 
L 195.878812 0.3985 
L 167.772328 0.3985 
L 167.772328 0 
z
"/>
     </g>
    </g>
    <g id="line2d_20">
     <path d="M 855.220719 113.531789 
L 866.220719 113.531789 
L 877.220719 113.531789 
" style="fill: none; stroke: #55a868; stroke-width: 1.5; stroke-linecap: round"/>
    </g>
    <g id="text_19">
     <!-- min_child_weight -->
     <g style="fill: #262626" transform="translate(886.020719 117.381789)scale(0.11 -0.11)">
      <defs>
       <path id="CMSS17-6c" d="M 947 4416 
L 474 4416 
L 474 0 
L 947 0 
L 947 4416 
z
" transform="scale(0.015625)"/>
       <path id="CMSS17-77" d="M 4013 2752 
L 3526 2752 
L 3187 1600 
C 3117 1356 2918 684 2893 371 
L 2886 371 
C 2874 563 2765 1024 2586 1632 
L 2259 2752 
L 1818 2752 
L 1498 1657 
C 1338 1100 1216 627 1203 371 
L 1197 371 
C 1171 748 909 1632 870 1772 
L 582 2752 
L 83 2752 
L 915 0 
L 1402 0 
C 1734 1100 1990 1952 2010 2380 
C 2022 2169 2131 1715 2195 1491 
L 2618 0 
L 3181 0 
L 4013 2752 
z
" transform="scale(0.015625)"/>
       <path id="CMSS17-67" d="M 2848 2816 
C 2483 2809 2170 2739 1914 2617 
C 1702 2783 1485 2816 1338 2816 
C 781 2816 358 2356 358 1824 
C 358 1481 550 1222 563 1209 
C 448 1049 384 876 384 684 
C 384 460 474 300 544 211 
C 211 6 166 -308 166 -429 
C 166 -896 749 -1280 1498 -1280 
C 2253 -1280 2835 -896 2835 -423 
C 2835 460 1856 467 1587 467 
L 1069 467 
C 973 467 717 467 717 793 
C 717 921 774 1004 781 1011 
C 877 940 1075 832 1338 832 
C 1869 832 2310 1279 2310 1824 
C 2310 2128 2170 2349 2112 2425 
L 2131 2425 
C 2150 2425 2419 2444 2515 2444 
C 2720 2444 2739 2438 2918 2419 
L 2848 2816 
z
M 1338 1184 
C 1120 1184 813 1317 813 1824 
C 813 2375 1165 2463 1331 2463 
C 1549 2463 1856 2330 1856 1824 
C 1856 1272 1504 1184 1338 1184 
z
M 1581 0 
C 1734 0 2381 0 2381 -436 
C 2381 -711 1984 -928 1504 -928 
C 1018 -928 621 -717 621 -429 
C 621 -397 621 0 1062 0 
L 1581 0 
z
" transform="scale(0.015625)"/>
      </defs>
      <use xlink:href="#CMSS17-6d" transform="scale(0.996264)"/>
      <use xlink:href="#CMSS17-69" transform="translate(74.229254 0)scale(0.996264)"/>
      <use xlink:href="#CMSS17-6e" transform="translate(96.409977 0)scale(0.996264)"/>
      <use xlink:href="#CMSS17-63" transform="translate(178.342416 0)scale(0.996264)"/>
      <use xlink:href="#CMSS17-68" transform="translate(219.981238 0)scale(0.996264)"/>
      <use xlink:href="#CMSS17-69" transform="translate(268.186181 0)scale(0.996264)"/>
      <use xlink:href="#CMSS17-6c" transform="translate(290.366904 0)scale(0.996264)"/>
      <use xlink:href="#CMSS17-64" transform="translate(312.547627 0)scale(0.996264)"/>
      <use xlink:href="#CMSS17-77" transform="translate(394.480066 0)scale(0.996264)"/>
      <use xlink:href="#CMSS17-65" transform="translate(455.697157 0)scale(0.996264)"/>
      <use xlink:href="#CMSS17-69" transform="translate(497.335979 0)scale(0.996264)"/>
      <use xlink:href="#CMSS17-67" transform="translate(519.516702 0)scale(0.996264)"/>
      <use xlink:href="#CMSS17-68" transform="translate(566.360325 0)scale(0.996264)"/>
      <use xlink:href="#CMSS17-74" transform="translate(614.565269 0)scale(0.996264)"/>
      <path d="M 150.235932 0 
L 178.342416 0 
L 178.342416 0.3985 
L 150.235932 0.3985 
L 150.235932 0 
z
"/>
      <path d="M 366.373581 0 
L 394.480066 0 
L 394.480066 0.3985 
L 366.373581 0.3985 
L 366.373581 0 
z
"/>
     </g>
    </g>
   </g>
  </g>
 </g>
 <defs>
  <clipPath id="p1e021f7080">
   <rect x="135" y="69.12" width="837" height="443.52"/>
  </clipPath>
 </defs>
</svg>
