<?xml version="1.0" encoding="utf-8" standalone="no"?>
<!DOCTYPE svg PUBLIC "-//W3C//DTD SVG 1.1//EN"
  "http://www.w3.org/Graphics/SVG/1.1/DTD/svg11.dtd">
<svg xmlns:xlink="http://www.w3.org/1999/xlink" width="1440pt" height="720pt" viewBox="0 0 1440 720" xmlns="http://www.w3.org/2000/svg" version="1.1">
 <metadata>
  <rdf:RDF xmlns:dc="http://purl.org/dc/elements/1.1/" xmlns:cc="http://creativecommons.org/ns#" xmlns:rdf="http://www.w3.org/1999/02/22-rdf-syntax-ns#">
   <cc:Work>
    <dc:type rdf:resource="http://purl.org/dc/dcmitype/StillImage"/>
    <dc:date>2022-05-24T18:19:48.970883</dc:date>
    <dc:format>image/svg+xml</dc:format>
    <dc:creator>
     <cc:Agent>
      <dc:title>Matplotlib v3.5.0, https://matplotlib.org/</dc:title>
     </cc:Agent>
    </dc:creator>
   </cc:Work>
  </rdf:RDF>
 </metadata>
 <defs>
  <style type="text/css">*{stroke-linejoin: round; stroke-linecap: butt}</style>
 </defs>
 <g id="figure_1">
  <g id="patch_1">
   <path d="M 0 720 
L 1440 720 
L 1440 0 
L 0 0 
z
" style="fill: #ffffff"/>
  </g>
  <g id="axes_1">
   <g id="patch_2">
    <path d="M 180 640.8 
L 1296 640.8 
L 1296 86.4 
L 180 86.4 
z
" style="fill: #ffffff"/>
   </g>
   <g id="matplotlib.axis_1">
    <g id="xtick_1">
     <g id="line2d_1">
      <defs>
       <path id="m2ad515691b" d="M 0 0 
L 0 3.5 
" style="stroke: #000000; stroke-width: 0.8"/>
      </defs>
      <g>
       <use xlink:href="#m2ad515691b" x="230.727273" y="640.8" style="stroke: #000000; stroke-width: 0.8"/>
      </g>
     </g>
     <g id="text_1">
      <!-- 0 -->
      <g transform="translate(227.546023 655.398438)scale(0.1 -0.1)">
       <defs>
        <path id="DejaVuSans-30" d="M 2034 4250 
Q 1547 4250 1301 3770 
Q 1056 3291 1056 2328 
Q 1056 1369 1301 889 
Q 1547 409 2034 409 
Q 2525 409 2770 889 
Q 3016 1369 3016 2328 
Q 3016 3291 2770 3770 
Q 2525 4250 2034 4250 
z
M 2034 4750 
Q 2819 4750 3233 4129 
Q 3647 3509 3647 2328 
Q 3647 1150 3233 529 
Q 2819 -91 2034 -91 
Q 1250 -91 836 529 
Q 422 1150 422 2328 
Q 422 3509 836 4129 
Q 1250 4750 2034 4750 
z
" transform="scale(0.015625)"/>
       </defs>
       <use xlink:href="#DejaVuSans-30"/>
      </g>
     </g>
    </g>
    <g id="xtick_2">
     <g id="line2d_2">
      <g>
       <use xlink:href="#m2ad515691b" x="434.042995" y="640.8" style="stroke: #000000; stroke-width: 0.8"/>
      </g>
     </g>
     <g id="text_2">
      <!-- 100 -->
      <g transform="translate(424.499245 655.398438)scale(0.1 -0.1)">
       <defs>
        <path id="DejaVuSans-31" d="M 794 531 
L 1825 531 
L 1825 4091 
L 703 3866 
L 703 4441 
L 1819 4666 
L 2450 4666 
L 2450 531 
L 3481 531 
L 3481 0 
L 794 0 
L 794 531 
z
" transform="scale(0.015625)"/>
       </defs>
       <use xlink:href="#DejaVuSans-31"/>
       <use xlink:href="#DejaVuSans-30" x="63.623047"/>
       <use xlink:href="#DejaVuSans-30" x="127.246094"/>
      </g>
     </g>
    </g>
    <g id="xtick_3">
     <g id="line2d_3">
      <g>
       <use xlink:href="#m2ad515691b" x="637.358717" y="640.8" style="stroke: #000000; stroke-width: 0.8"/>
      </g>
     </g>
     <g id="text_3">
      <!-- 200 -->
      <g transform="translate(627.814967 655.398438)scale(0.1 -0.1)">
       <defs>
        <path id="DejaVuSans-32" d="M 1228 531 
L 3431 531 
L 3431 0 
L 469 0 
L 469 531 
Q 828 903 1448 1529 
Q 2069 2156 2228 2338 
Q 2531 2678 2651 2914 
Q 2772 3150 2772 3378 
Q 2772 3750 2511 3984 
Q 2250 4219 1831 4219 
Q 1534 4219 1204 4116 
Q 875 4013 500 3803 
L 500 4441 
Q 881 4594 1212 4672 
Q 1544 4750 1819 4750 
Q 2544 4750 2975 4387 
Q 3406 4025 3406 3419 
Q 3406 3131 3298 2873 
Q 3191 2616 2906 2266 
Q 2828 2175 2409 1742 
Q 1991 1309 1228 531 
z
" transform="scale(0.015625)"/>
       </defs>
       <use xlink:href="#DejaVuSans-32"/>
       <use xlink:href="#DejaVuSans-30" x="63.623047"/>
       <use xlink:href="#DejaVuSans-30" x="127.246094"/>
      </g>
     </g>
    </g>
    <g id="xtick_4">
     <g id="line2d_4">
      <g>
       <use xlink:href="#m2ad515691b" x="840.67444" y="640.8" style="stroke: #000000; stroke-width: 0.8"/>
      </g>
     </g>
     <g id="text_4">
      <!-- 300 -->
      <g transform="translate(831.13069 655.398438)scale(0.1 -0.1)">
       <defs>
        <path id="DejaVuSans-33" d="M 2597 2516 
Q 3050 2419 3304 2112 
Q 3559 1806 3559 1356 
Q 3559 666 3084 287 
Q 2609 -91 1734 -91 
Q 1441 -91 1130 -33 
Q 819 25 488 141 
L 488 750 
Q 750 597 1062 519 
Q 1375 441 1716 441 
Q 2309 441 2620 675 
Q 2931 909 2931 1356 
Q 2931 1769 2642 2001 
Q 2353 2234 1838 2234 
L 1294 2234 
L 1294 2753 
L 1863 2753 
Q 2328 2753 2575 2939 
Q 2822 3125 2822 3475 
Q 2822 3834 2567 4026 
Q 2313 4219 1838 4219 
Q 1578 4219 1281 4162 
Q 984 4106 628 3988 
L 628 4550 
Q 988 4650 1302 4700 
Q 1616 4750 1894 4750 
Q 2613 4750 3031 4423 
Q 3450 4097 3450 3541 
Q 3450 3153 3228 2886 
Q 3006 2619 2597 2516 
z
" transform="scale(0.015625)"/>
       </defs>
       <use xlink:href="#DejaVuSans-33"/>
       <use xlink:href="#DejaVuSans-30" x="63.623047"/>
       <use xlink:href="#DejaVuSans-30" x="127.246094"/>
      </g>
     </g>
    </g>
    <g id="xtick_5">
     <g id="line2d_5">
      <g>
       <use xlink:href="#m2ad515691b" x="1043.990162" y="640.8" style="stroke: #000000; stroke-width: 0.8"/>
      </g>
     </g>
     <g id="text_5">
      <!-- 400 -->
      <g transform="translate(1034.446412 655.398438)scale(0.1 -0.1)">
       <defs>
        <path id="DejaVuSans-34" d="M 2419 4116 
L 825 1625 
L 2419 1625 
L 2419 4116 
z
M 2253 4666 
L 3047 4666 
L 3047 1625 
L 3713 1625 
L 3713 1100 
L 3047 1100 
L 3047 0 
L 2419 0 
L 2419 1100 
L 313 1100 
L 313 1709 
L 2253 4666 
z
" transform="scale(0.015625)"/>
       </defs>
       <use xlink:href="#DejaVuSans-34"/>
       <use xlink:href="#DejaVuSans-30" x="63.623047"/>
       <use xlink:href="#DejaVuSans-30" x="127.246094"/>
      </g>
     </g>
    </g>
    <g id="xtick_6">
     <g id="line2d_6">
      <g>
       <use xlink:href="#m2ad515691b" x="1247.305884" y="640.8" style="stroke: #000000; stroke-width: 0.8"/>
      </g>
     </g>
     <g id="text_6">
      <!-- 500 -->
      <g transform="translate(1237.762134 655.398438)scale(0.1 -0.1)">
       <defs>
        <path id="DejaVuSans-35" d="M 691 4666 
L 3169 4666 
L 3169 4134 
L 1269 4134 
L 1269 2991 
Q 1406 3038 1543 3061 
Q 1681 3084 1819 3084 
Q 2600 3084 3056 2656 
Q 3513 2228 3513 1497 
Q 3513 744 3044 326 
Q 2575 -91 1722 -91 
Q 1428 -91 1123 -41 
Q 819 9 494 109 
L 494 744 
Q 775 591 1075 516 
Q 1375 441 1709 441 
Q 2250 441 2565 725 
Q 2881 1009 2881 1497 
Q 2881 1984 2565 2268 
Q 2250 2553 1709 2553 
Q 1456 2553 1204 2497 
Q 953 2441 691 2322 
L 691 4666 
z
" transform="scale(0.015625)"/>
       </defs>
       <use xlink:href="#DejaVuSans-35"/>
       <use xlink:href="#DejaVuSans-30" x="63.623047"/>
       <use xlink:href="#DejaVuSans-30" x="127.246094"/>
      </g>
     </g>
    </g>
    <g id="text_7">
     <!-- No. epoch -->
     <g transform="translate(712.88125 669.076563)scale(0.1 -0.1)">
      <defs>
       <path id="DejaVuSans-4e" d="M 628 4666 
L 1478 4666 
L 3547 763 
L 3547 4666 
L 4159 4666 
L 4159 0 
L 3309 0 
L 1241 3903 
L 1241 0 
L 628 0 
L 628 4666 
z
" transform="scale(0.015625)"/>
       <path id="DejaVuSans-6f" d="M 1959 3097 
Q 1497 3097 1228 2736 
Q 959 2375 959 1747 
Q 959 1119 1226 758 
Q 1494 397 1959 397 
Q 2419 397 2687 759 
Q 2956 1122 2956 1747 
Q 2956 2369 2687 2733 
Q 2419 3097 1959 3097 
z
M 1959 3584 
Q 2709 3584 3137 3096 
Q 3566 2609 3566 1747 
Q 3566 888 3137 398 
Q 2709 -91 1959 -91 
Q 1206 -91 779 398 
Q 353 888 353 1747 
Q 353 2609 779 3096 
Q 1206 3584 1959 3584 
z
" transform="scale(0.015625)"/>
       <path id="DejaVuSans-2e" d="M 684 794 
L 1344 794 
L 1344 0 
L 684 0 
L 684 794 
z
" transform="scale(0.015625)"/>
       <path id="DejaVuSans-20" transform="scale(0.015625)"/>
       <path id="DejaVuSans-65" d="M 3597 1894 
L 3597 1613 
L 953 1613 
Q 991 1019 1311 708 
Q 1631 397 2203 397 
Q 2534 397 2845 478 
Q 3156 559 3463 722 
L 3463 178 
Q 3153 47 2828 -22 
Q 2503 -91 2169 -91 
Q 1331 -91 842 396 
Q 353 884 353 1716 
Q 353 2575 817 3079 
Q 1281 3584 2069 3584 
Q 2775 3584 3186 3129 
Q 3597 2675 3597 1894 
z
M 3022 2063 
Q 3016 2534 2758 2815 
Q 2500 3097 2075 3097 
Q 1594 3097 1305 2825 
Q 1016 2553 972 2059 
L 3022 2063 
z
" transform="scale(0.015625)"/>
       <path id="DejaVuSans-70" d="M 1159 525 
L 1159 -1331 
L 581 -1331 
L 581 3500 
L 1159 3500 
L 1159 2969 
Q 1341 3281 1617 3432 
Q 1894 3584 2278 3584 
Q 2916 3584 3314 3078 
Q 3713 2572 3713 1747 
Q 3713 922 3314 415 
Q 2916 -91 2278 -91 
Q 1894 -91 1617 61 
Q 1341 213 1159 525 
z
M 3116 1747 
Q 3116 2381 2855 2742 
Q 2594 3103 2138 3103 
Q 1681 3103 1420 2742 
Q 1159 2381 1159 1747 
Q 1159 1113 1420 752 
Q 1681 391 2138 391 
Q 2594 391 2855 752 
Q 3116 1113 3116 1747 
z
" transform="scale(0.015625)"/>
       <path id="DejaVuSans-63" d="M 3122 3366 
L 3122 2828 
Q 2878 2963 2633 3030 
Q 2388 3097 2138 3097 
Q 1578 3097 1268 2742 
Q 959 2388 959 1747 
Q 959 1106 1268 751 
Q 1578 397 2138 397 
Q 2388 397 2633 464 
Q 2878 531 3122 666 
L 3122 134 
Q 2881 22 2623 -34 
Q 2366 -91 2075 -91 
Q 1284 -91 818 406 
Q 353 903 353 1747 
Q 353 2603 823 3093 
Q 1294 3584 2113 3584 
Q 2378 3584 2631 3529 
Q 2884 3475 3122 3366 
z
" transform="scale(0.015625)"/>
       <path id="DejaVuSans-68" d="M 3513 2113 
L 3513 0 
L 2938 0 
L 2938 2094 
Q 2938 2591 2744 2837 
Q 2550 3084 2163 3084 
Q 1697 3084 1428 2787 
Q 1159 2491 1159 1978 
L 1159 0 
L 581 0 
L 581 4863 
L 1159 4863 
L 1159 2956 
Q 1366 3272 1645 3428 
Q 1925 3584 2291 3584 
Q 2894 3584 3203 3211 
Q 3513 2838 3513 2113 
z
" transform="scale(0.015625)"/>
      </defs>
      <use xlink:href="#DejaVuSans-4e"/>
      <use xlink:href="#DejaVuSans-6f" x="74.804688"/>
      <use xlink:href="#DejaVuSans-2e" x="134.236328"/>
      <use xlink:href="#DejaVuSans-20" x="166.023438"/>
      <use xlink:href="#DejaVuSans-65" x="197.810547"/>
      <use xlink:href="#DejaVuSans-70" x="259.333984"/>
      <use xlink:href="#DejaVuSans-6f" x="322.810547"/>
      <use xlink:href="#DejaVuSans-63" x="383.992188"/>
      <use xlink:href="#DejaVuSans-68" x="438.972656"/>
     </g>
    </g>
   </g>
   <g id="matplotlib.axis_2">
    <g id="ytick_1">
     <g id="line2d_7">
      <defs>
       <path id="m8b3800e162" d="M 0 0 
L -3.5 0 
" style="stroke: #000000; stroke-width: 0.8"/>
      </defs>
      <g>
       <use xlink:href="#m8b3800e162" x="180" y="558.154978" style="stroke: #000000; stroke-width: 0.8"/>
      </g>
     </g>
     <g id="text_8">
      <!-- 0.2 -->
      <g transform="translate(157.096875 561.954197)scale(0.1 -0.1)">
       <use xlink:href="#DejaVuSans-30"/>
       <use xlink:href="#DejaVuSans-2e" x="63.623047"/>
       <use xlink:href="#DejaVuSans-32" x="95.410156"/>
      </g>
     </g>
    </g>
    <g id="ytick_2">
     <g id="line2d_8">
      <g>
       <use xlink:href="#m8b3800e162" x="180" y="475.392698" style="stroke: #000000; stroke-width: 0.8"/>
      </g>
     </g>
     <g id="text_9">
      <!-- 0.3 -->
      <g transform="translate(157.096875 479.191917)scale(0.1 -0.1)">
       <use xlink:href="#DejaVuSans-30"/>
       <use xlink:href="#DejaVuSans-2e" x="63.623047"/>
       <use xlink:href="#DejaVuSans-33" x="95.410156"/>
      </g>
     </g>
    </g>
    <g id="ytick_3">
     <g id="line2d_9">
      <g>
       <use xlink:href="#m8b3800e162" x="180" y="392.630417" style="stroke: #000000; stroke-width: 0.8"/>
      </g>
     </g>
     <g id="text_10">
      <!-- 0.4 -->
      <g transform="translate(157.096875 396.429636)scale(0.1 -0.1)">
       <use xlink:href="#DejaVuSans-30"/>
       <use xlink:href="#DejaVuSans-2e" x="63.623047"/>
       <use xlink:href="#DejaVuSans-34" x="95.410156"/>
      </g>
     </g>
    </g>
    <g id="ytick_4">
     <g id="line2d_10">
      <g>
       <use xlink:href="#m8b3800e162" x="180" y="309.868137" style="stroke: #000000; stroke-width: 0.8"/>
      </g>
     </g>
     <g id="text_11">
      <!-- 0.5 -->
      <g transform="translate(157.096875 313.667356)scale(0.1 -0.1)">
       <use xlink:href="#DejaVuSans-30"/>
       <use xlink:href="#DejaVuSans-2e" x="63.623047"/>
       <use xlink:href="#DejaVuSans-35" x="95.410156"/>
      </g>
     </g>
    </g>
    <g id="ytick_5">
     <g id="line2d_11">
      <g>
       <use xlink:href="#m8b3800e162" x="180" y="227.105857" style="stroke: #000000; stroke-width: 0.8"/>
      </g>
     </g>
     <g id="text_12">
      <!-- 0.6 -->
      <g transform="translate(157.096875 230.905076)scale(0.1 -0.1)">
       <defs>
        <path id="DejaVuSans-36" d="M 2113 2584 
Q 1688 2584 1439 2293 
Q 1191 2003 1191 1497 
Q 1191 994 1439 701 
Q 1688 409 2113 409 
Q 2538 409 2786 701 
Q 3034 994 3034 1497 
Q 3034 2003 2786 2293 
Q 2538 2584 2113 2584 
z
M 3366 4563 
L 3366 3988 
Q 3128 4100 2886 4159 
Q 2644 4219 2406 4219 
Q 1781 4219 1451 3797 
Q 1122 3375 1075 2522 
Q 1259 2794 1537 2939 
Q 1816 3084 2150 3084 
Q 2853 3084 3261 2657 
Q 3669 2231 3669 1497 
Q 3669 778 3244 343 
Q 2819 -91 2113 -91 
Q 1303 -91 875 529 
Q 447 1150 447 2328 
Q 447 3434 972 4092 
Q 1497 4750 2381 4750 
Q 2619 4750 2861 4703 
Q 3103 4656 3366 4563 
z
" transform="scale(0.015625)"/>
       </defs>
       <use xlink:href="#DejaVuSans-30"/>
       <use xlink:href="#DejaVuSans-2e" x="63.623047"/>
       <use xlink:href="#DejaVuSans-36" x="95.410156"/>
      </g>
     </g>
    </g>
    <g id="ytick_6">
     <g id="line2d_12">
      <g>
       <use xlink:href="#m8b3800e162" x="180" y="144.343577" style="stroke: #000000; stroke-width: 0.8"/>
      </g>
     </g>
     <g id="text_13">
      <!-- 0.7 -->
      <g transform="translate(157.096875 148.142795)scale(0.1 -0.1)">
       <defs>
        <path id="DejaVuSans-37" d="M 525 4666 
L 3525 4666 
L 3525 4397 
L 1831 0 
L 1172 0 
L 2766 4134 
L 525 4134 
L 525 4666 
z
" transform="scale(0.015625)"/>
       </defs>
       <use xlink:href="#DejaVuSans-30"/>
       <use xlink:href="#DejaVuSans-2e" x="63.623047"/>
       <use xlink:href="#DejaVuSans-37" x="95.410156"/>
      </g>
     </g>
    </g>
    <g id="text_14">
     <!-- F1 score value -->
     <g transform="translate(151.017188 399.925781)rotate(-90)scale(0.1 -0.1)">
      <defs>
       <path id="DejaVuSans-46" d="M 628 4666 
L 3309 4666 
L 3309 4134 
L 1259 4134 
L 1259 2759 
L 3109 2759 
L 3109 2228 
L 1259 2228 
L 1259 0 
L 628 0 
L 628 4666 
z
" transform="scale(0.015625)"/>
       <path id="DejaVuSans-73" d="M 2834 3397 
L 2834 2853 
Q 2591 2978 2328 3040 
Q 2066 3103 1784 3103 
Q 1356 3103 1142 2972 
Q 928 2841 928 2578 
Q 928 2378 1081 2264 
Q 1234 2150 1697 2047 
L 1894 2003 
Q 2506 1872 2764 1633 
Q 3022 1394 3022 966 
Q 3022 478 2636 193 
Q 2250 -91 1575 -91 
Q 1294 -91 989 -36 
Q 684 19 347 128 
L 347 722 
Q 666 556 975 473 
Q 1284 391 1588 391 
Q 1994 391 2212 530 
Q 2431 669 2431 922 
Q 2431 1156 2273 1281 
Q 2116 1406 1581 1522 
L 1381 1569 
Q 847 1681 609 1914 
Q 372 2147 372 2553 
Q 372 3047 722 3315 
Q 1072 3584 1716 3584 
Q 2034 3584 2315 3537 
Q 2597 3491 2834 3397 
z
" transform="scale(0.015625)"/>
       <path id="DejaVuSans-72" d="M 2631 2963 
Q 2534 3019 2420 3045 
Q 2306 3072 2169 3072 
Q 1681 3072 1420 2755 
Q 1159 2438 1159 1844 
L 1159 0 
L 581 0 
L 581 3500 
L 1159 3500 
L 1159 2956 
Q 1341 3275 1631 3429 
Q 1922 3584 2338 3584 
Q 2397 3584 2469 3576 
Q 2541 3569 2628 3553 
L 2631 2963 
z
" transform="scale(0.015625)"/>
       <path id="DejaVuSans-76" d="M 191 3500 
L 800 3500 
L 1894 563 
L 2988 3500 
L 3597 3500 
L 2284 0 
L 1503 0 
L 191 3500 
z
" transform="scale(0.015625)"/>
       <path id="DejaVuSans-61" d="M 2194 1759 
Q 1497 1759 1228 1600 
Q 959 1441 959 1056 
Q 959 750 1161 570 
Q 1363 391 1709 391 
Q 2188 391 2477 730 
Q 2766 1069 2766 1631 
L 2766 1759 
L 2194 1759 
z
M 3341 1997 
L 3341 0 
L 2766 0 
L 2766 531 
Q 2569 213 2275 61 
Q 1981 -91 1556 -91 
Q 1019 -91 701 211 
Q 384 513 384 1019 
Q 384 1609 779 1909 
Q 1175 2209 1959 2209 
L 2766 2209 
L 2766 2266 
Q 2766 2663 2505 2880 
Q 2244 3097 1772 3097 
Q 1472 3097 1187 3025 
Q 903 2953 641 2809 
L 641 3341 
Q 956 3463 1253 3523 
Q 1550 3584 1831 3584 
Q 2591 3584 2966 3190 
Q 3341 2797 3341 1997 
z
" transform="scale(0.015625)"/>
       <path id="DejaVuSans-6c" d="M 603 4863 
L 1178 4863 
L 1178 0 
L 603 0 
L 603 4863 
z
" transform="scale(0.015625)"/>
       <path id="DejaVuSans-75" d="M 544 1381 
L 544 3500 
L 1119 3500 
L 1119 1403 
Q 1119 906 1312 657 
Q 1506 409 1894 409 
Q 2359 409 2629 706 
Q 2900 1003 2900 1516 
L 2900 3500 
L 3475 3500 
L 3475 0 
L 2900 0 
L 2900 538 
Q 2691 219 2414 64 
Q 2138 -91 1772 -91 
Q 1169 -91 856 284 
Q 544 659 544 1381 
z
M 1991 3584 
L 1991 3584 
z
" transform="scale(0.015625)"/>
      </defs>
      <use xlink:href="#DejaVuSans-46"/>
      <use xlink:href="#DejaVuSans-31" x="57.519531"/>
      <use xlink:href="#DejaVuSans-20" x="121.142578"/>
      <use xlink:href="#DejaVuSans-73" x="152.929688"/>
      <use xlink:href="#DejaVuSans-63" x="205.029297"/>
      <use xlink:href="#DejaVuSans-6f" x="260.009766"/>
      <use xlink:href="#DejaVuSans-72" x="321.191406"/>
      <use xlink:href="#DejaVuSans-65" x="360.054688"/>
      <use xlink:href="#DejaVuSans-20" x="421.578125"/>
      <use xlink:href="#DejaVuSans-76" x="453.365234"/>
      <use xlink:href="#DejaVuSans-61" x="512.544922"/>
      <use xlink:href="#DejaVuSans-6c" x="573.824219"/>
      <use xlink:href="#DejaVuSans-75" x="601.607422"/>
      <use xlink:href="#DejaVuSans-65" x="664.986328"/>
     </g>
    </g>
   </g>
   <g id="line2d_13">
    <path d="M 230.727273 210.793487 
L 232.76043 182.600707 
L 234.793587 246.681427 
L 236.826744 221.604389 
L 238.859902 209.867658 
L 240.893059 206.277754 
L 242.926216 230.765741 
L 244.959373 220.740964 
L 246.992531 271.923672 
L 249.025688 192.942282 
L 251.058845 200.451813 
L 253.092002 200.119574 
L 255.125159 188.83964 
L 257.158317 222.698828 
L 259.191474 237.927099 
L 261.224631 251.547552 
L 263.257788 213.66095 
L 265.290946 208.102724 
L 267.324103 197.199771 
L 269.35726 216.55668 
L 271.390417 226.09151 
L 273.423574 204.842493 
L 275.456732 198.455865 
L 277.489889 209.79539 
L 279.523046 204.989102 
L 281.556203 214.640302 
L 283.589361 210.788406 
L 285.622518 236.879178 
L 287.655675 202.859914 
L 289.688832 195.169736 
L 291.721989 210.420945 
L 293.755147 210.424596 
L 295.788304 199.118172 
L 297.821461 200.044938 
L 299.854618 214.588407 
L 301.887776 188.892325 
L 303.920933 200.585399 
L 305.95409 196.682495 
L 307.987247 208.202864 
L 310.020404 193.757858 
L 312.053562 198.674792 
L 314.086719 212.696348 
L 316.119876 201.888652 
L 318.153033 203.874142 
L 320.186191 197.048377 
L 322.219348 192.488494 
L 324.252505 231.032074 
L 326.285662 200.724017 
L 328.318819 196.986665 
L 330.351977 204.209341 
L 332.385134 205.809611 
L 334.418291 203.97961 
L 336.451448 208.233301 
L 338.484606 195.423836 
L 342.55092 187.457606 
L 344.584077 190.851324 
L 346.617234 192.141061 
L 348.650392 215.424405 
L 350.683549 197.607238 
L 352.716706 199.600325 
L 354.749863 199.879336 
L 356.783021 199.21481 
L 358.816178 207.178523 
L 360.849335 185.797005 
L 362.882492 188.256706 
L 364.915649 186.756033 
L 366.948807 194.763946 
L 368.981964 215.767102 
L 371.015121 196.784707 
L 373.048278 192.842536 
L 375.081436 207.930315 
L 377.114593 202.648929 
L 379.14775 199.049652 
L 381.180907 187.780423 
L 383.214064 193.688006 
L 385.247222 188.749761 
L 387.280379 192.248848 
L 391.346693 215.055712 
L 393.379851 195.015678 
L 395.413008 199.934438 
L 397.446165 203.077953 
L 399.479322 203.462087 
L 401.51248 193.871514 
L 403.545637 198.417634 
L 405.578794 183.436458 
L 407.611951 191.253809 
L 409.645108 192.727646 
L 411.678266 190.208355 
L 413.711423 195.159229 
L 415.74458 196.895207 
L 417.777737 186.321681 
L 419.810895 188.882558 
L 421.844052 200.08603 
L 423.877209 194.997574 
L 425.910366 188.17541 
L 427.943523 196.611805 
L 429.976681 188.400651 
L 432.009838 193.973726 
L 434.042995 184.89895 
L 436.076152 190.163761 
L 438.10931 191.551961 
L 440.142467 194.666174 
L 442.175624 188.300758 
L 444.208781 188.782319 
L 446.241938 186.900225 
L 448.275096 192.320969 
L 450.308253 181.719275 
L 452.34141 185.041908 
L 454.374567 187.771544 
L 456.407725 198.996425 
L 458.440882 184.926328 
L 460.474039 180.7527 
L 462.507196 200.602072 
L 464.540353 192.694102 
L 468.606668 191.029406 
L 470.639825 183.503794 
L 472.672982 183.119413 
L 474.70614 181.041725 
L 476.739297 186.484668 
L 478.772454 179.687662 
L 480.805611 183.382787 
L 482.838768 197.828533 
L 484.871926 181.12164 
L 486.905083 182.706766 
L 488.93824 180.495591 
L 490.971397 187.775194 
L 493.004555 182.196545 
L 495.037712 192.632439 
L 497.070869 184.934714 
L 499.104026 190.462109 
L 501.137183 184.980246 
L 503.170341 182.782686 
L 505.203498 183.616513 
L 507.236655 178.575612 
L 509.269812 187.088666 
L 511.30297 178.368968 
L 513.336127 185.218905 
L 515.369284 180.830494 
L 517.402441 182.133945 
L 519.435598 182.01496 
L 521.468756 188.236875 
L 523.501913 191.811832 
L 525.53507 182.74993 
L 527.568227 183.796026 
L 529.601385 185.022374 
L 531.634542 192.148609 
L 533.667699 183.542321 
L 535.700856 180.194973 
L 537.734013 185.371779 
L 539.767171 183.628944 
L 541.800328 186.104036 
L 543.833485 177.146813 
L 545.866642 177.475845 
L 547.8998 179.242112 
L 549.932957 183.121781 
L 551.966114 188.63714 
L 553.999271 199.055917 
L 556.032428 203.391397 
L 558.065586 192.8231 
L 560.098743 190.097559 
L 562.1319 205.060977 
L 564.165057 194.695427 
L 566.198215 189.073465 
L 568.231372 188.63936 
L 570.264529 197.550706 
L 572.297686 194.100554 
L 574.330844 190.393294 
L 576.364001 192.002592 
L 578.397158 189.794031 
L 580.430315 196.020879 
L 582.463472 202.655391 
L 584.49663 208.264724 
L 586.529787 176.264198 
L 588.562944 181.727267 
L 590.596101 184.195403 
L 592.629259 201.527161 
L 594.662416 197.919745 
L 596.695573 200.742121 
L 598.72873 191.155987 
L 600.761887 192.355746 
L 602.795045 194.93527 
L 604.828202 182.920415 
L 606.861359 183.717739 
L 608.894516 185.809732 
L 610.927674 187.166805 
L 612.960831 178.815998 
L 614.993988 185.281604 
L 617.027145 186.074931 
L 619.060302 184.072669 
L 621.09346 186.260807 
L 623.126617 180.932656 
L 625.159774 194.054036 
L 627.192931 187.411384 
L 629.226089 185.595393 
L 631.259246 178.57941 
L 633.292403 182.394753 
L 635.32556 185.092126 
L 637.358717 188.271505 
L 639.391875 182.00539 
L 641.425032 181.350384 
L 643.458189 186.408748 
L 645.491346 182.703264 
L 647.524504 183.394972 
L 649.557661 183.177869 
L 651.590818 182.101929 
L 653.623975 182.735921 
L 655.657132 175.632377 
L 657.69029 177.646774 
L 659.723447 186.10448 
L 661.756604 188.029491 
L 663.789761 185.095777 
L 665.822919 184.676372 
L 667.856076 184.493406 
L 669.889233 179.937223 
L 671.92239 180.066172 
L 673.955547 179.591665 
L 675.988705 178.918161 
L 678.021862 178.485486 
L 680.055019 181.667084 
L 682.088176 177.171577 
L 684.121334 185.186594 
L 686.154491 176.872735 
L 688.187648 177.075778 
L 690.220805 180.765131 
L 692.253962 184.003952 
L 694.28712 181.224346 
L 696.320277 176.470546 
L 698.353434 178.671707 
L 700.386591 183.283091 
L 702.419749 172.374416 
L 704.452906 180.089407 
L 706.486063 184.537803 
L 708.51922 179.01322 
L 710.552377 180.786244 
L 712.585535 177.434457 
L 714.618692 181.244867 
L 716.651849 178.609403 
L 718.685006 181.206636 
L 720.718164 182.308869 
L 722.751321 176.369271 
L 724.784478 178.559728 
L 726.817635 179.166341 
L 728.850792 173.139329 
L 730.88395 175.940049 
L 732.917107 175.075883 
L 734.950264 174.898542 
L 736.983421 182.279962 
L 739.016579 174.234459 
L 741.049736 177.710509 
L 743.082893 175.277693 
L 745.11605 180.824771 
L 747.149208 174.933418 
L 749.182365 182.242471 
L 751.215522 180.687091 
L 753.248679 175.172472 
L 755.281836 180.171936 
L 757.314994 176.009161 
L 759.348151 183.210526 
L 761.381308 187.221562 
L 763.414465 188.841959 
L 765.447623 181.839 
L 767.48078 189.82432 
L 769.513937 191.725159 
L 771.547094 167.891636 
L 773.580251 179.534738 
L 775.613409 188.002113 
L 777.646566 207.691409 
L 779.679723 194.562531 
L 781.71288 188.110442 
L 783.746038 197.924678 
L 785.779195 190.072598 
L 787.812352 189.770994 
L 789.845509 180.608804 
L 791.878666 170.732313 
L 793.911824 180.59292 
L 795.944981 178.1935 
L 797.978138 175.201873 
L 800.011295 193.762297 
L 804.07761 175.931219 
L 806.110767 163.834526 
L 808.143924 170.534894 
L 810.177081 183.087349 
L 812.210239 175.768676 
L 814.243396 179.990746 
L 816.276553 184.715935 
L 818.30971 176.445042 
L 820.342868 174.121887 
L 822.376025 181.097567 
L 824.409182 190.058638 
L 826.442339 178.485338 
L 828.475496 178.955405 
L 830.508654 180.264134 
L 832.541811 184.772072 
L 834.574968 182.017131 
L 836.608125 172.179019 
L 838.641283 176.554555 
L 840.67444 174.829874 
L 842.707597 176.497135 
L 844.740754 176.167017 
L 846.773911 179.539375 
L 848.807069 181.529847 
L 850.840226 179.586979 
L 852.873383 180.428946 
L 854.90654 175.752743 
L 856.939698 177.071387 
L 858.972855 173.62607 
L 861.006012 178.78566 
L 863.039169 178.42259 
L 865.072326 180.249828 
L 867.105484 180.340349 
L 869.138641 180.834884 
L 871.171798 183.17195 
L 873.204955 170.905117 
L 875.238113 173.959295 
L 877.27127 177.427946 
L 879.304427 173.871044 
L 881.337584 181.846054 
L 883.370741 172.748141 
L 885.403899 178.608614 
L 887.437056 175.486952 
L 889.470213 181.361681 
L 891.50337 182.568938 
L 893.536528 172.171767 
L 895.569685 179.819817 
L 897.602842 180.99575 
L 899.635999 183.316142 
L 901.669156 177.197376 
L 903.702314 183.737915 
L 905.735471 180.306213 
L 907.768628 190.568416 
L 909.801785 188.469121 
L 911.834943 174.396311 
L 913.8681 178.548727 
L 915.901257 185.206523 
L 917.934414 187.460024 
L 919.967572 193.829929 
L 922.000729 185.029822 
L 924.033886 192.832473 
L 926.067043 178.826653 
L 928.1002 185.995608 
L 930.133358 173.085115 
L 932.166515 185.39605 
L 934.199672 186.066003 
L 936.232829 173.140069 
L 938.265987 177.106313 
L 940.299144 179.861255 
L 942.332301 173.881946 
L 944.365458 177.332196 
L 946.398615 183.353978 
L 948.431773 180.358897 
L 950.46493 181.832735 
L 952.498087 180.237792 
L 954.531244 176.120154 
L 956.564402 174.498622 
L 958.597559 175.658226 
L 960.630716 174.709558 
L 962.663873 180.225805 
L 964.69703 178.791333 
L 966.730188 176.263704 
L 968.763345 174.962819 
L 970.796502 176.731354 
L 972.829659 187.043578 
L 974.862817 173.825019 
L 976.895974 179.314134 
L 978.929131 177.010415 
L 980.962288 184.676372 
L 982.995445 171.081176 
L 985.028603 176.126369 
L 987.06176 175.718409 
L 989.094917 176.072057 
L 991.128074 175.821558 
L 993.161232 170.28627 
L 995.194389 175.871579 
L 997.227546 174.87728 
L 999.260703 175.671052 
L 1001.29386 179.20023 
L 1003.327018 174.7175 
L 1005.360175 173.889197 
L 1007.393332 177.245769 
L 1009.426489 183.669543 
L 1011.459647 177.972748 
L 1013.492804 180.81895 
L 1015.525961 177.622405 
L 1017.559118 177.305952 
L 1019.592275 171.60748 
L 1021.625433 181.215022 
L 1023.65859 174.572222 
L 1025.691747 182.913114 
L 1027.724904 186.481609 
L 1031.791219 172.866188 
L 1033.824376 195.888131 
L 1035.857533 185.177813 
L 1037.89069 181.781333 
L 1039.923848 173.993826 
L 1041.957005 176.564668 
L 1043.990162 177.605929 
L 1046.023319 177.370131 
L 1048.056477 174.147884 
L 1050.089634 174.424676 
L 1052.122791 173.567564 
L 1054.155948 169.877323 
L 1056.189105 176.084488 
L 1058.222263 179.958583 
L 1060.25542 190.591108 
L 1062.288577 173.93537 
L 1064.321734 180.620594 
L 1066.354892 186.850451 
L 1068.388049 189.529671 
L 1070.421206 183.880578 
L 1072.454363 174.357488 
L 1074.48752 180.41538 
L 1076.520678 181.233965 
L 1078.553835 174.36987 
L 1080.586992 176.675118 
L 1082.620149 178.423527 
L 1084.653307 170.426614 
L 1086.686464 186.9389 
L 1088.719621 173.995257 
L 1090.752778 182.848443 
L 1092.785936 182.946758 
L 1094.819093 182.745787 
L 1096.85225 188.651643 
L 1098.885407 178.501715 
L 1100.918564 182.556655 
L 1102.951722 175.797337 
L 1104.984879 181.13195 
L 1107.018036 187.817865 
L 1109.051193 164.419236 
L 1111.084351 163.314586 
L 1113.117508 168.292246 
L 1115.150665 171.587501 
L 1117.183822 168.49963 
L 1119.216979 171.96828 
L 1121.250137 174.375296 
L 1123.283294 177.297615 
L 1125.316451 178.661496 
L 1127.349608 176.645421 
L 1129.382766 178.17954 
L 1131.415923 176.305734 
L 1133.44908 173.46555 
L 1135.482237 167.821094 
L 1137.515394 183.306128 
L 1139.548552 171.427819 
L 1141.581709 189.450397 
L 1143.614866 168.458883 
L 1145.648023 194.471468 
L 1147.681181 176.316093 
L 1149.714338 165.838712 
L 1151.747495 184.357058 
L 1153.780652 183.141414 
L 1155.813809 168.802912 
L 1157.846967 182.957561 
L 1161.913281 173.187327 
L 1163.946438 170.530948 
L 1165.979596 172.433809 
L 1168.012753 183.273471 
L 1170.04591 162.682568 
L 1172.079067 168.664343 
L 1174.112224 172.535725 
L 1176.145382 169.524514 
L 1178.178539 172.561328 
L 1180.211696 175.245234 
L 1182.244853 172.215227 
L 1184.278011 177.512004 
L 1186.311168 173.855554 
L 1188.344325 175.911734 
L 1190.377482 172.932883 
L 1192.410639 173.096757 
L 1194.443797 172.1068 
L 1196.476954 167.00315 
L 1198.510111 170.809071 
L 1200.543268 177.115636 
L 1202.576426 173.686598 
L 1204.609583 180.649699 
L 1206.64274 171.572209 
L 1208.675897 171.96907 
L 1210.709054 176.568318 
L 1212.742212 169.879789 
L 1216.808526 171.43068 
L 1218.841683 166.38164 
L 1220.874841 169.926061 
L 1222.907998 179.568628 
L 1224.941155 167.153755 
L 1226.974312 177.487832 
L 1229.007469 170.986808 
L 1231.040627 173.463379 
L 1233.073784 164.025582 
L 1235.106941 169.817732 
L 1237.140098 174.405881 
L 1239.173256 163.195898 
L 1241.206413 174.246199 
L 1243.23957 174.734173 
L 1245.272727 172.233233 
L 1245.272727 172.233233 
" clip-path="url(#pb17a697e3f)" style="fill: none; stroke: #1f77b4; stroke-width: 1.5; stroke-linecap: square"/>
   </g>
   <g id="line2d_14">
    <path d="M 230.727273 202.504589 
L 232.76043 182.278778 
L 234.793587 218.418795 
L 236.826744 218.499993 
L 238.859902 188.792974 
L 240.893059 188.416387 
L 242.926216 236.088613 
L 244.959373 244.303812 
L 246.992531 288.123993 
L 249.025688 233.242312 
L 251.058845 427.907325 
L 253.092002 166.455339 
L 255.125159 216.785918 
L 257.158317 289.554765 
L 259.191474 256.191691 
L 261.224631 282.609473 
L 263.257788 247.435587 
L 265.290946 188.520079 
L 267.324103 264.700552 
L 269.35726 217.897277 
L 271.390417 327.390137 
L 273.423574 200.963909 
L 275.456732 177.704096 
L 277.489889 172.748486 
L 279.523046 216.136486 
L 281.556203 193.81217 
L 283.589361 230.183201 
L 285.622518 333.639011 
L 287.655675 167.995328 
L 289.688832 222.768581 
L 291.721989 190.790303 
L 293.755147 237.608969 
L 295.788304 214.811971 
L 297.821461 227.722859 
L 299.854618 237.619131 
L 301.887776 194.516111 
L 303.920933 242.0475 
L 305.95409 224.767883 
L 307.987247 171.208547 
L 312.053562 313.274138 
L 314.086719 198.078983 
L 316.119876 181.081979 
L 318.153033 436.642538 
L 320.186191 227.467871 
L 322.219348 187.851064 
L 324.252505 259.843109 
L 326.285662 246.318505 
L 328.318819 377.933798 
L 330.351977 194.261173 
L 332.385134 188.399418 
L 334.418291 409.525895 
L 336.451448 164.774709 
L 338.484606 167.009267 
L 340.517763 273.110605 
L 342.55092 204.499846 
L 344.584077 161.29713 
L 346.617234 443.779502 
L 348.650392 383.093757 
L 350.683549 250.289435 
L 352.716706 209.916495 
L 354.749863 322.735935 
L 356.783021 193.038821 
L 358.816178 210.609189 
L 360.849335 234.112496 
L 362.882492 155.613654 
L 364.915649 234.576742 
L 366.948807 153.820897 
L 368.981964 447.756623 
L 371.015121 204.870266 
L 373.048278 177.101528 
L 375.081436 348.192766 
L 377.114593 122.369219 
L 379.14775 205.70804 
L 381.180907 221.124752 
L 383.214064 394.055462 
L 387.280379 181.370363 
L 389.313536 364.769674 
L 391.346693 199.747082 
L 393.379851 340.036886 
L 395.413008 172.12816 
L 397.446165 289.84088 
L 399.479322 188.007588 
L 401.51248 333.337949 
L 403.545637 236.8555 
L 405.578794 166.281302 
L 407.611951 160.153312 
L 409.645108 302.012851 
L 411.678266 152.206962 
L 413.711423 193.795299 
L 415.74458 487.911203 
L 417.777737 184.201618 
L 419.810895 159.61655 
L 421.844052 172.638677 
L 423.877209 199.753692 
L 427.943523 205.430163 
L 429.976681 159.495297 
L 432.009838 197.62549 
L 434.042995 186.184494 
L 436.076152 192.751276 
L 438.10931 210.900977 
L 440.142467 212.5637 
L 442.175624 171.57507 
L 446.241938 216.92276 
L 448.275096 168.155207 
L 450.308253 302.665144 
L 452.34141 218.598949 
L 454.374567 337.097573 
L 456.407725 398.093629 
L 458.440882 264.213219 
L 460.474039 251.442232 
L 462.507196 131.021828 
L 464.540353 200.119919 
L 466.573511 219.212271 
L 468.606668 160.654654 
L 470.639825 208.637907 
L 472.672982 158.869544 
L 474.70614 207.074091 
L 476.739297 154.101635 
L 478.772454 182.748598 
L 480.805611 298.544349 
L 482.838768 158.204129 
L 484.871926 139.902688 
L 486.905083 200.658309 
L 488.93824 499.217899 
L 490.971397 269.038696 
L 493.004555 356.857831 
L 495.037712 310.543911 
L 497.070869 200.349354 
L 499.104026 483.212851 
L 501.137183 161.260675 
L 503.170341 169.856703 
L 505.203498 196.344485 
L 507.236655 169.175848 
L 509.269812 158.147547 
L 511.30297 313.293328 
L 513.336127 209.216056 
L 515.369284 154.39885 
L 517.402441 318.748898 
L 519.435598 205.489458 
L 521.468756 257.125659 
L 523.501913 169.558699 
L 525.53507 192.782058 
L 527.568227 209.392707 
L 529.601385 277.008822 
L 531.634542 230.767911 
L 533.667699 285.812678 
L 535.700856 271.600855 
L 537.734013 181.004678 
L 539.767171 140.945774 
L 541.800328 223.066733 
L 543.833485 176.978893 
L 545.866642 304.848448 
L 547.8998 238.758855 
L 549.932957 292.838822 
L 551.966114 301.201666 
L 553.999271 174.128942 
L 556.032428 232.058487 
L 558.065586 204.976869 
L 560.098743 387.395841 
L 562.1319 414.933788 
L 564.165057 186.35414 
L 568.231372 231.524685 
L 570.264529 179.316798 
L 572.297686 294.80971 
L 574.330844 176.472322 
L 576.364001 210.587681 
L 578.397158 221.396759 
L 580.430315 304.126304 
L 582.463472 321.41655 
L 584.49663 204.14896 
L 586.529787 180.599135 
L 588.562944 204.252899 
L 590.596101 190.05849 
L 592.629259 191.287946 
L 594.662416 211.369318 
L 596.695573 152.22334 
L 598.72873 187.811501 
L 600.761887 190.641671 
L 602.795045 173.767056 
L 604.828202 139.929622 
L 606.861359 489.093327 
L 608.894516 200.668668 
L 610.927674 203.868568 
L 612.960831 181.650262 
L 614.993988 269.790734 
L 617.027145 150.213679 
L 619.060302 246.686508 
L 621.09346 199.559726 
L 623.126617 186.104085 
L 625.159774 193.171174 
L 627.192931 167.313881 
L 629.226089 161.622857 
L 631.259246 186.274028 
L 633.292403 186.434302 
L 635.32556 269.242577 
L 637.358717 615.6 
L 639.391875 205.318677 
L 641.425032 197.591946 
L 643.458189 159.212684 
L 645.491346 268.009274 
L 647.524504 198.279707 
L 649.557661 179.956314 
L 651.590818 171.447798 
L 653.623975 275.408996 
L 655.657132 608.579307 
L 657.69029 352.520156 
L 659.723447 305.293061 
L 661.756604 133.135083 
L 663.789761 313.507001 
L 665.822919 152.671307 
L 667.856076 262.375523 
L 669.889233 159.734055 
L 671.92239 440.248819 
L 673.955547 199.621339 
L 675.988705 185.519671 
L 678.021862 167.593435 
L 680.055019 171.453372 
L 682.088176 210.905466 
L 684.121334 159.721722 
L 686.154491 185.992994 
L 688.187648 167.192479 
L 690.220805 118.546674 
L 692.253962 194.761726 
L 694.28712 288.642108 
L 696.320277 144.260613 
L 698.353434 209.062935 
L 700.386591 244.217435 
L 702.419749 175.157377 
L 704.452906 198.032809 
L 706.486063 191.653038 
L 708.51922 304.906164 
L 710.552377 179.019041 
L 712.585535 184.920507 
L 714.618692 196.028525 
L 716.651849 222.244744 
L 718.685006 159.676733 
L 720.718164 158.063143 
L 722.751321 174.270766 
L 724.784478 160.397299 
L 726.817635 165.490095 
L 728.850792 187.176967 
L 730.88395 162.988168 
L 732.917107 208.071103 
L 734.950264 141.389055 
L 736.983421 133.684966 
L 739.016579 188.999174 
L 741.049736 223.726178 
L 743.082893 142.369788 
L 745.11605 182.234282 
L 747.149208 177.314634 
L 749.182365 121.316957 
L 751.215522 269.952537 
L 753.248679 174.005863 
L 755.281836 209.971104 
L 757.314994 154.034004 
L 759.348151 260.552329 
L 761.381308 384.584194 
L 763.414465 181.013657 
L 765.447623 572.112144 
L 767.48078 400.616423 
L 769.513937 302.58661 
L 771.547094 137.122243 
L 773.580251 254.514761 
L 775.613409 449.043697 
L 777.646566 348.510871 
L 779.679723 180.949774 
L 781.71288 412.763951 
L 783.746038 184.389369 
L 785.779195 244.322755 
L 787.812352 191.803101 
L 789.845509 434.277995 
L 791.878666 252.954941 
L 793.911824 171.361865 
L 795.944981 248.062721 
L 797.978138 266.706366 
L 800.011295 393.220697 
L 802.044453 393.772504 
L 804.07761 274.336213 
L 806.110767 234.190191 
L 808.143924 176.325318 
L 810.177081 158.784893 
L 812.210239 253.146441 
L 814.243396 251.566791 
L 816.276553 204.767511 
L 818.30971 146.567637 
L 820.342868 199.248847 
L 822.376025 228.784937 
L 824.409182 404.978936 
L 826.442339 210.243899 
L 828.475496 111.6 
L 830.508654 179.640453 
L 832.541811 328.043836 
L 834.574968 192.953628 
L 836.608125 169.439912 
L 838.641283 299.746476 
L 840.67444 172.243691 
L 842.707597 177.443583 
L 844.740754 261.664872 
L 846.773911 223.227993 
L 848.807069 182.123783 
L 850.840226 224.278282 
L 852.873383 394.546125 
L 854.90654 374.368608 
L 856.939698 171.707423 
L 858.972855 174.086962 
L 861.006012 225.178458 
L 863.039169 191.435196 
L 865.072326 133.953421 
L 867.105484 193.885277 
L 869.138641 189.319228 
L 871.171798 277.342097 
L 873.204955 377.235751 
L 875.238113 196.506929 
L 877.27127 248.51424 
L 879.304427 237.01607 
L 881.337584 177.934073 
L 883.370741 145.57837 
L 885.403899 212.065514 
L 887.437056 257.918838 
L 889.470213 255.761285 
L 891.50337 174.066884 
L 893.536528 156.587728 
L 895.569685 157.72681 
L 897.602842 443.088189 
L 899.635999 213.758476 
L 901.669156 423.469139 
L 903.702314 159.344889 
L 905.735471 363.569101 
L 907.768628 390.245521 
L 909.801785 188.35063 
L 911.834943 342.367194 
L 913.8681 220.871836 
L 915.901257 335.466052 
L 917.934414 414.683166 
L 919.967572 207.271066 
L 922.000729 177.626204 
L 924.033886 228.003498 
L 926.067043 206.390523 
L 928.1002 165.534493 
L 930.133358 189.306304 
L 932.166515 166.414148 
L 934.199672 183.724349 
L 936.232829 444.95139 
L 938.265987 348.541086 
L 940.299144 561.867194 
L 942.332301 190.482285 
L 944.365458 237.503846 
L 946.398615 317.710326 
L 948.431773 162.850981 
L 950.46493 421.652359 
L 952.498087 164.177223 
L 954.531244 210.944536 
L 956.564402 472.300501 
L 958.597559 144.245419 
L 960.630716 134.823013 
L 962.663873 187.146678 
L 964.69703 215.19428 
L 966.730188 144.502627 
L 968.763345 131.078755 
L 970.796502 151.39923 
L 972.829659 218.570979 
L 974.862817 523.570942 
L 976.895974 256.353642 
L 978.929131 306.265605 
L 980.962288 279.621052 
L 982.995445 159.985491 
L 987.06176 204.826214 
L 989.094917 216.446427 
L 991.128074 220.919687 
L 993.161232 267.019316 
L 995.194389 404.696127 
L 997.227546 171.364233 
L 999.260703 139.284038 
L 1001.29386 207.583326 
L 1003.327018 294.758654 
L 1005.360175 184.681058 
L 1007.393332 206.558246 
L 1009.426489 436.555322 
L 1011.459647 249.088788 
L 1013.492804 194.307149 
L 1015.525961 388.14043 
L 1017.559118 342.901711 
L 1019.592275 224.678497 
L 1021.625433 261.216017 
L 1023.65859 320.462135 
L 1025.691747 157.468518 
L 1027.724904 489.773392 
L 1029.758062 299.437767 
L 1031.791219 332.529403 
L 1033.824376 209.440114 
L 1035.857533 172.622941 
L 1037.89069 232.006888 
L 1039.923848 246.170909 
L 1041.957005 164.430188 
L 1043.990162 164.644478 
L 1046.023319 175.249082 
L 1048.056477 157.815062 
L 1050.089634 150.775204 
L 1052.122791 148.810975 
L 1056.189105 246.727945 
L 1058.222263 194.650339 
L 1060.25542 320.284398 
L 1062.288577 230.986592 
L 1064.321734 116.053478 
L 1066.354892 176.777281 
L 1068.388049 446.293219 
L 1070.421206 366.567437 
L 1072.454363 359.124206 
L 1074.48752 195.857399 
L 1076.520678 196.349122 
L 1078.553835 154.952926 
L 1080.586992 490.268273 
L 1082.620149 217.036466 
L 1084.653307 166.117772 
L 1086.686464 310.216408 
L 1088.719621 181.150745 
L 1090.752778 182.758119 
L 1092.785936 182.267087 
L 1094.819093 242.375545 
L 1096.85225 175.939507 
L 1098.885407 178.415437 
L 1100.918564 208.333638 
L 1102.951722 216.577892 
L 1104.984879 186.693088 
L 1107.018036 184.157517 
L 1109.051193 200.199982 
L 1111.084351 153.913737 
L 1113.117508 159.607375 
L 1115.150665 127.485151 
L 1117.183822 181.224642 
L 1119.216979 179.924151 
L 1121.250137 185.305874 
L 1123.283294 160.774379 
L 1125.316451 381.715547 
L 1127.349608 517.54456 
L 1129.382766 314.697412 
L 1131.415923 140.169416 
L 1133.44908 209.718188 
L 1135.482237 250.850467 
L 1137.515394 150.973758 
L 1139.548552 304.081265 
L 1141.581709 184.573913 
L 1143.614866 125.84813 
L 1145.648023 117.281947 
L 1147.681181 152.252938 
L 1149.714338 166.041508 
L 1151.747495 121.47289 
L 1153.780652 368.66244 
L 1155.813809 230.845754 
L 1157.846967 163.473873 
L 1159.880124 351.748385 
L 1161.913281 177.73838 
L 1163.946438 409.212969 
L 1165.979596 264.282183 
L 1168.012753 279.481201 
L 1170.04591 292.146029 
L 1172.079067 171.107962 
L 1174.112224 242.711089 
L 1176.145382 245.493014 
L 1178.178539 183.230406 
L 1180.211696 131.295117 
L 1182.244853 181.522152 
L 1184.278011 146.047796 
L 1186.311168 225.683501 
L 1188.344325 191.73093 
L 1190.377482 219.977777 
L 1192.410639 167.892474 
L 1194.443797 415.93043 
L 1196.476954 228.98798 
L 1198.510111 174.165791 
L 1200.543268 376.923738 
L 1202.576426 171.031945 
L 1204.609583 171.812545 
L 1206.64274 156.945815 
L 1208.675897 345.880809 
L 1210.709054 165.876548 
L 1214.775369 307.148516 
L 1216.808526 202.44115 
L 1218.841683 257.280457 
L 1220.874841 201.602093 
L 1222.907998 313.129034 
L 1224.941155 181.566993 
L 1226.974312 151.142566 
L 1229.007469 199.055276 
L 1231.040627 230.956895 
L 1233.073784 170.952572 
L 1235.106941 163.443634 
L 1237.140098 237.943723 
L 1239.173256 185.05725 
L 1241.206413 517.802446 
L 1243.23957 189.636865 
L 1245.272727 174.948612 
L 1245.272727 174.948612 
" clip-path="url(#pb17a697e3f)" style="fill: none; stroke: #ff7f0e; stroke-width: 1.5; stroke-linecap: square"/>
   </g>
   <g id="patch_3">
    <path d="M 180 640.8 
L 180 86.4 
" style="fill: none; stroke: #000000; stroke-width: 0.8; stroke-linejoin: miter; stroke-linecap: square"/>
   </g>
   <g id="patch_4">
    <path d="M 1296 640.8 
L 1296 86.4 
" style="fill: none; stroke: #000000; stroke-width: 0.8; stroke-linejoin: miter; stroke-linecap: square"/>
   </g>
   <g id="patch_5">
    <path d="M 180 640.8 
L 1296 640.8 
" style="fill: none; stroke: #000000; stroke-width: 0.8; stroke-linejoin: miter; stroke-linecap: square"/>
   </g>
   <g id="patch_6">
    <path d="M 180 86.4 
L 1296 86.4 
" style="fill: none; stroke: #000000; stroke-width: 0.8; stroke-linejoin: miter; stroke-linecap: square"/>
   </g>
   <g id="text_15">
    <!-- F1 score -->
    <g transform="translate(712.705312 80.4)scale(0.12 -0.12)">
     <use xlink:href="#DejaVuSans-46"/>
     <use xlink:href="#DejaVuSans-31" x="57.519531"/>
     <use xlink:href="#DejaVuSans-20" x="121.142578"/>
     <use xlink:href="#DejaVuSans-73" x="152.929688"/>
     <use xlink:href="#DejaVuSans-63" x="205.029297"/>
     <use xlink:href="#DejaVuSans-6f" x="260.009766"/>
     <use xlink:href="#DejaVuSans-72" x="321.191406"/>
     <use xlink:href="#DejaVuSans-65" x="360.054688"/>
    </g>
   </g>
   <g id="legend_1">
    <g id="patch_7">
     <path d="M 187 123.75625 
L 347.076563 123.75625 
Q 349.076563 123.75625 349.076563 121.75625 
L 349.076563 93.4 
Q 349.076563 91.4 347.076563 91.4 
L 187 91.4 
Q 185 91.4 185 93.4 
L 185 121.75625 
Q 185 123.75625 187 123.75625 
z
" style="fill: #ffffff; opacity: 0.8; stroke: #cccccc; stroke-linejoin: miter"/>
    </g>
    <g id="line2d_15">
     <path d="M 189 99.498437 
L 199 99.498437 
L 209 99.498437 
" style="fill: none; stroke: #1f77b4; stroke-width: 1.5; stroke-linecap: square"/>
    </g>
    <g id="text_16">
     <!-- F1 score (training data) -->
     <g transform="translate(217 102.998437)scale(0.1 -0.1)">
      <defs>
       <path id="DejaVuSans-28" d="M 1984 4856 
Q 1566 4138 1362 3434 
Q 1159 2731 1159 2009 
Q 1159 1288 1364 580 
Q 1569 -128 1984 -844 
L 1484 -844 
Q 1016 -109 783 600 
Q 550 1309 550 2009 
Q 550 2706 781 3412 
Q 1013 4119 1484 4856 
L 1984 4856 
z
" transform="scale(0.015625)"/>
       <path id="DejaVuSans-74" d="M 1172 4494 
L 1172 3500 
L 2356 3500 
L 2356 3053 
L 1172 3053 
L 1172 1153 
Q 1172 725 1289 603 
Q 1406 481 1766 481 
L 2356 481 
L 2356 0 
L 1766 0 
Q 1100 0 847 248 
Q 594 497 594 1153 
L 594 3053 
L 172 3053 
L 172 3500 
L 594 3500 
L 594 4494 
L 1172 4494 
z
" transform="scale(0.015625)"/>
       <path id="DejaVuSans-69" d="M 603 3500 
L 1178 3500 
L 1178 0 
L 603 0 
L 603 3500 
z
M 603 4863 
L 1178 4863 
L 1178 4134 
L 603 4134 
L 603 4863 
z
" transform="scale(0.015625)"/>
       <path id="DejaVuSans-6e" d="M 3513 2113 
L 3513 0 
L 2938 0 
L 2938 2094 
Q 2938 2591 2744 2837 
Q 2550 3084 2163 3084 
Q 1697 3084 1428 2787 
Q 1159 2491 1159 1978 
L 1159 0 
L 581 0 
L 581 3500 
L 1159 3500 
L 1159 2956 
Q 1366 3272 1645 3428 
Q 1925 3584 2291 3584 
Q 2894 3584 3203 3211 
Q 3513 2838 3513 2113 
z
" transform="scale(0.015625)"/>
       <path id="DejaVuSans-67" d="M 2906 1791 
Q 2906 2416 2648 2759 
Q 2391 3103 1925 3103 
Q 1463 3103 1205 2759 
Q 947 2416 947 1791 
Q 947 1169 1205 825 
Q 1463 481 1925 481 
Q 2391 481 2648 825 
Q 2906 1169 2906 1791 
z
M 3481 434 
Q 3481 -459 3084 -895 
Q 2688 -1331 1869 -1331 
Q 1566 -1331 1297 -1286 
Q 1028 -1241 775 -1147 
L 775 -588 
Q 1028 -725 1275 -790 
Q 1522 -856 1778 -856 
Q 2344 -856 2625 -561 
Q 2906 -266 2906 331 
L 2906 616 
Q 2728 306 2450 153 
Q 2172 0 1784 0 
Q 1141 0 747 490 
Q 353 981 353 1791 
Q 353 2603 747 3093 
Q 1141 3584 1784 3584 
Q 2172 3584 2450 3431 
Q 2728 3278 2906 2969 
L 2906 3500 
L 3481 3500 
L 3481 434 
z
" transform="scale(0.015625)"/>
       <path id="DejaVuSans-64" d="M 2906 2969 
L 2906 4863 
L 3481 4863 
L 3481 0 
L 2906 0 
L 2906 525 
Q 2725 213 2448 61 
Q 2172 -91 1784 -91 
Q 1150 -91 751 415 
Q 353 922 353 1747 
Q 353 2572 751 3078 
Q 1150 3584 1784 3584 
Q 2172 3584 2448 3432 
Q 2725 3281 2906 2969 
z
M 947 1747 
Q 947 1113 1208 752 
Q 1469 391 1925 391 
Q 2381 391 2643 752 
Q 2906 1113 2906 1747 
Q 2906 2381 2643 2742 
Q 2381 3103 1925 3103 
Q 1469 3103 1208 2742 
Q 947 2381 947 1747 
z
" transform="scale(0.015625)"/>
       <path id="DejaVuSans-29" d="M 513 4856 
L 1013 4856 
Q 1481 4119 1714 3412 
Q 1947 2706 1947 2009 
Q 1947 1309 1714 600 
Q 1481 -109 1013 -844 
L 513 -844 
Q 928 -128 1133 580 
Q 1338 1288 1338 2009 
Q 1338 2731 1133 3434 
Q 928 4138 513 4856 
z
" transform="scale(0.015625)"/>
      </defs>
      <use xlink:href="#DejaVuSans-46"/>
      <use xlink:href="#DejaVuSans-31" x="57.519531"/>
      <use xlink:href="#DejaVuSans-20" x="121.142578"/>
      <use xlink:href="#DejaVuSans-73" x="152.929688"/>
      <use xlink:href="#DejaVuSans-63" x="205.029297"/>
      <use xlink:href="#DejaVuSans-6f" x="260.009766"/>
      <use xlink:href="#DejaVuSans-72" x="321.191406"/>
      <use xlink:href="#DejaVuSans-65" x="360.054688"/>
      <use xlink:href="#DejaVuSans-20" x="421.578125"/>
      <use xlink:href="#DejaVuSans-28" x="453.365234"/>
      <use xlink:href="#DejaVuSans-74" x="492.378906"/>
      <use xlink:href="#DejaVuSans-72" x="531.587891"/>
      <use xlink:href="#DejaVuSans-61" x="572.701172"/>
      <use xlink:href="#DejaVuSans-69" x="633.980469"/>
      <use xlink:href="#DejaVuSans-6e" x="661.763672"/>
      <use xlink:href="#DejaVuSans-69" x="725.142578"/>
      <use xlink:href="#DejaVuSans-6e" x="752.925781"/>
      <use xlink:href="#DejaVuSans-67" x="816.304688"/>
      <use xlink:href="#DejaVuSans-20" x="879.78125"/>
      <use xlink:href="#DejaVuSans-64" x="911.568359"/>
      <use xlink:href="#DejaVuSans-61" x="975.044922"/>
      <use xlink:href="#DejaVuSans-74" x="1036.324219"/>
      <use xlink:href="#DejaVuSans-61" x="1075.533203"/>
      <use xlink:href="#DejaVuSans-29" x="1136.8125"/>
     </g>
    </g>
    <g id="line2d_16">
     <path d="M 189 114.176562 
L 199 114.176562 
L 209 114.176562 
" style="fill: none; stroke: #ff7f0e; stroke-width: 1.5; stroke-linecap: square"/>
    </g>
    <g id="text_17">
     <!-- F1 score (validation data) -->
     <g transform="translate(217 117.676562)scale(0.1 -0.1)">
      <use xlink:href="#DejaVuSans-46"/>
      <use xlink:href="#DejaVuSans-31" x="57.519531"/>
      <use xlink:href="#DejaVuSans-20" x="121.142578"/>
      <use xlink:href="#DejaVuSans-73" x="152.929688"/>
      <use xlink:href="#DejaVuSans-63" x="205.029297"/>
      <use xlink:href="#DejaVuSans-6f" x="260.009766"/>
      <use xlink:href="#DejaVuSans-72" x="321.191406"/>
      <use xlink:href="#DejaVuSans-65" x="360.054688"/>
      <use xlink:href="#DejaVuSans-20" x="421.578125"/>
      <use xlink:href="#DejaVuSans-28" x="453.365234"/>
      <use xlink:href="#DejaVuSans-76" x="492.378906"/>
      <use xlink:href="#DejaVuSans-61" x="551.558594"/>
      <use xlink:href="#DejaVuSans-6c" x="612.837891"/>
      <use xlink:href="#DejaVuSans-69" x="640.621094"/>
      <use xlink:href="#DejaVuSans-64" x="668.404297"/>
      <use xlink:href="#DejaVuSans-61" x="731.880859"/>
      <use xlink:href="#DejaVuSans-74" x="793.160156"/>
      <use xlink:href="#DejaVuSans-69" x="832.369141"/>
      <use xlink:href="#DejaVuSans-6f" x="860.152344"/>
      <use xlink:href="#DejaVuSans-6e" x="921.333984"/>
      <use xlink:href="#DejaVuSans-20" x="984.712891"/>
      <use xlink:href="#DejaVuSans-64" x="1016.5"/>
      <use xlink:href="#DejaVuSans-61" x="1079.976562"/>
      <use xlink:href="#DejaVuSans-74" x="1141.255859"/>
      <use xlink:href="#DejaVuSans-61" x="1180.464844"/>
      <use xlink:href="#DejaVuSans-29" x="1241.744141"/>
     </g>
    </g>
   </g>
  </g>
 </g>
 <defs>
  <clipPath id="pb17a697e3f">
   <rect x="180" y="86.4" width="1116" height="554.4"/>
  </clipPath>
 </defs>
</svg>
