<?xml version="1.0" encoding="utf-8" standalone="no"?>
<!DOCTYPE svg PUBLIC "-//W3C//DTD SVG 1.1//EN"
  "http://www.w3.org/Graphics/SVG/1.1/DTD/svg11.dtd">
<svg xmlns:xlink="http://www.w3.org/1999/xlink" width="1440pt" height="720pt" viewBox="0 0 1440 720" xmlns="http://www.w3.org/2000/svg" version="1.1">
 <metadata>
  <rdf:RDF xmlns:dc="http://purl.org/dc/elements/1.1/" xmlns:cc="http://creativecommons.org/ns#" xmlns:rdf="http://www.w3.org/1999/02/22-rdf-syntax-ns#">
   <cc:Work>
    <dc:type rdf:resource="http://purl.org/dc/dcmitype/StillImage"/>
    <dc:date>2022-05-24T21:24:03.853204</dc:date>
    <dc:format>image/svg+xml</dc:format>
    <dc:creator>
     <cc:Agent>
      <dc:title>Matplotlib v3.5.0, https://matplotlib.org/</dc:title>
     </cc:Agent>
    </dc:creator>
   </cc:Work>
  </rdf:RDF>
 </metadata>
 <defs>
  <style type="text/css">*{stroke-linejoin: round; stroke-linecap: butt}</style>
 </defs>
 <g id="figure_1">
  <g id="patch_1">
   <path d="M 0 720 
L 1440 720 
L 1440 0 
L 0 0 
z
" style="fill: #ffffff"/>
  </g>
  <g id="axes_1">
   <g id="patch_2">
    <path d="M 180 640.8 
L 1296 640.8 
L 1296 86.4 
L 180 86.4 
z
" style="fill: #ffffff"/>
   </g>
   <g id="matplotlib.axis_1">
    <g id="xtick_1">
     <g id="line2d_1">
      <defs>
       <path id="m25e0d954d0" d="M 0 0 
L 0 3.5 
" style="stroke: #000000; stroke-width: 0.8"/>
      </defs>
      <g>
       <use xlink:href="#m25e0d954d0" x="230.727273" y="640.8" style="stroke: #000000; stroke-width: 0.8"/>
      </g>
     </g>
     <g id="text_1">
      <!-- 0 -->
      <g transform="translate(227.546023 655.398438)scale(0.1 -0.1)">
       <defs>
        <path id="DejaVuSans-30" d="M 2034 4250 
Q 1547 4250 1301 3770 
Q 1056 3291 1056 2328 
Q 1056 1369 1301 889 
Q 1547 409 2034 409 
Q 2525 409 2770 889 
Q 3016 1369 3016 2328 
Q 3016 3291 2770 3770 
Q 2525 4250 2034 4250 
z
M 2034 4750 
Q 2819 4750 3233 4129 
Q 3647 3509 3647 2328 
Q 3647 1150 3233 529 
Q 2819 -91 2034 -91 
Q 1250 -91 836 529 
Q 422 1150 422 2328 
Q 422 3509 836 4129 
Q 1250 4750 2034 4750 
z
" transform="scale(0.015625)"/>
       </defs>
       <use xlink:href="#DejaVuSans-30"/>
      </g>
     </g>
    </g>
    <g id="xtick_2">
     <g id="line2d_2">
      <g>
       <use xlink:href="#m25e0d954d0" x="434.042995" y="640.8" style="stroke: #000000; stroke-width: 0.8"/>
      </g>
     </g>
     <g id="text_2">
      <!-- 100 -->
      <g transform="translate(424.499245 655.398438)scale(0.1 -0.1)">
       <defs>
        <path id="DejaVuSans-31" d="M 794 531 
L 1825 531 
L 1825 4091 
L 703 3866 
L 703 4441 
L 1819 4666 
L 2450 4666 
L 2450 531 
L 3481 531 
L 3481 0 
L 794 0 
L 794 531 
z
" transform="scale(0.015625)"/>
       </defs>
       <use xlink:href="#DejaVuSans-31"/>
       <use xlink:href="#DejaVuSans-30" x="63.623047"/>
       <use xlink:href="#DejaVuSans-30" x="127.246094"/>
      </g>
     </g>
    </g>
    <g id="xtick_3">
     <g id="line2d_3">
      <g>
       <use xlink:href="#m25e0d954d0" x="637.358717" y="640.8" style="stroke: #000000; stroke-width: 0.8"/>
      </g>
     </g>
     <g id="text_3">
      <!-- 200 -->
      <g transform="translate(627.814967 655.398438)scale(0.1 -0.1)">
       <defs>
        <path id="DejaVuSans-32" d="M 1228 531 
L 3431 531 
L 3431 0 
L 469 0 
L 469 531 
Q 828 903 1448 1529 
Q 2069 2156 2228 2338 
Q 2531 2678 2651 2914 
Q 2772 3150 2772 3378 
Q 2772 3750 2511 3984 
Q 2250 4219 1831 4219 
Q 1534 4219 1204 4116 
Q 875 4013 500 3803 
L 500 4441 
Q 881 4594 1212 4672 
Q 1544 4750 1819 4750 
Q 2544 4750 2975 4387 
Q 3406 4025 3406 3419 
Q 3406 3131 3298 2873 
Q 3191 2616 2906 2266 
Q 2828 2175 2409 1742 
Q 1991 1309 1228 531 
z
" transform="scale(0.015625)"/>
       </defs>
       <use xlink:href="#DejaVuSans-32"/>
       <use xlink:href="#DejaVuSans-30" x="63.623047"/>
       <use xlink:href="#DejaVuSans-30" x="127.246094"/>
      </g>
     </g>
    </g>
    <g id="xtick_4">
     <g id="line2d_4">
      <g>
       <use xlink:href="#m25e0d954d0" x="840.67444" y="640.8" style="stroke: #000000; stroke-width: 0.8"/>
      </g>
     </g>
     <g id="text_4">
      <!-- 300 -->
      <g transform="translate(831.13069 655.398438)scale(0.1 -0.1)">
       <defs>
        <path id="DejaVuSans-33" d="M 2597 2516 
Q 3050 2419 3304 2112 
Q 3559 1806 3559 1356 
Q 3559 666 3084 287 
Q 2609 -91 1734 -91 
Q 1441 -91 1130 -33 
Q 819 25 488 141 
L 488 750 
Q 750 597 1062 519 
Q 1375 441 1716 441 
Q 2309 441 2620 675 
Q 2931 909 2931 1356 
Q 2931 1769 2642 2001 
Q 2353 2234 1838 2234 
L 1294 2234 
L 1294 2753 
L 1863 2753 
Q 2328 2753 2575 2939 
Q 2822 3125 2822 3475 
Q 2822 3834 2567 4026 
Q 2313 4219 1838 4219 
Q 1578 4219 1281 4162 
Q 984 4106 628 3988 
L 628 4550 
Q 988 4650 1302 4700 
Q 1616 4750 1894 4750 
Q 2613 4750 3031 4423 
Q 3450 4097 3450 3541 
Q 3450 3153 3228 2886 
Q 3006 2619 2597 2516 
z
" transform="scale(0.015625)"/>
       </defs>
       <use xlink:href="#DejaVuSans-33"/>
       <use xlink:href="#DejaVuSans-30" x="63.623047"/>
       <use xlink:href="#DejaVuSans-30" x="127.246094"/>
      </g>
     </g>
    </g>
    <g id="xtick_5">
     <g id="line2d_5">
      <g>
       <use xlink:href="#m25e0d954d0" x="1043.990162" y="640.8" style="stroke: #000000; stroke-width: 0.8"/>
      </g>
     </g>
     <g id="text_5">
      <!-- 400 -->
      <g transform="translate(1034.446412 655.398438)scale(0.1 -0.1)">
       <defs>
        <path id="DejaVuSans-34" d="M 2419 4116 
L 825 1625 
L 2419 1625 
L 2419 4116 
z
M 2253 4666 
L 3047 4666 
L 3047 1625 
L 3713 1625 
L 3713 1100 
L 3047 1100 
L 3047 0 
L 2419 0 
L 2419 1100 
L 313 1100 
L 313 1709 
L 2253 4666 
z
" transform="scale(0.015625)"/>
       </defs>
       <use xlink:href="#DejaVuSans-34"/>
       <use xlink:href="#DejaVuSans-30" x="63.623047"/>
       <use xlink:href="#DejaVuSans-30" x="127.246094"/>
      </g>
     </g>
    </g>
    <g id="xtick_6">
     <g id="line2d_6">
      <g>
       <use xlink:href="#m25e0d954d0" x="1247.305884" y="640.8" style="stroke: #000000; stroke-width: 0.8"/>
      </g>
     </g>
     <g id="text_6">
      <!-- 500 -->
      <g transform="translate(1237.762134 655.398438)scale(0.1 -0.1)">
       <defs>
        <path id="DejaVuSans-35" d="M 691 4666 
L 3169 4666 
L 3169 4134 
L 1269 4134 
L 1269 2991 
Q 1406 3038 1543 3061 
Q 1681 3084 1819 3084 
Q 2600 3084 3056 2656 
Q 3513 2228 3513 1497 
Q 3513 744 3044 326 
Q 2575 -91 1722 -91 
Q 1428 -91 1123 -41 
Q 819 9 494 109 
L 494 744 
Q 775 591 1075 516 
Q 1375 441 1709 441 
Q 2250 441 2565 725 
Q 2881 1009 2881 1497 
Q 2881 1984 2565 2268 
Q 2250 2553 1709 2553 
Q 1456 2553 1204 2497 
Q 953 2441 691 2322 
L 691 4666 
z
" transform="scale(0.015625)"/>
       </defs>
       <use xlink:href="#DejaVuSans-35"/>
       <use xlink:href="#DejaVuSans-30" x="63.623047"/>
       <use xlink:href="#DejaVuSans-30" x="127.246094"/>
      </g>
     </g>
    </g>
    <g id="text_7">
     <!-- No. epoch -->
     <g transform="translate(712.88125 669.076563)scale(0.1 -0.1)">
      <defs>
       <path id="DejaVuSans-4e" d="M 628 4666 
L 1478 4666 
L 3547 763 
L 3547 4666 
L 4159 4666 
L 4159 0 
L 3309 0 
L 1241 3903 
L 1241 0 
L 628 0 
L 628 4666 
z
" transform="scale(0.015625)"/>
       <path id="DejaVuSans-6f" d="M 1959 3097 
Q 1497 3097 1228 2736 
Q 959 2375 959 1747 
Q 959 1119 1226 758 
Q 1494 397 1959 397 
Q 2419 397 2687 759 
Q 2956 1122 2956 1747 
Q 2956 2369 2687 2733 
Q 2419 3097 1959 3097 
z
M 1959 3584 
Q 2709 3584 3137 3096 
Q 3566 2609 3566 1747 
Q 3566 888 3137 398 
Q 2709 -91 1959 -91 
Q 1206 -91 779 398 
Q 353 888 353 1747 
Q 353 2609 779 3096 
Q 1206 3584 1959 3584 
z
" transform="scale(0.015625)"/>
       <path id="DejaVuSans-2e" d="M 684 794 
L 1344 794 
L 1344 0 
L 684 0 
L 684 794 
z
" transform="scale(0.015625)"/>
       <path id="DejaVuSans-20" transform="scale(0.015625)"/>
       <path id="DejaVuSans-65" d="M 3597 1894 
L 3597 1613 
L 953 1613 
Q 991 1019 1311 708 
Q 1631 397 2203 397 
Q 2534 397 2845 478 
Q 3156 559 3463 722 
L 3463 178 
Q 3153 47 2828 -22 
Q 2503 -91 2169 -91 
Q 1331 -91 842 396 
Q 353 884 353 1716 
Q 353 2575 817 3079 
Q 1281 3584 2069 3584 
Q 2775 3584 3186 3129 
Q 3597 2675 3597 1894 
z
M 3022 2063 
Q 3016 2534 2758 2815 
Q 2500 3097 2075 3097 
Q 1594 3097 1305 2825 
Q 1016 2553 972 2059 
L 3022 2063 
z
" transform="scale(0.015625)"/>
       <path id="DejaVuSans-70" d="M 1159 525 
L 1159 -1331 
L 581 -1331 
L 581 3500 
L 1159 3500 
L 1159 2969 
Q 1341 3281 1617 3432 
Q 1894 3584 2278 3584 
Q 2916 3584 3314 3078 
Q 3713 2572 3713 1747 
Q 3713 922 3314 415 
Q 2916 -91 2278 -91 
Q 1894 -91 1617 61 
Q 1341 213 1159 525 
z
M 3116 1747 
Q 3116 2381 2855 2742 
Q 2594 3103 2138 3103 
Q 1681 3103 1420 2742 
Q 1159 2381 1159 1747 
Q 1159 1113 1420 752 
Q 1681 391 2138 391 
Q 2594 391 2855 752 
Q 3116 1113 3116 1747 
z
" transform="scale(0.015625)"/>
       <path id="DejaVuSans-63" d="M 3122 3366 
L 3122 2828 
Q 2878 2963 2633 3030 
Q 2388 3097 2138 3097 
Q 1578 3097 1268 2742 
Q 959 2388 959 1747 
Q 959 1106 1268 751 
Q 1578 397 2138 397 
Q 2388 397 2633 464 
Q 2878 531 3122 666 
L 3122 134 
Q 2881 22 2623 -34 
Q 2366 -91 2075 -91 
Q 1284 -91 818 406 
Q 353 903 353 1747 
Q 353 2603 823 3093 
Q 1294 3584 2113 3584 
Q 2378 3584 2631 3529 
Q 2884 3475 3122 3366 
z
" transform="scale(0.015625)"/>
       <path id="DejaVuSans-68" d="M 3513 2113 
L 3513 0 
L 2938 0 
L 2938 2094 
Q 2938 2591 2744 2837 
Q 2550 3084 2163 3084 
Q 1697 3084 1428 2787 
Q 1159 2491 1159 1978 
L 1159 0 
L 581 0 
L 581 4863 
L 1159 4863 
L 1159 2956 
Q 1366 3272 1645 3428 
Q 1925 3584 2291 3584 
Q 2894 3584 3203 3211 
Q 3513 2838 3513 2113 
z
" transform="scale(0.015625)"/>
      </defs>
      <use xlink:href="#DejaVuSans-4e"/>
      <use xlink:href="#DejaVuSans-6f" x="74.804688"/>
      <use xlink:href="#DejaVuSans-2e" x="134.236328"/>
      <use xlink:href="#DejaVuSans-20" x="166.023438"/>
      <use xlink:href="#DejaVuSans-65" x="197.810547"/>
      <use xlink:href="#DejaVuSans-70" x="259.333984"/>
      <use xlink:href="#DejaVuSans-6f" x="322.810547"/>
      <use xlink:href="#DejaVuSans-63" x="383.992188"/>
      <use xlink:href="#DejaVuSans-68" x="438.972656"/>
     </g>
    </g>
   </g>
   <g id="matplotlib.axis_2">
    <g id="ytick_1">
     <g id="line2d_7">
      <defs>
       <path id="m54a5b49091" d="M 0 0 
L -3.5 0 
" style="stroke: #000000; stroke-width: 0.8"/>
      </defs>
      <g>
       <use xlink:href="#m54a5b49091" x="180" y="616.311596" style="stroke: #000000; stroke-width: 0.8"/>
      </g>
     </g>
     <g id="text_8">
      <!-- 0.0 -->
      <g transform="translate(157.096875 620.110815)scale(0.1 -0.1)">
       <use xlink:href="#DejaVuSans-30"/>
       <use xlink:href="#DejaVuSans-2e" x="63.623047"/>
       <use xlink:href="#DejaVuSans-30" x="95.410156"/>
      </g>
     </g>
    </g>
    <g id="ytick_2">
     <g id="line2d_8">
      <g>
       <use xlink:href="#m54a5b49091" x="180" y="512.883433" style="stroke: #000000; stroke-width: 0.8"/>
      </g>
     </g>
     <g id="text_9">
      <!-- 0.2 -->
      <g transform="translate(157.096875 516.682652)scale(0.1 -0.1)">
       <use xlink:href="#DejaVuSans-30"/>
       <use xlink:href="#DejaVuSans-2e" x="63.623047"/>
       <use xlink:href="#DejaVuSans-32" x="95.410156"/>
      </g>
     </g>
    </g>
    <g id="ytick_3">
     <g id="line2d_9">
      <g>
       <use xlink:href="#m54a5b49091" x="180" y="409.455269" style="stroke: #000000; stroke-width: 0.8"/>
      </g>
     </g>
     <g id="text_10">
      <!-- 0.4 -->
      <g transform="translate(157.096875 413.254488)scale(0.1 -0.1)">
       <use xlink:href="#DejaVuSans-30"/>
       <use xlink:href="#DejaVuSans-2e" x="63.623047"/>
       <use xlink:href="#DejaVuSans-34" x="95.410156"/>
      </g>
     </g>
    </g>
    <g id="ytick_4">
     <g id="line2d_10">
      <g>
       <use xlink:href="#m54a5b49091" x="180" y="306.027106" style="stroke: #000000; stroke-width: 0.8"/>
      </g>
     </g>
     <g id="text_11">
      <!-- 0.6 -->
      <g transform="translate(157.096875 309.826325)scale(0.1 -0.1)">
       <defs>
        <path id="DejaVuSans-36" d="M 2113 2584 
Q 1688 2584 1439 2293 
Q 1191 2003 1191 1497 
Q 1191 994 1439 701 
Q 1688 409 2113 409 
Q 2538 409 2786 701 
Q 3034 994 3034 1497 
Q 3034 2003 2786 2293 
Q 2538 2584 2113 2584 
z
M 3366 4563 
L 3366 3988 
Q 3128 4100 2886 4159 
Q 2644 4219 2406 4219 
Q 1781 4219 1451 3797 
Q 1122 3375 1075 2522 
Q 1259 2794 1537 2939 
Q 1816 3084 2150 3084 
Q 2853 3084 3261 2657 
Q 3669 2231 3669 1497 
Q 3669 778 3244 343 
Q 2819 -91 2113 -91 
Q 1303 -91 875 529 
Q 447 1150 447 2328 
Q 447 3434 972 4092 
Q 1497 4750 2381 4750 
Q 2619 4750 2861 4703 
Q 3103 4656 3366 4563 
z
" transform="scale(0.015625)"/>
       </defs>
       <use xlink:href="#DejaVuSans-30"/>
       <use xlink:href="#DejaVuSans-2e" x="63.623047"/>
       <use xlink:href="#DejaVuSans-36" x="95.410156"/>
      </g>
     </g>
    </g>
    <g id="ytick_5">
     <g id="line2d_11">
      <g>
       <use xlink:href="#m54a5b49091" x="180" y="202.598942" style="stroke: #000000; stroke-width: 0.8"/>
      </g>
     </g>
     <g id="text_12">
      <!-- 0.8 -->
      <g transform="translate(157.096875 206.398161)scale(0.1 -0.1)">
       <defs>
        <path id="DejaVuSans-38" d="M 2034 2216 
Q 1584 2216 1326 1975 
Q 1069 1734 1069 1313 
Q 1069 891 1326 650 
Q 1584 409 2034 409 
Q 2484 409 2743 651 
Q 3003 894 3003 1313 
Q 3003 1734 2745 1975 
Q 2488 2216 2034 2216 
z
M 1403 2484 
Q 997 2584 770 2862 
Q 544 3141 544 3541 
Q 544 4100 942 4425 
Q 1341 4750 2034 4750 
Q 2731 4750 3128 4425 
Q 3525 4100 3525 3541 
Q 3525 3141 3298 2862 
Q 3072 2584 2669 2484 
Q 3125 2378 3379 2068 
Q 3634 1759 3634 1313 
Q 3634 634 3220 271 
Q 2806 -91 2034 -91 
Q 1263 -91 848 271 
Q 434 634 434 1313 
Q 434 1759 690 2068 
Q 947 2378 1403 2484 
z
M 1172 3481 
Q 1172 3119 1398 2916 
Q 1625 2713 2034 2713 
Q 2441 2713 2670 2916 
Q 2900 3119 2900 3481 
Q 2900 3844 2670 4047 
Q 2441 4250 2034 4250 
Q 1625 4250 1398 4047 
Q 1172 3844 1172 3481 
z
" transform="scale(0.015625)"/>
       </defs>
       <use xlink:href="#DejaVuSans-30"/>
       <use xlink:href="#DejaVuSans-2e" x="63.623047"/>
       <use xlink:href="#DejaVuSans-38" x="95.410156"/>
      </g>
     </g>
    </g>
    <g id="ytick_6">
     <g id="line2d_12">
      <g>
       <use xlink:href="#m54a5b49091" x="180" y="99.170779" style="stroke: #000000; stroke-width: 0.8"/>
      </g>
     </g>
     <g id="text_13">
      <!-- 1.0 -->
      <g transform="translate(157.096875 102.969998)scale(0.1 -0.1)">
       <use xlink:href="#DejaVuSans-31"/>
       <use xlink:href="#DejaVuSans-2e" x="63.623047"/>
       <use xlink:href="#DejaVuSans-30" x="95.410156"/>
      </g>
     </g>
    </g>
    <g id="text_14">
     <!-- F1 score value -->
     <g transform="translate(151.017188 399.925781)rotate(-90)scale(0.1 -0.1)">
      <defs>
       <path id="DejaVuSans-46" d="M 628 4666 
L 3309 4666 
L 3309 4134 
L 1259 4134 
L 1259 2759 
L 3109 2759 
L 3109 2228 
L 1259 2228 
L 1259 0 
L 628 0 
L 628 4666 
z
" transform="scale(0.015625)"/>
       <path id="DejaVuSans-73" d="M 2834 3397 
L 2834 2853 
Q 2591 2978 2328 3040 
Q 2066 3103 1784 3103 
Q 1356 3103 1142 2972 
Q 928 2841 928 2578 
Q 928 2378 1081 2264 
Q 1234 2150 1697 2047 
L 1894 2003 
Q 2506 1872 2764 1633 
Q 3022 1394 3022 966 
Q 3022 478 2636 193 
Q 2250 -91 1575 -91 
Q 1294 -91 989 -36 
Q 684 19 347 128 
L 347 722 
Q 666 556 975 473 
Q 1284 391 1588 391 
Q 1994 391 2212 530 
Q 2431 669 2431 922 
Q 2431 1156 2273 1281 
Q 2116 1406 1581 1522 
L 1381 1569 
Q 847 1681 609 1914 
Q 372 2147 372 2553 
Q 372 3047 722 3315 
Q 1072 3584 1716 3584 
Q 2034 3584 2315 3537 
Q 2597 3491 2834 3397 
z
" transform="scale(0.015625)"/>
       <path id="DejaVuSans-72" d="M 2631 2963 
Q 2534 3019 2420 3045 
Q 2306 3072 2169 3072 
Q 1681 3072 1420 2755 
Q 1159 2438 1159 1844 
L 1159 0 
L 581 0 
L 581 3500 
L 1159 3500 
L 1159 2956 
Q 1341 3275 1631 3429 
Q 1922 3584 2338 3584 
Q 2397 3584 2469 3576 
Q 2541 3569 2628 3553 
L 2631 2963 
z
" transform="scale(0.015625)"/>
       <path id="DejaVuSans-76" d="M 191 3500 
L 800 3500 
L 1894 563 
L 2988 3500 
L 3597 3500 
L 2284 0 
L 1503 0 
L 191 3500 
z
" transform="scale(0.015625)"/>
       <path id="DejaVuSans-61" d="M 2194 1759 
Q 1497 1759 1228 1600 
Q 959 1441 959 1056 
Q 959 750 1161 570 
Q 1363 391 1709 391 
Q 2188 391 2477 730 
Q 2766 1069 2766 1631 
L 2766 1759 
L 2194 1759 
z
M 3341 1997 
L 3341 0 
L 2766 0 
L 2766 531 
Q 2569 213 2275 61 
Q 1981 -91 1556 -91 
Q 1019 -91 701 211 
Q 384 513 384 1019 
Q 384 1609 779 1909 
Q 1175 2209 1959 2209 
L 2766 2209 
L 2766 2266 
Q 2766 2663 2505 2880 
Q 2244 3097 1772 3097 
Q 1472 3097 1187 3025 
Q 903 2953 641 2809 
L 641 3341 
Q 956 3463 1253 3523 
Q 1550 3584 1831 3584 
Q 2591 3584 2966 3190 
Q 3341 2797 3341 1997 
z
" transform="scale(0.015625)"/>
       <path id="DejaVuSans-6c" d="M 603 4863 
L 1178 4863 
L 1178 0 
L 603 0 
L 603 4863 
z
" transform="scale(0.015625)"/>
       <path id="DejaVuSans-75" d="M 544 1381 
L 544 3500 
L 1119 3500 
L 1119 1403 
Q 1119 906 1312 657 
Q 1506 409 1894 409 
Q 2359 409 2629 706 
Q 2900 1003 2900 1516 
L 2900 3500 
L 3475 3500 
L 3475 0 
L 2900 0 
L 2900 538 
Q 2691 219 2414 64 
Q 2138 -91 1772 -91 
Q 1169 -91 856 284 
Q 544 659 544 1381 
z
M 1991 3584 
L 1991 3584 
z
" transform="scale(0.015625)"/>
      </defs>
      <use xlink:href="#DejaVuSans-46"/>
      <use xlink:href="#DejaVuSans-31" x="57.519531"/>
      <use xlink:href="#DejaVuSans-20" x="121.142578"/>
      <use xlink:href="#DejaVuSans-73" x="152.929688"/>
      <use xlink:href="#DejaVuSans-63" x="205.029297"/>
      <use xlink:href="#DejaVuSans-6f" x="260.009766"/>
      <use xlink:href="#DejaVuSans-72" x="321.191406"/>
      <use xlink:href="#DejaVuSans-65" x="360.054688"/>
      <use xlink:href="#DejaVuSans-20" x="421.578125"/>
      <use xlink:href="#DejaVuSans-76" x="453.365234"/>
      <use xlink:href="#DejaVuSans-61" x="512.544922"/>
      <use xlink:href="#DejaVuSans-6c" x="573.824219"/>
      <use xlink:href="#DejaVuSans-75" x="601.607422"/>
      <use xlink:href="#DejaVuSans-65" x="664.986328"/>
     </g>
    </g>
   </g>
   <g id="line2d_13">
    <path d="M 230.727273 292.455165 
L 232.76043 295.119592 
L 234.793587 278.036964 
L 236.826744 299.649578 
L 238.859902 289.857751 
L 240.893059 296.306007 
L 242.926216 289.68677 
L 244.959373 282.42214 
L 246.992531 294.909803 
L 249.025688 285.640967 
L 251.058845 298.629458 
L 253.092002 283.928447 
L 255.125159 278.737902 
L 257.158317 281.612918 
L 259.191474 291.315479 
L 261.224631 288.136015 
L 263.257788 288.171432 
L 265.290946 287.219309 
L 267.324103 287.864363 
L 269.35726 280.370341 
L 271.390417 297.170743 
L 273.423574 288.199913 
L 275.456732 303.699204 
L 277.489889 298.923981 
L 279.523046 285.553087 
L 281.556203 299.159169 
L 283.589361 283.562597 
L 285.622518 286.132024 
L 287.655675 293.155856 
L 289.688832 281.998033 
L 291.721989 283.225105 
L 293.755147 287.869141 
L 295.788304 287.08655 
L 297.821461 279.507269 
L 299.854618 279.118671 
L 301.887776 281.408647 
L 303.920933 302.27045 
L 305.95409 296.428163 
L 307.987247 283.997123 
L 310.020404 282.343231 
L 312.053562 283.251059 
L 314.086719 280.160799 
L 316.119876 278.419151 
L 318.153033 276.84722 
L 320.186191 284.245626 
L 322.219348 282.303899 
L 324.252505 279.409495 
L 326.285662 285.055403 
L 328.318819 278.483758 
L 330.351977 287.181981 
L 332.385134 280.9797 
L 334.418291 277.6152 
L 336.451448 283.232688 
L 338.484606 281.574295 
L 340.517763 285.060674 
L 342.55092 279.598169 
L 344.584077 273.65931 
L 346.617234 282.012921 
L 348.650392 278.311945 
L 350.683549 284.91987 
L 352.716706 279.334963 
L 354.749863 281.673857 
L 356.783021 277.912096 
L 358.816178 276.401967 
L 360.849335 282.768386 
L 362.882492 287.134851 
L 364.915649 285.657581 
L 366.948807 285.975869 
L 368.981964 284.062747 
L 371.015121 288.202132 
L 373.048278 282.623267 
L 375.081436 286.239106 
L 377.114593 280.301326 
L 379.14775 280.229259 
L 381.180907 283.619252 
L 383.214064 285.174569 
L 385.247222 282.698046 
L 387.280379 283.954956 
L 389.313536 284.556979 
L 391.346693 273.682428 
L 393.379851 276.945826 
L 395.413008 287.502613 
L 397.446165 284.411367 
L 401.51248 285.551546 
L 403.545637 280.969282 
L 405.578794 290.80827 
L 407.611951 280.638047 
L 409.645108 287.854407 
L 411.678266 282.297303 
L 413.711423 288.265013 
L 415.74458 289.032038 
L 417.777737 288.265876 
L 419.810895 283.029373 
L 421.844052 278.704458 
L 423.877209 285.337474 
L 425.910366 281.216521 
L 427.943523 281.429916 
L 429.976681 282.94621 
L 432.009838 294.623849 
L 434.042995 285.162208 
L 436.076152 287.661726 
L 438.10931 285.036046 
L 440.142467 278.349427 
L 442.175624 283.196593 
L 444.208781 282.979561 
L 446.241938 288.669578 
L 448.275096 288.78039 
L 450.308253 283.592311 
L 452.34141 277.948161 
L 454.374567 281.04739 
L 456.407725 276.667886 
L 458.440882 276.558091 
L 460.474039 279.095923 
L 462.507196 285.58237 
L 464.540353 275.183556 
L 466.573511 280.378848 
L 468.606668 277.055066 
L 470.639825 286.807069 
L 474.70614 280.978652 
L 476.739297 280.439479 
L 478.772454 282.168582 
L 480.805611 279.384066 
L 482.838768 276.358814 
L 484.871926 281.785101 
L 486.905083 287.889423 
L 488.93824 284.740968 
L 490.971397 283.790571 
L 493.004555 276.792076 
L 495.037712 276.400334 
L 497.070869 280.182037 
L 499.104026 281.995382 
L 501.137183 280.980163 
L 503.170341 279.7886 
L 505.203498 290.192808 
L 507.236655 280.270872 
L 509.269812 289.459844 
L 511.30297 286.299367 
L 513.336127 277.019619 
L 515.369284 279.86267 
L 517.402441 280.657651 
L 519.435598 288.060958 
L 521.468756 276.225346 
L 523.501913 289.207673 
L 525.53507 292.409669 
L 527.568227 281.030591 
L 529.601385 285.911478 
L 531.634542 303.975294 
L 533.667699 298.209666 
L 535.700856 284.601982 
L 537.734013 281.28418 
L 539.767171 286.738794 
L 541.800328 275.838443 
L 543.833485 285.656841 
L 545.866642 283.134544 
L 547.8998 284.305579 
L 549.932957 271.96063 
L 551.966114 278.623021 
L 553.999271 280.821481 
L 556.032428 280.622789 
L 558.065586 286.728098 
L 560.098743 283.620916 
L 562.1319 281.340002 
L 564.165057 279.822814 
L 566.198215 282.391933 
L 568.231372 273.322527 
L 570.264529 277.496774 
L 572.297686 279.793686 
L 574.330844 279.781325 
L 576.364001 279.142529 
L 578.397158 281.915794 
L 580.430315 280.890958 
L 582.463472 271.471176 
L 584.49663 280.883314 
L 586.529787 274.29974 
L 588.562944 277.323142 
L 590.596101 280.878998 
L 592.629259 287.106247 
L 594.662416 284.397773 
L 596.695573 281.938512 
L 598.72873 284.143784 
L 600.761887 273.39521 
L 602.795045 282.698231 
L 604.828202 280.849654 
L 606.861359 276.57039 
L 608.894516 277.928341 
L 610.927674 279.429623 
L 612.960831 269.450016 
L 614.993988 275.973976 
L 617.027145 277.707918 
L 619.060302 276.303331 
L 621.09346 273.916659 
L 623.126617 277.718368 
L 625.159774 272.593724 
L 627.192931 281.252462 
L 629.226089 270.636524 
L 631.259246 268.496938 
L 633.292403 281.568439 
L 635.32556 280.416669 
L 637.358717 272.269302 
L 639.391875 282.205201 
L 641.425032 279.612379 
L 643.458189 280.587558 
L 645.491346 274.127588 
L 647.524504 273.837226 
L 649.557661 274.646911 
L 651.590818 274.900007 
L 653.623975 281.461664 
L 655.657132 279.443093 
L 657.69029 283.321923 
L 659.723447 281.385468 
L 661.756604 280.532753 
L 663.789761 281.650092 
L 665.822919 273.191741 
L 667.856076 278.617257 
L 669.889233 279.446823 
L 671.92239 276.06167 
L 673.955547 277.184434 
L 675.988705 279.074654 
L 678.021862 272.656636 
L 680.055019 276.968728 
L 682.088176 278.524107 
L 684.121334 274.968405 
L 686.154491 274.717313 
L 688.187648 277.338 
L 690.220805 267.747052 
L 692.253962 272.877028 
L 694.28712 273.667324 
L 696.320277 273.489531 
L 698.353434 274.934838 
L 700.386591 280.823484 
L 702.419749 275.834467 
L 704.452906 272.224854 
L 706.486063 295.483777 
L 708.51922 279.188179 
L 710.552377 281.624538 
L 712.585535 276.393953 
L 714.618692 275.094629 
L 716.651849 283.154118 
L 718.685006 283.735304 
L 720.718164 270.147501 
L 722.751321 280.355145 
L 724.784478 279.735736 
L 726.817635 277.422365 
L 728.850792 274.684793 
L 730.88395 279.362458 
L 732.917107 278.050527 
L 734.950264 282.76293 
L 736.983421 267.890507 
L 739.016579 279.994566 
L 741.049736 288.150749 
L 743.082893 277.97732 
L 745.11605 279.746247 
L 747.149208 279.956128 
L 749.182365 267.30556 
L 751.215522 273.728602 
L 753.248679 272.638327 
L 755.281836 279.492011 
L 757.314994 283.652295 
L 759.348151 272.311315 
L 761.381308 271.997588 
L 763.414465 288.517154 
L 765.447623 280.63478 
L 767.48078 308.097079 
L 769.513937 286.209454 
L 771.547094 293.042948 
L 773.580251 273.11018 
L 775.613409 268.94179 
L 777.646566 275.682504 
L 779.679723 280.137065 
L 781.71288 279.292087 
L 783.746038 303.856221 
L 785.779195 283.287185 
L 787.812352 285.374431 
L 789.845509 289.279832 
L 791.878666 280.871971 
L 793.911824 282.050834 
L 795.944981 281.598955 
L 797.978138 273.049827 
L 800.011295 279.691134 
L 802.044453 267.206831 
L 804.07761 270.515756 
L 806.110767 279.083439 
L 808.143924 281.533947 
L 810.177081 283.653127 
L 812.210239 273.528 
L 814.243396 278.132765 
L 816.276553 275.201465 
L 818.30971 293.911846 
L 820.342868 292.414478 
L 822.376025 289.178143 
L 824.409182 285.618558 
L 826.442339 284.599701 
L 828.475496 281.431796 
L 830.508654 266.230943 
L 832.541811 276.244488 
L 834.574968 267.894699 
L 836.608125 280.31307 
L 838.641283 278.075834 
L 840.67444 281.511014 
L 842.707597 283.302905 
L 844.740754 272.472463 
L 846.773911 277.086322 
L 848.807069 279.767269 
L 850.840226 281.641492 
L 852.873383 274.69663 
L 854.90654 283.495647 
L 856.939698 275.541207 
L 858.972855 271.135873 
L 861.006012 271.556682 
L 863.039169 278.600735 
L 865.072326 279.233182 
L 867.105484 276.958864 
L 869.138641 288.510187 
L 871.171798 284.685022 
L 873.204955 278.203322 
L 875.238113 273.832233 
L 877.27127 279.874629 
L 879.304427 282.929472 
L 881.337584 269.106544 
L 883.370741 278.034776 
L 885.403899 276.837295 
L 887.437056 288.302125 
L 891.50337 276.714091 
L 893.536528 281.193434 
L 895.569685 280.996222 
L 897.602842 287.088307 
L 899.635999 280.70999 
L 901.669156 275.291502 
L 903.702314 278.495872 
L 905.735471 277.875724 
L 907.768628 277.705822 
L 909.801785 279.15942 
L 911.834943 288.347714 
L 913.8681 266.400537 
L 915.901257 288.343799 
L 917.934414 271.978508 
L 919.967572 279.575452 
L 922.000729 272.219768 
L 924.033886 280.265632 
L 926.067043 275.464949 
L 928.1002 274.720149 
L 930.133358 278.878398 
L 932.166515 281.215072 
L 934.199672 269.860314 
L 936.232829 277.196826 
L 938.265987 275.840662 
L 940.299144 274.051761 
L 942.332301 287.598722 
L 944.365458 283.985071 
L 946.398615 273.412471 
L 948.431773 276.148532 
L 950.46493 279.297789 
L 952.498087 275.815078 
L 954.531244 283.463806 
L 956.564402 276.339919 
L 958.597559 282.843627 
L 960.630716 282.737439 
L 962.663873 286.918714 
L 964.69703 269.433895 
L 966.730188 284.370617 
L 968.763345 287.079985 
L 970.796502 295.816522 
L 972.829659 292.132438 
L 974.862817 277.34176 
L 976.895974 277.883893 
L 978.929131 278.728347 
L 980.962288 275.69992 
L 982.995445 266.824367 
L 985.028603 269.12396 
L 987.06176 273.321818 
L 989.094917 289.335407 
L 991.128074 279.326024 
L 993.161232 281.366727 
L 995.194389 267.89661 
L 997.227546 278.462058 
L 999.260703 271.369642 
L 1001.29386 272.187988 
L 1003.327018 277.146613 
L 1005.360175 269.809578 
L 1007.393332 286.165868 
L 1009.426489 264.508683 
L 1011.459647 270.896802 
L 1013.492804 275.144318 
L 1015.525961 274.485886 
L 1017.559118 276.343463 
L 1019.592275 270.667718 
L 1021.625433 281.70092 
L 1025.691747 279.346491 
L 1027.724904 279.168791 
L 1029.758062 266.829545 
L 1031.791219 274.536129 
L 1033.824376 272.560989 
L 1035.857533 274.604744 
L 1037.89069 278.767925 
L 1039.923848 276.780671 
L 1041.957005 274.07041 
L 1043.990162 272.223405 
L 1046.023319 268.660336 
L 1048.056477 275.036927 
L 1050.089634 280.235671 
L 1052.122791 282.482247 
L 1054.155948 273.53999 
L 1056.189105 274.479629 
L 1058.222263 276.975694 
L 1060.25542 264.818742 
L 1062.288577 273.381771 
L 1064.321734 274.789811 
L 1066.354892 287.257254 
L 1068.388049 273.386209 
L 1070.421206 282.393196 
L 1072.454363 276.557228 
L 1074.48752 264.429465 
L 1076.520678 265.534968 
L 1078.553835 270.522722 
L 1080.586992 272.185337 
L 1082.620149 277.431889 
L 1084.653307 278.08169 
L 1086.686464 289.41518 
L 1088.719621 289.36506 
L 1090.752778 290.290581 
L 1092.785936 280.063611 
L 1094.819093 276.645015 
L 1096.85225 283.205501 
L 1098.885407 267.926756 
L 1100.918564 277.065608 
L 1102.951722 277.343301 
L 1104.984879 275.794118 
L 1107.018036 275.223258 
L 1109.051193 284.622049 
L 1111.084351 272.955506 
L 1113.117508 270.769283 
L 1115.150665 267.322174 
L 1117.183822 272.836802 
L 1119.216979 275.099592 
L 1121.250137 270.2376 
L 1123.283294 279.444974 
L 1125.316451 280.967001 
L 1127.349608 270.321102 
L 1129.382766 276.660087 
L 1131.415923 273.415677 
L 1133.44908 287.969288 
L 1135.482237 287.132077 
L 1137.515394 280.300124 
L 1139.548552 272.71326 
L 1141.581709 280.512255 
L 1143.614866 263.603598 
L 1145.648023 265.963668 
L 1147.681181 288.669208 
L 1149.714338 274.23128 
L 1151.747495 282.149779 
L 1153.780652 265.634098 
L 1155.813809 271.820412 
L 1157.846967 273.808745 
L 1159.880124 277.190044 
L 1161.913281 279.582665 
L 1163.946438 326.542065 
L 1165.979596 280.155837 
L 1168.012753 282.997223 
L 1170.04591 283.155011 
L 1172.079067 273.917214 
L 1174.112224 283.555199 
L 1176.145382 279.339617 
L 1178.178539 283.870036 
L 1180.211696 284.563945 
L 1182.244853 330.208363 
L 1184.278011 313.339994 
L 1186.311168 303.593231 
L 1188.344325 294.778462 
L 1190.377482 270.018164 
L 1192.410639 275.480823 
L 1194.443797 282.169137 
L 1196.476954 279.898487 
L 1198.510111 270.031696 
L 1200.543268 284.773086 
L 1202.576426 272.202013 
L 1204.609583 269.078587 
L 1206.64274 272.477641 
L 1208.675897 278.305565 
L 1210.709054 278.387834 
L 1212.742212 274.942914 
L 1214.775369 275.392297 
L 1216.808526 274.604898 
L 1218.841683 277.848537 
L 1220.874841 282.839836 
L 1222.907998 278.004075 
L 1224.941155 277.247839 
L 1226.974312 278.199499 
L 1229.007469 277.407723 
L 1231.040627 281.48133 
L 1233.073784 279.825465 
L 1235.106941 279.060814 
L 1237.140098 288.051588 
L 1239.173256 281.704927 
L 1241.206413 269.857109 
L 1243.23957 280.193997 
L 1245.272727 278.913044 
L 1245.272727 278.913044 
" clip-path="url(#p9f7222c509)" style="fill: none; stroke: #1f77b4; stroke-width: 1.5; stroke-linecap: square"/>
   </g>
   <g id="line2d_14">
    <path d="M 230.727273 307.468454 
L 232.76043 333.647027 
L 234.793587 322.370715 
L 236.826744 462.695888 
L 238.859902 455.359423 
L 240.893059 545.433847 
L 242.926216 350.143505 
L 244.959373 381.635841 
L 246.992531 358.203902 
L 249.025688 465.276195 
L 251.058845 297.263462 
L 253.092002 357.473574 
L 255.125159 337.803026 
L 257.158317 307.457728 
L 259.191474 358.235373 
L 261.224631 310.670143 
L 263.257788 345.469446 
L 265.290946 363.101388 
L 267.324103 421.605916 
L 271.390417 227.900227 
L 273.423574 395.665721 
L 275.456732 408.502173 
L 277.489889 414.703976 
L 279.523046 243.393754 
L 281.556203 598.372419 
L 283.589361 594.097921 
L 285.622518 607.059237 
L 287.655675 382.77844 
L 289.688832 376.662928 
L 291.721989 564.474499 
L 293.755147 400.33702 
L 295.788304 309.62712 
L 297.821461 318.461154 
L 299.854618 485.435658 
L 301.887776 493.564701 
L 303.920933 457.31334 
L 305.95409 438.979459 
L 307.987247 347.868201 
L 310.020404 334.062873 
L 312.053562 542.694588 
L 314.086719 337.787799 
L 316.119876 334.091724 
L 318.153033 393.163984 
L 320.186191 337.147214 
L 322.219348 425.488768 
L 324.252505 370.264807 
L 326.285662 251.082367 
L 330.351977 431.634132 
L 332.385134 348.222861 
L 334.418291 368.188287 
L 336.451448 380.901675 
L 338.484606 331.57664 
L 340.517763 561.186596 
L 342.55092 243.935917 
L 344.584077 337.703773 
L 346.617234 385.94166 
L 348.650392 347.023315 
L 350.683549 319.928469 
L 352.716706 412.200436 
L 354.749863 353.994007 
L 356.783021 353.678832 
L 358.816178 291.364982 
L 360.849335 330.101466 
L 362.882492 353.37876 
L 364.915649 517.977312 
L 366.948807 591.818731 
L 368.981964 429.461858 
L 371.015121 329.724642 
L 373.048278 210.061672 
L 375.081436 388.947585 
L 377.114593 358.049335 
L 379.14775 564.894838 
L 381.180907 271.004131 
L 383.214064 511.648499 
L 385.247222 327.214768 
L 387.280379 339.326748 
L 389.313536 470.472196 
L 391.346693 358.447689 
L 393.379851 138.379979 
L 395.413008 308.931793 
L 397.446165 333.474628 
L 399.479322 385.315825 
L 401.51248 329.278588 
L 403.545637 388.333186 
L 405.578794 545.74648 
L 407.611951 592.52643 
L 409.645108 507.498934 
L 411.678266 534.790299 
L 413.711423 383.792333 
L 415.74458 121.861893 
L 417.777737 486.657398 
L 419.810895 237.328177 
L 421.844052 531.773693 
L 423.877209 494.674557 
L 425.910366 348.047812 
L 427.943523 326.071167 
L 429.976681 359.098337 
L 432.009838 604.606861 
L 434.042995 130.617449 
L 436.076152 606.71854 
L 438.10931 293.216426 
L 440.142467 377.215556 
L 442.175624 344.701097 
L 444.208781 405.978859 
L 446.241938 137.967431 
L 448.275096 177.995131 
L 450.308253 537.419277 
L 452.34141 245.06241 
L 454.374567 322.632534 
L 456.407725 374.289296 
L 458.440882 358.724535 
L 460.474039 146.331553 
L 462.507196 556.791226 
L 464.540353 322.721862 
L 466.573511 294.575641 
L 468.606668 314.533067 
L 470.639825 241.346701 
L 472.672982 173.649842 
L 474.70614 360.183265 
L 476.739297 296.346171 
L 478.772454 589.892316 
L 480.805611 369.097765 
L 482.838768 301.900254 
L 484.871926 392.017162 
L 486.905083 453.519616 
L 488.93824 484.117485 
L 490.971397 603.219423 
L 493.004555 351.168741 
L 495.037712 341.576191 
L 497.070869 336.679399 
L 499.104026 615.315361 
L 501.137183 285.740651 
L 503.170341 606.381139 
L 505.203498 487.695381 
L 507.236655 601.571914 
L 509.269812 604.431462 
L 511.30297 422.027387 
L 513.336127 282.249803 
L 515.369284 479.661769 
L 517.402441 337.991391 
L 519.435598 608.721234 
L 521.468756 544.087532 
L 523.501913 600.103812 
L 525.53507 587.083949 
L 527.568227 521.947844 
L 529.601385 609.627132 
L 531.634542 338.602569 
L 533.667699 519.779237 
L 535.700856 352.768106 
L 537.734013 358.770894 
L 539.767171 343.937525 
L 541.800328 339.827577 
L 543.833485 185.133506 
L 545.866642 292.7213 
L 547.8998 155.426974 
L 549.932957 328.286272 
L 553.999271 572.246696 
L 556.032428 595.103555 
L 558.065586 339.449212 
L 560.098743 344.629523 
L 562.1319 333.693571 
L 564.165057 384.160834 
L 566.198215 410.168549 
L 568.231372 317.956442 
L 570.264529 546.086037 
L 572.297686 323.791332 
L 574.330844 265.899431 
L 576.364001 337.533069 
L 578.397158 309.439711 
L 580.430315 371.719715 
L 582.463472 301.912368 
L 584.49663 309.975 
L 586.529787 446.984035 
L 588.562944 325.106992 
L 590.596101 336.453952 
L 592.629259 368.222116 
L 594.662416 603.075903 
L 596.695573 606.650648 
L 598.72873 604.072138 
L 600.761887 606.509201 
L 602.795045 346.794847 
L 604.828202 115.462616 
L 606.861359 233.773585 
L 608.894516 457.661174 
L 610.927674 535.603127 
L 612.960831 349.67461 
L 614.993988 542.556142 
L 617.027145 363.979533 
L 619.060302 540.782452 
L 621.09346 164.563853 
L 623.126617 387.716505 
L 625.159774 300.849957 
L 627.192931 193.482524 
L 629.226089 263.871397 
L 631.259246 528.411943 
L 633.292403 321.053945 
L 635.32556 597.999849 
L 637.358717 594.703731 
L 639.391875 254.544272 
L 641.425032 545.388921 
L 643.458189 337.045495 
L 645.491346 335.979879 
L 647.524504 333.162011 
L 649.557661 551.638324 
L 651.590818 282.896737 
L 653.623975 336.851273 
L 655.657132 187.650563 
L 657.69029 602.550864 
L 659.723447 171.710704 
L 661.756604 290.982796 
L 663.789761 575.720957 
L 665.822919 315.99992 
L 667.856076 515.060399 
L 669.889233 354.338003 
L 671.92239 572.224815 
L 673.955547 366.225831 
L 675.988705 481.984388 
L 678.021862 336.245767 
L 680.055019 367.032665 
L 682.088176 603.26686 
L 684.121334 427.960297 
L 686.154491 349.184262 
L 688.187648 506.365151 
L 690.220805 353.020215 
L 692.253962 155.149126 
L 694.28712 502.92668 
L 696.320277 388.526807 
L 698.353434 332.463632 
L 700.386591 615.50512 
L 702.419749 469.558789 
L 704.452906 451.077323 
L 706.486063 361.338363 
L 708.51922 415.828975 
L 710.552377 319.702899 
L 712.585535 342.224851 
L 714.618692 296.532286 
L 716.651849 319.108982 
L 718.685006 346.286406 
L 720.718164 538.453222 
L 722.751321 351.259795 
L 724.784478 340.330747 
L 726.817635 182.072283 
L 728.850792 335.73378 
L 730.88395 313.696504 
L 732.917107 615.457681 
L 734.950264 408.537389 
L 736.983421 296.573005 
L 739.016579 604.510656 
L 741.049736 428.149202 
L 743.082893 434.417739 
L 745.11605 275.790697 
L 747.149208 292.661378 
L 749.182365 596.981875 
L 751.215522 340.424545 
L 753.248679 277.618159 
L 755.281836 301.024051 
L 757.314994 583.85801 
L 759.348151 267.606556 
L 761.381308 392.435135 
L 763.414465 364.136411 
L 767.48078 574.788497 
L 769.513937 396.860921 
L 771.547094 377.168596 
L 773.580251 547.309726 
L 775.613409 322.757002 
L 777.646566 215.385099 
L 779.679723 478.515117 
L 781.71288 210.784741 
L 783.746038 201.186673 
L 785.779195 308.383126 
L 787.812352 518.759579 
L 789.845509 481.650626 
L 791.878666 575.366786 
L 793.911824 534.912909 
L 795.944981 347.401741 
L 797.978138 556.804237 
L 800.011295 603.608837 
L 802.044453 113.417938 
L 804.07761 578.065742 
L 806.110767 577.558973 
L 808.143924 242.846504 
L 810.177081 590.507917 
L 812.210239 111.837191 
L 814.243396 467.599431 
L 816.276553 154.603233 
L 818.30971 269.176422 
L 820.342868 190.76656 
L 822.376025 296.415679 
L 824.409182 540.44288 
L 826.442339 337.352317 
L 828.475496 414.444823 
L 830.508654 499.171986 
L 832.541811 573.902866 
L 836.608125 391.955776 
L 838.641283 533.167238 
L 840.67444 604.499095 
L 842.707597 329.117071 
L 844.740754 314.220759 
L 846.773911 439.059355 
L 848.807069 348.973395 
L 850.840226 322.956957 
L 852.873383 322.03532 
L 854.90654 427.447201 
L 856.939698 250.875908 
L 858.972855 515.337653 
L 861.006012 370.214857 
L 863.039169 346.42425 
L 865.072326 390.417859 
L 867.105484 563.675333 
L 869.138641 439.791518 
L 871.171798 422.941288 
L 873.204955 549.001 
L 875.238113 276.380668 
L 877.27127 437.531718 
L 879.304427 368.62662 
L 881.337584 611.188365 
L 883.370741 225.841122 
L 885.403899 497.363689 
L 887.437056 219.302675 
L 889.470213 604.309338 
L 891.50337 265.571433 
L 893.536528 464.329914 
L 895.569685 592.234096 
L 897.602842 571.593197 
L 899.635999 307.100231 
L 901.669156 209.913224 
L 903.702314 317.806514 
L 905.735471 473.512983 
L 907.768628 536.834993 
L 909.801785 305.403123 
L 911.834943 591.446562 
L 913.8681 323.397278 
L 915.901257 302.427252 
L 917.934414 482.974809 
L 919.967572 314.136887 
L 922.000729 506.235651 
L 924.033886 583.87145 
L 926.067043 386.722647 
L 928.1002 430.52322 
L 930.133358 591.339448 
L 932.166515 307.983215 
L 934.199672 344.702885 
L 936.232829 374.810453 
L 938.265987 394.626043 
L 940.299144 253.617271 
L 942.332301 304.107714 
L 944.365458 295.017718 
L 946.398615 430.619437 
L 948.431773 351.237017 
L 950.46493 295.752377 
L 952.498087 303.515924 
L 954.531244 334.254413 
L 956.564402 410.372296 
L 958.597559 569.009318 
L 960.630716 604.401962 
L 962.663873 492.694917 
L 964.69703 493.054502 
L 966.730188 416.757286 
L 968.763345 552.692305 
L 970.796502 343.908211 
L 972.829659 348.570217 
L 974.862817 453.247702 
L 976.895974 325.756639 
L 978.929131 349.835789 
L 980.962288 302.887824 
L 982.995445 298.844918 
L 985.028603 569.570519 
L 987.06176 185.884194 
L 989.094917 611.014847 
L 991.128074 400.327172 
L 993.161232 474.941167 
L 995.194389 555.509267 
L 997.227546 458.459638 
L 999.260703 375.668469 
L 1001.29386 548.111165 
L 1003.327018 258.533236 
L 1005.360175 358.216494 
L 1007.393332 319.042125 
L 1009.426489 433.462658 
L 1011.459647 459.858539 
L 1013.492804 321.917849 
L 1015.525961 608.487983 
L 1017.559118 395.479236 
L 1019.592275 291.131614 
L 1021.625433 339.561781 
L 1023.65859 342.470981 
L 1025.691747 340.550923 
L 1027.724904 474.081948 
L 1029.758062 320.179006 
L 1031.791219 328.02772 
L 1033.824376 333.68531 
L 1035.857533 197.974782 
L 1037.89069 315.038766 
L 1039.923848 398.258127 
L 1041.957005 349.537227 
L 1043.990162 393.059506 
L 1046.023319 486.609528 
L 1048.056477 350.338004 
L 1050.089634 248.660804 
L 1052.122791 603.843518 
L 1054.155948 596.906158 
L 1056.189105 202.738076 
L 1058.222263 347.346535 
L 1060.25542 382.717593 
L 1062.288577 255.448956 
L 1064.321734 209.678468 
L 1066.354892 367.12113 
L 1068.388049 566.172142 
L 1070.421206 262.940574 
L 1072.454363 121.743868 
L 1074.48752 517.474419 
L 1076.520678 319.822527 
L 1078.553835 416.987418 
L 1080.586992 348.209823 
L 1082.620149 325.737189 
L 1084.653307 370.363244 
L 1086.686464 302.876635 
L 1088.719621 317.162693 
L 1090.752778 529.120202 
L 1092.785936 596.059929 
L 1094.819093 282.030305 
L 1096.85225 550.470342 
L 1098.885407 580.037126 
L 1100.918564 521.455507 
L 1102.951722 415.68196 
L 1104.984879 350.040429 
L 1107.018036 362.974809 
L 1109.051193 415.290449 
L 1111.084351 267.856138 
L 1113.117508 420.374697 
L 1115.150665 333.456503 
L 1117.183822 304.273609 
L 1119.216979 258.3916 
L 1121.250137 605.904704 
L 1123.283294 349.025826 
L 1125.316451 238.601763 
L 1127.349608 562.656092 
L 1129.382766 525.760864 
L 1131.415923 462.640374 
L 1133.44908 609.252939 
L 1135.482237 310.886835 
L 1137.515394 381.79799 
L 1139.548552 291.430545 
L 1141.581709 390.407055 
L 1143.614866 127.906109 
L 1145.648023 442.152435 
L 1147.681181 284.326477 
L 1149.714338 315.329621 
L 1151.747495 434.913513 
L 1153.780652 205.345108 
L 1155.813809 302.020498 
L 1157.846967 230.728112 
L 1159.880124 288.325644 
L 1161.913281 233.626955 
L 1163.946438 434.089664 
L 1165.979596 170.607113 
L 1168.012753 330.015528 
L 1170.04591 601.398611 
L 1172.079067 117.713477 
L 1174.112224 571.706336 
L 1176.145382 333.005918 
L 1180.211696 522.536089 
L 1182.244853 595.493997 
L 1184.278011 220.600735 
L 1186.311168 302.433663 
L 1188.344325 191.650993 
L 1190.377482 597.131655 
L 1192.410639 211.558855 
L 1194.443797 314.581554 
L 1196.476954 615.6 
L 1198.510111 608.676302 
L 1202.576426 242.157434 
L 1204.609583 518.713274 
L 1206.64274 245.916389 
L 1208.675897 609.111599 
L 1210.709054 555.917897 
L 1212.742212 386.713462 
L 1214.775369 552.415043 
L 1216.808526 392.988318 
L 1218.841683 605.358538 
L 1220.874841 338.76381 
L 1222.907998 242.46666 
L 1224.941155 240.946729 
L 1226.974312 343.72712 
L 1229.007469 111.6 
L 1231.040627 428.673072 
L 1233.073784 415.803237 
L 1235.106941 606.568097 
L 1237.140098 215.196857 
L 1239.173256 384.443382 
L 1241.206413 240.380585 
L 1243.23957 511.346678 
L 1245.272727 499.081086 
L 1245.272727 499.081086 
" clip-path="url(#p9f7222c509)" style="fill: none; stroke: #ff7f0e; stroke-width: 1.5; stroke-linecap: square"/>
   </g>
   <g id="patch_3">
    <path d="M 180 640.8 
L 180 86.4 
" style="fill: none; stroke: #000000; stroke-width: 0.8; stroke-linejoin: miter; stroke-linecap: square"/>
   </g>
   <g id="patch_4">
    <path d="M 1296 640.8 
L 1296 86.4 
" style="fill: none; stroke: #000000; stroke-width: 0.8; stroke-linejoin: miter; stroke-linecap: square"/>
   </g>
   <g id="patch_5">
    <path d="M 180 640.8 
L 1296 640.8 
" style="fill: none; stroke: #000000; stroke-width: 0.8; stroke-linejoin: miter; stroke-linecap: square"/>
   </g>
   <g id="patch_6">
    <path d="M 180 86.4 
L 1296 86.4 
" style="fill: none; stroke: #000000; stroke-width: 0.8; stroke-linejoin: miter; stroke-linecap: square"/>
   </g>
   <g id="text_15">
    <!-- F1 score -->
    <g transform="translate(712.705312 80.4)scale(0.12 -0.12)">
     <use xlink:href="#DejaVuSans-46"/>
     <use xlink:href="#DejaVuSans-31" x="57.519531"/>
     <use xlink:href="#DejaVuSans-20" x="121.142578"/>
     <use xlink:href="#DejaVuSans-73" x="152.929688"/>
     <use xlink:href="#DejaVuSans-63" x="205.029297"/>
     <use xlink:href="#DejaVuSans-6f" x="260.009766"/>
     <use xlink:href="#DejaVuSans-72" x="321.191406"/>
     <use xlink:href="#DejaVuSans-65" x="360.054688"/>
    </g>
   </g>
   <g id="legend_1">
    <g id="patch_7">
     <path d="M 187 123.75625 
L 347.076563 123.75625 
Q 349.076563 123.75625 349.076563 121.75625 
L 349.076563 93.4 
Q 349.076563 91.4 347.076563 91.4 
L 187 91.4 
Q 185 91.4 185 93.4 
L 185 121.75625 
Q 185 123.75625 187 123.75625 
z
" style="fill: #ffffff; opacity: 0.8; stroke: #cccccc; stroke-linejoin: miter"/>
    </g>
    <g id="line2d_15">
     <path d="M 189 99.498437 
L 199 99.498437 
L 209 99.498437 
" style="fill: none; stroke: #1f77b4; stroke-width: 1.5; stroke-linecap: square"/>
    </g>
    <g id="text_16">
     <!-- F1 score (training data) -->
     <g transform="translate(217 102.998437)scale(0.1 -0.1)">
      <defs>
       <path id="DejaVuSans-28" d="M 1984 4856 
Q 1566 4138 1362 3434 
Q 1159 2731 1159 2009 
Q 1159 1288 1364 580 
Q 1569 -128 1984 -844 
L 1484 -844 
Q 1016 -109 783 600 
Q 550 1309 550 2009 
Q 550 2706 781 3412 
Q 1013 4119 1484 4856 
L 1984 4856 
z
" transform="scale(0.015625)"/>
       <path id="DejaVuSans-74" d="M 1172 4494 
L 1172 3500 
L 2356 3500 
L 2356 3053 
L 1172 3053 
L 1172 1153 
Q 1172 725 1289 603 
Q 1406 481 1766 481 
L 2356 481 
L 2356 0 
L 1766 0 
Q 1100 0 847 248 
Q 594 497 594 1153 
L 594 3053 
L 172 3053 
L 172 3500 
L 594 3500 
L 594 4494 
L 1172 4494 
z
" transform="scale(0.015625)"/>
       <path id="DejaVuSans-69" d="M 603 3500 
L 1178 3500 
L 1178 0 
L 603 0 
L 603 3500 
z
M 603 4863 
L 1178 4863 
L 1178 4134 
L 603 4134 
L 603 4863 
z
" transform="scale(0.015625)"/>
       <path id="DejaVuSans-6e" d="M 3513 2113 
L 3513 0 
L 2938 0 
L 2938 2094 
Q 2938 2591 2744 2837 
Q 2550 3084 2163 3084 
Q 1697 3084 1428 2787 
Q 1159 2491 1159 1978 
L 1159 0 
L 581 0 
L 581 3500 
L 1159 3500 
L 1159 2956 
Q 1366 3272 1645 3428 
Q 1925 3584 2291 3584 
Q 2894 3584 3203 3211 
Q 3513 2838 3513 2113 
z
" transform="scale(0.015625)"/>
       <path id="DejaVuSans-67" d="M 2906 1791 
Q 2906 2416 2648 2759 
Q 2391 3103 1925 3103 
Q 1463 3103 1205 2759 
Q 947 2416 947 1791 
Q 947 1169 1205 825 
Q 1463 481 1925 481 
Q 2391 481 2648 825 
Q 2906 1169 2906 1791 
z
M 3481 434 
Q 3481 -459 3084 -895 
Q 2688 -1331 1869 -1331 
Q 1566 -1331 1297 -1286 
Q 1028 -1241 775 -1147 
L 775 -588 
Q 1028 -725 1275 -790 
Q 1522 -856 1778 -856 
Q 2344 -856 2625 -561 
Q 2906 -266 2906 331 
L 2906 616 
Q 2728 306 2450 153 
Q 2172 0 1784 0 
Q 1141 0 747 490 
Q 353 981 353 1791 
Q 353 2603 747 3093 
Q 1141 3584 1784 3584 
Q 2172 3584 2450 3431 
Q 2728 3278 2906 2969 
L 2906 3500 
L 3481 3500 
L 3481 434 
z
" transform="scale(0.015625)"/>
       <path id="DejaVuSans-64" d="M 2906 2969 
L 2906 4863 
L 3481 4863 
L 3481 0 
L 2906 0 
L 2906 525 
Q 2725 213 2448 61 
Q 2172 -91 1784 -91 
Q 1150 -91 751 415 
Q 353 922 353 1747 
Q 353 2572 751 3078 
Q 1150 3584 1784 3584 
Q 2172 3584 2448 3432 
Q 2725 3281 2906 2969 
z
M 947 1747 
Q 947 1113 1208 752 
Q 1469 391 1925 391 
Q 2381 391 2643 752 
Q 2906 1113 2906 1747 
Q 2906 2381 2643 2742 
Q 2381 3103 1925 3103 
Q 1469 3103 1208 2742 
Q 947 2381 947 1747 
z
" transform="scale(0.015625)"/>
       <path id="DejaVuSans-29" d="M 513 4856 
L 1013 4856 
Q 1481 4119 1714 3412 
Q 1947 2706 1947 2009 
Q 1947 1309 1714 600 
Q 1481 -109 1013 -844 
L 513 -844 
Q 928 -128 1133 580 
Q 1338 1288 1338 2009 
Q 1338 2731 1133 3434 
Q 928 4138 513 4856 
z
" transform="scale(0.015625)"/>
      </defs>
      <use xlink:href="#DejaVuSans-46"/>
      <use xlink:href="#DejaVuSans-31" x="57.519531"/>
      <use xlink:href="#DejaVuSans-20" x="121.142578"/>
      <use xlink:href="#DejaVuSans-73" x="152.929688"/>
      <use xlink:href="#DejaVuSans-63" x="205.029297"/>
      <use xlink:href="#DejaVuSans-6f" x="260.009766"/>
      <use xlink:href="#DejaVuSans-72" x="321.191406"/>
      <use xlink:href="#DejaVuSans-65" x="360.054688"/>
      <use xlink:href="#DejaVuSans-20" x="421.578125"/>
      <use xlink:href="#DejaVuSans-28" x="453.365234"/>
      <use xlink:href="#DejaVuSans-74" x="492.378906"/>
      <use xlink:href="#DejaVuSans-72" x="531.587891"/>
      <use xlink:href="#DejaVuSans-61" x="572.701172"/>
      <use xlink:href="#DejaVuSans-69" x="633.980469"/>
      <use xlink:href="#DejaVuSans-6e" x="661.763672"/>
      <use xlink:href="#DejaVuSans-69" x="725.142578"/>
      <use xlink:href="#DejaVuSans-6e" x="752.925781"/>
      <use xlink:href="#DejaVuSans-67" x="816.304688"/>
      <use xlink:href="#DejaVuSans-20" x="879.78125"/>
      <use xlink:href="#DejaVuSans-64" x="911.568359"/>
      <use xlink:href="#DejaVuSans-61" x="975.044922"/>
      <use xlink:href="#DejaVuSans-74" x="1036.324219"/>
      <use xlink:href="#DejaVuSans-61" x="1075.533203"/>
      <use xlink:href="#DejaVuSans-29" x="1136.8125"/>
     </g>
    </g>
    <g id="line2d_16">
     <path d="M 189 114.176562 
L 199 114.176562 
L 209 114.176562 
" style="fill: none; stroke: #ff7f0e; stroke-width: 1.5; stroke-linecap: square"/>
    </g>
    <g id="text_17">
     <!-- F1 score (validation data) -->
     <g transform="translate(217 117.676562)scale(0.1 -0.1)">
      <use xlink:href="#DejaVuSans-46"/>
      <use xlink:href="#DejaVuSans-31" x="57.519531"/>
      <use xlink:href="#DejaVuSans-20" x="121.142578"/>
      <use xlink:href="#DejaVuSans-73" x="152.929688"/>
      <use xlink:href="#DejaVuSans-63" x="205.029297"/>
      <use xlink:href="#DejaVuSans-6f" x="260.009766"/>
      <use xlink:href="#DejaVuSans-72" x="321.191406"/>
      <use xlink:href="#DejaVuSans-65" x="360.054688"/>
      <use xlink:href="#DejaVuSans-20" x="421.578125"/>
      <use xlink:href="#DejaVuSans-28" x="453.365234"/>
      <use xlink:href="#DejaVuSans-76" x="492.378906"/>
      <use xlink:href="#DejaVuSans-61" x="551.558594"/>
      <use xlink:href="#DejaVuSans-6c" x="612.837891"/>
      <use xlink:href="#DejaVuSans-69" x="640.621094"/>
      <use xlink:href="#DejaVuSans-64" x="668.404297"/>
      <use xlink:href="#DejaVuSans-61" x="731.880859"/>
      <use xlink:href="#DejaVuSans-74" x="793.160156"/>
      <use xlink:href="#DejaVuSans-69" x="832.369141"/>
      <use xlink:href="#DejaVuSans-6f" x="860.152344"/>
      <use xlink:href="#DejaVuSans-6e" x="921.333984"/>
      <use xlink:href="#DejaVuSans-20" x="984.712891"/>
      <use xlink:href="#DejaVuSans-64" x="1016.5"/>
      <use xlink:href="#DejaVuSans-61" x="1079.976562"/>
      <use xlink:href="#DejaVuSans-74" x="1141.255859"/>
      <use xlink:href="#DejaVuSans-61" x="1180.464844"/>
      <use xlink:href="#DejaVuSans-29" x="1241.744141"/>
     </g>
    </g>
   </g>
  </g>
 </g>
 <defs>
  <clipPath id="p9f7222c509">
   <rect x="180" y="86.4" width="1116" height="554.4"/>
  </clipPath>
 </defs>
</svg>
