<?xml version="1.0" encoding="utf-8" standalone="no"?>
<!DOCTYPE svg PUBLIC "-//W3C//DTD SVG 1.1//EN"
  "http://www.w3.org/Graphics/SVG/1.1/DTD/svg11.dtd">
<svg xmlns:xlink="http://www.w3.org/1999/xlink" width="720pt" height="360pt" viewBox="0 0 720 360" xmlns="http://www.w3.org/2000/svg" version="1.1">
 <metadata>
  <rdf:RDF xmlns:dc="http://purl.org/dc/elements/1.1/" xmlns:cc="http://creativecommons.org/ns#" xmlns:rdf="http://www.w3.org/1999/02/22-rdf-syntax-ns#">
   <cc:Work>
    <dc:type rdf:resource="http://purl.org/dc/dcmitype/StillImage"/>
    <dc:date>2023-11-27T23:07:44.241432</dc:date>
    <dc:format>image/svg+xml</dc:format>
    <dc:creator>
     <cc:Agent>
      <dc:title>Matplotlib v3.5.2, https://matplotlib.org/</dc:title>
     </cc:Agent>
    </dc:creator>
   </cc:Work>
  </rdf:RDF>
 </metadata>
 <defs>
  <style type="text/css">*{stroke-linejoin: round; stroke-linecap: butt}</style>
 </defs>
 <g id="figure_1">
  <g id="patch_1">
   <path d="M 0 360 
L 720 360 
L 720 0 
L 0 0 
z
" style="fill: #ffffff"/>
  </g>
  <g id="axes_1">
   <g id="patch_2">
    <path d="M 90 320.4 
L 648 320.4 
L 648 43.2 
L 90 43.2 
z
" style="fill: #ffffff"/>
   </g>
   <g id="matplotlib.axis_1">
    <g id="xtick_1">
     <g id="line2d_1">
      <path d="M 90 320.4 
L 90 43.2 
" clip-path="url(#pdb6a809812)" style="fill: none; stroke: #cccccc; stroke-linecap: round"/>
     </g>
     <g id="text_1">
      <!-- $\mathdefault{0.00}$ -->
      <g style="fill: #262626" transform="translate(80.258728 337.510347)scale(0.11 -0.11)">
       <defs>
        <path id="CMR17-30" d="M 2688 2038 
C 2688 2430 2682 3099 2413 3613 
C 2176 4063 1798 4224 1466 4224 
C 1158 4224 768 4082 525 3620 
C 269 3137 243 2539 243 2038 
C 243 1671 250 1112 448 623 
C 723 -39 1216 -128 1466 -128 
C 1760 -128 2208 -7 2470 604 
C 2662 1048 2688 1568 2688 2038 
z
M 1466 -26 
C 1056 -26 813 328 723 816 
C 653 1196 653 1749 653 2109 
C 653 2604 653 3015 736 3407 
C 858 3954 1216 4121 1466 4121 
C 1728 4121 2067 3947 2189 3420 
C 2272 3054 2278 2623 2278 2109 
C 2278 1691 2278 1176 2202 797 
C 2067 96 1690 -26 1466 -26 
z
" transform="scale(0.015625)"/>
        <path id="CMMI12-3a" d="M 1178 307 
C 1178 492 1024 620 870 620 
C 685 620 557 467 557 313 
C 557 128 710 0 864 0 
C 1050 0 1178 153 1178 307 
z
" transform="scale(0.015625)"/>
       </defs>
       <use xlink:href="#CMR17-30" transform="scale(0.996264)"/>
       <use xlink:href="#CMMI12-3a" transform="translate(45.690477 0)scale(0.996264)"/>
       <use xlink:href="#CMR17-30" transform="translate(72.787654 0)scale(0.996264)"/>
       <use xlink:href="#CMR17-30" transform="translate(118.478131 0)scale(0.996264)"/>
      </g>
     </g>
    </g>
    <g id="xtick_2">
     <g id="line2d_2">
      <path d="M 206.456588 320.4 
L 206.456588 43.2 
" clip-path="url(#pdb6a809812)" style="fill: none; stroke: #cccccc; stroke-linecap: round"/>
     </g>
     <g id="text_2">
      <!-- $\mathdefault{0.05}$ -->
      <g style="fill: #262626" transform="translate(196.715316 337.510347)scale(0.11 -0.11)">
       <defs>
        <path id="CMR17-35" d="M 730 3750 
C 794 3724 1056 3641 1325 3641 
C 1920 3641 2246 3961 2432 4140 
C 2432 4191 2432 4224 2394 4224 
C 2387 4224 2374 4224 2323 4198 
C 2099 4102 1837 4032 1517 4032 
C 1325 4032 1037 4055 723 4191 
C 653 4224 640 4224 634 4224 
C 602 4224 595 4217 595 4090 
L 595 2231 
C 595 2113 595 2080 659 2080 
C 691 2080 704 2093 736 2139 
C 941 2435 1222 2560 1542 2560 
C 1766 2560 2246 2415 2246 1293 
C 2246 1087 2246 716 2054 422 
C 1894 159 1645 25 1370 25 
C 947 25 518 319 403 812 
C 429 806 480 793 506 793 
C 589 793 749 838 749 1036 
C 749 1209 627 1280 506 1280 
C 358 1280 262 1190 262 1011 
C 262 454 704 -128 1382 -128 
C 2042 -128 2669 441 2669 1267 
C 2669 2054 2170 2662 1549 2662 
C 1222 2662 947 2540 730 2304 
L 730 3750 
z
" transform="scale(0.015625)"/>
       </defs>
       <use xlink:href="#CMR17-30" transform="scale(0.996264)"/>
       <use xlink:href="#CMMI12-3a" transform="translate(45.690477 0)scale(0.996264)"/>
       <use xlink:href="#CMR17-30" transform="translate(72.787654 0)scale(0.996264)"/>
       <use xlink:href="#CMR17-35" transform="translate(118.478131 0)scale(0.996264)"/>
      </g>
     </g>
    </g>
    <g id="xtick_3">
     <g id="line2d_3">
      <path d="M 322.913176 320.4 
L 322.913176 43.2 
" clip-path="url(#pdb6a809812)" style="fill: none; stroke: #cccccc; stroke-linecap: round"/>
     </g>
     <g id="text_3">
      <!-- $\mathdefault{0.10}$ -->
      <g style="fill: #262626" transform="translate(313.171905 337.510347)scale(0.11 -0.11)">
       <defs>
        <path id="CMR17-31" d="M 1702 4083 
C 1702 4217 1696 4224 1606 4224 
C 1357 3927 979 3833 621 3820 
C 602 3820 570 3820 563 3808 
C 557 3795 557 3782 557 3648 
C 755 3648 1088 3686 1344 3839 
L 1344 467 
C 1344 243 1331 166 781 166 
L 589 166 
L 589 0 
C 896 6 1216 12 1523 12 
C 1830 12 2150 6 2458 0 
L 2458 166 
L 2266 166 
C 1715 166 1702 236 1702 467 
L 1702 4083 
z
" transform="scale(0.015625)"/>
       </defs>
       <use xlink:href="#CMR17-30" transform="scale(0.996264)"/>
       <use xlink:href="#CMMI12-3a" transform="translate(45.690477 0)scale(0.996264)"/>
       <use xlink:href="#CMR17-31" transform="translate(72.787654 0)scale(0.996264)"/>
       <use xlink:href="#CMR17-30" transform="translate(118.478131 0)scale(0.996264)"/>
      </g>
     </g>
    </g>
    <g id="xtick_4">
     <g id="line2d_4">
      <path d="M 439.369764 320.4 
L 439.369764 43.2 
" clip-path="url(#pdb6a809812)" style="fill: none; stroke: #cccccc; stroke-linecap: round"/>
     </g>
     <g id="text_4">
      <!-- $\mathdefault{0.15}$ -->
      <g style="fill: #262626" transform="translate(429.628493 337.510347)scale(0.11 -0.11)">
       <use xlink:href="#CMR17-30" transform="scale(0.996264)"/>
       <use xlink:href="#CMMI12-3a" transform="translate(45.690477 0)scale(0.996264)"/>
       <use xlink:href="#CMR17-31" transform="translate(72.787654 0)scale(0.996264)"/>
       <use xlink:href="#CMR17-35" transform="translate(118.478131 0)scale(0.996264)"/>
      </g>
     </g>
    </g>
    <g id="xtick_5">
     <g id="line2d_5">
      <path d="M 555.826353 320.4 
L 555.826353 43.2 
" clip-path="url(#pdb6a809812)" style="fill: none; stroke: #cccccc; stroke-linecap: round"/>
     </g>
     <g id="text_5">
      <!-- $\mathdefault{0.20}$ -->
      <g style="fill: #262626" transform="translate(546.085081 337.510347)scale(0.11 -0.11)">
       <defs>
        <path id="CMR17-32" d="M 2669 990 
L 2554 990 
C 2490 537 2438 460 2413 422 
C 2381 371 1920 371 1830 371 
L 602 371 
C 832 620 1280 1073 1824 1596 
C 2214 1966 2669 2400 2669 3033 
C 2669 3788 2067 4224 1395 4224 
C 691 4224 262 3603 262 3027 
C 262 2777 448 2745 525 2745 
C 589 2745 781 2783 781 3007 
C 781 3206 614 3264 525 3264 
C 486 3264 448 3257 422 3244 
C 544 3788 915 4057 1306 4057 
C 1862 4057 2227 3616 2227 3033 
C 2227 2477 1901 1998 1536 1583 
L 262 147 
L 262 0 
L 2515 0 
L 2669 990 
z
" transform="scale(0.015625)"/>
       </defs>
       <use xlink:href="#CMR17-30" transform="scale(0.996264)"/>
       <use xlink:href="#CMMI12-3a" transform="translate(45.690477 0)scale(0.996264)"/>
       <use xlink:href="#CMR17-32" transform="translate(72.787654 0)scale(0.996264)"/>
       <use xlink:href="#CMR17-30" transform="translate(118.478131 0)scale(0.996264)"/>
      </g>
     </g>
    </g>
   </g>
   <g id="matplotlib.axis_2">
    <g id="ytick_1">
     <g id="line2d_6">
      <path d="M 90 300.989189 
L 648 300.989189 
" clip-path="url(#pdb6a809812)" style="fill: none; stroke: #cccccc; stroke-linecap: round"/>
     </g>
     <g id="text_6">
      <!-- tipo_carretera -->
      <g style="fill: #262626" transform="translate(18.502951 304.794363)scale(0.11 -0.11)">
       <defs>
        <path id="CMSS17-74" d="M 1069 2380 
L 1901 2380 
L 1901 2752 
L 1069 2752 
L 1069 3520 
L 614 3520 
L 614 2752 
L 109 2752 
L 109 2380 
L 602 2380 
L 602 751 
C 602 384 685 -64 1107 -64 
C 1427 -64 1722 25 2003 172 
L 1901 551 
C 1747 416 1562 339 1363 339 
C 1082 339 1069 699 1069 860 
L 1069 2380 
z
" transform="scale(0.015625)"/>
        <path id="CMSS17-69" d="M 979 4224 
L 442 4224 
L 442 3686 
L 979 3686 
L 979 4224 
z
M 947 2752 
L 474 2752 
L 474 0 
L 947 0 
L 947 2752 
z
" transform="scale(0.015625)"/>
        <path id="CMSS17-70" d="M 966 275 
C 1178 70 1466 -64 1773 -64 
C 2368 -64 2880 553 2880 1382 
C 2880 2147 2496 2816 1946 2816 
C 1626 2816 1242 2700 954 2470 
L 954 2764 
L 480 2764 
L 480 -1280 
L 966 -1280 
L 966 275 
z
M 966 2088 
C 1018 2166 1235 2412 1587 2412 
C 2035 2412 2394 1946 2394 1382 
C 2394 741 1958 326 1530 326 
C 1402 326 1267 358 1139 468 
C 966 624 966 721 966 812 
L 966 2088 
z
" transform="scale(0.015625)"/>
        <path id="CMSS17-6f" d="M 2829 1356 
C 2829 2175 2221 2816 1504 2816 
C 768 2816 173 2156 173 1356 
C 173 544 787 -64 1498 -64 
C 2227 -64 2829 563 2829 1356 
z
M 1504 339 
C 1050 339 659 710 659 1407 
C 659 2150 1114 2425 1498 2425 
C 1914 2425 2342 2124 2342 1407 
C 2342 684 1926 339 1504 339 
z
" transform="scale(0.015625)"/>
        <path id="CMSS17-63" d="M 2464 2540 
C 2464 2585 2170 2713 2093 2739 
C 1882 2816 1613 2816 1542 2816 
C 710 2816 211 2092 211 1363 
C 211 595 768 -64 1517 -64 
C 1946 -64 2253 76 2502 243 
L 2464 665 
C 2189 454 1869 339 1523 339 
C 1024 339 698 774 698 1369 
C 698 1830 909 2412 1549 2412 
C 1901 2412 2099 2342 2394 2143 
L 2464 2540 
z
" transform="scale(0.015625)"/>
        <path id="CMSS17-61" d="M 2406 1789 
C 2406 2399 1978 2816 1402 2816 
C 1120 2816 813 2764 461 2559 
L 499 2133 
C 659 2250 934 2438 1395 2438 
C 1722 2438 1920 2185 1920 1782 
L 1920 1536 
C 896 1504 256 1209 256 711 
C 256 452 416 -64 947 -64 
C 1043 -64 1562 -52 1933 224 
L 1933 -13 
L 2406 -13 
L 2406 1789 
z
M 1920 824 
C 1920 711 1920 559 1728 446 
C 1562 339 1350 326 1261 326 
C 941 326 723 503 723 723 
C 723 1165 1722 1209 1920 1216 
L 1920 824 
z
" transform="scale(0.015625)"/>
        <path id="CMSS17-72" d="M 954 1369 
C 954 1974 1395 2379 1958 2392 
L 1958 2816 
C 1549 2809 1165 2604 934 2270 
L 934 2783 
L 480 2783 
L 480 0 
L 954 0 
L 954 1369 
z
" transform="scale(0.015625)"/>
        <path id="CMSS17-65" d="M 2502 1375 
C 2502 1587 2490 2001 2285 2347 
C 2061 2713 1696 2816 1421 2816 
C 755 2816 192 2184 192 1363 
C 192 579 774 -64 1510 -64 
C 1798 -64 2150 19 2470 249 
C 2470 275 2458 414 2451 421 
C 2451 433 2432 629 2432 655 
C 2125 408 1773 326 1517 326 
C 1107 326 666 667 646 1375 
L 2502 1375 
z
M 698 1728 
C 781 2086 1062 2425 1421 2425 
C 1517 2425 1965 2412 2080 1728 
L 698 1728 
z
" transform="scale(0.015625)"/>
       </defs>
       <use xlink:href="#CMSS17-74" transform="scale(0.996264)"/>
       <use xlink:href="#CMSS17-69" transform="translate(33.831567 0)scale(0.996264)"/>
       <use xlink:href="#CMSS17-70" transform="translate(56.01229 0)scale(0.996264)"/>
       <use xlink:href="#CMSS17-6f" transform="translate(106.819672 0)scale(0.996264)"/>
       <use xlink:href="#CMSS17-63" transform="translate(187.39079 0)scale(0.996264)"/>
       <use xlink:href="#CMSS17-61" transform="translate(229.029612 0)scale(0.996264)"/>
       <use xlink:href="#CMSS17-72" transform="translate(271.349079 0)scale(0.996264)"/>
       <use xlink:href="#CMSS17-72" transform="translate(303.258852 0)scale(0.996264)"/>
       <use xlink:href="#CMSS17-65" transform="translate(335.168624 0)scale(0.996264)"/>
       <use xlink:href="#CMSS17-74" transform="translate(376.807446 0)scale(0.996264)"/>
       <use xlink:href="#CMSS17-65" transform="translate(410.639013 0)scale(0.996264)"/>
       <use xlink:href="#CMSS17-72" transform="translate(452.277835 0)scale(0.996264)"/>
       <use xlink:href="#CMSS17-61" transform="translate(484.187608 0)scale(0.996264)"/>
       <path d="M 159.284306 0 
L 187.39079 0 
L 187.39079 0.3985 
L 159.284306 0.3985 
L 159.284306 0 
z
"/>
      </g>
     </g>
    </g>
    <g id="ytick_2">
     <g id="line2d_7">
      <path d="M 90 283.962162 
L 648 283.962162 
" clip-path="url(#pdb6a809812)" style="fill: none; stroke: #cccccc; stroke-linecap: round"/>
     </g>
     <g id="text_7">
      <!-- distrito -->
      <g style="fill: #262626" transform="translate(48.262523 287.767336)scale(0.11 -0.11)">
       <defs>
        <path id="CMSS17-64" d="M 2611 4416 
L 2138 4416 
L 2138 2495 
C 1939 2662 1613 2816 1254 2816 
C 672 2816 211 2179 211 1375 
C 211 572 666 -64 1235 -64 
C 1677 -64 1971 172 2125 307 
L 2125 -13 
L 2611 -13 
L 2611 4416 
z
M 2125 851 
C 2125 760 2125 663 1926 488 
C 1798 378 1645 326 1498 326 
C 1152 326 698 585 698 1369 
C 698 2185 1210 2425 1562 2425 
C 1798 2425 1990 2308 2125 2114 
L 2125 851 
z
" transform="scale(0.015625)"/>
        <path id="CMSS17-73" d="M 2061 2623 
C 1683 2803 1389 2816 1197 2816 
C 742 2816 198 2655 198 2009 
C 198 1363 902 1222 1094 1183 
C 1389 1126 1715 1062 1715 742 
C 1715 339 1254 339 1171 339 
C 915 339 563 409 243 639 
L 166 211 
C 531 0 883 -64 1178 -64 
C 1965 -64 2163 416 2163 780 
C 2163 1094 1984 1305 1862 1401 
C 1651 1567 1574 1587 1050 1695 
C 960 1708 646 1779 646 2067 
C 646 2431 1050 2431 1139 2431 
C 1555 2431 1811 2303 1984 2207 
L 2061 2623 
z
" transform="scale(0.015625)"/>
       </defs>
       <use xlink:href="#CMSS17-64" transform="scale(0.996264)"/>
       <use xlink:href="#CMSS17-69" transform="translate(48.204943 0)scale(0.996264)"/>
       <use xlink:href="#CMSS17-73" transform="translate(70.385666 0)scale(0.996264)"/>
       <use xlink:href="#CMSS17-74" transform="translate(106.299208 0)scale(0.996264)"/>
       <use xlink:href="#CMSS17-72" transform="translate(140.130775 0)scale(0.996264)"/>
       <use xlink:href="#CMSS17-69" transform="translate(172.040547 0)scale(0.996264)"/>
       <use xlink:href="#CMSS17-74" transform="translate(194.22127 0)scale(0.996264)"/>
       <use xlink:href="#CMSS17-6f" transform="translate(228.052837 0)scale(0.996264)"/>
      </g>
     </g>
    </g>
    <g id="ytick_3">
     <g id="line2d_8">
      <path d="M 90 266.935135 
L 648 266.935135 
" clip-path="url(#pdb6a809812)" style="fill: none; stroke: #cccccc; stroke-linecap: round"/>
     </g>
     <g id="text_8">
      <!-- tipo_accidente -->
      <g style="fill: #262626" transform="translate(15.884976 270.740308)scale(0.11 -0.11)">
       <defs>
        <path id="CMSS17-6e" d="M 2618 1878 
C 2618 2283 2522 2816 1798 2816 
C 1389 2816 1120 2604 941 2386 
L 941 2783 
L 474 2783 
L 474 0 
L 960 0 
L 960 1556 
C 960 1962 1114 2425 1549 2425 
C 2112 2425 2131 2045 2131 1826 
L 2131 0 
L 2618 0 
L 2618 1878 
z
" transform="scale(0.015625)"/>
       </defs>
       <use xlink:href="#CMSS17-74" transform="scale(0.996264)"/>
       <use xlink:href="#CMSS17-69" transform="translate(33.831567 0)scale(0.996264)"/>
       <use xlink:href="#CMSS17-70" transform="translate(56.01229 0)scale(0.996264)"/>
       <use xlink:href="#CMSS17-6f" transform="translate(106.819672 0)scale(0.996264)"/>
       <use xlink:href="#CMSS17-61" transform="translate(187.39079 0)scale(0.996264)"/>
       <use xlink:href="#CMSS17-63" transform="translate(232.312711 0)scale(0.996264)"/>
       <use xlink:href="#CMSS17-63" transform="translate(273.951533 0)scale(0.996264)"/>
       <use xlink:href="#CMSS17-69" transform="translate(315.590355 0)scale(0.996264)"/>
       <use xlink:href="#CMSS17-64" transform="translate(337.771078 0)scale(0.996264)"/>
       <use xlink:href="#CMSS17-65" transform="translate(385.976021 0)scale(0.996264)"/>
       <use xlink:href="#CMSS17-6e" transform="translate(427.614843 0)scale(0.996264)"/>
       <use xlink:href="#CMSS17-74" transform="translate(475.819787 0)scale(0.996264)"/>
       <use xlink:href="#CMSS17-65" transform="translate(509.651353 0)scale(0.996264)"/>
       <path d="M 159.284306 0 
L 187.39079 0 
L 187.39079 0.3985 
L 159.284306 0.3985 
L 159.284306 0 
z
"/>
      </g>
     </g>
    </g>
    <g id="ytick_4">
     <g id="line2d_9">
      <path d="M 90 249.908108 
L 648 249.908108 
" clip-path="url(#pdb6a809812)" style="fill: none; stroke: #cccccc; stroke-linecap: round"/>
     </g>
     <g id="text_9">
      <!-- estado_meteorológico -->
      <g style="fill: #262626" transform="translate(-16.230765 253.713281)scale(0.11 -0.11)">
       <defs>
        <path id="CMSS17-6d" d="M 4288 1878 
C 4288 2309 4179 2816 3462 2816 
C 2982 2816 2694 2515 2566 2328 
C 2451 2668 2182 2816 1798 2816 
C 1363 2816 1088 2566 941 2386 
L 941 2783 
L 474 2783 
L 474 0 
L 960 0 
L 960 1556 
C 960 1936 1101 2425 1555 2425 
C 2138 2425 2138 2013 2138 1826 
L 2138 0 
L 2624 0 
L 2624 1556 
C 2624 1936 2765 2425 3219 2425 
C 3802 2425 3802 2013 3802 1826 
L 3802 0 
L 4288 0 
L 4288 1878 
z
" transform="scale(0.015625)"/>
        <path id="CMSS17-6c" d="M 947 4416 
L 474 4416 
L 474 0 
L 947 0 
L 947 4416 
z
" transform="scale(0.015625)"/>
        <path id="CMSS17-13" d="M 2502 4416 
L 2016 4416 
L 1222 3321 
L 1613 3321 
L 2502 4416 
z
" transform="scale(0.015625)"/>
        <path id="CMSS17-67" d="M 2848 2816 
C 2483 2809 2170 2739 1914 2617 
C 1702 2783 1485 2816 1338 2816 
C 781 2816 358 2356 358 1824 
C 358 1481 550 1222 563 1209 
C 448 1049 384 876 384 684 
C 384 460 474 300 544 211 
C 211 6 166 -308 166 -429 
C 166 -896 749 -1280 1498 -1280 
C 2253 -1280 2835 -896 2835 -423 
C 2835 460 1856 467 1587 467 
L 1069 467 
C 973 467 717 467 717 793 
C 717 921 774 1004 781 1011 
C 877 940 1075 832 1338 832 
C 1869 832 2310 1279 2310 1824 
C 2310 2128 2170 2349 2112 2425 
L 2131 2425 
C 2150 2425 2419 2444 2515 2444 
C 2720 2444 2739 2438 2918 2419 
L 2848 2816 
z
M 1338 1184 
C 1120 1184 813 1317 813 1824 
C 813 2375 1165 2463 1331 2463 
C 1549 2463 1856 2330 1856 1824 
C 1856 1272 1504 1184 1338 1184 
z
M 1581 0 
C 1734 0 2381 0 2381 -436 
C 2381 -711 1984 -928 1504 -928 
C 1018 -928 621 -717 621 -429 
C 621 -397 621 0 1062 0 
L 1581 0 
z
" transform="scale(0.015625)"/>
       </defs>
       <use xlink:href="#CMSS17-65" transform="scale(0.996264)"/>
       <use xlink:href="#CMSS17-73" transform="translate(41.638822 0)scale(0.996264)"/>
       <use xlink:href="#CMSS17-74" transform="translate(77.552364 0)scale(0.996264)"/>
       <use xlink:href="#CMSS17-61" transform="translate(111.383931 0)scale(0.996264)"/>
       <use xlink:href="#CMSS17-64" transform="translate(156.305851 0)scale(0.996264)"/>
       <use xlink:href="#CMSS17-6f" transform="translate(204.510794 0)scale(0.996264)"/>
       <use xlink:href="#CMSS17-6d" transform="translate(285.081913 0)scale(0.996264)"/>
       <use xlink:href="#CMSS17-65" transform="translate(359.311168 0)scale(0.996264)"/>
       <use xlink:href="#CMSS17-74" transform="translate(400.94999 0)scale(0.996264)"/>
       <use xlink:href="#CMSS17-65" transform="translate(434.781556 0)scale(0.996264)"/>
       <use xlink:href="#CMSS17-6f" transform="translate(476.420379 0)scale(0.996264)"/>
       <use xlink:href="#CMSS17-72" transform="translate(520.661548 0)scale(0.996264)"/>
       <use xlink:href="#CMSS17-6f" transform="translate(552.571321 0)scale(0.996264)"/>
       <use xlink:href="#CMSS17-6c" transform="translate(599.414944 0)scale(0.996264)"/>
       <use xlink:href="#CMSS17-13" transform="translate(621.595667 0)scale(0.996264)"/>
       <use xlink:href="#CMSS17-6f" transform="translate(621.595667 0)scale(0.996264)"/>
       <use xlink:href="#CMSS17-67" transform="translate(668.439291 0)scale(0.996264)"/>
       <use xlink:href="#CMSS17-69" transform="translate(715.282914 0)scale(0.996264)"/>
       <use xlink:href="#CMSS17-63" transform="translate(737.463637 0)scale(0.996264)"/>
       <use xlink:href="#CMSS17-6f" transform="translate(779.102459 0)scale(0.996264)"/>
       <path d="M 256.975429 0 
L 285.081913 0 
L 285.081913 0.3985 
L 256.975429 0.3985 
L 256.975429 0 
z
"/>
      </g>
     </g>
    </g>
    <g id="ytick_5">
     <g id="line2d_10">
      <path d="M 90 232.881081 
L 648 232.881081 
" clip-path="url(#pdb6a809812)" style="fill: none; stroke: #cccccc; stroke-linecap: round"/>
     </g>
     <g id="text_10">
      <!-- tipo_vehiculo -->
      <g style="fill: #262626" transform="translate(21.699278 236.686254)scale(0.11 -0.11)">
       <defs>
        <path id="CMSS17-76" d="M 2675 2752 
L 2176 2752 
L 1747 1555 
C 1613 1164 1421 627 1389 352 
L 1382 352 
C 1370 467 1318 633 1286 748 
C 1248 889 1197 1056 1158 1171 
L 595 2752 
L 83 2752 
L 1094 0 
L 1664 0 
L 2675 2752 
z
" transform="scale(0.015625)"/>
        <path id="CMSS17-68" d="M 2618 1878 
C 2618 2283 2522 2816 1798 2816 
C 1395 2816 1133 2617 947 2399 
L 947 4416 
L 474 4416 
L 474 0 
L 960 0 
L 960 1556 
C 960 1962 1114 2425 1549 2425 
C 2112 2425 2131 2045 2131 1826 
L 2131 0 
L 2618 0 
L 2618 1878 
z
" transform="scale(0.015625)"/>
        <path id="CMSS17-75" d="M 2618 2752 
L 2131 2752 
L 2131 976 
C 2131 500 1786 307 1421 307 
C 998 307 960 448 960 712 
L 960 2752 
L 474 2752 
L 474 680 
C 474 179 646 -64 1088 -64 
C 1306 -64 1798 -13 2144 307 
L 2144 -13 
L 2618 -13 
L 2618 2752 
z
" transform="scale(0.015625)"/>
       </defs>
       <use xlink:href="#CMSS17-74" transform="scale(0.996264)"/>
       <use xlink:href="#CMSS17-69" transform="translate(33.831567 0)scale(0.996264)"/>
       <use xlink:href="#CMSS17-70" transform="translate(56.01229 0)scale(0.996264)"/>
       <use xlink:href="#CMSS17-6f" transform="translate(106.819672 0)scale(0.996264)"/>
       <use xlink:href="#CMSS17-76" transform="translate(187.39079 0)scale(0.996264)"/>
       <use xlink:href="#CMSS17-65" transform="translate(230.390932 0)scale(0.996264)"/>
       <use xlink:href="#CMSS17-68" transform="translate(272.029754 0)scale(0.996264)"/>
       <use xlink:href="#CMSS17-69" transform="translate(320.234697 0)scale(0.996264)"/>
       <use xlink:href="#CMSS17-63" transform="translate(342.41542 0)scale(0.996264)"/>
       <use xlink:href="#CMSS17-75" transform="translate(384.054242 0)scale(0.996264)"/>
       <use xlink:href="#CMSS17-6c" transform="translate(432.259186 0)scale(0.996264)"/>
       <use xlink:href="#CMSS17-6f" transform="translate(454.439909 0)scale(0.996264)"/>
       <path d="M 159.284306 0 
L 187.39079 0 
L 187.39079 0.3985 
L 159.284306 0.3985 
L 159.284306 0 
z
"/>
      </g>
     </g>
    </g>
    <g id="ytick_6">
     <g id="line2d_11">
      <path d="M 90 215.854054 
L 648 215.854054 
" clip-path="url(#pdb6a809812)" style="fill: none; stroke: #cccccc; stroke-linecap: round"/>
     </g>
     <g id="text_11">
      <!-- rango_edad -->
      <g style="fill: #262626" transform="translate(29.461825 219.659227)scale(0.11 -0.11)">
       <use xlink:href="#CMSS17-72" transform="scale(0.996264)"/>
       <use xlink:href="#CMSS17-61" transform="translate(31.909773 0)scale(0.996264)"/>
       <use xlink:href="#CMSS17-6e" transform="translate(76.831693 0)scale(0.996264)"/>
       <use xlink:href="#CMSS17-67" transform="translate(125.036636 0)scale(0.996264)"/>
       <use xlink:href="#CMSS17-6f" transform="translate(171.88026 0)scale(0.996264)"/>
       <use xlink:href="#CMSS17-65" transform="translate(252.451379 0)scale(0.996264)"/>
       <use xlink:href="#CMSS17-64" transform="translate(294.090201 0)scale(0.996264)"/>
       <use xlink:href="#CMSS17-61" transform="translate(342.295144 0)scale(0.996264)"/>
       <use xlink:href="#CMSS17-64" transform="translate(387.217064 0)scale(0.996264)"/>
       <path d="M 224.344894 0 
L 252.451379 0 
L 252.451379 0.3985 
L 224.344894 0.3985 
L 224.344894 0 
z
"/>
      </g>
     </g>
    </g>
    <g id="ytick_7">
     <g id="line2d_12">
      <path d="M 90 198.827027 
L 648 198.827027 
" clip-path="url(#pdb6a809812)" style="fill: none; stroke: #cccccc; stroke-linecap: round"/>
     </g>
     <g id="text_12">
      <!-- sexo -->
      <g style="fill: #262626" transform="translate(60.89569 202.6322)scale(0.11 -0.11)">
       <defs>
        <path id="CMSS17-78" d="M 1587 1420 
L 2656 2752 
L 2099 2752 
L 1363 1785 
L 602 2752 
L 32 2752 
L 1139 1420 
L 0 0 
L 563 0 
L 1363 1126 
L 2195 0 
L 2758 0 
L 1587 1420 
z
" transform="scale(0.015625)"/>
       </defs>
       <use xlink:href="#CMSS17-73" transform="scale(0.996264)"/>
       <use xlink:href="#CMSS17-65" transform="translate(35.913542 0)scale(0.996264)"/>
       <use xlink:href="#CMSS17-78" transform="translate(77.552364 0)scale(0.996264)"/>
       <use xlink:href="#CMSS17-6f" transform="translate(120.552506 0)scale(0.996264)"/>
      </g>
     </g>
    </g>
    <g id="ytick_8">
     <g id="line2d_13">
      <path d="M 90 181.8 
L 648 181.8 
" clip-path="url(#pdb6a809812)" style="fill: none; stroke: #cccccc; stroke-linecap: round"/>
     </g>
     <g id="text_13">
      <!-- coordenada_x_utm -->
      <g style="fill: #262626" transform="translate(-2.733042 185.605173)scale(0.11 -0.11)">
       <use xlink:href="#CMSS17-63" transform="scale(0.996264)"/>
       <use xlink:href="#CMSS17-6f" transform="translate(41.638822 0)scale(0.996264)"/>
       <use xlink:href="#CMSS17-6f" transform="translate(91.084884 0)scale(0.996264)"/>
       <use xlink:href="#CMSS17-72" transform="translate(135.326054 0)scale(0.996264)"/>
       <use xlink:href="#CMSS17-64" transform="translate(167.235826 0)scale(0.996264)"/>
       <use xlink:href="#CMSS17-65" transform="translate(215.44077 0)scale(0.996264)"/>
       <use xlink:href="#CMSS17-6e" transform="translate(257.079592 0)scale(0.996264)"/>
       <use xlink:href="#CMSS17-61" transform="translate(305.284535 0)scale(0.996264)"/>
       <use xlink:href="#CMSS17-64" transform="translate(350.206455 0)scale(0.996264)"/>
       <use xlink:href="#CMSS17-61" transform="translate(398.411399 0)scale(0.996264)"/>
       <use xlink:href="#CMSS17-78" transform="translate(477.060814 0)scale(0.996264)"/>
       <use xlink:href="#CMSS17-75" transform="translate(553.788451 0)scale(0.996264)"/>
       <use xlink:href="#CMSS17-74" transform="translate(601.993395 0)scale(0.996264)"/>
       <use xlink:href="#CMSS17-6d" transform="translate(635.824961 0)scale(0.996264)"/>
       <path d="M 448.95433 0 
L 477.060814 0 
L 477.060814 0.3985 
L 448.95433 0.3985 
L 448.95433 0 
z
"/>
       <path d="M 525.681967 0 
L 553.788451 0 
L 553.788451 0.3985 
L 525.681967 0.3985 
L 525.681967 0 
z
"/>
      </g>
     </g>
    </g>
    <g id="ytick_9">
     <g id="line2d_14">
      <path d="M 90 164.772973 
L 648 164.772973 
" clip-path="url(#pdb6a809812)" style="fill: none; stroke: #cccccc; stroke-linecap: round"/>
     </g>
     <g id="text_14">
      <!-- coordenada_y_utm -->
      <g style="fill: #262626" transform="translate(-2.733042 168.578146)scale(0.11 -0.11)">
       <defs>
        <path id="CMSS17-79" d="M 2675 2752 
L 2176 2752 
C 1632 1293 1446 701 1434 383 
L 1427 383 
C 1408 695 1126 1459 902 2006 
L 602 2752 
L 83 2752 
L 1216 14 
C 1146 -177 1043 -464 1011 -527 
C 870 -884 774 -884 672 -884 
C 646 -884 442 -877 211 -807 
L 250 -1229 
C 410 -1261 570 -1280 685 -1280 
C 845 -1280 1165 -1280 1459 -495 
L 2675 2752 
z
" transform="scale(0.015625)"/>
       </defs>
       <use xlink:href="#CMSS17-63" transform="scale(0.996264)"/>
       <use xlink:href="#CMSS17-6f" transform="translate(41.638822 0)scale(0.996264)"/>
       <use xlink:href="#CMSS17-6f" transform="translate(91.084884 0)scale(0.996264)"/>
       <use xlink:href="#CMSS17-72" transform="translate(135.326054 0)scale(0.996264)"/>
       <use xlink:href="#CMSS17-64" transform="translate(167.235826 0)scale(0.996264)"/>
       <use xlink:href="#CMSS17-65" transform="translate(215.44077 0)scale(0.996264)"/>
       <use xlink:href="#CMSS17-6e" transform="translate(257.079592 0)scale(0.996264)"/>
       <use xlink:href="#CMSS17-61" transform="translate(305.284535 0)scale(0.996264)"/>
       <use xlink:href="#CMSS17-64" transform="translate(350.206455 0)scale(0.996264)"/>
       <use xlink:href="#CMSS17-61" transform="translate(398.411399 0)scale(0.996264)"/>
       <use xlink:href="#CMSS17-79" transform="translate(477.060814 0)scale(0.996264)"/>
       <use xlink:href="#CMSS17-75" transform="translate(553.788451 0)scale(0.996264)"/>
       <use xlink:href="#CMSS17-74" transform="translate(601.993395 0)scale(0.996264)"/>
       <use xlink:href="#CMSS17-6d" transform="translate(635.824961 0)scale(0.996264)"/>
       <path d="M 448.95433 0 
L 477.060814 0 
L 477.060814 0.3985 
L 448.95433 0.3985 
L 448.95433 0 
z
"/>
       <path d="M 525.681967 0 
L 553.788451 0 
L 553.788451 0.3985 
L 525.681967 0.3985 
L 525.681967 0 
z
"/>
      </g>
     </g>
    </g>
    <g id="ytick_10">
     <g id="line2d_15">
      <path d="M 90 147.745946 
L 648 147.745946 
" clip-path="url(#pdb6a809812)" style="fill: none; stroke: #cccccc; stroke-linecap: round"/>
     </g>
     <g id="text_15">
      <!-- drogas_alcohol_positivo -->
      <g style="fill: #262626" transform="translate(-24.590013 151.551119)scale(0.11 -0.11)">
       <use xlink:href="#CMSS17-64" transform="scale(0.996264)"/>
       <use xlink:href="#CMSS17-72" transform="translate(48.204943 0)scale(0.996264)"/>
       <use xlink:href="#CMSS17-6f" transform="translate(80.114716 0)scale(0.996264)"/>
       <use xlink:href="#CMSS17-67" transform="translate(126.958339 0)scale(0.996264)"/>
       <use xlink:href="#CMSS17-61" transform="translate(173.801963 0)scale(0.996264)"/>
       <use xlink:href="#CMSS17-73" transform="translate(218.723883 0)scale(0.996264)"/>
       <use xlink:href="#CMSS17-61" transform="translate(288.364921 0)scale(0.996264)"/>
       <use xlink:href="#CMSS17-6c" transform="translate(333.286841 0)scale(0.996264)"/>
       <use xlink:href="#CMSS17-63" transform="translate(355.467564 0)scale(0.996264)"/>
       <use xlink:href="#CMSS17-6f" transform="translate(397.106386 0)scale(0.996264)"/>
       <use xlink:href="#CMSS17-68" transform="translate(443.95001 0)scale(0.996264)"/>
       <use xlink:href="#CMSS17-6f" transform="translate(492.154953 0)scale(0.996264)"/>
       <use xlink:href="#CMSS17-6c" transform="translate(538.998577 0)scale(0.996264)"/>
       <use xlink:href="#CMSS17-70" transform="translate(594.906795 0)scale(0.996264)"/>
       <use xlink:href="#CMSS17-6f" transform="translate(645.714177 0)scale(0.996264)"/>
       <use xlink:href="#CMSS17-73" transform="translate(692.5578 0)scale(0.996264)"/>
       <use xlink:href="#CMSS17-69" transform="translate(728.471342 0)scale(0.996264)"/>
       <use xlink:href="#CMSS17-74" transform="translate(750.652065 0)scale(0.996264)"/>
       <use xlink:href="#CMSS17-69" transform="translate(784.483632 0)scale(0.996264)"/>
       <use xlink:href="#CMSS17-76" transform="translate(806.664355 0)scale(0.996264)"/>
       <use xlink:href="#CMSS17-6f" transform="translate(849.664497 0)scale(0.996264)"/>
       <path d="M 260.258436 0 
L 288.364921 0 
L 288.364921 0.3985 
L 260.258436 0.3985 
L 260.258436 0 
z
"/>
       <path d="M 566.800311 0 
L 594.906795 0 
L 594.906795 0.3985 
L 566.800311 0.3985 
L 566.800311 0 
z
"/>
      </g>
     </g>
    </g>
    <g id="ytick_11">
     <g id="line2d_16">
      <path d="M 90 130.718919 
L 648 130.718919 
" clip-path="url(#pdb6a809812)" style="fill: none; stroke: #cccccc; stroke-linecap: round"/>
     </g>
     <g id="text_16">
      <!-- vehiculos_implicados -->
      <g style="fill: #262626" transform="translate(-12.182075 134.524092)scale(0.11 -0.11)">
       <use xlink:href="#CMSS17-76" transform="scale(0.996264)"/>
       <use xlink:href="#CMSS17-65" transform="translate(43.000142 0)scale(0.996264)"/>
       <use xlink:href="#CMSS17-68" transform="translate(84.638964 0)scale(0.996264)"/>
       <use xlink:href="#CMSS17-69" transform="translate(132.843907 0)scale(0.996264)"/>
       <use xlink:href="#CMSS17-63" transform="translate(155.02463 0)scale(0.996264)"/>
       <use xlink:href="#CMSS17-75" transform="translate(196.663452 0)scale(0.996264)"/>
       <use xlink:href="#CMSS17-6c" transform="translate(244.868395 0)scale(0.996264)"/>
       <use xlink:href="#CMSS17-6f" transform="translate(267.049118 0)scale(0.996264)"/>
       <use xlink:href="#CMSS17-73" transform="translate(313.892742 0)scale(0.996264)"/>
       <use xlink:href="#CMSS17-69" transform="translate(383.533779 0)scale(0.996264)"/>
       <use xlink:href="#CMSS17-6d" transform="translate(405.714502 0)scale(0.996264)"/>
       <use xlink:href="#CMSS17-70" transform="translate(479.943756 0)scale(0.996264)"/>
       <use xlink:href="#CMSS17-6c" transform="translate(528.1487 0)scale(0.996264)"/>
       <use xlink:href="#CMSS17-69" transform="translate(550.329423 0)scale(0.996264)"/>
       <use xlink:href="#CMSS17-63" transform="translate(572.510146 0)scale(0.996264)"/>
       <use xlink:href="#CMSS17-61" transform="translate(614.148968 0)scale(0.996264)"/>
       <use xlink:href="#CMSS17-64" transform="translate(659.070888 0)scale(0.996264)"/>
       <use xlink:href="#CMSS17-6f" transform="translate(707.275831 0)scale(0.996264)"/>
       <use xlink:href="#CMSS17-73" transform="translate(754.119455 0)scale(0.996264)"/>
       <path d="M 355.427295 0 
L 383.533779 0 
L 383.533779 0.3985 
L 355.427295 0.3985 
L 355.427295 0 
z
"/>
      </g>
     </g>
    </g>
    <g id="ytick_12">
     <g id="line2d_17">
      <path d="M 90 113.691892 
L 648 113.691892 
" clip-path="url(#pdb6a809812)" style="fill: none; stroke: #cccccc; stroke-linecap: round"/>
     </g>
     <g id="text_17">
      <!-- Accident Time Sin -->
      <g style="fill: #262626" transform="translate(-4.644773 117.497065)scale(0.11 -0.11)">
       <defs>
        <path id="CMSS17-41" d="M 2272 4416 
L 1722 4416 
L 166 0 
L 653 0 
L 1101 1280 
L 2816 1280 
L 3270 0 
L 3827 0 
L 2272 4416 
z
M 2694 1638 
L 1222 1638 
C 1530 2530 1914 3638 1958 3924 
L 1965 3924 
C 2010 3663 2138 3281 2246 2956 
L 2694 1638 
z
" transform="scale(0.015625)"/>
        <path id="CMSS17-54" d="M 2317 3987 
L 2848 3987 
C 2925 3987 3002 3980 3078 3980 
L 3878 3980 
L 3878 4396 
L 218 4396 
L 218 3980 
L 1018 3980 
C 1094 3980 1171 3987 1248 3987 
L 1779 3987 
L 1779 0 
L 2317 0 
L 2317 3987 
z
" transform="scale(0.015625)"/>
        <path id="CMSS17-53" d="M 2797 4230 
C 2515 4396 2208 4544 1690 4544 
C 864 4544 333 3934 333 3309 
C 333 3064 403 2787 653 2504 
C 902 2220 1184 2143 1542 2053 
C 1690 2014 1939 1943 1984 1924 
C 2342 1782 2515 1454 2515 1144 
C 2515 738 2202 307 1645 307 
C 1453 307 890 339 358 829 
L 269 320 
C 794 -64 1363 -128 1651 -128 
C 2438 -128 3002 494 3002 1202 
C 3002 1460 2925 1789 2656 2092 
C 2394 2381 2163 2446 1638 2588 
C 1338 2665 1146 2717 986 2916 
C 877 3058 819 3193 819 3367 
C 819 3728 1126 4121 1690 4121 
C 1971 4121 2336 4063 2707 3715 
L 2797 4230 
z
" transform="scale(0.015625)"/>
       </defs>
       <use xlink:href="#CMSS17-41" transform="scale(0.996264)"/>
       <use xlink:href="#CMSS17-63" transform="translate(62.217855 0)scale(0.996264)"/>
       <use xlink:href="#CMSS17-63" transform="translate(103.856677 0)scale(0.996264)"/>
       <use xlink:href="#CMSS17-69" transform="translate(145.495499 0)scale(0.996264)"/>
       <use xlink:href="#CMSS17-64" transform="translate(167.676222 0)scale(0.996264)"/>
       <use xlink:href="#CMSS17-65" transform="translate(215.881165 0)scale(0.996264)"/>
       <use xlink:href="#CMSS17-6e" transform="translate(257.519987 0)scale(0.996264)"/>
       <use xlink:href="#CMSS17-74" transform="translate(305.72493 0)scale(0.996264)"/>
       <use xlink:href="#CMSS17-54" transform="translate(370.78561 0)scale(0.996264)"/>
       <use xlink:href="#CMSS17-69" transform="translate(434.605064 0)scale(0.996264)"/>
       <use xlink:href="#CMSS17-6d" transform="translate(456.785787 0)scale(0.996264)"/>
       <use xlink:href="#CMSS17-65" transform="translate(531.015041 0)scale(0.996264)"/>
       <use xlink:href="#CMSS17-53" transform="translate(603.882976 0)scale(0.996264)"/>
       <use xlink:href="#CMSS17-69" transform="translate(655.931492 0)scale(0.996264)"/>
       <use xlink:href="#CMSS17-6e" transform="translate(678.112215 0)scale(0.996264)"/>
      </g>
     </g>
    </g>
    <g id="ytick_13">
     <g id="line2d_18">
      <path d="M 90 96.664865 
L 648 96.664865 
" clip-path="url(#pdb6a809812)" style="fill: none; stroke: #cccccc; stroke-linecap: round"/>
     </g>
     <g id="text_18">
      <!-- Accident Time Cos -->
      <g style="fill: #262626" transform="translate(-6.958332 100.470038)scale(0.11 -0.11)">
       <defs>
        <path id="CMSS17-43" d="M 3501 705 
C 3072 416 2874 332 2355 332 
C 1459 332 934 1304 934 2191 
C 934 3137 1472 4070 2381 4070 
C 2790 4070 3059 3954 3386 3748 
L 3475 4255 
C 3168 4409 2778 4480 2387 4480 
C 1158 4480 397 3343 397 2191 
C 397 924 1299 -77 2323 -77 
C 2874 -77 3066 -32 3539 268 
L 3501 705 
z
" transform="scale(0.015625)"/>
       </defs>
       <use xlink:href="#CMSS17-41" transform="scale(0.996264)"/>
       <use xlink:href="#CMSS17-63" transform="translate(62.217855 0)scale(0.996264)"/>
       <use xlink:href="#CMSS17-63" transform="translate(103.856677 0)scale(0.996264)"/>
       <use xlink:href="#CMSS17-69" transform="translate(145.495499 0)scale(0.996264)"/>
       <use xlink:href="#CMSS17-64" transform="translate(167.676222 0)scale(0.996264)"/>
       <use xlink:href="#CMSS17-65" transform="translate(215.881165 0)scale(0.996264)"/>
       <use xlink:href="#CMSS17-6e" transform="translate(257.519987 0)scale(0.996264)"/>
       <use xlink:href="#CMSS17-74" transform="translate(305.72493 0)scale(0.996264)"/>
       <use xlink:href="#CMSS17-54" transform="translate(370.78561 0)scale(0.996264)"/>
       <use xlink:href="#CMSS17-69" transform="translate(434.605064 0)scale(0.996264)"/>
       <use xlink:href="#CMSS17-6d" transform="translate(456.785787 0)scale(0.996264)"/>
       <use xlink:href="#CMSS17-65" transform="translate(531.015041 0)scale(0.996264)"/>
       <use xlink:href="#CMSS17-43" transform="translate(603.882976 0)scale(0.996264)"/>
       <use xlink:href="#CMSS17-6f" transform="translate(663.738748 0)scale(0.996264)"/>
       <use xlink:href="#CMSS17-73" transform="translate(710.582371 0)scale(0.996264)"/>
      </g>
     </g>
    </g>
    <g id="ytick_14">
     <g id="line2d_19">
      <path d="M 90 79.637838 
L 648 79.637838 
" clip-path="url(#pdb6a809812)" style="fill: none; stroke: #cccccc; stroke-linecap: round"/>
     </g>
     <g id="text_19">
      <!-- dia_semana -->
      <g style="fill: #262626" transform="translate(29.035673 83.443011)scale(0.11 -0.11)">
       <use xlink:href="#CMSS17-64" transform="scale(0.996264)"/>
       <use xlink:href="#CMSS17-69" transform="translate(48.204943 0)scale(0.996264)"/>
       <use xlink:href="#CMSS17-61" transform="translate(70.385666 0)scale(0.996264)"/>
       <use xlink:href="#CMSS17-73" transform="translate(149.035082 0)scale(0.996264)"/>
       <use xlink:href="#CMSS17-65" transform="translate(184.948624 0)scale(0.996264)"/>
       <use xlink:href="#CMSS17-6d" transform="translate(226.587446 0)scale(0.996264)"/>
       <use xlink:href="#CMSS17-61" transform="translate(300.816701 0)scale(0.996264)"/>
       <use xlink:href="#CMSS17-6e" transform="translate(345.738621 0)scale(0.996264)"/>
       <use xlink:href="#CMSS17-61" transform="translate(393.943564 0)scale(0.996264)"/>
       <path d="M 120.928598 0 
L 149.035082 0 
L 149.035082 0.3985 
L 120.928598 0.3985 
L 120.928598 0 
z
"/>
      </g>
     </g>
    </g>
    <g id="ytick_15">
     <g id="line2d_20">
      <path d="M 90 62.610811 
L 648 62.610811 
" clip-path="url(#pdb6a809812)" style="fill: none; stroke: #cccccc; stroke-linecap: round"/>
     </g>
     <g id="text_20">
      <!-- semana_en_año -->
      <g style="fill: #262626" transform="translate(11.696201 66.415984)scale(0.11 -0.11)">
       <defs>
        <path id="CMSS17-7e" d="M 2112 4224 
C 2112 4070 2074 3865 1894 3865 
C 1798 3865 1683 3916 1555 4012 
C 1382 4134 1261 4224 1088 4224 
C 826 4224 512 3980 499 3475 
L 890 3475 
C 890 3628 928 3833 1107 3833 
C 1203 3833 1318 3782 1446 3686 
C 1619 3564 1741 3475 1914 3475 
C 2176 3475 2490 3718 2502 4224 
L 2112 4224 
z
" transform="scale(0.015625)"/>
       </defs>
       <use xlink:href="#CMSS17-73" transform="scale(0.996264)"/>
       <use xlink:href="#CMSS17-65" transform="translate(35.913542 0)scale(0.996264)"/>
       <use xlink:href="#CMSS17-6d" transform="translate(77.552364 0)scale(0.996264)"/>
       <use xlink:href="#CMSS17-61" transform="translate(151.781618 0)scale(0.996264)"/>
       <use xlink:href="#CMSS17-6e" transform="translate(196.703539 0)scale(0.996264)"/>
       <use xlink:href="#CMSS17-61" transform="translate(244.908482 0)scale(0.996264)"/>
       <use xlink:href="#CMSS17-65" transform="translate(323.557898 0)scale(0.996264)"/>
       <use xlink:href="#CMSS17-6e" transform="translate(365.19672 0)scale(0.996264)"/>
       <use xlink:href="#CMSS17-61" transform="translate(447.129159 0)scale(0.996264)"/>
       <use xlink:href="#CMSS17-7e" transform="translate(492.731739 0)scale(0.996264)"/>
       <use xlink:href="#CMSS17-6e" transform="translate(492.051079 0)scale(0.996264)"/>
       <use xlink:href="#CMSS17-6f" transform="translate(540.256022 0)scale(0.996264)"/>
       <path d="M 295.451414 0 
L 323.557898 0 
L 323.557898 0.3985 
L 295.451414 0.3985 
L 295.451414 0 
z
"/>
       <path d="M 419.022674 0 
L 447.129159 0 
L 447.129159 0.3985 
L 419.022674 0.3985 
L 419.022674 0 
z
"/>
      </g>
     </g>
    </g>
   </g>
   <g id="patch_3">
    <path d="M 90 307.8 
L 239.074036 307.8 
L 239.074036 294.178378 
L 90 294.178378 
z
" clip-path="url(#pdb6a809812)" style="fill: #4c72b0; stroke: #ffffff; stroke-linejoin: miter"/>
   </g>
   <g id="patch_4">
    <path d="M 90 290.772973 
L 194.530885 290.772973 
L 194.530885 277.151351 
L 90 277.151351 
z
" clip-path="url(#pdb6a809812)" style="fill: #4c72b0; stroke: #ffffff; stroke-linejoin: miter"/>
   </g>
   <g id="patch_5">
    <path d="M 90 273.745946 
L 340.218616 273.745946 
L 340.218616 260.124324 
L 90 260.124324 
z
" clip-path="url(#pdb6a809812)" style="fill: #4c72b0; stroke: #ffffff; stroke-linejoin: miter"/>
   </g>
   <g id="patch_6">
    <path d="M 90 256.718919 
L 194.420621 256.718919 
L 194.420621 243.097297 
L 90 243.097297 
z
" clip-path="url(#pdb6a809812)" style="fill: #4c72b0; stroke: #ffffff; stroke-linejoin: miter"/>
   </g>
   <g id="patch_7">
    <path d="M 90 239.691892 
L 621.428571 239.691892 
L 621.428571 226.07027 
L 90 226.07027 
z
" clip-path="url(#pdb6a809812)" style="fill: #4c72b0; stroke: #ffffff; stroke-linejoin: miter"/>
   </g>
   <g id="patch_8">
    <path d="M 90 222.664865 
L 339.871809 222.664865 
L 339.871809 209.043243 
L 90 209.043243 
z
" clip-path="url(#pdb6a809812)" style="fill: #4c72b0; stroke: #ffffff; stroke-linejoin: miter"/>
   </g>
   <g id="patch_9">
    <path d="M 90 205.637838 
L 173.842354 205.637838 
L 173.842354 192.016216 
L 90 192.016216 
z
" clip-path="url(#pdb6a809812)" style="fill: #4c72b0; stroke: #ffffff; stroke-linejoin: miter"/>
   </g>
   <g id="patch_10">
    <path d="M 90 188.610811 
L 90 188.610811 
L 90 174.989189 
L 90 174.989189 
z
" clip-path="url(#pdb6a809812)" style="fill: #4c72b0; stroke: #ffffff; stroke-linejoin: miter"/>
   </g>
   <g id="patch_11">
    <path d="M 90 171.583784 
L 90 171.583784 
L 90 157.962162 
L 90 157.962162 
z
" clip-path="url(#pdb6a809812)" style="fill: #4c72b0; stroke: #ffffff; stroke-linejoin: miter"/>
   </g>
   <g id="patch_12">
    <path d="M 90 154.556757 
L 201.412412 154.556757 
L 201.412412 140.935135 
L 90 140.935135 
z
" clip-path="url(#pdb6a809812)" style="fill: #4c72b0; stroke: #ffffff; stroke-linejoin: miter"/>
   </g>
   <g id="patch_13">
    <path d="M 90 137.52973 
L 432.297788 137.52973 
L 432.297788 123.908108 
L 90 123.908108 
z
" clip-path="url(#pdb6a809812)" style="fill: #4c72b0; stroke: #ffffff; stroke-linejoin: miter"/>
   </g>
   <g id="patch_14">
    <path d="M 90 120.502703 
L 176.62286 120.502703 
L 176.62286 106.881081 
L 90 106.881081 
z
" clip-path="url(#pdb6a809812)" style="fill: #4c72b0; stroke: #ffffff; stroke-linejoin: miter"/>
   </g>
   <g id="patch_15">
    <path d="M 90 103.475676 
L 185.123728 103.475676 
L 185.123728 89.854054 
L 90 89.854054 
z
" clip-path="url(#pdb6a809812)" style="fill: #4c72b0; stroke: #ffffff; stroke-linejoin: miter"/>
   </g>
   <g id="patch_16">
    <path d="M 90 86.448649 
L 183.660291 86.448649 
L 183.660291 72.827027 
L 90 72.827027 
z
" clip-path="url(#pdb6a809812)" style="fill: #4c72b0; stroke: #ffffff; stroke-linejoin: miter"/>
   </g>
   <g id="patch_17">
    <path d="M 90 69.421622 
L 216.627877 69.421622 
L 216.627877 55.8 
L 90 55.8 
z
" clip-path="url(#pdb6a809812)" style="fill: #4c72b0; stroke: #ffffff; stroke-linejoin: miter"/>
   </g>
   <g id="patch_18">
    <path d="M 90 320.4 
L 90 43.2 
" style="fill: none; stroke: #cccccc; stroke-width: 1.25; stroke-linejoin: miter; stroke-linecap: square"/>
   </g>
   <g id="patch_19">
    <path d="M 648 320.4 
L 648 43.2 
" style="fill: none; stroke: #cccccc; stroke-width: 1.25; stroke-linejoin: miter; stroke-linecap: square"/>
   </g>
   <g id="patch_20">
    <path d="M 90 320.4 
L 648 320.4 
" style="fill: none; stroke: #cccccc; stroke-width: 1.25; stroke-linejoin: miter; stroke-linecap: square"/>
   </g>
   <g id="patch_21">
    <path d="M 90 43.2 
L 648 43.2 
" style="fill: none; stroke: #cccccc; stroke-width: 1.25; stroke-linejoin: miter; stroke-linecap: square"/>
   </g>
  </g>
 </g>
 <defs>
  <clipPath id="pdb6a809812">
   <rect x="90" y="43.2" width="558" height="277.2"/>
  </clipPath>
 </defs>
</svg>
