<?xml version="1.0" encoding="utf-8" standalone="no"?>
<!DOCTYPE svg PUBLIC "-//W3C//DTD SVG 1.1//EN"
  "http://www.w3.org/Graphics/SVG/1.1/DTD/svg11.dtd">
<svg xmlns:xlink="http://www.w3.org/1999/xlink" width="1440pt" height="720pt" viewBox="0 0 1440 720" xmlns="http://www.w3.org/2000/svg" version="1.1">
 <metadata>
  <rdf:RDF xmlns:dc="http://purl.org/dc/elements/1.1/" xmlns:cc="http://creativecommons.org/ns#" xmlns:rdf="http://www.w3.org/1999/02/22-rdf-syntax-ns#">
   <cc:Work>
    <dc:type rdf:resource="http://purl.org/dc/dcmitype/StillImage"/>
    <dc:date>2022-12-26T13:24:14.749273</dc:date>
    <dc:format>image/svg+xml</dc:format>
    <dc:creator>
     <cc:Agent>
      <dc:title>Matplotlib v3.5.1, https://matplotlib.org/</dc:title>
     </cc:Agent>
    </dc:creator>
   </cc:Work>
  </rdf:RDF>
 </metadata>
 <defs>
  <style type="text/css">*{stroke-linejoin: round; stroke-linecap: butt}</style>
 </defs>
 <g id="figure_1">
  <g id="patch_1">
   <path d="M 0 720 
L 1440 720 
L 1440 0 
L 0 0 
z
" style="fill: #ffffff"/>
  </g>
  <g id="axes_1">
   <g id="patch_2">
    <path d="M 180 640.8 
L 1296 640.8 
L 1296 86.4 
L 180 86.4 
z
" style="fill: #ffffff"/>
   </g>
   <g id="matplotlib.axis_1">
    <g id="xtick_1">
     <g id="line2d_1">
      <defs>
       <path id="mf8b1f34cde" d="M 0 0 
L 0 3.5 
" style="stroke: #000000; stroke-width: 0.8"/>
      </defs>
      <g>
       <use xlink:href="#mf8b1f34cde" x="230.727273" y="640.8" style="stroke: #000000; stroke-width: 0.8"/>
      </g>
     </g>
     <g id="text_1">
      <!-- 0 -->
      <g transform="translate(227.546023 655.398438)scale(0.1 -0.1)">
       <defs>
        <path id="DejaVuSans-30" d="M 2034 4250 
Q 1547 4250 1301 3770 
Q 1056 3291 1056 2328 
Q 1056 1369 1301 889 
Q 1547 409 2034 409 
Q 2525 409 2770 889 
Q 3016 1369 3016 2328 
Q 3016 3291 2770 3770 
Q 2525 4250 2034 4250 
z
M 2034 4750 
Q 2819 4750 3233 4129 
Q 3647 3509 3647 2328 
Q 3647 1150 3233 529 
Q 2819 -91 2034 -91 
Q 1250 -91 836 529 
Q 422 1150 422 2328 
Q 422 3509 836 4129 
Q 1250 4750 2034 4750 
z
" transform="scale(0.015625)"/>
       </defs>
       <use xlink:href="#DejaVuSans-30"/>
      </g>
     </g>
    </g>
    <g id="xtick_2">
     <g id="line2d_2">
      <g>
       <use xlink:href="#mf8b1f34cde" x="433.636364" y="640.8" style="stroke: #000000; stroke-width: 0.8"/>
      </g>
     </g>
     <g id="text_2">
      <!-- 100 -->
      <g transform="translate(424.092614 655.398438)scale(0.1 -0.1)">
       <defs>
        <path id="DejaVuSans-31" d="M 794 531 
L 1825 531 
L 1825 4091 
L 703 3866 
L 703 4441 
L 1819 4666 
L 2450 4666 
L 2450 531 
L 3481 531 
L 3481 0 
L 794 0 
L 794 531 
z
" transform="scale(0.015625)"/>
       </defs>
       <use xlink:href="#DejaVuSans-31"/>
       <use xlink:href="#DejaVuSans-30" x="63.623047"/>
       <use xlink:href="#DejaVuSans-30" x="127.246094"/>
      </g>
     </g>
    </g>
    <g id="xtick_3">
     <g id="line2d_3">
      <g>
       <use xlink:href="#mf8b1f34cde" x="636.545455" y="640.8" style="stroke: #000000; stroke-width: 0.8"/>
      </g>
     </g>
     <g id="text_3">
      <!-- 200 -->
      <g transform="translate(627.001705 655.398438)scale(0.1 -0.1)">
       <defs>
        <path id="DejaVuSans-32" d="M 1228 531 
L 3431 531 
L 3431 0 
L 469 0 
L 469 531 
Q 828 903 1448 1529 
Q 2069 2156 2228 2338 
Q 2531 2678 2651 2914 
Q 2772 3150 2772 3378 
Q 2772 3750 2511 3984 
Q 2250 4219 1831 4219 
Q 1534 4219 1204 4116 
Q 875 4013 500 3803 
L 500 4441 
Q 881 4594 1212 4672 
Q 1544 4750 1819 4750 
Q 2544 4750 2975 4387 
Q 3406 4025 3406 3419 
Q 3406 3131 3298 2873 
Q 3191 2616 2906 2266 
Q 2828 2175 2409 1742 
Q 1991 1309 1228 531 
z
" transform="scale(0.015625)"/>
       </defs>
       <use xlink:href="#DejaVuSans-32"/>
       <use xlink:href="#DejaVuSans-30" x="63.623047"/>
       <use xlink:href="#DejaVuSans-30" x="127.246094"/>
      </g>
     </g>
    </g>
    <g id="xtick_4">
     <g id="line2d_4">
      <g>
       <use xlink:href="#mf8b1f34cde" x="839.454545" y="640.8" style="stroke: #000000; stroke-width: 0.8"/>
      </g>
     </g>
     <g id="text_4">
      <!-- 300 -->
      <g transform="translate(829.910795 655.398438)scale(0.1 -0.1)">
       <defs>
        <path id="DejaVuSans-33" d="M 2597 2516 
Q 3050 2419 3304 2112 
Q 3559 1806 3559 1356 
Q 3559 666 3084 287 
Q 2609 -91 1734 -91 
Q 1441 -91 1130 -33 
Q 819 25 488 141 
L 488 750 
Q 750 597 1062 519 
Q 1375 441 1716 441 
Q 2309 441 2620 675 
Q 2931 909 2931 1356 
Q 2931 1769 2642 2001 
Q 2353 2234 1838 2234 
L 1294 2234 
L 1294 2753 
L 1863 2753 
Q 2328 2753 2575 2939 
Q 2822 3125 2822 3475 
Q 2822 3834 2567 4026 
Q 2313 4219 1838 4219 
Q 1578 4219 1281 4162 
Q 984 4106 628 3988 
L 628 4550 
Q 988 4650 1302 4700 
Q 1616 4750 1894 4750 
Q 2613 4750 3031 4423 
Q 3450 4097 3450 3541 
Q 3450 3153 3228 2886 
Q 3006 2619 2597 2516 
z
" transform="scale(0.015625)"/>
       </defs>
       <use xlink:href="#DejaVuSans-33"/>
       <use xlink:href="#DejaVuSans-30" x="63.623047"/>
       <use xlink:href="#DejaVuSans-30" x="127.246094"/>
      </g>
     </g>
    </g>
    <g id="xtick_5">
     <g id="line2d_5">
      <g>
       <use xlink:href="#mf8b1f34cde" x="1042.363636" y="640.8" style="stroke: #000000; stroke-width: 0.8"/>
      </g>
     </g>
     <g id="text_5">
      <!-- 400 -->
      <g transform="translate(1032.819886 655.398438)scale(0.1 -0.1)">
       <defs>
        <path id="DejaVuSans-34" d="M 2419 4116 
L 825 1625 
L 2419 1625 
L 2419 4116 
z
M 2253 4666 
L 3047 4666 
L 3047 1625 
L 3713 1625 
L 3713 1100 
L 3047 1100 
L 3047 0 
L 2419 0 
L 2419 1100 
L 313 1100 
L 313 1709 
L 2253 4666 
z
" transform="scale(0.015625)"/>
       </defs>
       <use xlink:href="#DejaVuSans-34"/>
       <use xlink:href="#DejaVuSans-30" x="63.623047"/>
       <use xlink:href="#DejaVuSans-30" x="127.246094"/>
      </g>
     </g>
    </g>
    <g id="xtick_6">
     <g id="line2d_6">
      <g>
       <use xlink:href="#mf8b1f34cde" x="1245.272727" y="640.8" style="stroke: #000000; stroke-width: 0.8"/>
      </g>
     </g>
     <g id="text_6">
      <!-- 500 -->
      <g transform="translate(1235.728977 655.398438)scale(0.1 -0.1)">
       <defs>
        <path id="DejaVuSans-35" d="M 691 4666 
L 3169 4666 
L 3169 4134 
L 1269 4134 
L 1269 2991 
Q 1406 3038 1543 3061 
Q 1681 3084 1819 3084 
Q 2600 3084 3056 2656 
Q 3513 2228 3513 1497 
Q 3513 744 3044 326 
Q 2575 -91 1722 -91 
Q 1428 -91 1123 -41 
Q 819 9 494 109 
L 494 744 
Q 775 591 1075 516 
Q 1375 441 1709 441 
Q 2250 441 2565 725 
Q 2881 1009 2881 1497 
Q 2881 1984 2565 2268 
Q 2250 2553 1709 2553 
Q 1456 2553 1204 2497 
Q 953 2441 691 2322 
L 691 4666 
z
" transform="scale(0.015625)"/>
       </defs>
       <use xlink:href="#DejaVuSans-35"/>
       <use xlink:href="#DejaVuSans-30" x="63.623047"/>
       <use xlink:href="#DejaVuSans-30" x="127.246094"/>
      </g>
     </g>
    </g>
    <g id="text_7">
     <!-- No. epoch -->
     <g transform="translate(712.88125 669.076563)scale(0.1 -0.1)">
      <defs>
       <path id="DejaVuSans-4e" d="M 628 4666 
L 1478 4666 
L 3547 763 
L 3547 4666 
L 4159 4666 
L 4159 0 
L 3309 0 
L 1241 3903 
L 1241 0 
L 628 0 
L 628 4666 
z
" transform="scale(0.015625)"/>
       <path id="DejaVuSans-6f" d="M 1959 3097 
Q 1497 3097 1228 2736 
Q 959 2375 959 1747 
Q 959 1119 1226 758 
Q 1494 397 1959 397 
Q 2419 397 2687 759 
Q 2956 1122 2956 1747 
Q 2956 2369 2687 2733 
Q 2419 3097 1959 3097 
z
M 1959 3584 
Q 2709 3584 3137 3096 
Q 3566 2609 3566 1747 
Q 3566 888 3137 398 
Q 2709 -91 1959 -91 
Q 1206 -91 779 398 
Q 353 888 353 1747 
Q 353 2609 779 3096 
Q 1206 3584 1959 3584 
z
" transform="scale(0.015625)"/>
       <path id="DejaVuSans-2e" d="M 684 794 
L 1344 794 
L 1344 0 
L 684 0 
L 684 794 
z
" transform="scale(0.015625)"/>
       <path id="DejaVuSans-20" transform="scale(0.015625)"/>
       <path id="DejaVuSans-65" d="M 3597 1894 
L 3597 1613 
L 953 1613 
Q 991 1019 1311 708 
Q 1631 397 2203 397 
Q 2534 397 2845 478 
Q 3156 559 3463 722 
L 3463 178 
Q 3153 47 2828 -22 
Q 2503 -91 2169 -91 
Q 1331 -91 842 396 
Q 353 884 353 1716 
Q 353 2575 817 3079 
Q 1281 3584 2069 3584 
Q 2775 3584 3186 3129 
Q 3597 2675 3597 1894 
z
M 3022 2063 
Q 3016 2534 2758 2815 
Q 2500 3097 2075 3097 
Q 1594 3097 1305 2825 
Q 1016 2553 972 2059 
L 3022 2063 
z
" transform="scale(0.015625)"/>
       <path id="DejaVuSans-70" d="M 1159 525 
L 1159 -1331 
L 581 -1331 
L 581 3500 
L 1159 3500 
L 1159 2969 
Q 1341 3281 1617 3432 
Q 1894 3584 2278 3584 
Q 2916 3584 3314 3078 
Q 3713 2572 3713 1747 
Q 3713 922 3314 415 
Q 2916 -91 2278 -91 
Q 1894 -91 1617 61 
Q 1341 213 1159 525 
z
M 3116 1747 
Q 3116 2381 2855 2742 
Q 2594 3103 2138 3103 
Q 1681 3103 1420 2742 
Q 1159 2381 1159 1747 
Q 1159 1113 1420 752 
Q 1681 391 2138 391 
Q 2594 391 2855 752 
Q 3116 1113 3116 1747 
z
" transform="scale(0.015625)"/>
       <path id="DejaVuSans-63" d="M 3122 3366 
L 3122 2828 
Q 2878 2963 2633 3030 
Q 2388 3097 2138 3097 
Q 1578 3097 1268 2742 
Q 959 2388 959 1747 
Q 959 1106 1268 751 
Q 1578 397 2138 397 
Q 2388 397 2633 464 
Q 2878 531 3122 666 
L 3122 134 
Q 2881 22 2623 -34 
Q 2366 -91 2075 -91 
Q 1284 -91 818 406 
Q 353 903 353 1747 
Q 353 2603 823 3093 
Q 1294 3584 2113 3584 
Q 2378 3584 2631 3529 
Q 2884 3475 3122 3366 
z
" transform="scale(0.015625)"/>
       <path id="DejaVuSans-68" d="M 3513 2113 
L 3513 0 
L 2938 0 
L 2938 2094 
Q 2938 2591 2744 2837 
Q 2550 3084 2163 3084 
Q 1697 3084 1428 2787 
Q 1159 2491 1159 1978 
L 1159 0 
L 581 0 
L 581 4863 
L 1159 4863 
L 1159 2956 
Q 1366 3272 1645 3428 
Q 1925 3584 2291 3584 
Q 2894 3584 3203 3211 
Q 3513 2838 3513 2113 
z
" transform="scale(0.015625)"/>
      </defs>
      <use xlink:href="#DejaVuSans-4e"/>
      <use xlink:href="#DejaVuSans-6f" x="74.804688"/>
      <use xlink:href="#DejaVuSans-2e" x="134.236328"/>
      <use xlink:href="#DejaVuSans-20" x="166.023438"/>
      <use xlink:href="#DejaVuSans-65" x="197.810547"/>
      <use xlink:href="#DejaVuSans-70" x="259.333984"/>
      <use xlink:href="#DejaVuSans-6f" x="322.810547"/>
      <use xlink:href="#DejaVuSans-63" x="383.992188"/>
      <use xlink:href="#DejaVuSans-68" x="438.972656"/>
     </g>
    </g>
   </g>
   <g id="matplotlib.axis_2">
    <g id="ytick_1">
     <g id="line2d_7">
      <defs>
       <path id="m46017a2b02" d="M 0 0 
L -3.5 0 
" style="stroke: #000000; stroke-width: 0.8"/>
      </defs>
      <g>
       <use xlink:href="#m46017a2b02" x="180" y="615.6" style="stroke: #000000; stroke-width: 0.8"/>
      </g>
     </g>
     <g id="text_8">
      <!-- 0.0 -->
      <g transform="translate(157.096875 619.399219)scale(0.1 -0.1)">
       <use xlink:href="#DejaVuSans-30"/>
       <use xlink:href="#DejaVuSans-2e" x="63.623047"/>
       <use xlink:href="#DejaVuSans-30" x="95.410156"/>
      </g>
     </g>
    </g>
    <g id="ytick_2">
     <g id="line2d_8">
      <g>
       <use xlink:href="#m46017a2b02" x="180" y="496.204393" style="stroke: #000000; stroke-width: 0.8"/>
      </g>
     </g>
     <g id="text_9">
      <!-- 0.2 -->
      <g transform="translate(157.096875 500.003612)scale(0.1 -0.1)">
       <use xlink:href="#DejaVuSans-30"/>
       <use xlink:href="#DejaVuSans-2e" x="63.623047"/>
       <use xlink:href="#DejaVuSans-32" x="95.410156"/>
      </g>
     </g>
    </g>
    <g id="ytick_3">
     <g id="line2d_9">
      <g>
       <use xlink:href="#m46017a2b02" x="180" y="376.808786" style="stroke: #000000; stroke-width: 0.8"/>
      </g>
     </g>
     <g id="text_10">
      <!-- 0.4 -->
      <g transform="translate(157.096875 380.608005)scale(0.1 -0.1)">
       <use xlink:href="#DejaVuSans-30"/>
       <use xlink:href="#DejaVuSans-2e" x="63.623047"/>
       <use xlink:href="#DejaVuSans-34" x="95.410156"/>
      </g>
     </g>
    </g>
    <g id="ytick_4">
     <g id="line2d_10">
      <g>
       <use xlink:href="#m46017a2b02" x="180" y="257.41318" style="stroke: #000000; stroke-width: 0.8"/>
      </g>
     </g>
     <g id="text_11">
      <!-- 0.6 -->
      <g transform="translate(157.096875 261.212398)scale(0.1 -0.1)">
       <defs>
        <path id="DejaVuSans-36" d="M 2113 2584 
Q 1688 2584 1439 2293 
Q 1191 2003 1191 1497 
Q 1191 994 1439 701 
Q 1688 409 2113 409 
Q 2538 409 2786 701 
Q 3034 994 3034 1497 
Q 3034 2003 2786 2293 
Q 2538 2584 2113 2584 
z
M 3366 4563 
L 3366 3988 
Q 3128 4100 2886 4159 
Q 2644 4219 2406 4219 
Q 1781 4219 1451 3797 
Q 1122 3375 1075 2522 
Q 1259 2794 1537 2939 
Q 1816 3084 2150 3084 
Q 2853 3084 3261 2657 
Q 3669 2231 3669 1497 
Q 3669 778 3244 343 
Q 2819 -91 2113 -91 
Q 1303 -91 875 529 
Q 447 1150 447 2328 
Q 447 3434 972 4092 
Q 1497 4750 2381 4750 
Q 2619 4750 2861 4703 
Q 3103 4656 3366 4563 
z
" transform="scale(0.015625)"/>
       </defs>
       <use xlink:href="#DejaVuSans-30"/>
       <use xlink:href="#DejaVuSans-2e" x="63.623047"/>
       <use xlink:href="#DejaVuSans-36" x="95.410156"/>
      </g>
     </g>
    </g>
    <g id="ytick_5">
     <g id="line2d_11">
      <g>
       <use xlink:href="#m46017a2b02" x="180" y="138.017573" style="stroke: #000000; stroke-width: 0.8"/>
      </g>
     </g>
     <g id="text_12">
      <!-- 0.8 -->
      <g transform="translate(157.096875 141.816792)scale(0.1 -0.1)">
       <defs>
        <path id="DejaVuSans-38" d="M 2034 2216 
Q 1584 2216 1326 1975 
Q 1069 1734 1069 1313 
Q 1069 891 1326 650 
Q 1584 409 2034 409 
Q 2484 409 2743 651 
Q 3003 894 3003 1313 
Q 3003 1734 2745 1975 
Q 2488 2216 2034 2216 
z
M 1403 2484 
Q 997 2584 770 2862 
Q 544 3141 544 3541 
Q 544 4100 942 4425 
Q 1341 4750 2034 4750 
Q 2731 4750 3128 4425 
Q 3525 4100 3525 3541 
Q 3525 3141 3298 2862 
Q 3072 2584 2669 2484 
Q 3125 2378 3379 2068 
Q 3634 1759 3634 1313 
Q 3634 634 3220 271 
Q 2806 -91 2034 -91 
Q 1263 -91 848 271 
Q 434 634 434 1313 
Q 434 1759 690 2068 
Q 947 2378 1403 2484 
z
M 1172 3481 
Q 1172 3119 1398 2916 
Q 1625 2713 2034 2713 
Q 2441 2713 2670 2916 
Q 2900 3119 2900 3481 
Q 2900 3844 2670 4047 
Q 2441 4250 2034 4250 
Q 1625 4250 1398 4047 
Q 1172 3844 1172 3481 
z
" transform="scale(0.015625)"/>
       </defs>
       <use xlink:href="#DejaVuSans-30"/>
       <use xlink:href="#DejaVuSans-2e" x="63.623047"/>
       <use xlink:href="#DejaVuSans-38" x="95.410156"/>
      </g>
     </g>
    </g>
    <g id="text_13">
     <!-- F1 score value -->
     <g transform="translate(151.017188 399.925781)rotate(-90)scale(0.1 -0.1)">
      <defs>
       <path id="DejaVuSans-46" d="M 628 4666 
L 3309 4666 
L 3309 4134 
L 1259 4134 
L 1259 2759 
L 3109 2759 
L 3109 2228 
L 1259 2228 
L 1259 0 
L 628 0 
L 628 4666 
z
" transform="scale(0.015625)"/>
       <path id="DejaVuSans-73" d="M 2834 3397 
L 2834 2853 
Q 2591 2978 2328 3040 
Q 2066 3103 1784 3103 
Q 1356 3103 1142 2972 
Q 928 2841 928 2578 
Q 928 2378 1081 2264 
Q 1234 2150 1697 2047 
L 1894 2003 
Q 2506 1872 2764 1633 
Q 3022 1394 3022 966 
Q 3022 478 2636 193 
Q 2250 -91 1575 -91 
Q 1294 -91 989 -36 
Q 684 19 347 128 
L 347 722 
Q 666 556 975 473 
Q 1284 391 1588 391 
Q 1994 391 2212 530 
Q 2431 669 2431 922 
Q 2431 1156 2273 1281 
Q 2116 1406 1581 1522 
L 1381 1569 
Q 847 1681 609 1914 
Q 372 2147 372 2553 
Q 372 3047 722 3315 
Q 1072 3584 1716 3584 
Q 2034 3584 2315 3537 
Q 2597 3491 2834 3397 
z
" transform="scale(0.015625)"/>
       <path id="DejaVuSans-72" d="M 2631 2963 
Q 2534 3019 2420 3045 
Q 2306 3072 2169 3072 
Q 1681 3072 1420 2755 
Q 1159 2438 1159 1844 
L 1159 0 
L 581 0 
L 581 3500 
L 1159 3500 
L 1159 2956 
Q 1341 3275 1631 3429 
Q 1922 3584 2338 3584 
Q 2397 3584 2469 3576 
Q 2541 3569 2628 3553 
L 2631 2963 
z
" transform="scale(0.015625)"/>
       <path id="DejaVuSans-76" d="M 191 3500 
L 800 3500 
L 1894 563 
L 2988 3500 
L 3597 3500 
L 2284 0 
L 1503 0 
L 191 3500 
z
" transform="scale(0.015625)"/>
       <path id="DejaVuSans-61" d="M 2194 1759 
Q 1497 1759 1228 1600 
Q 959 1441 959 1056 
Q 959 750 1161 570 
Q 1363 391 1709 391 
Q 2188 391 2477 730 
Q 2766 1069 2766 1631 
L 2766 1759 
L 2194 1759 
z
M 3341 1997 
L 3341 0 
L 2766 0 
L 2766 531 
Q 2569 213 2275 61 
Q 1981 -91 1556 -91 
Q 1019 -91 701 211 
Q 384 513 384 1019 
Q 384 1609 779 1909 
Q 1175 2209 1959 2209 
L 2766 2209 
L 2766 2266 
Q 2766 2663 2505 2880 
Q 2244 3097 1772 3097 
Q 1472 3097 1187 3025 
Q 903 2953 641 2809 
L 641 3341 
Q 956 3463 1253 3523 
Q 1550 3584 1831 3584 
Q 2591 3584 2966 3190 
Q 3341 2797 3341 1997 
z
" transform="scale(0.015625)"/>
       <path id="DejaVuSans-6c" d="M 603 4863 
L 1178 4863 
L 1178 0 
L 603 0 
L 603 4863 
z
" transform="scale(0.015625)"/>
       <path id="DejaVuSans-75" d="M 544 1381 
L 544 3500 
L 1119 3500 
L 1119 1403 
Q 1119 906 1312 657 
Q 1506 409 1894 409 
Q 2359 409 2629 706 
Q 2900 1003 2900 1516 
L 2900 3500 
L 3475 3500 
L 3475 0 
L 2900 0 
L 2900 538 
Q 2691 219 2414 64 
Q 2138 -91 1772 -91 
Q 1169 -91 856 284 
Q 544 659 544 1381 
z
M 1991 3584 
L 1991 3584 
z
" transform="scale(0.015625)"/>
      </defs>
      <use xlink:href="#DejaVuSans-46"/>
      <use xlink:href="#DejaVuSans-31" x="57.519531"/>
      <use xlink:href="#DejaVuSans-20" x="121.142578"/>
      <use xlink:href="#DejaVuSans-73" x="152.929688"/>
      <use xlink:href="#DejaVuSans-63" x="205.029297"/>
      <use xlink:href="#DejaVuSans-6f" x="260.009766"/>
      <use xlink:href="#DejaVuSans-72" x="321.191406"/>
      <use xlink:href="#DejaVuSans-65" x="360.054688"/>
      <use xlink:href="#DejaVuSans-20" x="421.578125"/>
      <use xlink:href="#DejaVuSans-76" x="453.365234"/>
      <use xlink:href="#DejaVuSans-61" x="512.544922"/>
      <use xlink:href="#DejaVuSans-6c" x="573.824219"/>
      <use xlink:href="#DejaVuSans-75" x="601.607422"/>
      <use xlink:href="#DejaVuSans-65" x="664.986328"/>
     </g>
    </g>
   </g>
   <g id="line2d_12">
    <path d="M 230.727273 615.6 
L 232.756364 201.614034 
L 234.785455 178.042227 
L 236.814545 169.686919 
L 238.843636 163.312285 
L 240.872727 161.130997 
L 242.901818 158.531292 
L 244.930909 154.444872 
L 246.96 156.855918 
L 248.989091 156.767566 
L 251.018182 152.942002 
L 253.047273 146.639921 
L 255.076364 146.187488 
L 257.105455 143.350945 
L 259.134545 143.212884 
L 263.192727 144.199876 
L 265.221818 144.26332 
L 267.250909 141.295298 
L 269.28 141.09753 
L 271.309091 135.728996 
L 273.338182 139.763785 
L 275.367273 139.218765 
L 277.396364 135.180062 
L 279.425455 137.872033 
L 281.454545 133.350686 
L 283.483636 135.309654 
L 285.512727 130.915053 
L 287.541818 132.931665 
L 291.6 135.126439 
L 293.629091 129.355714 
L 295.658182 132.407603 
L 297.687273 131.882154 
L 299.716364 131.869486 
L 301.745455 131.975309 
L 303.774545 130.661918 
L 305.803636 128.643491 
L 307.832727 129.768081 
L 309.861818 129.622761 
L 311.890909 130.516811 
L 313.92 129.426559 
L 315.949091 128.591576 
L 317.978182 124.553371 
L 320.007273 125.462579 
L 322.036364 125.40554 
L 324.065455 128.446327 
L 326.094545 128.100677 
L 328.123636 126.023931 
L 330.152727 127.376179 
L 332.181818 122.97834 
L 334.210909 126.269736 
L 336.24 128.402454 
L 338.269091 125.501257 
L 340.298182 124.523517 
L 342.327273 126.62542 
L 344.356364 126.402815 
L 346.385455 126.326063 
L 348.414545 127.430727 
L 350.443636 124.983672 
L 352.472727 123.488061 
L 354.501818 126.677335 
L 356.530909 123.433015 
L 358.56 128.215681 
L 360.589091 127.484813 
L 362.618182 121.866275 
L 364.647273 125.006836 
L 366.676364 122.052016 
L 368.705455 123.679176 
L 370.734545 124.01408 
L 372.763636 124.912898 
L 374.792727 123.710773 
L 376.821818 123.551327 
L 378.850909 122.793416 
L 380.88 123.476461 
L 382.909091 123.594631 
L 384.938182 123.579722 
L 386.967273 118.716319 
L 388.996364 122.160508 
L 391.025455 123.956578 
L 393.054545 120.037681 
L 395.083636 121.719532 
L 397.112727 122.589314 
L 399.141818 121.780378 
L 403.2 120.557153 
L 405.229091 119.622361 
L 407.258182 121.140851 
L 409.287273 120.074901 
L 411.316364 118.633447 
L 413.345455 120.309106 
L 415.374545 122.657597 
L 417.403636 119.823474 
L 419.432727 118.594377 
L 421.461818 120.056291 
L 423.490909 122.321234 
L 425.52 123.322744 
L 427.549091 120.417704 
L 429.578182 121.999567 
L 431.607273 121.694624 
L 433.636364 120.285337 
L 435.665455 120.209083 
L 437.694545 120.49072 
L 439.723636 122.359166 
L 441.752727 119.802622 
L 443.781818 119.474515 
L 445.810909 117.210034 
L 447.84 121.083776 
L 449.869091 119.355882 
L 451.898182 119.211239 
L 453.927273 119.554327 
L 455.956364 119.227927 
L 457.985455 119.645205 
L 460.014545 117.911938 
L 462.043636 117.604681 
L 464.072727 118.343164 
L 466.101818 120.364152 
L 468.130909 118.694827 
L 470.16 122.107988 
L 472.189091 118.056261 
L 474.218182 121.286953 
L 476.247273 117.973246 
L 478.276364 117.687589 
L 482.334545 118.035658 
L 484.363636 119.874037 
L 486.392727 119.362749 
L 488.421818 119.879694 
L 490.450909 116.521865 
L 492.48 117.233839 
L 494.509091 116.696042 
L 496.538182 120.106961 
L 498.567273 117.56248 
L 500.596364 117.171498 
L 502.625455 120.394967 
L 504.654545 117.605962 
L 506.683636 119.400823 
L 508.712727 118.343733 
L 510.741818 117.893328 
L 512.770909 118.487274 
L 514.8 119.831978 
L 516.829091 117.625746 
L 518.858182 119.003187 
L 520.887273 116.592675 
L 522.916364 116.291396 
L 524.945455 116.889932 
L 526.974545 116.363309 
L 529.003636 118.138848 
L 531.032727 119.698258 
L 533.061818 118.406465 
L 535.090909 120.688346 
L 537.12 118.467952 
L 539.149091 116.511511 
L 541.178182 116.165754 
L 543.207273 119.225151 
L 545.236364 120.820678 
L 547.265455 119.686623 
L 551.323636 115.586112 
L 553.352727 118.262356 
L 555.381818 117.482241 
L 557.410909 117.317387 
L 559.44 116.493328 
L 561.469091 114.518597 
L 563.498182 118.629604 
L 565.527273 119.384989 
L 567.556364 117.831094 
L 569.585455 118.849897 
L 571.614545 118.01591 
L 573.643636 117.054573 
L 575.672727 117.439791 
L 577.701818 117.708476 
L 579.730909 116.758739 
L 581.76 116.004814 
L 583.789091 118.262035 
L 585.818182 119.550768 
L 587.847273 116.456962 
L 589.876364 117.173846 
L 591.905455 117.605962 
L 593.934545 114.582468 
L 595.963636 116.768773 
L 597.992727 118.550611 
L 600.021818 114.940714 
L 602.050909 116.541578 
L 604.08 117.033046 
L 606.109091 115.075857 
L 608.138182 117.548354 
L 610.167273 119.225151 
L 612.196364 116.94626 
L 614.225455 117.688656 
L 616.254545 117.238144 
L 618.283636 119.754799 
L 620.312727 114.813435 
L 624.370909 118.736317 
L 626.4 117.604681 
L 628.429091 115.455773 
L 630.458182 116.358363 
L 632.487273 116.750306 
L 634.516364 120.802958 
L 636.545455 114.118826 
L 638.574545 115.226336 
L 640.603636 117.076136 
L 642.632727 120.484849 
L 644.661818 118.733292 
L 646.690909 114.187607 
L 648.72 118.508339 
L 650.749091 114.217318 
L 652.778182 117.462635 
L 654.807273 117.465873 
L 656.836364 116.372027 
L 658.865455 115.45926 
L 660.894545 114.900826 
L 662.923636 117.975417 
L 664.952727 114.710032 
L 666.981818 117.607243 
L 669.010909 114.192695 
L 671.04 116.03271 
L 673.069091 116.868191 
L 675.098182 117.090014 
L 677.127273 117.070977 
L 679.156364 115.336322 
L 683.214545 117.828994 
L 685.243636 117.183133 
L 687.272727 114.829696 
L 689.301818 116.790621 
L 691.330909 116.349645 
L 693.36 117.628166 
L 695.389091 116.765429 
L 697.418182 115.442572 
L 699.447273 113.896256 
L 701.476364 116.08523 
L 703.505455 117.730324 
L 705.534545 116.618579 
L 707.563636 117.114103 
L 709.592727 114.418111 
L 711.621818 116.434688 
L 713.650909 116.559796 
L 715.68 115.655534 
L 717.709091 116.402841 
L 719.738182 116.175432 
L 721.767273 116.148069 
L 723.796364 117.464272 
L 725.825455 115.929983 
L 727.854545 116.060322 
L 729.883636 115.940765 
L 731.912727 117.052011 
L 733.941818 116.358363 
L 735.970909 116.640676 
L 738 118.85349 
L 740.029091 115.586112 
L 742.058182 113.404005 
L 744.087273 113.892235 
L 746.116364 115.154032 
L 748.145455 114.494223 
L 750.174545 116.402841 
L 752.203636 115.621695 
L 754.232727 116.871251 
L 756.261818 113.27082 
L 758.290909 115.186519 
L 760.32 117.687589 
L 762.349091 117.154667 
L 764.378182 115.844478 
L 766.407273 116.21557 
L 768.436364 115.844478 
L 770.465455 116.699565 
L 772.494545 116.604026 
L 774.523636 114.988466 
L 776.552727 114.275816 
L 778.581818 116.090283 
L 780.610909 116.80916 
L 782.64 116.501334 
L 784.669091 117.195303 
L 786.698182 115.445739 
L 788.727273 116.728458 
L 790.756364 116.691701 
L 792.785455 114.411742 
L 794.814545 113.581741 
L 796.843636 114.900826 
L 798.872727 115.406064 
L 800.901818 114.113844 
L 802.930909 113.592914 
L 804.96 115.615539 
L 806.989091 114.734085 
L 809.018182 113.6681 
L 811.047273 113.542636 
L 813.076364 113.626789 
L 815.105455 112.959863 
L 817.134545 113.989803 
L 819.163636 116.117788 
L 821.192727 115.604864 
L 823.221818 113.888357 
L 825.250909 113.763817 
L 827.28 113.799471 
L 829.309091 113.335438 
L 831.338182 113.960589 
L 833.367273 115.867251 
L 835.396364 113.415783 
L 837.425455 115.003909 
L 839.454545 114.290761 
L 841.483636 113.781751 
L 843.512727 116.125474 
L 845.541818 116.067652 
L 847.570909 114.606664 
L 849.6 114.059723 
L 851.629091 117.423672 
L 853.658182 115.210004 
L 855.687273 116.812398 
L 857.716364 116.331427 
L 859.745455 114.646303 
L 861.774545 115.415956 
L 863.803636 112.439858 
L 865.832727 115.139372 
L 867.861818 115.273234 
L 869.890909 114.217318 
L 871.92 116.050146 
L 873.949091 114.251407 
L 875.978182 114.60855 
L 878.007273 116.197849 
L 880.036364 116.604026 
L 882.065455 114.758033 
L 884.094545 116.015275 
L 886.123636 116.519481 
L 888.152727 116.362704 
L 890.181818 116.461054 
L 892.210909 115.884509 
L 894.24 113.64611 
L 896.269091 114.311292 
L 898.298182 115.884509 
L 900.327273 112.154236 
L 902.356364 115.366461 
L 904.385455 116.772118 
L 906.414545 116.952095 
L 908.443636 113.717987 
L 910.472727 113.103261 
L 912.501818 117.214517 
L 914.530909 116.871251 
L 916.56 115.074789 
L 918.589091 115.137877 
L 920.618182 115.369307 
L 922.647273 114.742483 
L 924.676364 118.649495 
L 928.734545 113.671196 
L 930.763636 116.060322 
L 934.821818 114.3151 
L 936.850909 115.924575 
L 938.88 115.758653 
L 940.909091 115.074789 
L 942.938182 113.937817 
L 944.967273 116.430525 
L 946.996364 112.998078 
L 949.025455 114.782763 
L 951.054545 115.512385 
L 953.083636 113.101517 
L 955.112727 115.186519 
L 957.141818 115.263876 
L 959.170909 114.192695 
L 961.2 115.588034 
L 963.229091 115.376103 
L 965.258182 115.621695 
L 967.287273 113.565124 
L 969.316364 114.932601 
L 971.345455 115.31298 
L 973.374545 116.072741 
L 975.403636 113.956391 
L 977.432727 114.726862 
L 979.461818 115.146773 
L 981.490909 114.163055 
L 983.52 117.629411 
L 985.549091 115.289602 
L 987.578182 112.169038 
L 991.636364 113.606969 
L 993.665455 114.987932 
L 995.694545 117.73132 
L 999.752727 112.712919 
L 1001.781818 115.186519 
L 1003.810909 114.335809 
L 1005.84 114.726862 
L 1007.869091 116.157783 
L 1009.898182 114.702951 
L 1011.927273 114.011615 
L 1015.985455 115.280208 
L 1018.014545 114.393844 
L 1020.043636 113.771112 
L 1022.072727 113.570497 
L 1024.101818 114.158038 
L 1026.130909 115.217227 
L 1028.16 116.549371 
L 1030.189091 114.281296 
L 1032.218182 114.798348 
L 1034.247273 117.302086 
L 1036.276364 114.43327 
L 1038.305455 115.275547 
L 1040.334545 117.038383 
L 1042.363636 116.336053 
L 1044.392727 115.066285 
L 1046.421818 114.948329 
L 1048.450909 114.275816 
L 1050.48 113.30996 
L 1052.509091 113.660165 
L 1054.538182 116.140206 
L 1056.567273 113.76033 
L 1058.596364 114.360218 
L 1060.625455 114.035028 
L 1062.654545 114.892962 
L 1064.683636 112.842796 
L 1066.712727 112.894604 
L 1068.741818 116.784038 
L 1070.770909 116.629645 
L 1072.8 113.685286 
L 1074.829091 111.6 
L 1076.858182 114.363705 
L 1078.887273 113.595689 
L 1080.916364 116.775427 
L 1082.945455 113.23175 
L 1084.974545 114.472695 
L 1089.032727 114.187607 
L 1091.061818 115.445739 
L 1093.090909 112.59756 
L 1095.12 114.6394 
L 1097.149091 113.272385 
L 1099.178182 115.154032 
L 1101.207273 115.396243 
L 1103.236364 113.921199 
L 1105.265455 113.101517 
L 1107.294545 114.109005 
L 1109.323636 115.552344 
L 1113.381818 113.81374 
L 1115.410909 113.127137 
L 1117.44 114.774579 
L 1119.469091 114.496927 
L 1121.498182 114.773725 
L 1123.527273 114.378757 
L 1125.556364 115.42261 
L 1127.585455 113.746168 
L 1129.614545 112.803904 
L 1131.643636 114.671923 
L 1135.701818 113.849216 
L 1137.730909 114.60855 
L 1139.76 114.512192 
L 1141.789091 113.6681 
L 1143.818182 112.258315 
L 1145.847273 114.869193 
L 1147.876364 112.492591 
L 1149.905455 117.771066 
L 1153.963636 115.17926 
L 1155.992727 114.300155 
L 1158.021818 113.036935 
L 1160.050909 115.70752 
L 1162.08 114.749742 
L 1164.109091 114.766323 
L 1166.138182 113.717987 
L 1168.167273 115.263876 
L 1170.196364 114.505787 
L 1172.225455 115.019921 
L 1174.254545 113.763817 
L 1176.283636 113.528652 
L 1178.312727 113.501039 
L 1180.341818 113.629137 
L 1182.370909 115.455773 
L 1186.429091 114.711348 
L 1188.458182 115.621695 
L 1190.487273 113.294731 
L 1192.516364 116.336053 
L 1194.545455 115.638597 
L 1196.574545 114.767213 
L 1198.603636 114.599903 
L 1200.632727 113.592914 
L 1202.661818 114.695834 
L 1204.690909 112.726227 
L 1206.72 114.869193 
L 1208.749091 113.970944 
L 1210.778182 114.403024 
L 1212.807273 113.657141 
L 1214.836364 117.565184 
L 1216.865455 112.545218 
L 1218.894545 112.998078 
L 1220.923636 114.678932 
L 1222.952727 114.305706 
L 1227.010909 114.798348 
L 1229.04 115.502137 
L 1231.069091 114.015992 
L 1233.098182 115.105746 
L 1235.127273 113.257334 
L 1237.156364 114.187607 
L 1239.185455 115.396243 
L 1241.214545 114.521052 
L 1243.243636 114.78198 
L 1245.272727 115.742071 
L 1245.272727 115.742071 
" clip-path="url(#p8832da419e)" style="fill: none; stroke: #1f77b4; stroke-width: 1.5; stroke-linecap: square"/>
   </g>
   <g id="line2d_13">
    <path d="M 230.727273 615.6 
L 232.756364 217.614632 
L 238.843636 217.614632 
L 240.872727 217.038264 
L 242.901818 220.303756 
L 244.930909 207.141338 
L 246.96 199.349624 
L 248.989091 203.377261 
L 251.018182 185.077133 
L 253.047273 200.356898 
L 255.076364 194.892931 
L 257.105455 179.388034 
L 259.134545 189.413699 
L 261.163636 207.344088 
L 263.192727 207.337149 
L 265.221818 181.632411 
L 267.250909 196.856454 
L 269.28 197.825334 
L 271.309091 188.107602 
L 273.338182 194.455229 
L 275.367273 178.971788 
L 277.396364 186.592954 
L 279.425455 178.468507 
L 281.454545 190.445916 
L 283.483636 187.475191 
L 285.512727 187.492804 
L 287.541818 183.930517 
L 289.570909 189.814182 
L 291.6 208.015746 
L 293.629091 191.130634 
L 297.687273 184.023246 
L 299.716364 190.669625 
L 301.745455 181.039141 
L 303.774545 202.685641 
L 305.803636 184.298335 
L 307.832727 188.879247 
L 309.861818 190.59547 
L 311.890909 191.274708 
L 313.92 182.530482 
L 315.949091 182.722806 
L 317.978182 195.442754 
L 320.007273 181.434215 
L 322.036364 183.649272 
L 324.065455 192.28828 
L 326.094545 190.503952 
L 328.123636 200.024129 
L 330.152727 188.484956 
L 332.181818 193.427672 
L 334.210909 221.717598 
L 336.24 187.701959 
L 338.269091 204.161574 
L 340.298182 181.736775 
L 342.327273 187.765759 
L 344.356364 184.263927 
L 346.385455 200.120736 
L 348.414545 187.5365 
L 350.443636 217.990136 
L 352.472727 198.57225 
L 354.501818 190.232029 
L 356.530909 193.809901 
L 358.56 188.324087 
L 360.589091 191.008372 
L 362.618182 188.484956 
L 366.676364 185.864471 
L 368.705455 193.8816 
L 370.734545 189.814182 
L 372.763636 184.938752 
L 374.792727 177.890324 
L 376.821818 212.220834 
L 378.850909 188.079527 
L 380.88 188.230718 
L 382.909091 184.356833 
L 384.938182 188.871277 
L 386.967273 185.19452 
L 388.996364 190.218401 
L 391.025455 189.344491 
L 393.054545 189.660038 
L 395.083636 184.97469 
L 397.112727 193.742935 
L 399.141818 186.487309 
L 401.170909 216.075042 
L 403.2 192.604645 
L 405.229091 188.556548 
L 407.258182 188.871277 
L 409.287273 186.916045 
L 411.316364 195.192928 
L 413.345455 183.248255 
L 415.374545 190.669625 
L 417.403636 201.031901 
L 419.432727 184.600325 
L 421.461818 180.409221 
L 423.490909 187.682567 
L 425.52 180.933959 
L 427.549091 177.185539 
L 429.578182 191.650994 
L 431.607273 185.554723 
L 433.636364 188.255056 
L 435.665455 193.140627 
L 437.694545 189.744547 
L 439.723636 187.765759 
L 441.752727 190.520889 
L 443.781818 187.28493 
L 445.810909 194.073925 
L 447.84 192.298492 
L 449.869091 190.837753 
L 453.927273 182.246461 
L 455.956364 192.579489 
L 457.985455 190.12948 
L 460.014545 190.61376 
L 462.043636 179.325587 
L 464.072727 180.012688 
L 466.101818 191.866946 
L 468.130909 185.384709 
L 470.16 190.669625 
L 472.189091 193.483075 
L 474.218182 186.436035 
L 476.247273 193.173719 
L 478.276364 187.765759 
L 480.305455 184.263927 
L 482.334545 193.038576 
L 484.363636 188.636929 
L 486.392727 189.899758 
L 488.421818 193.816057 
L 490.450909 186.224282 
L 492.48 184.572962 
L 494.509091 188.312771 
L 496.538182 184.883101 
L 498.567273 194.78846 
L 500.596364 185.06564 
L 502.625455 194.989218 
L 504.654545 188.871277 
L 506.683636 192.648768 
L 508.712727 183.039207 
L 510.741818 191.301573 
L 512.770909 183.837291 
L 514.8 185.416378 
L 518.858182 190.370517 
L 520.887273 190.538325 
L 522.916364 187.930649 
L 524.945455 187.45313 
L 526.974545 188.871277 
L 529.003636 195.504348 
L 533.061818 184.632456 
L 535.090909 192.509853 
L 537.12 202.264342 
L 539.149091 190.743387 
L 541.178182 192.970435 
L 543.207273 184.449206 
L 545.236364 183.248255 
L 547.265455 193.617364 
L 549.294545 195.442754 
L 551.323636 186.487309 
L 553.352727 190.294726 
L 555.381818 180.012688 
L 557.410909 196.940073 
L 559.44 197.491818 
L 561.469091 189.342462 
L 563.498182 186.040142 
L 565.527273 189.266031 
L 567.556364 187.114845 
L 569.585455 187.369226 
L 571.614545 189.737323 
L 573.643636 191.474967 
L 575.672727 184.263927 
L 577.701818 184.756853 
L 579.730909 182.943063 
L 581.76 193.293312 
L 583.789091 194.073925 
L 585.818182 187.997153 
L 587.847273 189.660038 
L 589.876364 180.222519 
L 591.905455 187.369226 
L 593.934545 186.040142 
L 595.963636 183.438622 
L 597.992727 189.108791 
L 600.021818 193.106361 
L 602.050909 182.034388 
L 604.08 184.480198 
L 606.109091 191.690847 
L 608.138182 194.590692 
L 610.167273 192.901939 
L 612.196364 186.436035 
L 614.225455 200.165641 
L 616.254545 184.263927 
L 618.283636 189.58229 
L 620.312727 183.039207 
L 622.341818 187.141604 
L 624.370909 186.971945 
L 626.4 183.930517 
L 628.429091 183.767264 
L 630.458182 186.175285 
L 632.487273 184.938752 
L 634.516364 187.369226 
L 638.574545 189.976759 
L 640.603636 195.953081 
L 642.632727 194.851619 
L 644.661818 191.938218 
L 646.690909 187.369226 
L 648.72 193.038576 
L 650.749091 189.108791 
L 652.778182 183.95603 
L 654.807273 183.459189 
L 656.836364 191.373877 
L 658.865455 181.636467 
L 660.894545 182.749173 
L 662.923636 187.930649 
L 664.952727 182.132525 
L 666.981818 188.556548 
L 669.010909 187.369226 
L 671.04 188.47574 
L 673.069091 187.5365 
L 675.098182 212.65416 
L 677.127273 190.2052 
L 679.156364 181.736775 
L 681.185455 194.66844 
L 683.214545 192.648768 
L 685.243636 189.737323 
L 687.272727 184.235176 
L 689.301818 184.541116 
L 691.330909 190.2052 
L 693.36 187.141604 
L 695.389091 188.312771 
L 697.418182 183.152218 
L 699.447273 188.871277 
L 701.476364 184.142661 
L 703.505455 198.487812 
L 705.534545 195.38084 
L 707.563636 185.643502 
L 709.592727 185.246151 
L 711.621818 180.326563 
L 713.650909 187.392532 
L 715.68 183.861914 
L 717.709091 190.218401 
L 719.738182 194.20373 
L 721.767273 186.127284 
L 723.796364 188.950911 
L 725.825455 189.737323 
L 727.854545 186.436035 
L 729.883636 185.643502 
L 731.912727 199.440111 
L 733.941818 203.774933 
L 735.970909 197.167731 
L 738 191.866946 
L 740.029091 191.866946 
L 742.058182 186.087396 
L 744.087273 189.814182 
L 746.116364 187.619408 
L 748.145455 185.06564 
L 750.174545 189.422488 
L 752.203636 188.716812 
L 754.232727 188.312771 
L 756.261818 182.345452 
L 758.290909 185.952538 
L 760.32 191.445754 
L 762.349091 185.156126 
L 764.378182 191.082277 
L 766.407273 188.243029 
L 768.436364 188.174639 
L 770.465455 189.890649 
L 772.494545 189.814182 
L 774.523636 197.214629 
L 776.552727 191.008372 
L 778.581818 188.39454 
L 780.610909 189.966654 
L 782.64 196.39854 
L 784.669091 189.187109 
L 786.698182 188.556548 
L 788.727273 191.938218 
L 790.756364 184.263927 
L 792.785455 184.356833 
L 794.814545 189.737323 
L 796.843636 186.971945 
L 798.872727 188.875333 
L 800.901818 187.5365 
L 802.930909 188.871277 
L 804.96 187.599019 
L 806.989091 187.141604 
L 809.018182 192.258248 
L 811.047273 199.727654 
L 813.076364 187.682567 
L 815.105455 186.886476 
L 817.134545 190.763527 
L 819.163636 189.344491 
L 821.192727 191.547378 
L 823.221818 185.952538 
L 825.250909 191.228842 
L 827.28 190.837753 
L 829.309091 199.867672 
L 831.338182 185.103144 
L 833.367273 187.057059 
L 835.396364 184.756853 
L 837.425455 194.463128 
L 839.454545 191.690847 
L 841.483636 189.187073 
L 843.512727 193.088925 
L 845.541818 191.690847 
L 847.570909 188.012454 
L 849.6 191.301573 
L 851.629091 192.187795 
L 853.658182 186.262676 
L 855.687273 184.938752 
L 857.716364 185.028918 
L 859.745455 185.246151 
L 861.774545 185.775763 
L 863.803636 211.474096 
L 865.832727 190.370517 
L 867.861818 189.028018 
L 869.890909 186.886476 
L 871.92 183.95603 
L 873.949091 185.246151 
L 875.978182 188.636929 
L 878.007273 188.161545 
L 880.036364 192.901939 
L 882.065455 186.660241 
L 884.094545 185.465411 
L 886.123636 187.848453 
L 888.152727 200.65501 
L 890.181818 188.636929 
L 892.210909 189.187109 
L 894.24 189.976759 
L 896.269091 188.39454 
L 898.298182 187.599019 
L 900.327273 193.494354 
L 902.356364 186.175285 
L 904.385455 187.114845 
L 906.414545 190.064684 
L 908.443636 191.082277 
L 910.472727 187.619408 
L 912.501818 186.312421 
L 914.530909 189.814182 
L 916.56 193.617364 
L 920.618182 188.39454 
L 922.647273 191.619255 
L 924.676364 192.258248 
L 926.705455 189.660038 
L 928.734545 183.152218 
L 930.763636 190.538325 
L 932.792727 195.565586 
L 934.821818 181.636467 
L 936.850909 190.294726 
L 938.88 192.901939 
L 940.909091 193.347256 
L 942.938182 194.269131 
L 944.967273 187.141604 
L 949.025455 187.114845 
L 951.054545 193.088925 
L 953.083636 187.5365 
L 955.112727 196.725901 
L 957.141818 190.064684 
L 959.170909 190.053333 
L 961.2 188.871277 
L 963.229091 190.370517 
L 965.258182 189.425584 
L 967.287273 189.344491 
L 969.316364 180.430073 
L 971.345455 183.861914 
L 973.374545 186.971945 
L 975.403636 187.369226 
L 977.432727 188.09376 
L 979.461818 183.982112 
L 981.490909 184.665157 
L 983.52 188.079527 
L 985.549091 191.155791 
L 987.578182 188.871277 
L 989.607273 184.170487 
L 991.636364 190.911587 
L 993.665455 184.076548 
L 995.694545 188.404681 
L 997.723636 189.422488 
L 999.752727 181.840676 
L 1001.781818 188.710692 
L 1003.810909 179.219017 
L 1005.84 190.12948 
L 1007.869091 192.509853 
L 1009.898182 188.710692 
L 1011.927273 185.554723 
L 1013.956364 186.800473 
L 1015.985455 198.894735 
L 1018.014545 192.079374 
L 1020.043636 182.454264 
L 1022.072727 186.971945 
L 1024.101818 200.456885 
L 1026.130909 187.369226 
L 1028.16 188.871277 
L 1030.189091 188.312771 
L 1032.218182 188.791251 
L 1034.247273 193.225563 
L 1036.276364 198.448208 
L 1038.305455 192.648768 
L 1042.363636 189.266031 
L 1044.392727 187.930649 
L 1046.421818 189.814182 
L 1048.450909 188.556548 
L 1050.48 188.636929 
L 1052.509091 188.39454 
L 1054.538182 192.258248 
L 1056.567273 186.487309 
L 1058.596364 184.263927 
L 1060.625455 181.836549 
L 1062.654545 186.800473 
L 1064.683636 187.599019 
L 1066.712727 189.346554 
L 1068.741818 192.717692 
L 1070.770909 186.971945 
L 1072.8 185.3756 
L 1074.829091 187.200101 
L 1076.858182 188.324087 
L 1078.887273 187.599019 
L 1080.916364 189.266031 
L 1082.945455 186.087396 
L 1084.974545 185.864471 
L 1087.003636 186.660241 
L 1089.032727 190.688804 
L 1091.061818 185.864471 
L 1093.090909 181.736775 
L 1095.12 183.459189 
L 1097.149091 185.643502 
L 1099.178182 181.43418 
L 1101.207273 186.400168 
L 1103.236364 185.3756 
L 1105.265455 188.079527 
L 1107.294545 183.861914 
L 1109.323636 188.243029 
L 1111.352727 187.765759 
L 1113.381818 184.848052 
L 1115.410909 197.602088 
L 1117.44 187.765759 
L 1119.469091 189.344491 
L 1121.498182 182.943063 
L 1123.527273 180.222519 
L 1125.556364 185.156126 
L 1127.585455 185.554723 
L 1129.614545 187.200101 
L 1131.643636 188.243029 
L 1133.672727 182.84642 
L 1135.701818 184.848052 
L 1137.730909 184.541116 
L 1139.76 191.082277 
L 1141.789091 191.866946 
L 1143.818182 193.483075 
L 1145.847273 188.556548 
L 1149.905455 191.474967 
L 1151.934545 189.108791 
L 1153.963636 187.114845 
L 1155.992727 187.141604 
L 1158.021818 187.45313 
L 1160.050909 184.756853 
L 1162.08 184.756853 
L 1164.109091 186.745995 
L 1166.138182 188.079527 
L 1168.167273 189.030118 
L 1172.225455 183.459189 
L 1174.254545 183.055682 
L 1176.283636 185.864471 
L 1178.312727 184.541116 
L 1180.341818 183.649272 
L 1182.370909 186.745995 
L 1184.4 185.686735 
L 1186.429091 185.952538 
L 1188.458182 185.643502 
L 1190.487273 184.938752 
L 1192.516364 185.156126 
L 1194.545455 186.800473 
L 1196.574545 190.763527 
L 1198.603636 188.710692 
L 1200.632727 191.795389 
L 1202.661818 187.848453 
L 1204.690909 196.193335 
L 1206.72 188.950911 
L 1208.749091 181.231643 
L 1210.778182 189.58229 
L 1212.807273 190.294726 
L 1214.836364 182.651427 
L 1216.865455 188.14813 
L 1218.894545 184.076548 
L 1220.923636 187.682567 
L 1222.952727 192.648768 
L 1224.981818 193.293312 
L 1227.010909 190.688804 
L 1229.04 192.045784 
L 1231.069091 188.230718 
L 1233.098182 190.294726 
L 1235.127273 191.547378 
L 1237.156364 188.161545 
L 1239.185455 188.47574 
L 1241.214545 184.449206 
L 1243.243636 184.076548 
L 1245.272727 185.285327 
L 1245.272727 185.285327 
" clip-path="url(#p8832da419e)" style="fill: none; stroke: #ff7f0e; stroke-width: 1.5; stroke-linecap: square"/>
   </g>
   <g id="patch_3">
    <path d="M 180 640.8 
L 180 86.4 
" style="fill: none; stroke: #000000; stroke-width: 0.8; stroke-linejoin: miter; stroke-linecap: square"/>
   </g>
   <g id="patch_4">
    <path d="M 1296 640.8 
L 1296 86.4 
" style="fill: none; stroke: #000000; stroke-width: 0.8; stroke-linejoin: miter; stroke-linecap: square"/>
   </g>
   <g id="patch_5">
    <path d="M 180 640.8 
L 1296 640.8 
" style="fill: none; stroke: #000000; stroke-width: 0.8; stroke-linejoin: miter; stroke-linecap: square"/>
   </g>
   <g id="patch_6">
    <path d="M 180 86.4 
L 1296 86.4 
" style="fill: none; stroke: #000000; stroke-width: 0.8; stroke-linejoin: miter; stroke-linecap: square"/>
   </g>
   <g id="text_14">
    <!-- F1 score -->
    <g transform="translate(712.705312 80.4)scale(0.12 -0.12)">
     <use xlink:href="#DejaVuSans-46"/>
     <use xlink:href="#DejaVuSans-31" x="57.519531"/>
     <use xlink:href="#DejaVuSans-20" x="121.142578"/>
     <use xlink:href="#DejaVuSans-73" x="152.929688"/>
     <use xlink:href="#DejaVuSans-63" x="205.029297"/>
     <use xlink:href="#DejaVuSans-6f" x="260.009766"/>
     <use xlink:href="#DejaVuSans-72" x="321.191406"/>
     <use xlink:href="#DejaVuSans-65" x="360.054688"/>
    </g>
   </g>
   <g id="legend_1">
    <g id="patch_7">
     <path d="M 187 123.75625 
L 347.076563 123.75625 
Q 349.076563 123.75625 349.076563 121.75625 
L 349.076563 93.4 
Q 349.076563 91.4 347.076563 91.4 
L 187 91.4 
Q 185 91.4 185 93.4 
L 185 121.75625 
Q 185 123.75625 187 123.75625 
z
" style="fill: #ffffff; opacity: 0.8; stroke: #cccccc; stroke-linejoin: miter"/>
    </g>
    <g id="line2d_14">
     <path d="M 189 99.498437 
L 199 99.498437 
L 209 99.498437 
" style="fill: none; stroke: #1f77b4; stroke-width: 1.5; stroke-linecap: square"/>
    </g>
    <g id="text_15">
     <!-- F1 score (training data) -->
     <g transform="translate(217 102.998437)scale(0.1 -0.1)">
      <defs>
       <path id="DejaVuSans-28" d="M 1984 4856 
Q 1566 4138 1362 3434 
Q 1159 2731 1159 2009 
Q 1159 1288 1364 580 
Q 1569 -128 1984 -844 
L 1484 -844 
Q 1016 -109 783 600 
Q 550 1309 550 2009 
Q 550 2706 781 3412 
Q 1013 4119 1484 4856 
L 1984 4856 
z
" transform="scale(0.015625)"/>
       <path id="DejaVuSans-74" d="M 1172 4494 
L 1172 3500 
L 2356 3500 
L 2356 3053 
L 1172 3053 
L 1172 1153 
Q 1172 725 1289 603 
Q 1406 481 1766 481 
L 2356 481 
L 2356 0 
L 1766 0 
Q 1100 0 847 248 
Q 594 497 594 1153 
L 594 3053 
L 172 3053 
L 172 3500 
L 594 3500 
L 594 4494 
L 1172 4494 
z
" transform="scale(0.015625)"/>
       <path id="DejaVuSans-69" d="M 603 3500 
L 1178 3500 
L 1178 0 
L 603 0 
L 603 3500 
z
M 603 4863 
L 1178 4863 
L 1178 4134 
L 603 4134 
L 603 4863 
z
" transform="scale(0.015625)"/>
       <path id="DejaVuSans-6e" d="M 3513 2113 
L 3513 0 
L 2938 0 
L 2938 2094 
Q 2938 2591 2744 2837 
Q 2550 3084 2163 3084 
Q 1697 3084 1428 2787 
Q 1159 2491 1159 1978 
L 1159 0 
L 581 0 
L 581 3500 
L 1159 3500 
L 1159 2956 
Q 1366 3272 1645 3428 
Q 1925 3584 2291 3584 
Q 2894 3584 3203 3211 
Q 3513 2838 3513 2113 
z
" transform="scale(0.015625)"/>
       <path id="DejaVuSans-67" d="M 2906 1791 
Q 2906 2416 2648 2759 
Q 2391 3103 1925 3103 
Q 1463 3103 1205 2759 
Q 947 2416 947 1791 
Q 947 1169 1205 825 
Q 1463 481 1925 481 
Q 2391 481 2648 825 
Q 2906 1169 2906 1791 
z
M 3481 434 
Q 3481 -459 3084 -895 
Q 2688 -1331 1869 -1331 
Q 1566 -1331 1297 -1286 
Q 1028 -1241 775 -1147 
L 775 -588 
Q 1028 -725 1275 -790 
Q 1522 -856 1778 -856 
Q 2344 -856 2625 -561 
Q 2906 -266 2906 331 
L 2906 616 
Q 2728 306 2450 153 
Q 2172 0 1784 0 
Q 1141 0 747 490 
Q 353 981 353 1791 
Q 353 2603 747 3093 
Q 1141 3584 1784 3584 
Q 2172 3584 2450 3431 
Q 2728 3278 2906 2969 
L 2906 3500 
L 3481 3500 
L 3481 434 
z
" transform="scale(0.015625)"/>
       <path id="DejaVuSans-64" d="M 2906 2969 
L 2906 4863 
L 3481 4863 
L 3481 0 
L 2906 0 
L 2906 525 
Q 2725 213 2448 61 
Q 2172 -91 1784 -91 
Q 1150 -91 751 415 
Q 353 922 353 1747 
Q 353 2572 751 3078 
Q 1150 3584 1784 3584 
Q 2172 3584 2448 3432 
Q 2725 3281 2906 2969 
z
M 947 1747 
Q 947 1113 1208 752 
Q 1469 391 1925 391 
Q 2381 391 2643 752 
Q 2906 1113 2906 1747 
Q 2906 2381 2643 2742 
Q 2381 3103 1925 3103 
Q 1469 3103 1208 2742 
Q 947 2381 947 1747 
z
" transform="scale(0.015625)"/>
       <path id="DejaVuSans-29" d="M 513 4856 
L 1013 4856 
Q 1481 4119 1714 3412 
Q 1947 2706 1947 2009 
Q 1947 1309 1714 600 
Q 1481 -109 1013 -844 
L 513 -844 
Q 928 -128 1133 580 
Q 1338 1288 1338 2009 
Q 1338 2731 1133 3434 
Q 928 4138 513 4856 
z
" transform="scale(0.015625)"/>
      </defs>
      <use xlink:href="#DejaVuSans-46"/>
      <use xlink:href="#DejaVuSans-31" x="57.519531"/>
      <use xlink:href="#DejaVuSans-20" x="121.142578"/>
      <use xlink:href="#DejaVuSans-73" x="152.929688"/>
      <use xlink:href="#DejaVuSans-63" x="205.029297"/>
      <use xlink:href="#DejaVuSans-6f" x="260.009766"/>
      <use xlink:href="#DejaVuSans-72" x="321.191406"/>
      <use xlink:href="#DejaVuSans-65" x="360.054688"/>
      <use xlink:href="#DejaVuSans-20" x="421.578125"/>
      <use xlink:href="#DejaVuSans-28" x="453.365234"/>
      <use xlink:href="#DejaVuSans-74" x="492.378906"/>
      <use xlink:href="#DejaVuSans-72" x="531.587891"/>
      <use xlink:href="#DejaVuSans-61" x="572.701172"/>
      <use xlink:href="#DejaVuSans-69" x="633.980469"/>
      <use xlink:href="#DejaVuSans-6e" x="661.763672"/>
      <use xlink:href="#DejaVuSans-69" x="725.142578"/>
      <use xlink:href="#DejaVuSans-6e" x="752.925781"/>
      <use xlink:href="#DejaVuSans-67" x="816.304688"/>
      <use xlink:href="#DejaVuSans-20" x="879.78125"/>
      <use xlink:href="#DejaVuSans-64" x="911.568359"/>
      <use xlink:href="#DejaVuSans-61" x="975.044922"/>
      <use xlink:href="#DejaVuSans-74" x="1036.324219"/>
      <use xlink:href="#DejaVuSans-61" x="1075.533203"/>
      <use xlink:href="#DejaVuSans-29" x="1136.8125"/>
     </g>
    </g>
    <g id="line2d_15">
     <path d="M 189 114.176562 
L 199 114.176562 
L 209 114.176562 
" style="fill: none; stroke: #ff7f0e; stroke-width: 1.5; stroke-linecap: square"/>
    </g>
    <g id="text_16">
     <!-- F1 score (validation data) -->
     <g transform="translate(217 117.676562)scale(0.1 -0.1)">
      <use xlink:href="#DejaVuSans-46"/>
      <use xlink:href="#DejaVuSans-31" x="57.519531"/>
      <use xlink:href="#DejaVuSans-20" x="121.142578"/>
      <use xlink:href="#DejaVuSans-73" x="152.929688"/>
      <use xlink:href="#DejaVuSans-63" x="205.029297"/>
      <use xlink:href="#DejaVuSans-6f" x="260.009766"/>
      <use xlink:href="#DejaVuSans-72" x="321.191406"/>
      <use xlink:href="#DejaVuSans-65" x="360.054688"/>
      <use xlink:href="#DejaVuSans-20" x="421.578125"/>
      <use xlink:href="#DejaVuSans-28" x="453.365234"/>
      <use xlink:href="#DejaVuSans-76" x="492.378906"/>
      <use xlink:href="#DejaVuSans-61" x="551.558594"/>
      <use xlink:href="#DejaVuSans-6c" x="612.837891"/>
      <use xlink:href="#DejaVuSans-69" x="640.621094"/>
      <use xlink:href="#DejaVuSans-64" x="668.404297"/>
      <use xlink:href="#DejaVuSans-61" x="731.880859"/>
      <use xlink:href="#DejaVuSans-74" x="793.160156"/>
      <use xlink:href="#DejaVuSans-69" x="832.369141"/>
      <use xlink:href="#DejaVuSans-6f" x="860.152344"/>
      <use xlink:href="#DejaVuSans-6e" x="921.333984"/>
      <use xlink:href="#DejaVuSans-20" x="984.712891"/>
      <use xlink:href="#DejaVuSans-64" x="1016.5"/>
      <use xlink:href="#DejaVuSans-61" x="1079.976562"/>
      <use xlink:href="#DejaVuSans-74" x="1141.255859"/>
      <use xlink:href="#DejaVuSans-61" x="1180.464844"/>
      <use xlink:href="#DejaVuSans-29" x="1241.744141"/>
     </g>
    </g>
   </g>
  </g>
 </g>
 <defs>
  <clipPath id="p8832da419e">
   <rect x="180" y="86.4" width="1116" height="554.4"/>
  </clipPath>
 </defs>
</svg>
