<?xml version="1.0" encoding="utf-8" standalone="no"?>
<!DOCTYPE svg PUBLIC "-//W3C//DTD SVG 1.1//EN"
  "http://www.w3.org/Graphics/SVG/1.1/DTD/svg11.dtd">
<svg xmlns:xlink="http://www.w3.org/1999/xlink" width="1440pt" height="720pt" viewBox="0 0 1440 720" xmlns="http://www.w3.org/2000/svg" version="1.1">
 <metadata>
  <rdf:RDF xmlns:dc="http://purl.org/dc/elements/1.1/" xmlns:cc="http://creativecommons.org/ns#" xmlns:rdf="http://www.w3.org/1999/02/22-rdf-syntax-ns#">
   <cc:Work>
    <dc:type rdf:resource="http://purl.org/dc/dcmitype/StillImage"/>
    <dc:date>2022-05-24T21:43:49.705234</dc:date>
    <dc:format>image/svg+xml</dc:format>
    <dc:creator>
     <cc:Agent>
      <dc:title>Matplotlib v3.5.0, https://matplotlib.org/</dc:title>
     </cc:Agent>
    </dc:creator>
   </cc:Work>
  </rdf:RDF>
 </metadata>
 <defs>
  <style type="text/css">*{stroke-linejoin: round; stroke-linecap: butt}</style>
 </defs>
 <g id="figure_1">
  <g id="patch_1">
   <path d="M 0 720 
L 1440 720 
L 1440 0 
L 0 0 
z
" style="fill: #ffffff"/>
  </g>
  <g id="axes_1">
   <g id="patch_2">
    <path d="M 180 640.8 
L 1296 640.8 
L 1296 86.4 
L 180 86.4 
z
" style="fill: #ffffff"/>
   </g>
   <g id="matplotlib.axis_1">
    <g id="xtick_1">
     <g id="line2d_1">
      <defs>
       <path id="m6caf8f8663" d="M 0 0 
L 0 3.5 
" style="stroke: #000000; stroke-width: 0.8"/>
      </defs>
      <g>
       <use xlink:href="#m6caf8f8663" x="230.727273" y="640.8" style="stroke: #000000; stroke-width: 0.8"/>
      </g>
     </g>
     <g id="text_1">
      <!-- 0 -->
      <g transform="translate(227.546023 655.398438)scale(0.1 -0.1)">
       <defs>
        <path id="DejaVuSans-30" d="M 2034 4250 
Q 1547 4250 1301 3770 
Q 1056 3291 1056 2328 
Q 1056 1369 1301 889 
Q 1547 409 2034 409 
Q 2525 409 2770 889 
Q 3016 1369 3016 2328 
Q 3016 3291 2770 3770 
Q 2525 4250 2034 4250 
z
M 2034 4750 
Q 2819 4750 3233 4129 
Q 3647 3509 3647 2328 
Q 3647 1150 3233 529 
Q 2819 -91 2034 -91 
Q 1250 -91 836 529 
Q 422 1150 422 2328 
Q 422 3509 836 4129 
Q 1250 4750 2034 4750 
z
" transform="scale(0.015625)"/>
       </defs>
       <use xlink:href="#DejaVuSans-30"/>
      </g>
     </g>
    </g>
    <g id="xtick_2">
     <g id="line2d_2">
      <g>
       <use xlink:href="#m6caf8f8663" x="434.042995" y="640.8" style="stroke: #000000; stroke-width: 0.8"/>
      </g>
     </g>
     <g id="text_2">
      <!-- 100 -->
      <g transform="translate(424.499245 655.398438)scale(0.1 -0.1)">
       <defs>
        <path id="DejaVuSans-31" d="M 794 531 
L 1825 531 
L 1825 4091 
L 703 3866 
L 703 4441 
L 1819 4666 
L 2450 4666 
L 2450 531 
L 3481 531 
L 3481 0 
L 794 0 
L 794 531 
z
" transform="scale(0.015625)"/>
       </defs>
       <use xlink:href="#DejaVuSans-31"/>
       <use xlink:href="#DejaVuSans-30" x="63.623047"/>
       <use xlink:href="#DejaVuSans-30" x="127.246094"/>
      </g>
     </g>
    </g>
    <g id="xtick_3">
     <g id="line2d_3">
      <g>
       <use xlink:href="#m6caf8f8663" x="637.358717" y="640.8" style="stroke: #000000; stroke-width: 0.8"/>
      </g>
     </g>
     <g id="text_3">
      <!-- 200 -->
      <g transform="translate(627.814967 655.398438)scale(0.1 -0.1)">
       <defs>
        <path id="DejaVuSans-32" d="M 1228 531 
L 3431 531 
L 3431 0 
L 469 0 
L 469 531 
Q 828 903 1448 1529 
Q 2069 2156 2228 2338 
Q 2531 2678 2651 2914 
Q 2772 3150 2772 3378 
Q 2772 3750 2511 3984 
Q 2250 4219 1831 4219 
Q 1534 4219 1204 4116 
Q 875 4013 500 3803 
L 500 4441 
Q 881 4594 1212 4672 
Q 1544 4750 1819 4750 
Q 2544 4750 2975 4387 
Q 3406 4025 3406 3419 
Q 3406 3131 3298 2873 
Q 3191 2616 2906 2266 
Q 2828 2175 2409 1742 
Q 1991 1309 1228 531 
z
" transform="scale(0.015625)"/>
       </defs>
       <use xlink:href="#DejaVuSans-32"/>
       <use xlink:href="#DejaVuSans-30" x="63.623047"/>
       <use xlink:href="#DejaVuSans-30" x="127.246094"/>
      </g>
     </g>
    </g>
    <g id="xtick_4">
     <g id="line2d_4">
      <g>
       <use xlink:href="#m6caf8f8663" x="840.67444" y="640.8" style="stroke: #000000; stroke-width: 0.8"/>
      </g>
     </g>
     <g id="text_4">
      <!-- 300 -->
      <g transform="translate(831.13069 655.398438)scale(0.1 -0.1)">
       <defs>
        <path id="DejaVuSans-33" d="M 2597 2516 
Q 3050 2419 3304 2112 
Q 3559 1806 3559 1356 
Q 3559 666 3084 287 
Q 2609 -91 1734 -91 
Q 1441 -91 1130 -33 
Q 819 25 488 141 
L 488 750 
Q 750 597 1062 519 
Q 1375 441 1716 441 
Q 2309 441 2620 675 
Q 2931 909 2931 1356 
Q 2931 1769 2642 2001 
Q 2353 2234 1838 2234 
L 1294 2234 
L 1294 2753 
L 1863 2753 
Q 2328 2753 2575 2939 
Q 2822 3125 2822 3475 
Q 2822 3834 2567 4026 
Q 2313 4219 1838 4219 
Q 1578 4219 1281 4162 
Q 984 4106 628 3988 
L 628 4550 
Q 988 4650 1302 4700 
Q 1616 4750 1894 4750 
Q 2613 4750 3031 4423 
Q 3450 4097 3450 3541 
Q 3450 3153 3228 2886 
Q 3006 2619 2597 2516 
z
" transform="scale(0.015625)"/>
       </defs>
       <use xlink:href="#DejaVuSans-33"/>
       <use xlink:href="#DejaVuSans-30" x="63.623047"/>
       <use xlink:href="#DejaVuSans-30" x="127.246094"/>
      </g>
     </g>
    </g>
    <g id="xtick_5">
     <g id="line2d_5">
      <g>
       <use xlink:href="#m6caf8f8663" x="1043.990162" y="640.8" style="stroke: #000000; stroke-width: 0.8"/>
      </g>
     </g>
     <g id="text_5">
      <!-- 400 -->
      <g transform="translate(1034.446412 655.398438)scale(0.1 -0.1)">
       <defs>
        <path id="DejaVuSans-34" d="M 2419 4116 
L 825 1625 
L 2419 1625 
L 2419 4116 
z
M 2253 4666 
L 3047 4666 
L 3047 1625 
L 3713 1625 
L 3713 1100 
L 3047 1100 
L 3047 0 
L 2419 0 
L 2419 1100 
L 313 1100 
L 313 1709 
L 2253 4666 
z
" transform="scale(0.015625)"/>
       </defs>
       <use xlink:href="#DejaVuSans-34"/>
       <use xlink:href="#DejaVuSans-30" x="63.623047"/>
       <use xlink:href="#DejaVuSans-30" x="127.246094"/>
      </g>
     </g>
    </g>
    <g id="xtick_6">
     <g id="line2d_6">
      <g>
       <use xlink:href="#m6caf8f8663" x="1247.305884" y="640.8" style="stroke: #000000; stroke-width: 0.8"/>
      </g>
     </g>
     <g id="text_6">
      <!-- 500 -->
      <g transform="translate(1237.762134 655.398438)scale(0.1 -0.1)">
       <defs>
        <path id="DejaVuSans-35" d="M 691 4666 
L 3169 4666 
L 3169 4134 
L 1269 4134 
L 1269 2991 
Q 1406 3038 1543 3061 
Q 1681 3084 1819 3084 
Q 2600 3084 3056 2656 
Q 3513 2228 3513 1497 
Q 3513 744 3044 326 
Q 2575 -91 1722 -91 
Q 1428 -91 1123 -41 
Q 819 9 494 109 
L 494 744 
Q 775 591 1075 516 
Q 1375 441 1709 441 
Q 2250 441 2565 725 
Q 2881 1009 2881 1497 
Q 2881 1984 2565 2268 
Q 2250 2553 1709 2553 
Q 1456 2553 1204 2497 
Q 953 2441 691 2322 
L 691 4666 
z
" transform="scale(0.015625)"/>
       </defs>
       <use xlink:href="#DejaVuSans-35"/>
       <use xlink:href="#DejaVuSans-30" x="63.623047"/>
       <use xlink:href="#DejaVuSans-30" x="127.246094"/>
      </g>
     </g>
    </g>
    <g id="text_7">
     <!-- No. epoch -->
     <g transform="translate(712.88125 669.076563)scale(0.1 -0.1)">
      <defs>
       <path id="DejaVuSans-4e" d="M 628 4666 
L 1478 4666 
L 3547 763 
L 3547 4666 
L 4159 4666 
L 4159 0 
L 3309 0 
L 1241 3903 
L 1241 0 
L 628 0 
L 628 4666 
z
" transform="scale(0.015625)"/>
       <path id="DejaVuSans-6f" d="M 1959 3097 
Q 1497 3097 1228 2736 
Q 959 2375 959 1747 
Q 959 1119 1226 758 
Q 1494 397 1959 397 
Q 2419 397 2687 759 
Q 2956 1122 2956 1747 
Q 2956 2369 2687 2733 
Q 2419 3097 1959 3097 
z
M 1959 3584 
Q 2709 3584 3137 3096 
Q 3566 2609 3566 1747 
Q 3566 888 3137 398 
Q 2709 -91 1959 -91 
Q 1206 -91 779 398 
Q 353 888 353 1747 
Q 353 2609 779 3096 
Q 1206 3584 1959 3584 
z
" transform="scale(0.015625)"/>
       <path id="DejaVuSans-2e" d="M 684 794 
L 1344 794 
L 1344 0 
L 684 0 
L 684 794 
z
" transform="scale(0.015625)"/>
       <path id="DejaVuSans-20" transform="scale(0.015625)"/>
       <path id="DejaVuSans-65" d="M 3597 1894 
L 3597 1613 
L 953 1613 
Q 991 1019 1311 708 
Q 1631 397 2203 397 
Q 2534 397 2845 478 
Q 3156 559 3463 722 
L 3463 178 
Q 3153 47 2828 -22 
Q 2503 -91 2169 -91 
Q 1331 -91 842 396 
Q 353 884 353 1716 
Q 353 2575 817 3079 
Q 1281 3584 2069 3584 
Q 2775 3584 3186 3129 
Q 3597 2675 3597 1894 
z
M 3022 2063 
Q 3016 2534 2758 2815 
Q 2500 3097 2075 3097 
Q 1594 3097 1305 2825 
Q 1016 2553 972 2059 
L 3022 2063 
z
" transform="scale(0.015625)"/>
       <path id="DejaVuSans-70" d="M 1159 525 
L 1159 -1331 
L 581 -1331 
L 581 3500 
L 1159 3500 
L 1159 2969 
Q 1341 3281 1617 3432 
Q 1894 3584 2278 3584 
Q 2916 3584 3314 3078 
Q 3713 2572 3713 1747 
Q 3713 922 3314 415 
Q 2916 -91 2278 -91 
Q 1894 -91 1617 61 
Q 1341 213 1159 525 
z
M 3116 1747 
Q 3116 2381 2855 2742 
Q 2594 3103 2138 3103 
Q 1681 3103 1420 2742 
Q 1159 2381 1159 1747 
Q 1159 1113 1420 752 
Q 1681 391 2138 391 
Q 2594 391 2855 752 
Q 3116 1113 3116 1747 
z
" transform="scale(0.015625)"/>
       <path id="DejaVuSans-63" d="M 3122 3366 
L 3122 2828 
Q 2878 2963 2633 3030 
Q 2388 3097 2138 3097 
Q 1578 3097 1268 2742 
Q 959 2388 959 1747 
Q 959 1106 1268 751 
Q 1578 397 2138 397 
Q 2388 397 2633 464 
Q 2878 531 3122 666 
L 3122 134 
Q 2881 22 2623 -34 
Q 2366 -91 2075 -91 
Q 1284 -91 818 406 
Q 353 903 353 1747 
Q 353 2603 823 3093 
Q 1294 3584 2113 3584 
Q 2378 3584 2631 3529 
Q 2884 3475 3122 3366 
z
" transform="scale(0.015625)"/>
       <path id="DejaVuSans-68" d="M 3513 2113 
L 3513 0 
L 2938 0 
L 2938 2094 
Q 2938 2591 2744 2837 
Q 2550 3084 2163 3084 
Q 1697 3084 1428 2787 
Q 1159 2491 1159 1978 
L 1159 0 
L 581 0 
L 581 4863 
L 1159 4863 
L 1159 2956 
Q 1366 3272 1645 3428 
Q 1925 3584 2291 3584 
Q 2894 3584 3203 3211 
Q 3513 2838 3513 2113 
z
" transform="scale(0.015625)"/>
      </defs>
      <use xlink:href="#DejaVuSans-4e"/>
      <use xlink:href="#DejaVuSans-6f" x="74.804688"/>
      <use xlink:href="#DejaVuSans-2e" x="134.236328"/>
      <use xlink:href="#DejaVuSans-20" x="166.023438"/>
      <use xlink:href="#DejaVuSans-65" x="197.810547"/>
      <use xlink:href="#DejaVuSans-70" x="259.333984"/>
      <use xlink:href="#DejaVuSans-6f" x="322.810547"/>
      <use xlink:href="#DejaVuSans-63" x="383.992188"/>
      <use xlink:href="#DejaVuSans-68" x="438.972656"/>
     </g>
    </g>
   </g>
   <g id="matplotlib.axis_2">
    <g id="ytick_1">
     <g id="line2d_7">
      <defs>
       <path id="m42273c7e45" d="M 0 0 
L -3.5 0 
" style="stroke: #000000; stroke-width: 0.8"/>
      </defs>
      <g>
       <use xlink:href="#m42273c7e45" x="180" y="617.839093" style="stroke: #000000; stroke-width: 0.8"/>
      </g>
     </g>
     <g id="text_8">
      <!-- 0.0 -->
      <g transform="translate(157.096875 621.638312)scale(0.1 -0.1)">
       <use xlink:href="#DejaVuSans-30"/>
       <use xlink:href="#DejaVuSans-2e" x="63.623047"/>
       <use xlink:href="#DejaVuSans-30" x="95.410156"/>
      </g>
     </g>
    </g>
    <g id="ytick_2">
     <g id="line2d_8">
      <g>
       <use xlink:href="#m42273c7e45" x="180" y="513.916591" style="stroke: #000000; stroke-width: 0.8"/>
      </g>
     </g>
     <g id="text_9">
      <!-- 0.2 -->
      <g transform="translate(157.096875 517.71581)scale(0.1 -0.1)">
       <use xlink:href="#DejaVuSans-30"/>
       <use xlink:href="#DejaVuSans-2e" x="63.623047"/>
       <use xlink:href="#DejaVuSans-32" x="95.410156"/>
      </g>
     </g>
    </g>
    <g id="ytick_3">
     <g id="line2d_9">
      <g>
       <use xlink:href="#m42273c7e45" x="180" y="409.99409" style="stroke: #000000; stroke-width: 0.8"/>
      </g>
     </g>
     <g id="text_10">
      <!-- 0.4 -->
      <g transform="translate(157.096875 413.793308)scale(0.1 -0.1)">
       <use xlink:href="#DejaVuSans-30"/>
       <use xlink:href="#DejaVuSans-2e" x="63.623047"/>
       <use xlink:href="#DejaVuSans-34" x="95.410156"/>
      </g>
     </g>
    </g>
    <g id="ytick_4">
     <g id="line2d_10">
      <g>
       <use xlink:href="#m42273c7e45" x="180" y="306.071588" style="stroke: #000000; stroke-width: 0.8"/>
      </g>
     </g>
     <g id="text_11">
      <!-- 0.6 -->
      <g transform="translate(157.096875 309.870807)scale(0.1 -0.1)">
       <defs>
        <path id="DejaVuSans-36" d="M 2113 2584 
Q 1688 2584 1439 2293 
Q 1191 2003 1191 1497 
Q 1191 994 1439 701 
Q 1688 409 2113 409 
Q 2538 409 2786 701 
Q 3034 994 3034 1497 
Q 3034 2003 2786 2293 
Q 2538 2584 2113 2584 
z
M 3366 4563 
L 3366 3988 
Q 3128 4100 2886 4159 
Q 2644 4219 2406 4219 
Q 1781 4219 1451 3797 
Q 1122 3375 1075 2522 
Q 1259 2794 1537 2939 
Q 1816 3084 2150 3084 
Q 2853 3084 3261 2657 
Q 3669 2231 3669 1497 
Q 3669 778 3244 343 
Q 2819 -91 2113 -91 
Q 1303 -91 875 529 
Q 447 1150 447 2328 
Q 447 3434 972 4092 
Q 1497 4750 2381 4750 
Q 2619 4750 2861 4703 
Q 3103 4656 3366 4563 
z
" transform="scale(0.015625)"/>
       </defs>
       <use xlink:href="#DejaVuSans-30"/>
       <use xlink:href="#DejaVuSans-2e" x="63.623047"/>
       <use xlink:href="#DejaVuSans-36" x="95.410156"/>
      </g>
     </g>
    </g>
    <g id="ytick_5">
     <g id="line2d_11">
      <g>
       <use xlink:href="#m42273c7e45" x="180" y="202.149086" style="stroke: #000000; stroke-width: 0.8"/>
      </g>
     </g>
     <g id="text_12">
      <!-- 0.8 -->
      <g transform="translate(157.096875 205.948305)scale(0.1 -0.1)">
       <defs>
        <path id="DejaVuSans-38" d="M 2034 2216 
Q 1584 2216 1326 1975 
Q 1069 1734 1069 1313 
Q 1069 891 1326 650 
Q 1584 409 2034 409 
Q 2484 409 2743 651 
Q 3003 894 3003 1313 
Q 3003 1734 2745 1975 
Q 2488 2216 2034 2216 
z
M 1403 2484 
Q 997 2584 770 2862 
Q 544 3141 544 3541 
Q 544 4100 942 4425 
Q 1341 4750 2034 4750 
Q 2731 4750 3128 4425 
Q 3525 4100 3525 3541 
Q 3525 3141 3298 2862 
Q 3072 2584 2669 2484 
Q 3125 2378 3379 2068 
Q 3634 1759 3634 1313 
Q 3634 634 3220 271 
Q 2806 -91 2034 -91 
Q 1263 -91 848 271 
Q 434 634 434 1313 
Q 434 1759 690 2068 
Q 947 2378 1403 2484 
z
M 1172 3481 
Q 1172 3119 1398 2916 
Q 1625 2713 2034 2713 
Q 2441 2713 2670 2916 
Q 2900 3119 2900 3481 
Q 2900 3844 2670 4047 
Q 2441 4250 2034 4250 
Q 1625 4250 1398 4047 
Q 1172 3844 1172 3481 
z
" transform="scale(0.015625)"/>
       </defs>
       <use xlink:href="#DejaVuSans-30"/>
       <use xlink:href="#DejaVuSans-2e" x="63.623047"/>
       <use xlink:href="#DejaVuSans-38" x="95.410156"/>
      </g>
     </g>
    </g>
    <g id="ytick_6">
     <g id="line2d_12">
      <g>
       <use xlink:href="#m42273c7e45" x="180" y="98.226584" style="stroke: #000000; stroke-width: 0.8"/>
      </g>
     </g>
     <g id="text_13">
      <!-- 1.0 -->
      <g transform="translate(157.096875 102.025803)scale(0.1 -0.1)">
       <use xlink:href="#DejaVuSans-31"/>
       <use xlink:href="#DejaVuSans-2e" x="63.623047"/>
       <use xlink:href="#DejaVuSans-30" x="95.410156"/>
      </g>
     </g>
    </g>
    <g id="text_14">
     <!-- F1 score value -->
     <g transform="translate(151.017188 399.925781)rotate(-90)scale(0.1 -0.1)">
      <defs>
       <path id="DejaVuSans-46" d="M 628 4666 
L 3309 4666 
L 3309 4134 
L 1259 4134 
L 1259 2759 
L 3109 2759 
L 3109 2228 
L 1259 2228 
L 1259 0 
L 628 0 
L 628 4666 
z
" transform="scale(0.015625)"/>
       <path id="DejaVuSans-73" d="M 2834 3397 
L 2834 2853 
Q 2591 2978 2328 3040 
Q 2066 3103 1784 3103 
Q 1356 3103 1142 2972 
Q 928 2841 928 2578 
Q 928 2378 1081 2264 
Q 1234 2150 1697 2047 
L 1894 2003 
Q 2506 1872 2764 1633 
Q 3022 1394 3022 966 
Q 3022 478 2636 193 
Q 2250 -91 1575 -91 
Q 1294 -91 989 -36 
Q 684 19 347 128 
L 347 722 
Q 666 556 975 473 
Q 1284 391 1588 391 
Q 1994 391 2212 530 
Q 2431 669 2431 922 
Q 2431 1156 2273 1281 
Q 2116 1406 1581 1522 
L 1381 1569 
Q 847 1681 609 1914 
Q 372 2147 372 2553 
Q 372 3047 722 3315 
Q 1072 3584 1716 3584 
Q 2034 3584 2315 3537 
Q 2597 3491 2834 3397 
z
" transform="scale(0.015625)"/>
       <path id="DejaVuSans-72" d="M 2631 2963 
Q 2534 3019 2420 3045 
Q 2306 3072 2169 3072 
Q 1681 3072 1420 2755 
Q 1159 2438 1159 1844 
L 1159 0 
L 581 0 
L 581 3500 
L 1159 3500 
L 1159 2956 
Q 1341 3275 1631 3429 
Q 1922 3584 2338 3584 
Q 2397 3584 2469 3576 
Q 2541 3569 2628 3553 
L 2631 2963 
z
" transform="scale(0.015625)"/>
       <path id="DejaVuSans-76" d="M 191 3500 
L 800 3500 
L 1894 563 
L 2988 3500 
L 3597 3500 
L 2284 0 
L 1503 0 
L 191 3500 
z
" transform="scale(0.015625)"/>
       <path id="DejaVuSans-61" d="M 2194 1759 
Q 1497 1759 1228 1600 
Q 959 1441 959 1056 
Q 959 750 1161 570 
Q 1363 391 1709 391 
Q 2188 391 2477 730 
Q 2766 1069 2766 1631 
L 2766 1759 
L 2194 1759 
z
M 3341 1997 
L 3341 0 
L 2766 0 
L 2766 531 
Q 2569 213 2275 61 
Q 1981 -91 1556 -91 
Q 1019 -91 701 211 
Q 384 513 384 1019 
Q 384 1609 779 1909 
Q 1175 2209 1959 2209 
L 2766 2209 
L 2766 2266 
Q 2766 2663 2505 2880 
Q 2244 3097 1772 3097 
Q 1472 3097 1187 3025 
Q 903 2953 641 2809 
L 641 3341 
Q 956 3463 1253 3523 
Q 1550 3584 1831 3584 
Q 2591 3584 2966 3190 
Q 3341 2797 3341 1997 
z
" transform="scale(0.015625)"/>
       <path id="DejaVuSans-6c" d="M 603 4863 
L 1178 4863 
L 1178 0 
L 603 0 
L 603 4863 
z
" transform="scale(0.015625)"/>
       <path id="DejaVuSans-75" d="M 544 1381 
L 544 3500 
L 1119 3500 
L 1119 1403 
Q 1119 906 1312 657 
Q 1506 409 1894 409 
Q 2359 409 2629 706 
Q 2900 1003 2900 1516 
L 2900 3500 
L 3475 3500 
L 3475 0 
L 2900 0 
L 2900 538 
Q 2691 219 2414 64 
Q 2138 -91 1772 -91 
Q 1169 -91 856 284 
Q 544 659 544 1381 
z
M 1991 3584 
L 1991 3584 
z
" transform="scale(0.015625)"/>
      </defs>
      <use xlink:href="#DejaVuSans-46"/>
      <use xlink:href="#DejaVuSans-31" x="57.519531"/>
      <use xlink:href="#DejaVuSans-20" x="121.142578"/>
      <use xlink:href="#DejaVuSans-73" x="152.929688"/>
      <use xlink:href="#DejaVuSans-63" x="205.029297"/>
      <use xlink:href="#DejaVuSans-6f" x="260.009766"/>
      <use xlink:href="#DejaVuSans-72" x="321.191406"/>
      <use xlink:href="#DejaVuSans-65" x="360.054688"/>
      <use xlink:href="#DejaVuSans-20" x="421.578125"/>
      <use xlink:href="#DejaVuSans-76" x="453.365234"/>
      <use xlink:href="#DejaVuSans-61" x="512.544922"/>
      <use xlink:href="#DejaVuSans-6c" x="573.824219"/>
      <use xlink:href="#DejaVuSans-75" x="601.607422"/>
      <use xlink:href="#DejaVuSans-65" x="664.986328"/>
     </g>
    </g>
   </g>
   <g id="line2d_13">
    <path d="M 230.727273 306.097065 
L 232.76043 258.97092 
L 234.793587 241.822782 
L 236.826744 354.428211 
L 238.859902 307.571981 
L 240.893059 281.526619 
L 242.926216 283.185103 
L 244.959373 281.965762 
L 246.992531 267.167325 
L 249.025688 260.060491 
L 251.058845 246.747253 
L 253.092002 349.903394 
L 255.125159 320.041282 
L 257.158317 292.950824 
L 259.191474 280.126096 
L 261.224631 278.713123 
L 263.257788 263.719598 
L 265.290946 258.106542 
L 267.324103 262.387459 
L 269.35726 330.171226 
L 271.390417 295.344318 
L 273.423574 281.843239 
L 275.456732 272.212088 
L 277.489889 266.975643 
L 279.523046 256.149805 
L 281.556203 268.515228 
L 283.589361 252.304622 
L 285.622518 256.22937 
L 287.655675 262.147029 
L 289.688832 258.081641 
L 291.721989 267.539352 
L 293.755147 252.639144 
L 295.788304 251.131677 
L 297.821461 256.249997 
L 299.854618 263.732915 
L 301.887776 253.553293 
L 303.920933 255.514118 
L 305.95409 242.115523 
L 307.987247 251.15252 
L 310.020404 250.362225 
L 312.053562 250.099341 
L 314.086719 254.960382 
L 316.119876 250.045389 
L 318.153033 245.808357 
L 320.186191 248.322051 
L 322.219348 251.545082 
L 324.252505 242.175081 
L 326.285662 254.966886 
L 328.318819 247.599862 
L 330.351977 239.066521 
L 332.385134 249.187824 
L 334.418291 253.596467 
L 336.451448 246.751434 
L 338.484606 245.055909 
L 340.517763 245.592921 
L 342.55092 242.633209 
L 344.584077 240.673406 
L 346.617234 239.482899 
L 348.650392 237.944337 
L 350.683549 239.397139 
L 352.716706 230.514844 
L 354.749863 239.541961 
L 356.783021 238.119015 
L 358.816178 239.432292 
L 360.849335 233.533587 
L 362.882492 232.034947 
L 364.915649 237.660794 
L 366.948807 243.670221 
L 368.981964 244.088427 
L 371.015121 244.351962 
L 373.048278 245.507316 
L 375.081436 234.768785 
L 377.114593 230.712534 
L 381.180907 230.789436 
L 383.214064 253.876014 
L 385.247222 246.853268 
L 387.280379 245.205346 
L 389.313536 234.671412 
L 391.346693 236.359689 
L 393.379851 236.913797 
L 395.413008 234.157938 
L 397.446165 240.594645 
L 399.479322 239.050663 
L 401.51248 238.850341 
L 403.545637 231.835678 
L 405.578794 236.912125 
L 407.611951 236.407292 
L 409.645108 239.040102 
L 411.678266 244.903902 
L 413.711423 231.826882 
L 415.74458 234.640316 
L 417.777737 234.33113 
L 419.810895 237.07237 
L 421.844052 234.556136 
L 423.877209 234.866717 
L 425.910366 242.10617 
L 427.943523 234.411779 
L 429.976681 234.746486 
L 432.009838 240.819466 
L 434.042995 240.110006 
L 436.076152 235.11489 
L 438.10931 234.774453 
L 440.142467 232.731926 
L 442.175624 244.28813 
L 444.208781 241.262697 
L 446.241938 239.218807 
L 448.275096 235.148835 
L 450.308253 231.665986 
L 452.34141 233.296347 
L 454.374567 227.221602 
L 456.407725 230.076569 
L 458.440882 242.33065 
L 460.474039 227.668889 
L 462.507196 241.498729 
L 464.540353 228.589388 
L 466.573511 240.878529 
L 468.606668 237.19034 
L 470.639825 235.253951 
L 472.672982 236.836617 
L 474.70614 234.317255 
L 476.739297 235.228988 
L 478.772454 230.781383 
L 480.805611 227.498299 
L 482.838768 237.338445 
L 484.871926 240.917088 
L 486.905083 257.40786 
L 488.93824 261.091186 
L 490.971397 248.835091 
L 493.004555 235.13211 
L 495.037712 232.720528 
L 497.070869 238.09749 
L 499.104026 230.612465 
L 501.137183 235.82435 
L 503.170341 230.084683 
L 505.203498 229.156721 
L 507.236655 254.021951 
L 509.269812 247.406168 
L 511.30297 246.822451 
L 513.336127 248.707737 
L 515.369284 230.856736 
L 517.402441 229.444599 
L 519.435598 233.099896 
L 521.468756 231.869498 
L 523.501913 232.944203 
L 525.53507 225.216054 
L 527.568227 229.46185 
L 529.601385 248.372906 
L 531.634542 255.256282 
L 533.667699 241.288651 
L 535.700856 235.470967 
L 537.734013 234.739672 
L 539.767171 222.614866 
L 541.800328 230.357014 
L 543.833485 232.716037 
L 545.866642 222.725898 
L 547.8998 225.609916 
L 549.932957 231.555573 
L 551.966114 223.457905 
L 553.999271 263.02711 
L 556.032428 240.638036 
L 558.065586 245.220243 
L 560.098743 239.06491 
L 562.1319 237.330299 
L 564.165057 233.956129 
L 566.198215 221.349254 
L 568.231372 220.70536 
L 570.264529 240.011982 
L 572.297686 240.31739 
L 574.330844 224.883205 
L 576.364001 226.645969 
L 578.397158 231.300555 
L 580.430315 224.237019 
L 582.463472 230.389658 
L 584.49663 219.63688 
L 586.529787 221.201025 
L 588.562944 230.233005 
L 590.596101 229.740127 
L 592.629259 228.50815 
L 594.662416 227.027257 
L 596.695573 220.387966 
L 598.72873 225.138347 
L 600.761887 224.330924 
L 602.795045 222.178108 
L 604.828202 243.195493 
L 606.861359 240.574731 
L 608.894516 238.835939 
L 610.927674 244.010286 
L 612.960831 226.490152 
L 614.993988 226.005079 
L 617.027145 233.246452 
L 619.060302 226.204472 
L 621.09346 227.926385 
L 623.126617 224.444156 
L 625.159774 221.587423 
L 627.192931 223.809058 
L 629.226089 232.877863 
L 631.259246 234.262528 
L 633.292403 235.040652 
L 635.32556 250.231743 
L 637.358717 239.967259 
L 639.391875 240.183068 
L 641.425032 242.989348 
L 643.458189 229.354782 
L 645.491346 231.915336 
L 647.524504 235.243452 
L 649.557661 224.073305 
L 651.590818 227.307981 
L 653.623975 225.942703 
L 655.657132 233.382633 
L 657.69029 221.181978 
L 659.723447 225.894914 
L 661.756604 216.960308 
L 663.789761 225.363322 
L 665.822919 223.151661 
L 667.856076 224.359573 
L 669.889233 224.155224 
L 671.92239 227.606978 
L 673.955547 229.680136 
L 675.988705 222.260399 
L 678.021862 222.698643 
L 680.055019 225.153647 
L 682.088176 220.860836 
L 684.121334 226.852392 
L 686.154491 224.327951 
L 688.187648 231.170816 
L 690.220805 228.881881 
L 692.253962 224.910057 
L 694.28712 221.435137 
L 696.320277 219.563509 
L 698.353434 230.358748 
L 700.386591 224.768921 
L 702.419749 223.690685 
L 704.452906 223.734231 
L 706.486063 222.897045 
L 708.51922 223.460878 
L 710.552377 223.651909 
L 712.585535 228.38315 
L 714.618692 225.223982 
L 716.651849 226.838982 
L 718.685006 225.226553 
L 720.718164 225.331019 
L 722.751321 224.100467 
L 724.784478 226.494054 
L 726.817635 236.003147 
L 728.850792 228.18196 
L 730.88395 224.052771 
L 732.917107 225.889897 
L 734.950264 220.211367 
L 736.983421 221.749713 
L 739.016579 236.308463 
L 741.049736 225.630853 
L 743.082893 222.529044 
L 745.11605 221.15401 
L 747.149208 227.53785 
L 749.182365 223.76607 
L 751.215522 227.876366 
L 753.248679 217.033648 
L 755.281836 218.77628 
L 757.314994 220.319798 
L 759.348151 220.711275 
L 761.381308 218.074904 
L 763.414465 221.415563 
L 765.447623 219.686992 
L 767.48078 226.944904 
L 769.513937 219.264388 
L 771.547094 235.200526 
L 773.580251 227.723027 
L 775.613409 222.907018 
L 777.646566 225.42254 
L 779.679723 227.495047 
L 781.71288 226.337959 
L 783.746038 225.71751 
L 785.779195 225.792709 
L 787.812352 224.697408 
L 789.845509 229.633307 
L 791.878666 225.200444 
L 793.911824 224.039237 
L 795.944981 213.985389 
L 797.978138 215.264164 
L 800.011295 219.695509 
L 802.044453 219.880005 
L 804.07761 219.278202 
L 806.110767 230.955721 
L 808.143924 214.956247 
L 810.177081 221.900543 
L 812.210239 222.813082 
L 814.243396 217.622103 
L 816.276553 219.459817 
L 818.30971 218.138519 
L 820.342868 222.203721 
L 822.376025 233.279096 
L 824.409182 233.428037 
L 826.442339 219.693558 
L 828.475496 221.601205 
L 830.508654 231.981862 
L 832.541811 218.175313 
L 834.574968 227.979748 
L 836.608125 222.867839 
L 838.641283 220.716572 
L 840.67444 225.905723 
L 842.707597 223.113721 
L 844.740754 224.898938 
L 846.773911 217.925034 
L 848.807069 218.269713 
L 850.840226 214.038009 
L 852.873383 216.885234 
L 854.90654 216.427818 
L 856.939698 222.640045 
L 858.972855 216.651927 
L 861.006012 221.819089 
L 863.039169 226.225378 
L 865.072326 215.58004 
L 867.105484 219.930581 
L 869.138641 216.569853 
L 873.204955 224.859543 
L 875.238113 222.191766 
L 877.27127 229.354163 
L 879.304427 217.873157 
L 881.337584 216.898087 
L 883.370741 223.030036 
L 887.437056 219.64676 
L 889.470213 224.04667 
L 891.50337 220.098539 
L 893.536528 219.412153 
L 895.569685 215.148765 
L 897.602842 213.552658 
L 899.635999 216.351195 
L 901.669156 216.9945 
L 903.702314 224.666623 
L 905.735471 221.981564 
L 907.768628 220.353123 
L 909.801785 228.676727 
L 911.834943 227.177405 
L 913.8681 214.582578 
L 915.901257 214.735483 
L 917.934414 224.173342 
L 919.967572 218.161376 
L 922.000729 217.270641 
L 924.033886 217.006455 
L 926.067043 222.48045 
L 928.1002 220.94483 
L 930.133358 226.353909 
L 932.166515 218.096057 
L 934.199672 214.000968 
L 936.232829 218.909271 
L 938.265987 216.635295 
L 940.299144 219.072459 
L 942.332301 225.845608 
L 944.365458 231.438223 
L 946.398615 222.972522 
L 948.431773 224.058067 
L 950.46493 222.07454 
L 952.498087 219.149392 
L 954.531244 234.39524 
L 956.564402 222.097273 
L 958.597559 227.016479 
L 960.630716 223.992903 
L 962.663873 225.023598 
L 964.69703 220.072182 
L 966.730188 222.486644 
L 968.763345 222.111706 
L 970.796502 213.959187 
L 972.829659 222.555339 
L 974.862817 217.556537 
L 976.895974 217.835527 
L 978.929131 219.639854 
L 980.962288 215.364046 
L 982.995445 222.463075 
L 985.028603 219.578778 
L 987.06176 224.78038 
L 989.094917 220.40723 
L 991.128074 219.727564 
L 993.161232 221.370562 
L 995.194389 215.351658 
L 997.227546 216.472727 
L 999.260703 217.163387 
L 1001.29386 218.225703 
L 1003.327018 220.540004 
L 1005.360175 218.366716 
L 1007.393332 217.379938 
L 1009.426489 217.5308 
L 1011.459647 222.637444 
L 1013.492804 218.599062 
L 1015.525961 218.611792 
L 1017.559118 228.239722 
L 1019.592275 226.902845 
L 1021.625433 219.469976 
L 1023.65859 220.0702 
L 1025.691747 218.892082 
L 1027.724904 217.128947 
L 1029.758062 221.85486 
L 1031.791219 221.146918 
L 1033.824376 216.518347 
L 1035.857533 216.918714 
L 1037.89069 211.683755 
L 1041.957005 215.809785 
L 1043.990162 212.791135 
L 1046.023319 224.209052 
L 1048.056477 230.885323 
L 1050.089634 228.813806 
L 1052.122791 220.811623 
L 1054.155948 216.391675 
L 1056.189105 215.9381 
L 1058.222263 220.021792 
L 1060.25542 227.526019 
L 1062.288577 218.081501 
L 1064.321734 219.830606 
L 1066.354892 222.023406 
L 1068.388049 220.416955 
L 1070.421206 218.594943 
L 1072.454363 222.38289 
L 1074.48752 220.292295 
L 1076.520678 220.296012 
L 1078.553835 214.139378 
L 1080.586992 223.119388 
L 1082.620149 219.953872 
L 1084.653307 228.980587 
L 1086.686464 226.551289 
L 1088.719621 225.774312 
L 1090.752778 216.478147 
L 1092.785936 224.397296 
L 1094.819093 213.57474 
L 1096.85225 216.21105 
L 1098.885407 216.288881 
L 1100.918564 217.615228 
L 1102.951722 224.732746 
L 1104.984879 221.191269 
L 1107.018036 219.504354 
L 1109.051193 216.780365 
L 1111.084351 218.856403 
L 1113.117508 221.160948 
L 1115.150665 216.773117 
L 1117.183822 213.909695 
L 1119.216979 223.411169 
L 1121.250137 210.737953 
L 1123.283294 222.083243 
L 1125.316451 243.806433 
L 1127.349608 230.483842 
L 1129.382766 219.058026 
L 1131.415923 214.478236 
L 1133.44908 217.9836 
L 1135.482237 216.72728 
L 1137.515394 217.815147 
L 1139.548552 215.386005 
L 1141.581709 233.529561 
L 1143.614866 244.354471 
L 1145.648023 235.537184 
L 1147.681181 229.03714 
L 1149.714338 226.094307 
L 1151.747495 212.570371 
L 1153.780652 213.23548 
L 1155.813809 220.301184 
L 1157.846967 214.120981 
L 1159.880124 216.86408 
L 1161.913281 214.672519 
L 1163.946438 219.622881 
L 1165.979596 223.795926 
L 1168.012753 221.408811 
L 1170.04591 223.590586 
L 1172.079067 212.973122 
L 1174.112224 215.359493 
L 1176.145382 219.396512 
L 1178.178539 218.95325 
L 1180.211696 239.544842 
L 1182.244853 229.276394 
L 1184.278011 220.935694 
L 1186.311168 222.631683 
L 1188.344325 224.588389 
L 1190.377482 222.602539 
L 1192.410639 221.535484 
L 1194.443797 219.764978 
L 1196.476954 220.061931 
L 1198.510111 218.881242 
L 1200.543268 220.010921 
L 1202.576426 223.223793 
L 1204.609583 234.657846 
L 1206.64274 233.315301 
L 1208.675897 229.839297 
L 1210.709054 223.328724 
L 1212.742212 230.679642 
L 1214.775369 225.355703 
L 1216.808526 246.049438 
L 1218.841683 232.078895 
L 1220.874841 216.292814 
L 1222.907998 220.584696 
L 1224.941155 225.907241 
L 1226.974312 219.983016 
L 1229.007469 224.219706 
L 1231.040627 222.855761 
L 1233.073784 222.831138 
L 1235.106941 214.868691 
L 1237.140098 214.624358 
L 1239.173256 215.061209 
L 1241.206413 215.030609 
L 1243.23957 230.15282 
L 1245.272727 234.487442 
L 1245.272727 234.487442 
" clip-path="url(#p00f187b1bb)" style="fill: none; stroke: #1f77b4; stroke-width: 1.5; stroke-linecap: square"/>
   </g>
   <g id="line2d_14">
    <path d="M 230.727273 482.359595 
L 232.76043 302.118582 
L 234.793587 451.959682 
L 236.826744 342.403132 
L 238.859902 268.449011 
L 240.893059 208.033321 
L 242.926216 316.228248 
L 244.959373 279.488954 
L 246.992531 279.882445 
L 249.025688 302.134378 
L 251.058845 343.393594 
L 253.092002 361.564266 
L 255.125159 179.397239 
L 257.158317 323.986563 
L 259.191474 428.967271 
L 261.224631 391.948028 
L 263.257788 325.798447 
L 265.290946 371.083425 
L 267.324103 232.25249 
L 269.35726 370.281686 
L 271.390417 306.172263 
L 273.423574 354.248949 
L 275.456732 324.578921 
L 277.489889 606.113134 
L 279.523046 587.609092 
L 281.556203 262.578614 
L 283.589361 291.563247 
L 287.655675 381.663429 
L 289.688832 546.726475 
L 291.721989 290.398354 
L 293.755147 336.928332 
L 295.788304 390.299951 
L 297.821461 117.228666 
L 299.854618 289.774901 
L 301.887776 115.767841 
L 303.920933 279.646908 
L 305.95409 302.042795 
L 307.987247 606.017801 
L 310.020404 236.626724 
L 312.053562 384.049567 
L 314.086719 289.013285 
L 318.153033 244.296771 
L 320.186191 150.037327 
L 322.219348 281.742242 
L 324.252505 220.158654 
L 326.285662 600.250154 
L 328.318819 491.658324 
L 330.351977 345.541332 
L 332.385134 478.985456 
L 334.418291 250.587634 
L 336.451448 418.877698 
L 338.484606 294.438996 
L 340.517763 601.730032 
L 342.55092 527.342502 
L 344.584077 140.389513 
L 346.617234 329.498622 
L 348.650392 159.664483 
L 350.683549 215.787331 
L 352.716706 290.034874 
L 354.749863 430.223669 
L 358.816178 211.06882 
L 360.849335 300.625796 
L 362.882492 316.264949 
L 364.915649 198.564552 
L 366.948807 520.344555 
L 368.981964 305.380729 
L 371.015121 140.636727 
L 373.048278 333.760151 
L 375.081436 158.024582 
L 377.114593 230.231456 
L 379.14775 262.724334 
L 381.180907 195.540451 
L 383.214064 586.397422 
L 385.247222 603.798728 
L 387.280379 572.726684 
L 389.313536 296.799103 
L 391.346693 111.6 
L 393.379851 253.733949 
L 395.413008 292.39492 
L 397.446165 250.302358 
L 399.479322 590.907522 
L 401.51248 556.697168 
L 403.545637 544.536733 
L 405.578794 353.733431 
L 407.611951 206.480078 
L 409.645108 282.76764 
L 411.678266 297.307374 
L 413.711423 488.511901 
L 415.74458 213.817246 
L 417.777737 232.664532 
L 419.810895 249.405428 
L 421.844052 278.394087 
L 423.877209 274.65684 
L 425.910366 586.519854 
L 427.943523 211.499445 
L 429.976681 596.915098 
L 432.009838 264.991961 
L 434.042995 428.433698 
L 436.076152 207.836157 
L 438.10931 319.976118 
L 440.142467 285.734445 
L 442.175624 215.997565 
L 444.208781 561.774645 
L 446.241938 393.125759 
L 448.275096 275.794045 
L 450.308253 237.183062 
L 452.34141 274.576872 
L 454.374567 281.426489 
L 456.407725 308.966217 
L 458.440882 541.317721 
L 460.474039 398.448196 
L 462.507196 511.74684 
L 464.540353 317.629328 
L 466.573511 308.493347 
L 468.606668 541.78497 
L 470.639825 600.650532 
L 472.672982 122.096056 
L 474.70614 299.758444 
L 476.739297 615.6 
L 478.772454 524.011374 
L 482.838768 389.135228 
L 484.871926 378.393694 
L 486.905083 406.574791 
L 488.93824 221.678819 
L 490.971397 567.745799 
L 493.004555 585.87441 
L 495.037712 554.75342 
L 497.070869 425.787152 
L 499.104026 269.07841 
L 501.137183 322.446081 
L 503.170341 283.225334 
L 505.203498 253.062491 
L 507.236655 159.883202 
L 509.269812 508.884409 
L 511.30297 557.904101 
L 513.336127 224.485626 
L 515.369284 288.128683 
L 517.402441 133.253691 
L 519.435598 554.105167 
L 521.468756 150.250812 
L 523.501913 141.411908 
L 525.53507 475.582637 
L 527.568227 518.357072 
L 529.601385 498.039228 
L 531.634542 532.272764 
L 533.667699 605.039702 
L 535.700856 573.8892 
L 537.734013 120.725173 
L 539.767171 202.121361 
L 541.800328 301.687647 
L 543.833485 289.440782 
L 545.866642 528.565102 
L 547.8998 303.593003 
L 549.932957 520.258602 
L 551.966114 149.161582 
L 553.999271 489.472639 
L 556.032428 606.620859 
L 558.065586 485.753138 
L 560.098743 273.435858 
L 562.1319 292.025463 
L 564.165057 378.059203 
L 566.198215 231.809786 
L 568.231372 298.308181 
L 570.264529 336.618742 
L 572.297686 606.750298 
L 574.330844 255.985409 
L 576.364001 200.898458 
L 578.397158 435.781627 
L 580.430315 426.493174 
L 582.463472 129.686476 
L 584.49663 152.333262 
L 586.529787 606.486374 
L 588.562944 306.548441 
L 590.596101 437.934119 
L 592.629259 599.761074 
L 594.662416 389.104582 
L 596.695573 490.746365 
L 598.72873 360.501377 
L 600.761887 275.599917 
L 602.795045 490.363173 
L 604.828202 332.783905 
L 606.861359 256.873852 
L 608.894516 221.028824 
L 610.927674 531.312003 
L 612.960831 302.818503 
L 614.993988 331.197739 
L 617.027145 609.138471 
L 619.060302 370.191838 
L 621.09346 589.919049 
L 623.126617 370.874709 
L 625.159774 602.619923 
L 627.192931 270.971315 
L 629.226089 283.251908 
L 631.259246 293.356951 
L 633.292403 604.064106 
L 635.32556 609.371027 
L 637.358717 279.293804 
L 639.391875 583.675657 
L 641.425032 126.751665 
L 643.458189 303.055403 
L 645.491346 606.910752 
L 647.524504 212.239474 
L 649.557661 444.412869 
L 651.590818 129.902718 
L 653.623975 243.890334 
L 655.657132 230.567123 
L 657.69029 279.052445 
L 659.723447 503.561027 
L 661.756604 501.369148 
L 663.789761 281.714368 
L 665.822919 285.280839 
L 667.856076 129.975624 
L 669.889233 314.132295 
L 671.92239 267.108603 
L 673.955547 390.869436 
L 675.988705 270.903457 
L 678.021862 221.401502 
L 680.055019 118.022027 
L 682.088176 342.903876 
L 684.121334 154.462045 
L 686.154491 568.352183 
L 688.187648 144.437031 
L 690.220805 161.144169 
L 692.253962 399.169115 
L 694.28712 125.289509 
L 696.320277 513.592467 
L 698.353434 454.820673 
L 700.386591 243.084213 
L 702.419749 287.001079 
L 704.452906 614.866913 
L 706.486063 188.664818 
L 708.51922 288.991451 
L 710.552377 288.114653 
L 712.585535 217.657596 
L 714.618692 581.979199 
L 716.651849 602.863984 
L 718.685006 183.924286 
L 720.718164 538.763354 
L 722.751321 279.743817 
L 724.784478 116.091708 
L 726.817635 376.029281 
L 728.850792 304.089659 
L 730.88395 314.052761 
L 732.917107 302.836807 
L 734.950264 599.337272 
L 736.983421 479.292134 
L 739.016579 443.663054 
L 741.049736 146.275891 
L 743.082893 504.618992 
L 745.11605 394.964449 
L 747.149208 151.739294 
L 749.182365 259.533142 
L 751.215522 253.128336 
L 753.248679 434.626413 
L 755.281836 268.814565 
L 757.314994 322.556122 
L 759.348151 383.034235 
L 761.381308 295.036216 
L 763.414465 263.047706 
L 765.447623 341.987558 
L 767.48078 237.213692 
L 769.513937 571.913807 
L 771.547094 605.615137 
L 773.580251 304.954967 
L 775.613409 162.579008 
L 777.646566 523.865119 
L 779.679723 245.175613 
L 781.71288 614.134191 
L 783.746038 600.16536 
L 785.779195 338.983836 
L 787.812352 389.266934 
L 789.845509 312.244283 
L 791.878666 171.715082 
L 793.911824 452.572651 
L 795.944981 149.040175 
L 797.978138 223.751482 
L 800.011295 141.934549 
L 802.044453 139.609563 
L 804.07761 615.175389 
L 806.110767 597.354965 
L 808.143924 245.945498 
L 810.177081 606.710266 
L 812.210239 237.413303 
L 814.243396 117.133243 
L 816.276553 596.04534 
L 818.30971 326.794361 
L 820.342868 606.113134 
L 822.376025 473.475813 
L 824.409182 145.762418 
L 826.442339 294.185 
L 828.475496 597.680185 
L 830.508654 422.555883 
L 832.541811 605.554096 
L 834.574968 537.055433 
L 836.608125 296.523149 
L 838.641283 126.52288 
L 840.67444 356.407216 
L 842.707597 603.311472 
L 844.740754 257.902874 
L 846.773911 600.802618 
L 848.807069 154.374148 
L 850.840226 415.222649 
L 852.873383 222.710412 
L 854.90654 422.787161 
L 856.939698 164.012546 
L 858.972855 439.606942 
L 861.006012 329.191015 
L 863.039169 151.761531 
L 865.072326 401.542974 
L 867.105484 502.080405 
L 869.138641 292.687103 
L 871.171798 381.151333 
L 873.204955 312.371978 
L 875.238113 292.631448 
L 877.27127 483.056946 
L 879.304427 247.42825 
L 881.337584 239.175478 
L 883.370741 275.943234 
L 885.403899 443.160219 
L 887.437056 513.972392 
L 889.470213 557.61414 
L 891.50337 120.760821 
L 893.536528 163.55925 
L 895.569685 457.442968 
L 897.602842 259.281717 
L 899.635999 254.035609 
L 901.669156 309.747623 
L 903.702314 574.551805 
L 905.735471 142.2053 
L 907.768628 285.518203 
L 909.801785 505.911812 
L 911.834943 189.291244 
L 913.8681 217.455663 
L 915.901257 584.166932 
L 917.934414 479.477668 
L 919.967572 360.855813 
L 922.000729 270.041092 
L 924.033886 562.794105 
L 926.067043 141.228093 
L 928.1002 349.561749 
L 930.133358 202.797124 
L 932.166515 603.44909 
L 934.199672 370.075463 
L 936.232829 323.431588 
L 938.265987 259.515055 
L 940.299144 288.289362 
L 942.332301 173.47097 
L 944.365458 338.062873 
L 946.398615 233.353396 
L 948.431773 519.031875 
L 950.46493 489.933763 
L 952.498087 421.201198 
L 954.531244 146.134136 
L 956.564402 420.849983 
L 958.597559 132.627172 
L 960.630716 460.54569 
L 962.663873 520.141678 
L 964.69703 331.923304 
L 966.730188 420.561888 
L 968.763345 158.613409 
L 970.796502 585.400525 
L 972.829659 586.489066 
L 974.862817 324.829541 
L 976.895974 245.221513 
L 978.929131 329.15323 
L 980.962288 177.275208 
L 982.995445 469.317341 
L 985.028603 292.527911 
L 987.06176 401.00158 
L 989.094917 244.018804 
L 991.128074 602.654374 
L 993.161232 339.098771 
L 995.194389 357.675708 
L 997.227546 303.835911 
L 999.260703 331.968337 
L 1001.29386 272.616852 
L 1003.327018 293.553712 
L 1005.360175 160.096006 
L 1007.393332 595.160484 
L 1009.426489 389.631219 
L 1011.459647 157.367712 
L 1013.492804 264.421563 
L 1015.525961 319.264862 
L 1017.559118 563.549452 
L 1019.592275 161.50802 
L 1021.625433 415.386178 
L 1023.65859 216.939062 
L 1025.691747 194.662321 
L 1027.724904 420.877362 
L 1029.758062 512.339538 
L 1031.791219 179.363914 
L 1033.824376 273.897485 
L 1035.857533 135.455473 
L 1037.89069 506.217066 
L 1039.923848 603.797392 
L 1041.957005 310.647991 
L 1043.990162 282.93058 
L 1046.023319 426.777413 
L 1048.056477 539.277919 
L 1050.089634 271.430744 
L 1052.122791 275.810677 
L 1054.155948 289.682049 
L 1056.189105 523.397964 
L 1058.222263 481.797667 
L 1060.25542 170.10064 
L 1062.288577 586.267701 
L 1064.321734 123.243791 
L 1066.354892 401.335481 
L 1068.388049 574.410757 
L 1070.421206 290.371006 
L 1072.454363 494.416126 
L 1074.48752 217.497722 
L 1076.520678 527.974317 
L 1078.553835 182.695592 
L 1080.586992 485.513962 
L 1082.620149 481.456208 
L 1084.653307 225.567981 
L 1086.686464 295.709223 
L 1088.719621 268.195294 
L 1090.752778 270.829962 
L 1092.785936 152.086142 
L 1094.819093 269.695235 
L 1096.85225 584.446862 
L 1098.885407 242.851247 
L 1100.918564 250.595842 
L 1102.951722 504.696521 
L 1104.984879 362.123763 
L 1107.018036 530.667567 
L 1109.051193 482.417698 
L 1111.084351 231.732791 
L 1113.117508 271.778552 
L 1115.150665 172.858667 
L 1117.183822 419.523667 
L 1119.216979 400.607965 
L 1121.250137 217.28018 
L 1123.283294 608.933751 
L 1125.316451 224.883886 
L 1127.349608 314.667231 
L 1129.382766 352.406093 
L 1131.415923 217.792755 
L 1133.44908 360.113755 
L 1135.482237 167.536618 
L 1137.515394 486.219024 
L 1139.548552 531.748427 
L 1141.581709 535.499766 
L 1143.614866 500.532706 
L 1145.648023 149.161582 
L 1147.681181 358.052722 
L 1149.714338 307.902848 
L 1151.747495 577.555751 
L 1153.780652 144.33433 
L 1155.813809 387.414632 
L 1157.846967 497.561418 
L 1159.880124 256.875432 
L 1161.913281 305.746284 
L 1163.946438 594.696826 
L 1165.979596 123.062919 
L 1168.012753 499.498938 
L 1170.04591 311.227774 
L 1172.079067 214.015152 
L 1174.112224 414.284234 
L 1176.145382 285.450004 
L 1178.178539 379.123997 
L 1180.211696 387.872388 
L 1182.244853 405.952035 
L 1184.278011 528.228591 
L 1186.311168 246.871386 
L 1188.344325 461.428233 
L 1192.410639 584.51865 
L 1194.443797 603.689931 
L 1196.476954 148.163717 
L 1198.510111 334.256064 
L 1200.543268 272.895687 
L 1202.576426 174.635987 
L 1204.609583 307.265117 
L 1206.64274 451.664587 
L 1208.675897 224.909438 
L 1210.709054 550.782115 
L 1212.742212 382.885882 
L 1214.775369 524.097939 
L 1216.808526 140.28164 
L 1218.841683 336.76886 
L 1220.874841 251.972858 
L 1222.907998 600.109289 
L 1224.941155 252.839125 
L 1226.974312 517.11043 
L 1229.007469 152.715138 
L 1231.040627 139.739364 
L 1233.073784 258.334738 
L 1235.106941 601.061527 
L 1237.140098 368.233599 
L 1239.173256 352.62091 
L 1241.206413 232.68838 
L 1245.272727 598.933702 
L 1245.272727 598.933702 
" clip-path="url(#p00f187b1bb)" style="fill: none; stroke: #ff7f0e; stroke-width: 1.5; stroke-linecap: square"/>
   </g>
   <g id="patch_3">
    <path d="M 180 640.8 
L 180 86.4 
" style="fill: none; stroke: #000000; stroke-width: 0.8; stroke-linejoin: miter; stroke-linecap: square"/>
   </g>
   <g id="patch_4">
    <path d="M 1296 640.8 
L 1296 86.4 
" style="fill: none; stroke: #000000; stroke-width: 0.8; stroke-linejoin: miter; stroke-linecap: square"/>
   </g>
   <g id="patch_5">
    <path d="M 180 640.8 
L 1296 640.8 
" style="fill: none; stroke: #000000; stroke-width: 0.8; stroke-linejoin: miter; stroke-linecap: square"/>
   </g>
   <g id="patch_6">
    <path d="M 180 86.4 
L 1296 86.4 
" style="fill: none; stroke: #000000; stroke-width: 0.8; stroke-linejoin: miter; stroke-linecap: square"/>
   </g>
   <g id="text_15">
    <!-- F1 score -->
    <g transform="translate(712.705312 80.4)scale(0.12 -0.12)">
     <use xlink:href="#DejaVuSans-46"/>
     <use xlink:href="#DejaVuSans-31" x="57.519531"/>
     <use xlink:href="#DejaVuSans-20" x="121.142578"/>
     <use xlink:href="#DejaVuSans-73" x="152.929688"/>
     <use xlink:href="#DejaVuSans-63" x="205.029297"/>
     <use xlink:href="#DejaVuSans-6f" x="260.009766"/>
     <use xlink:href="#DejaVuSans-72" x="321.191406"/>
     <use xlink:href="#DejaVuSans-65" x="360.054688"/>
    </g>
   </g>
   <g id="legend_1">
    <g id="patch_7">
     <path d="M 187 123.75625 
L 347.076563 123.75625 
Q 349.076563 123.75625 349.076563 121.75625 
L 349.076563 93.4 
Q 349.076563 91.4 347.076563 91.4 
L 187 91.4 
Q 185 91.4 185 93.4 
L 185 121.75625 
Q 185 123.75625 187 123.75625 
z
" style="fill: #ffffff; opacity: 0.8; stroke: #cccccc; stroke-linejoin: miter"/>
    </g>
    <g id="line2d_15">
     <path d="M 189 99.498437 
L 199 99.498437 
L 209 99.498437 
" style="fill: none; stroke: #1f77b4; stroke-width: 1.5; stroke-linecap: square"/>
    </g>
    <g id="text_16">
     <!-- F1 score (training data) -->
     <g transform="translate(217 102.998437)scale(0.1 -0.1)">
      <defs>
       <path id="DejaVuSans-28" d="M 1984 4856 
Q 1566 4138 1362 3434 
Q 1159 2731 1159 2009 
Q 1159 1288 1364 580 
Q 1569 -128 1984 -844 
L 1484 -844 
Q 1016 -109 783 600 
Q 550 1309 550 2009 
Q 550 2706 781 3412 
Q 1013 4119 1484 4856 
L 1984 4856 
z
" transform="scale(0.015625)"/>
       <path id="DejaVuSans-74" d="M 1172 4494 
L 1172 3500 
L 2356 3500 
L 2356 3053 
L 1172 3053 
L 1172 1153 
Q 1172 725 1289 603 
Q 1406 481 1766 481 
L 2356 481 
L 2356 0 
L 1766 0 
Q 1100 0 847 248 
Q 594 497 594 1153 
L 594 3053 
L 172 3053 
L 172 3500 
L 594 3500 
L 594 4494 
L 1172 4494 
z
" transform="scale(0.015625)"/>
       <path id="DejaVuSans-69" d="M 603 3500 
L 1178 3500 
L 1178 0 
L 603 0 
L 603 3500 
z
M 603 4863 
L 1178 4863 
L 1178 4134 
L 603 4134 
L 603 4863 
z
" transform="scale(0.015625)"/>
       <path id="DejaVuSans-6e" d="M 3513 2113 
L 3513 0 
L 2938 0 
L 2938 2094 
Q 2938 2591 2744 2837 
Q 2550 3084 2163 3084 
Q 1697 3084 1428 2787 
Q 1159 2491 1159 1978 
L 1159 0 
L 581 0 
L 581 3500 
L 1159 3500 
L 1159 2956 
Q 1366 3272 1645 3428 
Q 1925 3584 2291 3584 
Q 2894 3584 3203 3211 
Q 3513 2838 3513 2113 
z
" transform="scale(0.015625)"/>
       <path id="DejaVuSans-67" d="M 2906 1791 
Q 2906 2416 2648 2759 
Q 2391 3103 1925 3103 
Q 1463 3103 1205 2759 
Q 947 2416 947 1791 
Q 947 1169 1205 825 
Q 1463 481 1925 481 
Q 2391 481 2648 825 
Q 2906 1169 2906 1791 
z
M 3481 434 
Q 3481 -459 3084 -895 
Q 2688 -1331 1869 -1331 
Q 1566 -1331 1297 -1286 
Q 1028 -1241 775 -1147 
L 775 -588 
Q 1028 -725 1275 -790 
Q 1522 -856 1778 -856 
Q 2344 -856 2625 -561 
Q 2906 -266 2906 331 
L 2906 616 
Q 2728 306 2450 153 
Q 2172 0 1784 0 
Q 1141 0 747 490 
Q 353 981 353 1791 
Q 353 2603 747 3093 
Q 1141 3584 1784 3584 
Q 2172 3584 2450 3431 
Q 2728 3278 2906 2969 
L 2906 3500 
L 3481 3500 
L 3481 434 
z
" transform="scale(0.015625)"/>
       <path id="DejaVuSans-64" d="M 2906 2969 
L 2906 4863 
L 3481 4863 
L 3481 0 
L 2906 0 
L 2906 525 
Q 2725 213 2448 61 
Q 2172 -91 1784 -91 
Q 1150 -91 751 415 
Q 353 922 353 1747 
Q 353 2572 751 3078 
Q 1150 3584 1784 3584 
Q 2172 3584 2448 3432 
Q 2725 3281 2906 2969 
z
M 947 1747 
Q 947 1113 1208 752 
Q 1469 391 1925 391 
Q 2381 391 2643 752 
Q 2906 1113 2906 1747 
Q 2906 2381 2643 2742 
Q 2381 3103 1925 3103 
Q 1469 3103 1208 2742 
Q 947 2381 947 1747 
z
" transform="scale(0.015625)"/>
       <path id="DejaVuSans-29" d="M 513 4856 
L 1013 4856 
Q 1481 4119 1714 3412 
Q 1947 2706 1947 2009 
Q 1947 1309 1714 600 
Q 1481 -109 1013 -844 
L 513 -844 
Q 928 -128 1133 580 
Q 1338 1288 1338 2009 
Q 1338 2731 1133 3434 
Q 928 4138 513 4856 
z
" transform="scale(0.015625)"/>
      </defs>
      <use xlink:href="#DejaVuSans-46"/>
      <use xlink:href="#DejaVuSans-31" x="57.519531"/>
      <use xlink:href="#DejaVuSans-20" x="121.142578"/>
      <use xlink:href="#DejaVuSans-73" x="152.929688"/>
      <use xlink:href="#DejaVuSans-63" x="205.029297"/>
      <use xlink:href="#DejaVuSans-6f" x="260.009766"/>
      <use xlink:href="#DejaVuSans-72" x="321.191406"/>
      <use xlink:href="#DejaVuSans-65" x="360.054688"/>
      <use xlink:href="#DejaVuSans-20" x="421.578125"/>
      <use xlink:href="#DejaVuSans-28" x="453.365234"/>
      <use xlink:href="#DejaVuSans-74" x="492.378906"/>
      <use xlink:href="#DejaVuSans-72" x="531.587891"/>
      <use xlink:href="#DejaVuSans-61" x="572.701172"/>
      <use xlink:href="#DejaVuSans-69" x="633.980469"/>
      <use xlink:href="#DejaVuSans-6e" x="661.763672"/>
      <use xlink:href="#DejaVuSans-69" x="725.142578"/>
      <use xlink:href="#DejaVuSans-6e" x="752.925781"/>
      <use xlink:href="#DejaVuSans-67" x="816.304688"/>
      <use xlink:href="#DejaVuSans-20" x="879.78125"/>
      <use xlink:href="#DejaVuSans-64" x="911.568359"/>
      <use xlink:href="#DejaVuSans-61" x="975.044922"/>
      <use xlink:href="#DejaVuSans-74" x="1036.324219"/>
      <use xlink:href="#DejaVuSans-61" x="1075.533203"/>
      <use xlink:href="#DejaVuSans-29" x="1136.8125"/>
     </g>
    </g>
    <g id="line2d_16">
     <path d="M 189 114.176562 
L 199 114.176562 
L 209 114.176562 
" style="fill: none; stroke: #ff7f0e; stroke-width: 1.5; stroke-linecap: square"/>
    </g>
    <g id="text_17">
     <!-- F1 score (validation data) -->
     <g transform="translate(217 117.676562)scale(0.1 -0.1)">
      <use xlink:href="#DejaVuSans-46"/>
      <use xlink:href="#DejaVuSans-31" x="57.519531"/>
      <use xlink:href="#DejaVuSans-20" x="121.142578"/>
      <use xlink:href="#DejaVuSans-73" x="152.929688"/>
      <use xlink:href="#DejaVuSans-63" x="205.029297"/>
      <use xlink:href="#DejaVuSans-6f" x="260.009766"/>
      <use xlink:href="#DejaVuSans-72" x="321.191406"/>
      <use xlink:href="#DejaVuSans-65" x="360.054688"/>
      <use xlink:href="#DejaVuSans-20" x="421.578125"/>
      <use xlink:href="#DejaVuSans-28" x="453.365234"/>
      <use xlink:href="#DejaVuSans-76" x="492.378906"/>
      <use xlink:href="#DejaVuSans-61" x="551.558594"/>
      <use xlink:href="#DejaVuSans-6c" x="612.837891"/>
      <use xlink:href="#DejaVuSans-69" x="640.621094"/>
      <use xlink:href="#DejaVuSans-64" x="668.404297"/>
      <use xlink:href="#DejaVuSans-61" x="731.880859"/>
      <use xlink:href="#DejaVuSans-74" x="793.160156"/>
      <use xlink:href="#DejaVuSans-69" x="832.369141"/>
      <use xlink:href="#DejaVuSans-6f" x="860.152344"/>
      <use xlink:href="#DejaVuSans-6e" x="921.333984"/>
      <use xlink:href="#DejaVuSans-20" x="984.712891"/>
      <use xlink:href="#DejaVuSans-64" x="1016.5"/>
      <use xlink:href="#DejaVuSans-61" x="1079.976562"/>
      <use xlink:href="#DejaVuSans-74" x="1141.255859"/>
      <use xlink:href="#DejaVuSans-61" x="1180.464844"/>
      <use xlink:href="#DejaVuSans-29" x="1241.744141"/>
     </g>
    </g>
   </g>
  </g>
 </g>
 <defs>
  <clipPath id="p00f187b1bb">
   <rect x="180" y="86.4" width="1116" height="554.4"/>
  </clipPath>
 </defs>
</svg>
