<?xml version="1.0" encoding="utf-8" standalone="no"?>
<!DOCTYPE svg PUBLIC "-//W3C//DTD SVG 1.1//EN"
  "http://www.w3.org/Graphics/SVG/1.1/DTD/svg11.dtd">
<svg xmlns:xlink="http://www.w3.org/1999/xlink" width="1440pt" height="720pt" viewBox="0 0 1440 720" xmlns="http://www.w3.org/2000/svg" version="1.1">
 <metadata>
  <rdf:RDF xmlns:dc="http://purl.org/dc/elements/1.1/" xmlns:cc="http://creativecommons.org/ns#" xmlns:rdf="http://www.w3.org/1999/02/22-rdf-syntax-ns#">
   <cc:Work>
    <dc:type rdf:resource="http://purl.org/dc/dcmitype/StillImage"/>
    <dc:date>2023-04-22T15:14:36.443021</dc:date>
    <dc:format>image/svg+xml</dc:format>
    <dc:creator>
     <cc:Agent>
      <dc:title>Matplotlib v3.5.2, https://matplotlib.org/</dc:title>
     </cc:Agent>
    </dc:creator>
   </cc:Work>
  </rdf:RDF>
 </metadata>
 <defs>
  <style type="text/css">*{stroke-linejoin: round; stroke-linecap: butt}</style>
 </defs>
 <g id="figure_1">
  <g id="patch_1">
   <path d="M 0 720 
L 1440 720 
L 1440 0 
L 0 0 
z
" style="fill: #ffffff"/>
  </g>
  <g id="axes_1">
   <g id="patch_2">
    <path d="M 180 640.8 
L 1296 640.8 
L 1296 86.4 
L 180 86.4 
z
" style="fill: #ffffff"/>
   </g>
   <g id="matplotlib.axis_1">
    <g id="xtick_1">
     <g id="line2d_1">
      <defs>
       <path id="md992db1033" d="M 0 0 
L 0 3.5 
" style="stroke: #000000; stroke-width: 0.8"/>
      </defs>
      <g>
       <use xlink:href="#md992db1033" x="230.727273" y="640.8" style="stroke: #000000; stroke-width: 0.8"/>
      </g>
     </g>
     <g id="text_1">
      <!-- 0 -->
      <g transform="translate(227.546023 655.398438)scale(0.1 -0.1)">
       <defs>
        <path id="DejaVuSans-30" d="M 2034 4250 
Q 1547 4250 1301 3770 
Q 1056 3291 1056 2328 
Q 1056 1369 1301 889 
Q 1547 409 2034 409 
Q 2525 409 2770 889 
Q 3016 1369 3016 2328 
Q 3016 3291 2770 3770 
Q 2525 4250 2034 4250 
z
M 2034 4750 
Q 2819 4750 3233 4129 
Q 3647 3509 3647 2328 
Q 3647 1150 3233 529 
Q 2819 -91 2034 -91 
Q 1250 -91 836 529 
Q 422 1150 422 2328 
Q 422 3509 836 4129 
Q 1250 4750 2034 4750 
z
" transform="scale(0.015625)"/>
       </defs>
       <use xlink:href="#DejaVuSans-30"/>
      </g>
     </g>
    </g>
    <g id="xtick_2">
     <g id="line2d_2">
      <g>
       <use xlink:href="#md992db1033" x="433.636364" y="640.8" style="stroke: #000000; stroke-width: 0.8"/>
      </g>
     </g>
     <g id="text_2">
      <!-- 200 -->
      <g transform="translate(424.092614 655.398438)scale(0.1 -0.1)">
       <defs>
        <path id="DejaVuSans-32" d="M 1228 531 
L 3431 531 
L 3431 0 
L 469 0 
L 469 531 
Q 828 903 1448 1529 
Q 2069 2156 2228 2338 
Q 2531 2678 2651 2914 
Q 2772 3150 2772 3378 
Q 2772 3750 2511 3984 
Q 2250 4219 1831 4219 
Q 1534 4219 1204 4116 
Q 875 4013 500 3803 
L 500 4441 
Q 881 4594 1212 4672 
Q 1544 4750 1819 4750 
Q 2544 4750 2975 4387 
Q 3406 4025 3406 3419 
Q 3406 3131 3298 2873 
Q 3191 2616 2906 2266 
Q 2828 2175 2409 1742 
Q 1991 1309 1228 531 
z
" transform="scale(0.015625)"/>
       </defs>
       <use xlink:href="#DejaVuSans-32"/>
       <use xlink:href="#DejaVuSans-30" x="63.623047"/>
       <use xlink:href="#DejaVuSans-30" x="127.246094"/>
      </g>
     </g>
    </g>
    <g id="xtick_3">
     <g id="line2d_3">
      <g>
       <use xlink:href="#md992db1033" x="636.545455" y="640.8" style="stroke: #000000; stroke-width: 0.8"/>
      </g>
     </g>
     <g id="text_3">
      <!-- 400 -->
      <g transform="translate(627.001705 655.398438)scale(0.1 -0.1)">
       <defs>
        <path id="DejaVuSans-34" d="M 2419 4116 
L 825 1625 
L 2419 1625 
L 2419 4116 
z
M 2253 4666 
L 3047 4666 
L 3047 1625 
L 3713 1625 
L 3713 1100 
L 3047 1100 
L 3047 0 
L 2419 0 
L 2419 1100 
L 313 1100 
L 313 1709 
L 2253 4666 
z
" transform="scale(0.015625)"/>
       </defs>
       <use xlink:href="#DejaVuSans-34"/>
       <use xlink:href="#DejaVuSans-30" x="63.623047"/>
       <use xlink:href="#DejaVuSans-30" x="127.246094"/>
      </g>
     </g>
    </g>
    <g id="xtick_4">
     <g id="line2d_4">
      <g>
       <use xlink:href="#md992db1033" x="839.454545" y="640.8" style="stroke: #000000; stroke-width: 0.8"/>
      </g>
     </g>
     <g id="text_4">
      <!-- 600 -->
      <g transform="translate(829.910795 655.398438)scale(0.1 -0.1)">
       <defs>
        <path id="DejaVuSans-36" d="M 2113 2584 
Q 1688 2584 1439 2293 
Q 1191 2003 1191 1497 
Q 1191 994 1439 701 
Q 1688 409 2113 409 
Q 2538 409 2786 701 
Q 3034 994 3034 1497 
Q 3034 2003 2786 2293 
Q 2538 2584 2113 2584 
z
M 3366 4563 
L 3366 3988 
Q 3128 4100 2886 4159 
Q 2644 4219 2406 4219 
Q 1781 4219 1451 3797 
Q 1122 3375 1075 2522 
Q 1259 2794 1537 2939 
Q 1816 3084 2150 3084 
Q 2853 3084 3261 2657 
Q 3669 2231 3669 1497 
Q 3669 778 3244 343 
Q 2819 -91 2113 -91 
Q 1303 -91 875 529 
Q 447 1150 447 2328 
Q 447 3434 972 4092 
Q 1497 4750 2381 4750 
Q 2619 4750 2861 4703 
Q 3103 4656 3366 4563 
z
" transform="scale(0.015625)"/>
       </defs>
       <use xlink:href="#DejaVuSans-36"/>
       <use xlink:href="#DejaVuSans-30" x="63.623047"/>
       <use xlink:href="#DejaVuSans-30" x="127.246094"/>
      </g>
     </g>
    </g>
    <g id="xtick_5">
     <g id="line2d_5">
      <g>
       <use xlink:href="#md992db1033" x="1042.363636" y="640.8" style="stroke: #000000; stroke-width: 0.8"/>
      </g>
     </g>
     <g id="text_5">
      <!-- 800 -->
      <g transform="translate(1032.819886 655.398438)scale(0.1 -0.1)">
       <defs>
        <path id="DejaVuSans-38" d="M 2034 2216 
Q 1584 2216 1326 1975 
Q 1069 1734 1069 1313 
Q 1069 891 1326 650 
Q 1584 409 2034 409 
Q 2484 409 2743 651 
Q 3003 894 3003 1313 
Q 3003 1734 2745 1975 
Q 2488 2216 2034 2216 
z
M 1403 2484 
Q 997 2584 770 2862 
Q 544 3141 544 3541 
Q 544 4100 942 4425 
Q 1341 4750 2034 4750 
Q 2731 4750 3128 4425 
Q 3525 4100 3525 3541 
Q 3525 3141 3298 2862 
Q 3072 2584 2669 2484 
Q 3125 2378 3379 2068 
Q 3634 1759 3634 1313 
Q 3634 634 3220 271 
Q 2806 -91 2034 -91 
Q 1263 -91 848 271 
Q 434 634 434 1313 
Q 434 1759 690 2068 
Q 947 2378 1403 2484 
z
M 1172 3481 
Q 1172 3119 1398 2916 
Q 1625 2713 2034 2713 
Q 2441 2713 2670 2916 
Q 2900 3119 2900 3481 
Q 2900 3844 2670 4047 
Q 2441 4250 2034 4250 
Q 1625 4250 1398 4047 
Q 1172 3844 1172 3481 
z
" transform="scale(0.015625)"/>
       </defs>
       <use xlink:href="#DejaVuSans-38"/>
       <use xlink:href="#DejaVuSans-30" x="63.623047"/>
       <use xlink:href="#DejaVuSans-30" x="127.246094"/>
      </g>
     </g>
    </g>
    <g id="xtick_6">
     <g id="line2d_6">
      <g>
       <use xlink:href="#md992db1033" x="1245.272727" y="640.8" style="stroke: #000000; stroke-width: 0.8"/>
      </g>
     </g>
     <g id="text_6">
      <!-- 1000 -->
      <g transform="translate(1232.547727 655.398438)scale(0.1 -0.1)">
       <defs>
        <path id="DejaVuSans-31" d="M 794 531 
L 1825 531 
L 1825 4091 
L 703 3866 
L 703 4441 
L 1819 4666 
L 2450 4666 
L 2450 531 
L 3481 531 
L 3481 0 
L 794 0 
L 794 531 
z
" transform="scale(0.015625)"/>
       </defs>
       <use xlink:href="#DejaVuSans-31"/>
       <use xlink:href="#DejaVuSans-30" x="63.623047"/>
       <use xlink:href="#DejaVuSans-30" x="127.246094"/>
       <use xlink:href="#DejaVuSans-30" x="190.869141"/>
      </g>
     </g>
    </g>
    <g id="text_7">
     <!-- No. epoch -->
     <g transform="translate(712.88125 669.076563)scale(0.1 -0.1)">
      <defs>
       <path id="DejaVuSans-4e" d="M 628 4666 
L 1478 4666 
L 3547 763 
L 3547 4666 
L 4159 4666 
L 4159 0 
L 3309 0 
L 1241 3903 
L 1241 0 
L 628 0 
L 628 4666 
z
" transform="scale(0.015625)"/>
       <path id="DejaVuSans-6f" d="M 1959 3097 
Q 1497 3097 1228 2736 
Q 959 2375 959 1747 
Q 959 1119 1226 758 
Q 1494 397 1959 397 
Q 2419 397 2687 759 
Q 2956 1122 2956 1747 
Q 2956 2369 2687 2733 
Q 2419 3097 1959 3097 
z
M 1959 3584 
Q 2709 3584 3137 3096 
Q 3566 2609 3566 1747 
Q 3566 888 3137 398 
Q 2709 -91 1959 -91 
Q 1206 -91 779 398 
Q 353 888 353 1747 
Q 353 2609 779 3096 
Q 1206 3584 1959 3584 
z
" transform="scale(0.015625)"/>
       <path id="DejaVuSans-2e" d="M 684 794 
L 1344 794 
L 1344 0 
L 684 0 
L 684 794 
z
" transform="scale(0.015625)"/>
       <path id="DejaVuSans-20" transform="scale(0.015625)"/>
       <path id="DejaVuSans-65" d="M 3597 1894 
L 3597 1613 
L 953 1613 
Q 991 1019 1311 708 
Q 1631 397 2203 397 
Q 2534 397 2845 478 
Q 3156 559 3463 722 
L 3463 178 
Q 3153 47 2828 -22 
Q 2503 -91 2169 -91 
Q 1331 -91 842 396 
Q 353 884 353 1716 
Q 353 2575 817 3079 
Q 1281 3584 2069 3584 
Q 2775 3584 3186 3129 
Q 3597 2675 3597 1894 
z
M 3022 2063 
Q 3016 2534 2758 2815 
Q 2500 3097 2075 3097 
Q 1594 3097 1305 2825 
Q 1016 2553 972 2059 
L 3022 2063 
z
" transform="scale(0.015625)"/>
       <path id="DejaVuSans-70" d="M 1159 525 
L 1159 -1331 
L 581 -1331 
L 581 3500 
L 1159 3500 
L 1159 2969 
Q 1341 3281 1617 3432 
Q 1894 3584 2278 3584 
Q 2916 3584 3314 3078 
Q 3713 2572 3713 1747 
Q 3713 922 3314 415 
Q 2916 -91 2278 -91 
Q 1894 -91 1617 61 
Q 1341 213 1159 525 
z
M 3116 1747 
Q 3116 2381 2855 2742 
Q 2594 3103 2138 3103 
Q 1681 3103 1420 2742 
Q 1159 2381 1159 1747 
Q 1159 1113 1420 752 
Q 1681 391 2138 391 
Q 2594 391 2855 752 
Q 3116 1113 3116 1747 
z
" transform="scale(0.015625)"/>
       <path id="DejaVuSans-63" d="M 3122 3366 
L 3122 2828 
Q 2878 2963 2633 3030 
Q 2388 3097 2138 3097 
Q 1578 3097 1268 2742 
Q 959 2388 959 1747 
Q 959 1106 1268 751 
Q 1578 397 2138 397 
Q 2388 397 2633 464 
Q 2878 531 3122 666 
L 3122 134 
Q 2881 22 2623 -34 
Q 2366 -91 2075 -91 
Q 1284 -91 818 406 
Q 353 903 353 1747 
Q 353 2603 823 3093 
Q 1294 3584 2113 3584 
Q 2378 3584 2631 3529 
Q 2884 3475 3122 3366 
z
" transform="scale(0.015625)"/>
       <path id="DejaVuSans-68" d="M 3513 2113 
L 3513 0 
L 2938 0 
L 2938 2094 
Q 2938 2591 2744 2837 
Q 2550 3084 2163 3084 
Q 1697 3084 1428 2787 
Q 1159 2491 1159 1978 
L 1159 0 
L 581 0 
L 581 4863 
L 1159 4863 
L 1159 2956 
Q 1366 3272 1645 3428 
Q 1925 3584 2291 3584 
Q 2894 3584 3203 3211 
Q 3513 2838 3513 2113 
z
" transform="scale(0.015625)"/>
      </defs>
      <use xlink:href="#DejaVuSans-4e"/>
      <use xlink:href="#DejaVuSans-6f" x="74.804688"/>
      <use xlink:href="#DejaVuSans-2e" x="134.236328"/>
      <use xlink:href="#DejaVuSans-20" x="166.023438"/>
      <use xlink:href="#DejaVuSans-65" x="197.810547"/>
      <use xlink:href="#DejaVuSans-70" x="259.333984"/>
      <use xlink:href="#DejaVuSans-6f" x="322.810547"/>
      <use xlink:href="#DejaVuSans-63" x="383.992188"/>
      <use xlink:href="#DejaVuSans-68" x="438.972656"/>
     </g>
    </g>
   </g>
   <g id="matplotlib.axis_2">
    <g id="ytick_1">
     <g id="line2d_7">
      <defs>
       <path id="mf4f5c6bd81" d="M 0 0 
L -3.5 0 
" style="stroke: #000000; stroke-width: 0.8"/>
      </defs>
      <g>
       <use xlink:href="#mf4f5c6bd81" x="180" y="615.6" style="stroke: #000000; stroke-width: 0.8"/>
      </g>
     </g>
     <g id="text_8">
      <!-- 0.0 -->
      <g transform="translate(157.096875 619.399219)scale(0.1 -0.1)">
       <use xlink:href="#DejaVuSans-30"/>
       <use xlink:href="#DejaVuSans-2e" x="63.623047"/>
       <use xlink:href="#DejaVuSans-30" x="95.410156"/>
      </g>
     </g>
    </g>
    <g id="ytick_2">
     <g id="line2d_8">
      <g>
       <use xlink:href="#mf4f5c6bd81" x="180" y="506.388605" style="stroke: #000000; stroke-width: 0.8"/>
      </g>
     </g>
     <g id="text_9">
      <!-- 0.2 -->
      <g transform="translate(157.096875 510.187823)scale(0.1 -0.1)">
       <use xlink:href="#DejaVuSans-30"/>
       <use xlink:href="#DejaVuSans-2e" x="63.623047"/>
       <use xlink:href="#DejaVuSans-32" x="95.410156"/>
      </g>
     </g>
    </g>
    <g id="ytick_3">
     <g id="line2d_9">
      <g>
       <use xlink:href="#mf4f5c6bd81" x="180" y="397.177209" style="stroke: #000000; stroke-width: 0.8"/>
      </g>
     </g>
     <g id="text_10">
      <!-- 0.4 -->
      <g transform="translate(157.096875 400.976428)scale(0.1 -0.1)">
       <use xlink:href="#DejaVuSans-30"/>
       <use xlink:href="#DejaVuSans-2e" x="63.623047"/>
       <use xlink:href="#DejaVuSans-34" x="95.410156"/>
      </g>
     </g>
    </g>
    <g id="ytick_4">
     <g id="line2d_10">
      <g>
       <use xlink:href="#mf4f5c6bd81" x="180" y="287.965814" style="stroke: #000000; stroke-width: 0.8"/>
      </g>
     </g>
     <g id="text_11">
      <!-- 0.6 -->
      <g transform="translate(157.096875 291.765032)scale(0.1 -0.1)">
       <use xlink:href="#DejaVuSans-30"/>
       <use xlink:href="#DejaVuSans-2e" x="63.623047"/>
       <use xlink:href="#DejaVuSans-36" x="95.410156"/>
      </g>
     </g>
    </g>
    <g id="ytick_5">
     <g id="line2d_11">
      <g>
       <use xlink:href="#mf4f5c6bd81" x="180" y="178.754418" style="stroke: #000000; stroke-width: 0.8"/>
      </g>
     </g>
     <g id="text_12">
      <!-- 0.8 -->
      <g transform="translate(157.096875 182.553637)scale(0.1 -0.1)">
       <use xlink:href="#DejaVuSans-30"/>
       <use xlink:href="#DejaVuSans-2e" x="63.623047"/>
       <use xlink:href="#DejaVuSans-38" x="95.410156"/>
      </g>
     </g>
    </g>
    <g id="text_13">
     <!-- F1 score value -->
     <g transform="translate(151.017188 399.925781)rotate(-90)scale(0.1 -0.1)">
      <defs>
       <path id="DejaVuSans-46" d="M 628 4666 
L 3309 4666 
L 3309 4134 
L 1259 4134 
L 1259 2759 
L 3109 2759 
L 3109 2228 
L 1259 2228 
L 1259 0 
L 628 0 
L 628 4666 
z
" transform="scale(0.015625)"/>
       <path id="DejaVuSans-73" d="M 2834 3397 
L 2834 2853 
Q 2591 2978 2328 3040 
Q 2066 3103 1784 3103 
Q 1356 3103 1142 2972 
Q 928 2841 928 2578 
Q 928 2378 1081 2264 
Q 1234 2150 1697 2047 
L 1894 2003 
Q 2506 1872 2764 1633 
Q 3022 1394 3022 966 
Q 3022 478 2636 193 
Q 2250 -91 1575 -91 
Q 1294 -91 989 -36 
Q 684 19 347 128 
L 347 722 
Q 666 556 975 473 
Q 1284 391 1588 391 
Q 1994 391 2212 530 
Q 2431 669 2431 922 
Q 2431 1156 2273 1281 
Q 2116 1406 1581 1522 
L 1381 1569 
Q 847 1681 609 1914 
Q 372 2147 372 2553 
Q 372 3047 722 3315 
Q 1072 3584 1716 3584 
Q 2034 3584 2315 3537 
Q 2597 3491 2834 3397 
z
" transform="scale(0.015625)"/>
       <path id="DejaVuSans-72" d="M 2631 2963 
Q 2534 3019 2420 3045 
Q 2306 3072 2169 3072 
Q 1681 3072 1420 2755 
Q 1159 2438 1159 1844 
L 1159 0 
L 581 0 
L 581 3500 
L 1159 3500 
L 1159 2956 
Q 1341 3275 1631 3429 
Q 1922 3584 2338 3584 
Q 2397 3584 2469 3576 
Q 2541 3569 2628 3553 
L 2631 2963 
z
" transform="scale(0.015625)"/>
       <path id="DejaVuSans-76" d="M 191 3500 
L 800 3500 
L 1894 563 
L 2988 3500 
L 3597 3500 
L 2284 0 
L 1503 0 
L 191 3500 
z
" transform="scale(0.015625)"/>
       <path id="DejaVuSans-61" d="M 2194 1759 
Q 1497 1759 1228 1600 
Q 959 1441 959 1056 
Q 959 750 1161 570 
Q 1363 391 1709 391 
Q 2188 391 2477 730 
Q 2766 1069 2766 1631 
L 2766 1759 
L 2194 1759 
z
M 3341 1997 
L 3341 0 
L 2766 0 
L 2766 531 
Q 2569 213 2275 61 
Q 1981 -91 1556 -91 
Q 1019 -91 701 211 
Q 384 513 384 1019 
Q 384 1609 779 1909 
Q 1175 2209 1959 2209 
L 2766 2209 
L 2766 2266 
Q 2766 2663 2505 2880 
Q 2244 3097 1772 3097 
Q 1472 3097 1187 3025 
Q 903 2953 641 2809 
L 641 3341 
Q 956 3463 1253 3523 
Q 1550 3584 1831 3584 
Q 2591 3584 2966 3190 
Q 3341 2797 3341 1997 
z
" transform="scale(0.015625)"/>
       <path id="DejaVuSans-6c" d="M 603 4863 
L 1178 4863 
L 1178 0 
L 603 0 
L 603 4863 
z
" transform="scale(0.015625)"/>
       <path id="DejaVuSans-75" d="M 544 1381 
L 544 3500 
L 1119 3500 
L 1119 1403 
Q 1119 906 1312 657 
Q 1506 409 1894 409 
Q 2359 409 2629 706 
Q 2900 1003 2900 1516 
L 2900 3500 
L 3475 3500 
L 3475 0 
L 2900 0 
L 2900 538 
Q 2691 219 2414 64 
Q 2138 -91 1772 -91 
Q 1169 -91 856 284 
Q 544 659 544 1381 
z
M 1991 3584 
L 1991 3584 
z
" transform="scale(0.015625)"/>
      </defs>
      <use xlink:href="#DejaVuSans-46"/>
      <use xlink:href="#DejaVuSans-31" x="57.519531"/>
      <use xlink:href="#DejaVuSans-20" x="121.142578"/>
      <use xlink:href="#DejaVuSans-73" x="152.929688"/>
      <use xlink:href="#DejaVuSans-63" x="205.029297"/>
      <use xlink:href="#DejaVuSans-6f" x="260.009766"/>
      <use xlink:href="#DejaVuSans-72" x="321.191406"/>
      <use xlink:href="#DejaVuSans-65" x="360.054688"/>
      <use xlink:href="#DejaVuSans-20" x="421.578125"/>
      <use xlink:href="#DejaVuSans-76" x="453.365234"/>
      <use xlink:href="#DejaVuSans-61" x="512.544922"/>
      <use xlink:href="#DejaVuSans-6c" x="573.824219"/>
      <use xlink:href="#DejaVuSans-75" x="601.607422"/>
      <use xlink:href="#DejaVuSans-65" x="664.986328"/>
     </g>
    </g>
   </g>
   <g id="line2d_12">
    <path d="M 230.727273 615.6 
L 231.741818 252.923435 
L 232.756364 204.518583 
L 233.770909 186.080438 
L 234.785455 169.721658 
L 235.8 158.688858 
L 236.814545 149.403633 
L 237.829091 137.90114 
L 238.843636 132.549577 
L 239.858182 130.106299 
L 240.872727 132.492391 
L 241.887273 123.915205 
L 242.901818 125.835835 
L 243.916364 121.716196 
L 244.930909 120.625203 
L 245.945455 121.356188 
L 246.96 121.540439 
L 247.974545 120.867324 
L 248.989091 119.553185 
L 250.003636 121.388117 
L 251.018182 119.429699 
L 252.032727 120.593697 
L 253.047273 118.813868 
L 254.061818 118.939371 
L 255.076364 118.539492 
L 256.090909 120.346824 
L 257.105455 119.490335 
L 258.12 119.368836 
L 259.134545 119.122841 
L 260.149091 118.999161 
L 262.178182 117.246899 
L 263.192727 117.365405 
L 264.207273 118.906986 
L 265.221818 118.785942 
L 266.236364 119.092605 
L 267.250909 117.949307 
L 268.265455 119.888717 
L 269.28 119.981999 
L 270.294545 118.906986 
L 271.309091 119.369454 
L 272.323636 117.092461 
L 273.338182 119.001081 
L 274.352727 119.184584 
L 275.367273 116.871366 
L 276.381818 117.57973 
L 277.396364 116.989253 
L 278.410909 120.135102 
L 279.425455 118.691521 
L 280.44 117.679814 
L 281.454545 119.184584 
L 282.469091 118.238134 
L 283.483636 119.708404 
L 284.498182 117.799198 
L 285.512727 118.693214 
L 286.527273 117.669529 
L 287.541818 117.639553 
L 288.556364 118.939371 
L 289.570909 118.659267 
L 290.585455 117.276452 
L 291.6 118.107749 
L 292.614545 117.98358 
L 293.629091 118.908841 
L 294.643636 119.030992 
L 295.658182 117.085301 
L 296.672727 117.525734 
L 297.687273 116.820657 
L 298.701818 117.033583 
L 299.716364 118.539492 
L 300.730909 117.98358 
L 301.745455 119.245838 
L 302.76 118.228435 
L 303.774545 118.137855 
L 304.789091 117.699473 
L 305.803636 115.358882 
L 306.818182 117.684891 
L 307.832727 117.949307 
L 308.847273 117.799198 
L 309.861818 116.657789 
L 310.876364 117.739474 
L 311.890909 117.092461 
L 313.92 119.215244 
L 314.934545 117.927826 
L 315.949091 118.415876 
L 316.963636 117.389002 
L 317.978182 118.107749 
L 318.992727 117.803918 
L 320.007273 118.198198 
L 321.021818 115.853507 
L 322.036364 115.940018 
L 323.050909 116.863457 
L 324.065455 119.708404 
L 325.08 116.493684 
L 326.094545 118.506847 
L 327.109091 117.709627 
L 328.123636 116.473765 
L 329.138182 117.549884 
L 330.152727 119.00043 
L 331.167273 117.739474 
L 332.181818 116.849917 
L 333.196364 116.833936 
L 334.210909 117.342036 
L 335.225455 117.181023 
L 336.24 118.693214 
L 337.254545 116.570236 
L 339.283636 117.987648 
L 340.298182 117.085301 
L 341.312727 117.863642 
L 342.327273 117.614979 
L 343.341818 118.969868 
L 344.356364 117.210609 
L 345.370909 117.764503 
L 346.385455 115.940018 
L 347.4 117.293117 
L 348.414545 119.123427 
L 349.429091 118.107749 
L 350.443636 116.678554 
L 351.458182 117.525734 
L 354.501818 117.833764 
L 355.516364 117.893586 
L 356.530909 116.762266 
L 357.545455 118.693214 
L 358.56 117.70455 
L 359.574545 117.085301 
L 360.589091 115.104458 
L 361.603636 115.951084 
L 362.618182 118.077675 
L 363.632727 117.335721 
L 364.647273 117.246899 
L 365.661818 118.261861 
L 366.676364 118.198198 
L 367.690909 117.833764 
L 368.705455 117.282929 
L 369.72 117.734526 
L 370.734545 116.908535 
L 371.749091 116.996739 
L 372.763636 117.774137 
L 373.778182 116.812617 
L 374.792727 116.687082 
L 375.807273 116.908535 
L 376.821818 118.600193 
L 377.836364 116.791429 
L 378.850909 116.812617 
L 379.865455 117.644825 
L 380.88 115.979921 
L 381.894545 117.15837 
L 382.909091 115.911148 
L 383.923636 115.288677 
L 384.938182 117.259983 
L 385.952727 118.201551 
L 387.981818 117.484496 
L 388.996364 117.460574 
L 390.010909 115.317189 
L 391.025455 116.570236 
L 392.04 116.41557 
L 393.054545 117.98358 
L 394.069091 114.892053 
L 395.083636 118.784607 
L 396.098182 117.026227 
L 397.112727 116.590513 
L 398.127273 117.868134 
L 399.141818 117.953539 
L 400.156364 115.710135 
L 401.170909 115.968953 
L 402.185455 117.609609 
L 403.2 117.276452 
L 404.214545 116.473765 
L 405.229091 117.004192 
L 406.243636 117.063006 
L 407.258182 117.365405 
L 408.272727 115.460268 
L 409.287273 114.492304 
L 410.301818 115.175021 
L 411.316364 117.342036 
L 412.330909 116.754032 
L 413.345455 116.937925 
L 414.36 116.318806 
L 415.374545 117.246899 
L 416.389091 115.979921 
L 417.403636 116.657789 
L 418.418182 116.812617 
L 419.432727 117.40124 
L 421.461818 117.863642 
L 422.476364 114.596065 
L 423.490909 116.87921 
L 424.505455 118.630592 
L 425.52 116.502895 
L 426.534545 115.79606 
L 428.563636 117.114886 
L 430.592727 117.395088 
L 431.607273 116.435261 
L 432.621818 116.453944 
L 433.636364 116.959732 
L 434.650909 116.53209 
L 435.665455 116.367367 
L 436.68 117.555482 
L 437.694545 116.754032 
L 438.709091 117.460574 
L 439.723636 115.374309 
L 440.738182 116.967316 
L 441.752727 117.121949 
L 442.767273 118.325231 
L 443.781818 117.799198 
L 444.796364 115.824767 
L 445.810909 115.189667 
L 446.825455 117.151437 
L 447.84 116.376969 
L 448.854545 116.289806 
L 449.869091 117.555482 
L 450.883636 117.525734 
L 451.898182 116.541106 
L 452.912727 118.047634 
L 453.927273 117.76932 
L 454.941818 115.657538 
L 455.956364 117.555482 
L 456.970909 116.783292 
L 457.985455 113.780978 
L 459 117.15837 
L 460.014545 117.76932 
L 461.029091 114.721048 
L 462.043636 118.446146 
L 463.058182 118.171444 
L 464.072727 117.520103 
L 465.087273 115.415905 
L 466.101818 116.309075 
L 467.116364 117.98358 
L 468.130909 115.79606 
L 469.145455 115.612362 
L 470.16 116.435261 
L 471.174545 115.542873 
L 472.189091 118.234945 
L 473.203636 116.192815 
L 474.218182 115.57145 
L 475.232727 116.231937 
L 476.247273 116.376969 
L 477.261818 116.849917 
L 478.276364 115.726962 
L 479.290909 115.853507 
L 480.305455 117.40124 
L 481.32 117.253474 
L 482.334545 116.841975 
L 483.349091 115.968953 
L 484.363636 115.79606 
L 485.378182 117.549884 
L 486.392727 117.739474 
L 487.407273 118.231657 
L 488.421818 117.181023 
L 489.436364 116.53209 
L 490.450909 117.829175 
L 491.465455 117.644825 
L 492.48 115.132807 
L 494.509091 116.53209 
L 495.523636 116.376969 
L 496.538182 117.055748 
L 497.552727 116.163815 
L 498.567273 117.98358 
L 499.581818 118.107749 
L 500.596364 115.415905 
L 501.610909 116.095465 
L 502.625455 117.620317 
L 503.64 114.920304 
L 504.654545 115.514264 
L 505.669091 117.121949 
L 506.683636 117.739474 
L 507.698182 116.406099 
L 508.712727 118.013654 
L 509.727273 115.882311 
L 510.741818 116.084855 
L 511.756364 114.608466 
L 512.770909 116.213124 
L 513.785455 116.279945 
L 514.8 114.649118 
L 515.814545 116.473765 
L 516.829091 116.657789 
L 517.843636 116.435261 
L 518.858182 114.664643 
L 519.872727 117.585231 
L 520.887273 115.218179 
L 521.901818 115.358882 
L 522.916364 116.570236 
L 523.930909 115.968953 
L 524.945455 116.221815 
L 525.96 115.076076 
L 526.974545 116.367367 
L 527.989091 115.444449 
L 529.003636 118.264986 
L 530.018182 116.482976 
L 531.032727 116.163815 
L 532.047273 116.444668 
L 533.061818 116.18253 
L 534.076364 117.276452 
L 535.090909 115.669581 
L 536.105455 116.376969 
L 537.12 117.953539 
L 538.134545 116.153497 
L 539.149091 117.418848 
L 540.163636 116.649131 
L 541.178182 116.687082 
L 544.221818 116.289806 
L 545.236364 117.092461 
L 546.250909 116.367367 
L 547.265455 115.922345 
L 548.28 116.318806 
L 549.294545 118.569794 
L 550.309091 114.552387 
L 551.323636 115.57145 
L 552.338182 116.783292 
L 553.352727 115.824767 
L 554.367273 115.428729 
L 555.381818 115.317189 
L 556.396364 115.917625 
L 557.410909 116.996739 
L 558.425455 115.813278 
L 559.44 115.698255 
L 560.454545 115.444449 
L 561.469091 114.368623 
L 562.483636 115.824767 
L 563.498182 117.674704 
L 564.512727 117.490322 
L 565.527273 116.930277 
L 566.541818 116.106011 
L 567.556364 117.424869 
L 568.570909 116.608186 
L 569.585455 116.77509 
L 570.6 115.657538 
L 571.614545 116.628561 
L 572.629091 116.289806 
L 573.643636 114.990769 
L 574.658182 116.628561 
L 575.672727 119.062498 
L 576.687273 113.983586 
L 577.701818 113.282252 
L 578.716364 116.008726 
L 579.730909 115.57145 
L 580.745455 116.87921 
L 581.76 116.687082 
L 582.774545 115.628799 
L 583.789091 115.979921 
L 584.803636 116.678554 
L 585.818182 115.019509 
L 586.832727 113.983586 
L 587.847273 116.260872 
L 589.876364 116.231937 
L 590.890909 117.927826 
L 591.905455 116.695577 
L 592.92 115.755669 
L 593.934545 113.882461 
L 594.949091 115.345765 
L 595.963636 115.715115 
L 596.978182 116.444668 
L 597.992727 115.303877 
L 599.007273 115.698255 
L 600.021818 117.395088 
L 601.036364 115.501668 
L 602.050909 114.084386 
L 603.065455 114.892053 
L 604.08 116.299115 
L 605.094545 116.892945 
L 606.109091 115.076076 
L 607.123636 115.402951 
L 608.138182 115.501668 
L 609.152727 116.015984 
L 610.167273 116.037596 
L 611.181818 115.824767 
L 612.196364 117.76932 
L 613.210909 114.25142 
L 614.225455 116.619838 
L 615.24 115.444449 
L 616.254545 116.628561 
L 617.269091 117.520103 
L 618.283636 116.106011 
L 619.298182 115.118876 
L 620.312727 114.749202 
L 621.327273 116.959732 
L 622.341818 117.181023 
L 623.356364 114.580443 
L 624.370909 116.425855 
L 625.385455 114.692829 
L 626.4 115.772756 
L 627.414545 115.79606 
L 628.429091 115.460268 
L 629.443636 116.484441 
L 630.458182 116.841975 
L 631.472727 116.657789 
L 632.487273 117.306071 
L 633.501818 117.460574 
L 634.516364 115.473026 
L 635.530909 116.724739 
L 636.545455 116.124498 
L 637.56 116.77509 
L 638.574545 116.473765 
L 639.589091 117.430858 
L 640.603636 115.968953 
L 641.618182 116.952084 
L 642.632727 116.849917 
L 643.647273 115.005188 
L 644.661818 116.260872 
L 645.676364 116.724739 
L 646.690909 114.636522 
L 647.705455 116.066563 
L 648.72 116.153497 
L 649.734545 117.389002 
L 650.749091 116.945542 
L 651.763636 116.250847 
L 652.778182 115.853507 
L 653.792727 116.309075 
L 654.807273 116.279945 
L 655.821818 115.997855 
L 656.836364 115.358882 
L 657.850909 113.753312 
L 658.865455 114.721048 
L 659.88 115.005188 
L 660.894545 115.997855 
L 661.909091 116.502895 
L 662.923636 115.698255 
L 663.938182 115.882311 
L 664.952727 115.853507 
L 666.981818 115.444449 
L 667.996364 116.055822 
L 669.010909 117.114886 
L 670.025455 116.590513 
L 671.04 115.418639 
L 672.054545 116.871366 
L 673.069091 116.687082 
L 674.083636 115.061983 
L 675.098182 115.387361 
L 676.112727 114.552387 
L 677.127273 115.813278 
L 678.141818 115.275267 
L 679.156364 116.737302 
L 680.170909 114.608466 
L 681.185455 114.552387 
L 682.2 116.849917 
L 683.214545 116.619838 
L 684.229091 114.508415 
L 685.243636 114.920304 
L 686.258182 115.587789 
L 687.272727 114.835713 
L 688.287273 115.358882 
L 689.301818 116.055822 
L 690.316364 115.387361 
L 691.330909 114.084386 
L 692.345455 115.600124 
L 693.36 115.628799 
L 694.374545 116.106011 
L 695.389091 114.464215 
L 696.403636 117.514375 
L 697.418182 115.444449 
L 698.432727 116.134913 
L 699.447273 114.580443 
L 700.461818 113.439391 
L 702.490909 115.669581 
L 703.505455 114.324131 
L 704.52 114.777485 
L 706.549091 113.82713 
L 707.563636 116.561318 
L 708.578182 115.933411 
L 709.592727 114.380015 
L 710.607273 116.221815 
L 711.621818 113.459115 
L 712.636364 118.134243 
L 713.650909 113.459115 
L 714.665455 114.212688 
L 715.68 114.664643 
L 716.694545 117.092461 
L 717.709091 116.493684 
L 718.723636 116.7457 
L 719.738182 116.124498 
L 720.752727 114.480359 
L 721.767273 114.41969 
L 722.781818 113.302496 
L 723.796364 115.842148 
L 725.825455 114.396484 
L 726.84 116.095465 
L 728.869091 114.396484 
L 729.883636 114.564592 
L 730.898182 114.976839 
L 731.912727 116.473765 
L 732.927273 114.792653 
L 733.941818 114.548644 
L 734.956364 117.57973 
L 735.970909 115.48572 
L 736.985455 116.455148 
L 738 116.628561 
L 739.014545 115.657538 
L 740.029091 117.181023 
L 742.058182 113.392002 
L 743.072727 113.275254 
L 744.087273 117.544286 
L 745.101818 115.755669 
L 746.116364 116.561318 
L 747.130909 115.061983 
L 748.145455 116.026822 
L 749.16 115.146639 
L 750.174545 115.48572 
L 751.189091 115.20337 
L 752.203636 115.189667 
L 753.218182 117.734526 
L 754.232727 115.175021 
L 755.247273 114.805802 
L 756.261818 116.21166 
L 757.276364 118.047634 
L 758.290909 115.005188 
L 759.305455 113.725712 
L 760.32 116.279945 
L 761.334545 116.716374 
L 762.349091 114.039112 
L 763.363636 116.037596 
L 764.378182 115.813278 
L 766.407273 114.324131 
L 767.421818 115.104458 
L 769.450909 114.536471 
L 774.523636 116.250847 
L 775.538182 116.113952 
L 777.567273 114.835713 
L 779.596364 115.246723 
L 780.610909 114.762286 
L 781.625455 115.019509 
L 782.64 116.095465 
L 783.654545 116.203002 
L 784.669091 114.468544 
L 785.683636 115.076076 
L 786.698182 114.240484 
L 788.727273 115.415905 
L 789.741818 115.681526 
L 790.756364 116.143082 
L 791.770909 114.708192 
L 792.785455 115.330403 
L 793.8 114.721048 
L 794.814545 115.345765 
L 795.829091 114.552387 
L 796.843636 114.380015 
L 797.858182 114.692829 
L 798.872727 117.210609 
L 799.887273 116.347904 
L 800.901818 116.376969 
L 801.916364 114.749202 
L 802.930909 115.686278 
L 803.945455 114.167772 
L 805.974545 115.246723 
L 806.989091 115.358882 
L 808.003636 116.077206 
L 810.032727 116.716374 
L 811.047273 114.25142 
L 812.061818 115.20337 
L 813.076364 114.352057 
L 814.090909 114.920304 
L 815.105455 115.345765 
L 816.12 115.444449 
L 817.134545 114.580443 
L 818.149091 115.559049 
L 819.163636 113.207034 
L 820.178182 115.542873 
L 822.207273 113.200265 
L 823.221818 114.424442 
L 824.236364 116.590513 
L 825.250909 115.882311 
L 826.265455 115.600124 
L 827.28 114.296238 
L 828.294545 115.189667 
L 829.309091 114.764434 
L 830.323636 116.599399 
L 831.338182 116.037596 
L 832.352727 113.882461 
L 833.367273 114.352057 
L 834.381818 113.364532 
L 835.396364 113.439391 
L 836.410909 115.870985 
L 837.425455 114.777485 
L 838.44 115.899887 
L 839.454545 114.396484 
L 840.469091 116.124498 
L 841.483636 114.352057 
L 842.498182 113.043353 
L 843.512727 117.203871 
L 844.527273 113.588068 
L 845.541818 114.039112 
L 846.556364 113.179662 
L 847.570909 116.754032 
L 848.585455 115.48572 
L 849.6 116.289806 
L 850.614545 115.628799 
L 851.629091 114.636522 
L 852.643636 115.997855 
L 853.658182 115.645398 
L 854.672727 116.163815 
L 856.701818 114.195601 
L 857.716364 115.559049 
L 858.730909 115.218179 
L 859.745455 116.649131 
L 860.76 115.715115 
L 861.774545 114.380015 
L 862.789091 115.48572 
L 863.803636 115.033569 
L 864.818182 115.600124 
L 865.832727 116.406099 
L 866.847273 112.837425 
L 867.861818 115.957854 
L 868.876364 116.347904 
L 869.890909 116.250847 
L 870.905455 113.309657 
L 871.92 113.99348 
L 872.934545 115.79606 
L 874.963636 116.493684 
L 875.978182 113.364532 
L 876.992727 114.564592 
L 878.007273 114.820839 
L 879.021818 114.352057 
L 880.036364 112.81028 
L 881.050909 115.899887 
L 882.065455 115.175021 
L 883.08 115.260198 
L 884.094545 114.834151 
L 885.109091 115.175965 
L 886.123636 115.118876 
L 887.138182 115.216942 
L 888.152727 115.583753 
L 889.167273 112.7832 
L 890.181818 113.411921 
L 891.196364 116.435261 
L 892.210909 115.726962 
L 893.225455 114.436127 
L 894.24 112.468271 
L 895.254545 114.552387 
L 896.269091 115.968953 
L 897.283636 114.762286 
L 898.298182 115.870985 
L 899.312727 114.608466 
L 900.327273 115.387361 
L 901.341818 115.061983 
L 902.356364 116.18253 
L 903.370909 113.882461 
L 904.385455 115.968953 
L 905.4 114.733937 
L 906.414545 114.049234 
L 907.429091 113.882461 
L 908.443636 116.804448 
L 909.458182 114.122564 
L 911.487273 115.061983 
L 912.501818 114.636522 
L 913.516364 115.005188 
L 914.530909 112.946198 
L 915.545455 114.592746 
L 916.56 114.73628 
L 917.574545 115.132807 
L 918.589091 113.643009 
L 920.618182 114.677369 
L 921.632727 115.957854 
L 922.647273 115.559049 
L 923.661818 115.005188 
L 924.676364 115.57145 
L 925.690909 114.934006 
L 926.705455 114.849025 
L 927.72 115.076304 
L 928.734545 114.580443 
L 929.749091 115.870985 
L 930.763636 116.037596 
L 931.778182 114.948555 
L 932.792727 115.473026 
L 933.807273 114.664643 
L 934.821818 113.104087 
L 935.836364 113.651569 
L 936.850909 113.780978 
L 937.865455 114.892053 
L 938.88 114.084386 
L 939.894545 114.021341 
L 940.909091 112.886278 
L 941.923636 116.406099 
L 942.938182 116.649131 
L 943.952727 115.147388 
L 944.967273 113.097772 
L 945.981818 113.486455 
L 946.996364 114.863867 
L 948.010909 115.830626 
L 949.025455 115.587789 
L 950.04 114.792653 
L 951.054545 114.508415 
L 952.069091 114.934006 
L 953.083636 114.424442 
L 954.098182 114.195601 
L 955.112727 114.508415 
L 956.127273 115.842148 
L 957.141818 115.033569 
L 958.156364 115.842148 
L 959.170909 113.854795 
L 960.185455 115.415905 
L 961.2 115.345765 
L 962.214545 114.73628 
L 963.229091 113.780978 
L 964.243636 114.934006 
L 965.258182 114.664643 
L 967.287273 116.153497 
L 968.301818 116.026822 
L 969.316364 113.854795 
L 970.330909 116.18253 
L 971.345455 113.864137 
L 972.36 114.195601 
L 973.374545 115.358882 
L 974.389091 114.564592 
L 975.403636 114.206406 
L 976.418182 115.755669 
L 977.432727 115.260198 
L 978.447273 115.090397 
L 979.461818 115.374309 
L 980.476364 116.084855 
L 981.490909 115.161221 
L 982.505455 113.513893 
L 983.52 116.143082 
L 984.534545 115.587789 
L 986.563636 113.780978 
L 987.578182 113.5771 
L 988.592727 115.88856 
L 989.607273 114.75148 
L 990.621818 115.033569 
L 991.636364 116.153497 
L 992.650909 112.967712 
L 993.665455 114.380015 
L 994.68 114.608466 
L 995.694545 115.530375 
L 996.709091 115.061983 
L 997.723636 115.633193 
L 998.738182 113.780978 
L 999.752727 114.184892 
L 1000.767273 111.6 
L 1001.781818 115.870985 
L 1002.796364 114.805802 
L 1003.810909 115.275267 
L 1004.825455 114.649118 
L 1005.84 117.240292 
L 1006.854545 116.77509 
L 1007.869091 114.039112 
L 1008.883636 113.521899 
L 1009.898182 114.066875 
L 1010.912727 115.473026 
L 1011.927273 114.849025 
L 1012.941818 115.047793 
L 1013.956364 116.716374 
L 1014.970909 114.279378 
L 1015.985455 112.337462 
L 1017 114.608466 
L 1018.014545 113.882461 
L 1019.029091 114.877341 
L 1020.043636 114.820839 
L 1021.058182 115.698255 
L 1022.072727 115.218179 
L 1023.087273 113.910159 
L 1024.101818 113.955855 
L 1025.116364 114.764434 
L 1026.130909 113.670544 
L 1027.145455 113.780978 
L 1028.16 113.357144 
L 1029.174545 115.033569 
L 1030.189091 114.15049 
L 1031.203636 114.863867 
L 1032.218182 113.983586 
L 1033.232727 113.937922 
L 1034.247273 113.411921 
L 1035.261818 114.094703 
L 1036.276364 113.698112 
L 1037.290909 114.029022 
L 1038.305455 114.223526 
L 1039.32 114.692829 
L 1040.334545 115.968953 
L 1041.349091 114.368623 
L 1042.363636 113.289347 
L 1043.378182 112.679797 
L 1044.392727 116.783292 
L 1045.407273 115.698255 
L 1046.421818 115.415905 
L 1047.436364 116.570236 
L 1048.450909 115.033569 
L 1049.465455 115.246723 
L 1050.48 116.619838 
L 1051.494545 114.335425 
L 1052.509091 112.913391 
L 1053.523636 113.780978 
L 1054.538182 114.066875 
L 1055.552727 115.864898 
L 1056.567273 113.82713 
L 1057.581818 113.234472 
L 1058.596364 114.934006 
L 1059.610909 115.288677 
L 1060.625455 116.143082 
L 1061.64 115.118876 
L 1063.669091 115.686278 
L 1064.683636 113.200265 
L 1065.698182 115.784441 
L 1066.712727 114.849025 
L 1067.727273 115.928887 
L 1068.741818 116.095465 
L 1069.756364 114.664643 
L 1070.770909 114.976839 
L 1071.785455 114.520458 
L 1072.8 114.324131 
L 1073.814545 115.657538 
L 1074.829091 114.296238 
L 1075.843636 115.813278 
L 1076.858182 114.464215 
L 1077.872727 114.452368 
L 1078.887273 114.805802 
L 1079.901818 112.729139 
L 1080.916364 114.492304 
L 1081.930909 114.692829 
L 1082.945455 114.368623 
L 1083.96 114.934006 
L 1084.974545 114.380015 
L 1085.989091 113.466796 
L 1088.018182 115.444449 
L 1089.032727 116.026822 
L 1090.047273 115.473026 
L 1091.061818 113.624001 
L 1093.090909 113.364532 
L 1094.105455 112.468271 
L 1095.12 114.279378 
L 1096.134545 115.288677 
L 1097.149091 114.920304 
L 1098.163636 115.473026 
L 1099.178182 118.039822 
L 1100.192727 112.679797 
L 1101.207273 114.904583 
L 1102.221818 116.552302 
L 1103.236364 112.540949 
L 1104.250909 114.576895 
L 1105.265455 115.061983 
L 1106.28 114.592746 
L 1107.294545 114.749202 
L 1108.309091 113.439391 
L 1109.323636 114.834151 
L 1110.338182 113.910159 
L 1111.352727 114.223526 
L 1112.367273 115.161221 
L 1113.381818 115.118876 
L 1114.396364 115.530375 
L 1115.410909 113.588068 
L 1116.425455 112.994922 
L 1117.44 115.061983 
L 1118.454545 112.918989 
L 1120.483636 114.664643 
L 1121.498182 113.937922 
L 1122.512727 112.179672 
L 1123.527273 114.721048 
L 1124.541818 113.466796 
L 1125.556364 114.792653 
L 1126.570909 115.473026 
L 1127.585455 115.600124 
L 1128.6 115.132807 
L 1129.614545 113.411921 
L 1130.629091 116.338205 
L 1131.643636 113.632463 
L 1133.672727 114.820839 
L 1134.687273 114.352057 
L 1135.701818 114.112181 
L 1136.716364 115.501668 
L 1137.730909 114.708192 
L 1138.745455 113.624001 
L 1139.76 114.223526 
L 1140.774545 114.296238 
L 1141.789091 114.112181 
L 1142.803636 115.345765 
L 1143.818182 113.494364 
L 1144.832727 113.282252 
L 1145.847273 113.541363 
L 1147.876364 115.146639 
L 1148.890909 115.345765 
L 1149.905455 116.074179 
L 1150.92 114.363481 
L 1151.934545 114.307401 
L 1152.949091 113.384516 
L 1153.963636 112.891714 
L 1154.978182 113.392002 
L 1155.992727 114.536471 
L 1157.007273 114.508415 
L 1158.021818 115.231784 
L 1160.050909 113.743515 
L 1161.065455 112.625801 
L 1162.08 113.459115 
L 1163.094545 114.094703 
L 1164.109091 115.755669 
L 1165.123636 114.436127 
L 1166.138182 116.561318 
L 1167.152727 112.967712 
L 1168.167273 114.011349 
L 1169.181818 114.664643 
L 1170.196364 113.049439 
L 1171.210909 112.65275 
L 1172.225455 113.568898 
L 1173.24 114.268344 
L 1174.254545 113.200265 
L 1175.269091 112.778188 
L 1176.283636 114.452368 
L 1177.298182 114.990769 
L 1178.312727 116.037596 
L 1179.327273 111.968471 
L 1180.341818 114.133109 
L 1181.356364 115.784441 
L 1182.370909 115.317189 
L 1183.385455 112.65275 
L 1184.4 113.910159 
L 1185.414545 113.955855 
L 1186.429091 114.764434 
L 1187.443636 114.492304 
L 1188.458182 115.332551 
L 1189.472727 113.309657 
L 1190.487273 113.043353 
L 1191.501818 115.628799 
L 1192.516364 115.628799 
L 1193.530909 113.200265 
L 1194.545455 116.347904 
L 1195.56 113.706867 
L 1196.574545 113.975547 
L 1197.589091 114.777485 
L 1198.603636 114.948555 
L 1199.618182 114.396484 
L 1200.632727 114.721048 
L 1201.647273 112.495187 
L 1202.661818 113.152322 
L 1203.676364 113.439391 
L 1204.690909 116.153497 
L 1205.705455 113.596401 
L 1206.72 113.282252 
L 1207.734545 113.377128 
L 1208.749091 113.725712 
L 1209.763636 113.734565 
L 1210.778182 112.7832 
L 1211.792727 114.564592 
L 1212.807273 113.983586 
L 1213.821818 113.043353 
L 1215.850909 115.20337 
L 1216.865455 114.468544 
L 1217.88 115.674235 
L 1218.894545 112.603115 
L 1219.909091 113.234472 
L 1220.923636 113.227572 
L 1221.938182 114.636522 
L 1223.967273 113.125015 
L 1224.981818 114.849025 
L 1225.996364 114.268344 
L 1227.010909 114.592746 
L 1228.025455 114.039112 
L 1229.04 113.07053 
L 1230.054545 114.25142 
L 1231.069091 114.962388 
L 1232.083636 115.501668 
L 1233.098182 113.439391 
L 1234.112727 114.408071 
L 1235.127273 114.363481 
L 1236.141818 115.703137 
L 1237.156364 114.324131 
L 1238.170909 116.279945 
L 1239.185455 113.679201 
L 1240.2 114.452368 
L 1241.214545 113.125015 
L 1242.229091 114.279378 
L 1243.243636 114.948555 
L 1244.258182 114.234397 
L 1245.272727 113.145845 
L 1245.272727 113.145845 
" clip-path="url(#pfb8197635a)" style="fill: none; stroke: #1f77b4; stroke-width: 1.5; stroke-linecap: square"/>
   </g>
   <g id="line2d_13">
    <path d="M 230.727273 615.6 
L 231.741818 251.562004 
L 245.945455 251.562004 
L 246.96 247.57913 
L 247.974545 245.949085 
L 248.989091 237.397123 
L 251.018182 226.579007 
L 252.032727 225.173767 
L 253.047273 227.600023 
L 254.061818 228.463151 
L 255.076364 233.315239 
L 256.090909 229.658036 
L 257.105455 224.757842 
L 258.12 223.701968 
L 259.134545 222.438993 
L 260.149091 220.658936 
L 261.163636 215.603719 
L 262.178182 216.046105 
L 263.192727 212.841345 
L 264.207273 213.091635 
L 265.221818 209.165329 
L 266.236364 203.370924 
L 267.250909 205.56798 
L 268.265455 200.497888 
L 269.28 198.085628 
L 270.294545 196.32409 
L 271.309091 196.092743 
L 272.323636 193.852756 
L 273.338182 192.683421 
L 274.352727 194.544033 
L 275.367273 193.783528 
L 276.381818 195.945074 
L 277.396364 195.322993 
L 278.410909 199.846319 
L 280.44 203.405262 
L 281.454545 199.799874 
L 282.469091 205.046048 
L 283.483636 206.057267 
L 284.498182 210.557745 
L 285.512727 210.964231 
L 287.541818 218.194632 
L 288.556364 213.983893 
L 289.570909 217.823558 
L 290.585455 217.63488 
L 291.6 219.203085 
L 292.614545 218.926431 
L 293.629091 220.38749 
L 294.643636 220.751111 
L 295.658182 220.110217 
L 296.672727 221.197696 
L 297.687273 220.835865 
L 298.701818 218.010088 
L 299.716364 221.113983 
L 300.730909 221.393078 
L 301.745455 224.334789 
L 302.76 220.665804 
L 303.774545 223.765175 
L 304.789091 222.680756 
L 305.803636 221.197696 
L 306.818182 224.334789 
L 307.832727 224.695742 
L 308.847273 221.67328 
L 309.861818 223.896472 
L 310.876364 224.125314 
L 311.890909 223.404386 
L 312.905455 225.774595 
L 313.92 223.481946 
L 314.934545 225.70325 
L 315.949091 222.884309 
L 316.963636 226.779304 
L 317.978182 225.415628 
L 318.992727 225.34321 
L 320.007273 223.089781 
L 321.021818 227.06914 
L 322.036364 223.841694 
L 323.050909 226.847524 
L 324.065455 226.710694 
L 325.08 225.777426 
L 326.094545 223.973219 
L 327.109091 226.572432 
L 328.123636 227.001213 
L 329.138182 224.049445 
L 330.152727 224.410007 
L 331.167273 227.06914 
L 332.181818 223.04288 
L 333.196364 225.70325 
L 334.210909 224.410007 
L 335.225455 226.062575 
L 336.24 226.421282 
L 337.254545 228.788724 
L 338.269091 228.432556 
L 339.283636 227.42687 
L 340.298182 227.36005 
L 341.312727 226.847524 
L 343.341818 228.496284 
L 344.356364 224.908635 
L 346.385455 224.125314 
L 347.4 225.415628 
L 348.414545 225.559293 
L 349.429091 227.06914 
L 350.443636 223.404386 
L 351.458182 225.774595 
L 352.472727 226.847524 
L 353.487273 227.718171 
L 354.501818 227.203822 
L 355.516364 225.129112 
L 356.530909 224.769917 
L 357.545455 226.847524 
L 358.56 224.334789 
L 359.574545 225.70325 
L 360.589091 222.317917 
L 361.603636 223.635799 
L 362.618182 223.973219 
L 363.632727 222.680756 
L 365.661818 221.872146 
L 366.676364 222.236743 
L 367.690909 223.24793 
L 368.705455 224.049445 
L 369.72 222.03638 
L 370.734545 224.695742 
L 371.749091 223.841694 
L 372.763636 225.415628 
L 373.778182 224.484801 
L 374.792727 222.884309 
L 375.807273 222.884309 
L 376.821818 223.199727 
L 378.850909 223.24793 
L 379.865455 224.695742 
L 380.88 224.410007 
L 381.894545 226.062575 
L 382.909091 224.908635 
L 383.923636 224.908635 
L 384.938182 225.487688 
L 385.952727 225.631451 
L 386.967273 225.991882 
L 387.981818 225.559293 
L 388.996364 222.72398 
L 390.010909 224.259182 
L 391.025455 223.24793 
L 392.04 225.270401 
L 393.054545 226.35163 
L 394.069091 227.652034 
L 395.083636 225.920798 
L 396.098182 226.79522 
L 397.112727 226.281588 
L 398.127273 225.413773 
L 399.141818 225.270401 
L 400.156364 225.486777 
L 401.170909 225.486777 
L 402.185455 227.718171 
L 403.2 226.502683 
L 404.214545 224.259182 
L 406.243636 225.559293 
L 407.258182 224.684415 
L 408.272727 221.53824 
L 409.287273 225.270401 
L 410.301818 226.281588 
L 411.316364 225.197136 
L 412.330909 225.559293 
L 413.345455 223.896472 
L 414.36 225.197136 
L 415.374545 225.631451 
L 416.389091 227.088897 
L 417.403636 225.123514 
L 418.418182 226.211155 
L 419.432727 224.695742 
L 420.447273 224.908635 
L 421.461818 223.01004 
L 422.476364 225.920798 
L 423.490909 225.486777 
L 424.505455 225.197136 
L 425.52 221.168566 
L 426.534545 224.183118 
L 427.549091 220.884686 
L 428.563636 223.169132 
L 429.578182 221.338659 
L 430.592727 222.438961 
L 431.607273 224.106631 
L 432.621818 223.819302 
L 433.636364 223.663757 
L 434.650909 223.819302 
L 435.665455 221.622441 
L 436.68 223.533111 
L 437.694545 223.533111 
L 438.709091 222.155049 
L 439.723636 222.155049 
L 440.738182 225.270401 
L 442.767273 223.169132 
L 443.781818 221.168566 
L 444.796364 220.884686 
L 445.810909 223.533111 
L 446.825455 222.72398 
L 447.84 223.169132 
L 448.854545 223.3762 
L 449.869091 223.454899 
L 450.883636 223.3762 
L 451.898182 221.622441 
L 452.912727 223.952356 
L 453.927273 221.453617 
L 454.941818 224.106631 
L 455.956364 222.357462 
L 456.970909 221.53824 
L 457.985455 221.53824 
L 459 224.106631 
L 460.014545 223.454899 
L 461.029091 223.3762 
L 462.043636 224.908635 
L 463.058182 224.908635 
L 464.072727 222.357462 
L 465.087273 220.232271 
L 466.101818 221.253905 
L 467.116364 224.183118 
L 468.130909 223.454899 
L 469.145455 221.872146 
L 470.16 221.338659 
L 471.174545 221.140998 
L 472.189091 220.407149 
L 473.203636 223.089781 
L 474.218182 223.169132 
L 475.232727 223.454899 
L 476.247273 224.183118 
L 477.261818 224.259182 
L 478.276364 225.123514 
L 479.290909 224.834296 
L 480.305455 222.357462 
L 481.32 222.438961 
L 482.334545 221.706153 
L 483.349091 220.774415 
L 484.363636 220.514718 
L 485.378182 219.581125 
L 486.392727 222.643131 
L 487.407273 223.741773 
L 488.421818 223.089781 
L 489.436364 222.236743 
L 490.450909 223.454899 
L 491.465455 225.849291 
L 492.48 224.106631 
L 493.494545 221.622441 
L 494.509091 223.01004 
L 495.523636 222.72398 
L 497.552727 225.340378 
L 498.567273 223.089781 
L 499.581818 221.706153 
L 500.596364 220.623948 
L 501.610909 224.318809 
L 502.625455 220.039199 
L 503.64 223.874665 
L 504.654545 224.608905 
L 505.669091 224.7596 
L 506.683636 226.79522 
L 507.698182 224.608905 
L 508.712727 223.3762 
L 509.727273 225.632427 
L 510.741818 223.874665 
L 511.756364 225.997578 
L 512.770909 224.7596 
L 513.785455 221.823682 
L 514.8 221.706153 
L 515.814545 223.297142 
L 516.829091 225.123514 
L 517.843636 221.453617 
L 518.858182 219.112961 
L 519.872727 224.395002 
L 520.887273 220.514718 
L 521.901818 220.798207 
L 522.916364 222.72398 
L 523.930909 221.823682 
L 524.945455 221.622441 
L 525.96 219.682966 
L 526.974545 218.839529 
L 529.003636 222.357462 
L 530.018182 222.438961 
L 531.032727 222.193097 
L 532.047273 225.049468 
L 533.061818 222.110198 
L 534.076364 224.470838 
L 535.090909 224.242094 
L 536.105455 221.082803 
L 537.12 224.242094 
L 538.134545 224.684415 
L 539.149091 224.7596 
L 541.178182 221.823682 
L 542.192727 221.082803 
L 543.207273 222.768081 
L 544.221818 223.533111 
L 545.236364 221.823682 
L 546.250909 222.193097 
L 547.265455 221.823682 
L 548.28 222.480003 
L 549.294545 221.453617 
L 550.309091 220.71137 
L 551.323636 219.772797 
L 552.338182 220.319954 
L 553.352727 221.53824 
L 554.367273 218.936 
L 555.381818 220.536069 
L 556.396364 219.950897 
L 557.410909 218.936 
L 559.44 223.506487 
L 560.454545 222.110198 
L 561.469091 223.663757 
L 562.483636 222.110198 
L 563.498182 223.137626 
L 564.512727 222.849157 
L 565.527273 222.397756 
L 566.541818 220.884686 
L 567.556364 219.682966 
L 568.570909 221.53824 
L 569.585455 222.026844 
L 570.6 221.368505 
L 571.614545 221.823682 
L 572.629091 221.082803 
L 573.643636 221.368505 
L 574.658182 222.27554 
L 575.672727 224.684415 
L 576.687273 218.940882 
L 577.701818 222.6044 
L 578.716364 223.217595 
L 579.730909 222.849157 
L 580.745455 222.849157 
L 581.76 222.6044 
L 582.774545 222.148311 
L 583.789091 222.480003 
L 584.803636 221.739677 
L 585.818182 222.026844 
L 586.832727 220.996552 
L 587.847273 222.480003 
L 588.861818 224.824793 
L 589.876364 223.427136 
L 590.890909 222.849157 
L 591.905455 224.242094 
L 592.92 220.734772 
L 593.934545 223.057169 
L 594.949091 222.768081 
L 595.963636 223.217595 
L 596.978182 222.315085 
L 597.992727 219.226259 
L 599.007273 223.217595 
L 600.021818 222.686452 
L 601.036364 222.480003 
L 602.050909 222.026844 
L 603.065455 224.164989 
L 604.08 221.858703 
L 605.094545 223.347362 
L 606.109091 219.786402 
L 607.123636 222.6044 
L 608.138182 219.786402 
L 609.152727 223.057169 
L 610.167273 222.026844 
L 611.181818 223.506487 
L 613.210909 221.943067 
L 614.225455 222.315085 
L 615.24 222.849157 
L 616.254545 223.874665 
L 617.269091 222.315085 
L 618.283636 221.082803 
L 619.298182 221.655216 
L 620.312727 220.996552 
L 621.327273 220.71137 
L 622.341818 222.026844 
L 623.356364 223.717721 
L 624.370909 219.966292 
L 625.385455 217.238418 
L 626.4 221.196719 
L 627.414545 220.996552 
L 628.429091 219.604494 
L 629.443636 223.717721 
L 632.487273 220.996552 
L 633.501818 221.570235 
L 634.516364 220.909813 
L 635.530909 219.309841 
L 636.545455 218.278573 
L 637.56 219.126403 
L 638.574545 223.267165 
L 639.589091 222.064176 
L 640.603636 220.358718 
L 641.618182 219.786402 
L 642.632727 221.282872 
L 643.647273 218.278573 
L 644.661818 223.186447 
L 645.676364 220.072039 
L 646.690909 218.940882 
L 647.705455 221.110175 
L 648.72 222.064176 
L 649.734545 222.315085 
L 650.749091 220.161577 
L 651.763636 220.269375 
L 652.778182 220.935493 
L 653.792727 222.064176 
L 654.807273 220.447638 
L 655.821818 222.521957 
L 656.836364 219.512742 
L 657.850909 220.734772 
L 658.865455 221.484797 
L 659.88 221.398904 
L 660.894545 221.484797 
L 661.909091 219.604494 
L 662.923636 221.858703 
L 663.938182 222.148311 
L 664.952727 219.8914 
L 665.967273 220.909813 
L 666.981818 221.196719 
L 667.996364 219.033903 
L 669.010909 221.570235 
L 670.025455 221.312458 
L 671.04 220.557844 
L 672.054545 221.979585 
L 673.069091 222.231959 
L 674.083636 220.536069 
L 675.098182 219.226259 
L 676.112727 219.695725 
L 677.127273 221.398904 
L 678.141818 218.65658 
L 679.156364 219.318629 
L 680.170909 220.646601 
L 682.2 218.65658 
L 684.229091 222.976223 
L 685.243636 219.410511 
L 686.258182 219.695725 
L 687.272727 220.536069 
L 688.287273 221.196719 
L 689.301818 221.282872 
L 690.316364 217.617434 
L 691.330909 219.592647 
L 692.345455 219.309841 
L 693.36 216.875383 
L 695.389091 220.996552 
L 696.403636 218.091196 
L 697.418182 219.126403 
L 698.432727 217.056022 
L 699.447273 219.410511 
L 700.461818 215.817556 
L 701.476364 216.020848 
L 702.490909 217.714068 
L 703.505455 217.617434 
L 704.52 219.033903 
L 705.534545 218.091196 
L 706.549091 218.940882 
L 707.563636 218.654627 
L 708.578182 220.250595 
L 709.592727 217.706127 
L 710.607273 219.98198 
L 711.621818 220.072039 
L 712.636364 221.110175 
L 713.650909 221.858703 
L 714.665455 218.65658 
L 715.68 218.940882 
L 716.694545 219.966292 
L 717.709091 216.957663 
L 718.723636 218.467674 
L 719.738182 218.373351 
L 720.752727 218.940882 
L 721.767273 218.562354 
L 722.781818 219.226259 
L 723.796364 220.646601 
L 724.810909 219.501904 
L 725.825455 220.072039 
L 726.84 220.447638 
L 727.854545 220.646601 
L 728.869091 221.196719 
L 729.883636 219.8914 
L 730.898182 219.695725 
L 731.912727 218.84337 
L 732.927273 221.398904 
L 733.941818 221.858703 
L 734.956364 220.161577 
L 735.970909 220.646601 
L 736.985455 219.033903 
L 738 220.250595 
L 739.014545 221.282872 
L 740.029091 223.347362 
L 741.043636 220.734772 
L 742.058182 220.447638 
L 743.072727 221.943067 
L 744.087273 221.282872 
L 745.101818 222.231959 
L 746.116364 220.909813 
L 747.130909 220.161577 
L 748.145455 221.110175 
L 749.16 219.218415 
L 751.189091 219.410511 
L 752.203636 217.995767 
L 753.218182 218.561378 
L 754.232727 219.604494 
L 755.247273 220.935493 
L 756.261818 218.750251 
L 757.276364 217.714068 
L 758.290909 218.658532 
L 759.305455 220.734772 
L 760.32 218.280493 
L 761.334545 219.218415 
L 762.349091 219.410511 
L 763.363636 218.373351 
L 764.378182 218.940882 
L 765.392727 220.072039 
L 766.407273 218.278573 
L 768.436364 219.98198 
L 769.450909 219.318629 
L 770.465455 217.520313 
L 771.48 218.278573 
L 772.494545 218.372375 
L 773.509091 218.183176 
L 774.523636 217.617434 
L 775.538182 218.278573 
L 776.552727 217.810116 
L 777.567273 217.995767 
L 778.581818 219.033903 
L 779.596364 216.19833 
L 780.610909 215.332402 
L 782.64 217.810116 
L 783.654545 217.140092 
L 784.669091 218.373351 
L 785.683636 217.995767 
L 786.698182 216.65904 
L 787.712727 219.033903 
L 788.727273 219.033903 
L 789.741818 216.957663 
L 790.756364 216.858686 
L 791.770909 217.238418 
L 792.785455 217.995767 
L 793.8 216.858686 
L 794.814545 217.899817 
L 795.829091 217.336191 
L 797.858182 215.158241 
L 798.872727 216.957663 
L 799.887273 220.358718 
L 800.901818 216.858686 
L 801.916364 219.033903 
L 802.930909 218.467641 
L 804.96 218.940882 
L 805.974545 216.858686 
L 806.989091 219.126403 
L 808.003636 220.909813 
L 809.018182 218.940882 
L 810.032727 216.478206 
L 811.047273 219.226259 
L 812.061818 218.847308 
L 813.076364 217.617434 
L 814.090909 216.65904 
L 815.105455 217.04118 
L 816.12 217.995767 
L 817.134545 218.750251 
L 818.149091 217.803216 
L 819.163636 217.803216 
L 821.192727 216.759156 
L 822.207273 220.072039 
L 823.221818 216.858686 
L 824.236364 218.847308 
L 825.250909 218.183176 
L 826.265455 217.714068 
L 827.28 218.562354 
L 828.294545 217.42254 
L 829.309091 219.604494 
L 830.323636 216.858686 
L 831.338182 216.858686 
L 832.352727 216.276183 
L 833.367273 217.238418 
L 834.381818 215.017635 
L 835.396364 217.42254 
L 836.410909 217.04118 
L 837.425455 214.458143 
L 838.44 216.65904 
L 839.454545 217.520313 
L 840.469091 216.759156 
L 841.483636 215.715096 
L 842.498182 215.99507 
L 843.512727 218.940882 
L 844.527273 217.899817 
L 845.541818 215.508257 
L 846.556364 217.324279 
L 847.570909 217.324279 
L 848.585455 218.467641 
L 849.6 215.817556 
L 850.614545 217.238418 
L 851.629091 216.097009 
L 852.643636 218.278573 
L 853.658182 216.65904 
L 854.672727 218.278573 
L 855.687273 217.520313 
L 856.701818 218.373351 
L 857.716364 216.858686 
L 858.730909 216.67795 
L 859.745455 217.153893 
L 860.76 216.65904 
L 861.774545 217.520313 
L 862.789091 215.365048 
L 863.803636 215.817556 
L 864.818182 217.995767 
L 865.832727 215.539209 
L 866.847273 212.24452 
L 867.861818 214.670972 
L 868.876364 215.919527 
L 869.890909 216.097009 
L 870.905455 215.436066 
L 871.92 215.817556 
L 872.934545 218.278573 
L 873.949091 218.373351 
L 875.978182 213.131896 
L 876.992727 215.539209 
L 878.007273 213.626879 
L 879.021818 214.949025 
L 880.036364 214.394057 
L 881.050909 213.242265 
L 882.065455 214.394057 
L 883.08 215.158241 
L 884.094545 215.715096 
L 885.109091 212.909336 
L 886.123636 213.735393 
L 887.138182 215.158241 
L 888.152727 214.180025 
L 889.167273 209.897127 
L 890.181818 211.074209 
L 891.196364 213.626879 
L 892.210909 215.332402 
L 893.225455 214.737368 
L 894.24 212.130441 
L 895.254545 214.670972 
L 896.269091 214.564834 
L 897.283636 213.685237 
L 898.298182 212.633138 
L 899.312727 213.407997 
L 900.327273 214.01081 
L 902.356364 214.01081 
L 903.370909 213.626879 
L 904.385455 213.794369 
L 905.4 214.843473 
L 906.414545 211.810694 
L 907.429091 211.810694 
L 908.443636 213.794369 
L 909.458182 211.465105 
L 910.472727 213.794369 
L 911.487273 212.470661 
L 912.501818 214.287334 
L 913.516364 211.855187 
L 914.530909 212.68414 
L 915.545455 214.287334 
L 916.56 214.01081 
L 917.574545 214.01081 
L 918.589091 215.332402 
L 919.603636 213.297661 
L 920.618182 214.180025 
L 921.632727 212.357916 
L 922.647273 209.867574 
L 923.661818 210.52881 
L 924.676364 210.52881 
L 925.690909 212.24452 
L 926.705455 213.297661 
L 927.72 212.24452 
L 928.734545 213.902947 
L 929.749091 215.123154 
L 930.763636 215.99507 
L 931.778182 215.403942 
L 932.792727 212.24452 
L 933.807273 212.909336 
L 934.821818 211.623904 
L 935.836364 211.855187 
L 936.850909 214.458143 
L 937.865455 214.01081 
L 938.88 210.409914 
L 939.894545 208.837835 
L 940.909091 211.69616 
L 941.923636 214.180025 
L 942.938182 213.794369 
L 943.952727 211.307802 
L 944.967273 210.647088 
L 945.981818 214.843473 
L 946.996364 216.174309 
L 948.010909 213.407997 
L 949.025455 209.897127 
L 950.04 211.191347 
L 951.054545 211.191347 
L 953.083636 209.625388 
L 954.098182 210.918729 
L 955.112727 208.173768 
L 956.127273 210.682629 
L 957.141818 211.074209 
L 958.156364 209.897127 
L 959.170909 209.897127 
L 960.185455 212.633138 
L 961.2 212.79708 
L 962.214545 212.130441 
L 963.229091 212.406802 
L 964.243636 214.350834 
L 965.258182 213.297661 
L 966.272727 211.69616 
L 967.287273 214.458143 
L 968.301818 212.909336 
L 970.330909 213.575487 
L 971.345455 214.242841 
L 972.36 214.564834 
L 974.389091 211.113364 
L 975.403636 212.015744 
L 976.418182 210.257721 
L 977.432727 212.357916 
L 978.447273 212.130441 
L 979.461818 213.575487 
L 980.476364 210.290302 
L 981.490909 210.59882 
L 982.505455 209.380403 
L 983.52 212.962617 
L 984.534545 212.130441 
L 985.549091 211.074209 
L 986.563636 210.563571 
L 987.578182 212.24452 
L 988.592727 212.24452 
L 989.607273 213.902947 
L 990.621818 209.108631 
L 991.636364 209.108631 
L 992.650909 211.900265 
L 993.665455 212.24452 
L 994.68 212.292626 
L 996.709091 211.623904 
L 997.723636 209.653249 
L 998.738182 211.231251 
L 999.752727 212.015744 
L 1000.767273 208.859642 
L 1001.781818 211.074209 
L 1002.796364 208.837835 
L 1003.810909 210.682629 
L 1004.825455 210.837946 
L 1005.84 212.633138 
L 1007.869091 210.682629 
L 1008.883636 209.897127 
L 1009.898182 208.713211 
L 1010.912727 211.348519 
L 1011.927273 212.909336 
L 1012.941818 210.801005 
L 1013.956364 210.563571 
L 1014.970909 210.956387 
L 1015.985455 210.018009 
L 1017 208.837835 
L 1018.014545 209.35469 
L 1019.029091 211.580974 
L 1020.043636 211.580974 
L 1021.058182 209.625388 
L 1022.072727 209.625388 
L 1023.087273 210.018009 
L 1024.101818 210.682629 
L 1025.116364 212.406802 
L 1026.130909 211.074209 
L 1027.145455 212.633138 
L 1028.16 212.633138 
L 1030.189091 207.778641 
L 1031.203636 211.191347 
L 1032.218182 208.713211 
L 1033.232727 207.92006 
L 1034.247273 210.956387 
L 1035.261818 208.713211 
L 1036.276364 208.837835 
L 1037.290909 209.35469 
L 1038.305455 209.653249 
L 1039.32 210.169941 
L 1040.334545 213.407997 
L 1041.349091 212.745264 
L 1042.363636 212.962617 
L 1043.378182 214.737368 
L 1045.407273 212.520231 
L 1046.421818 209.625388 
L 1047.436364 211.855187 
L 1048.450909 212.406802 
L 1049.465455 212.79708 
L 1050.48 213.744473 
L 1051.494545 211.465105 
L 1052.509091 211.580974 
L 1053.523636 210.048896 
L 1054.538182 211.307802 
L 1055.552727 211.969819 
L 1056.567273 211.507189 
L 1057.581818 210.443828 
L 1058.596364 211.739838 
L 1059.610909 214.072032 
L 1060.625455 210.138239 
L 1061.64 209.50327 
L 1062.654545 213.020942 
L 1063.669091 211.900265 
L 1064.683636 213.575487 
L 1065.698182 209.653249 
L 1066.712727 211.855187 
L 1067.727273 212.79708 
L 1068.741818 211.969819 
L 1069.756364 212.745264 
L 1070.770909 208.047223 
L 1071.785455 208.031893 
L 1072.8 214.630613 
L 1073.814545 214.91153 
L 1074.829091 211.855187 
L 1075.843636 210.682629 
L 1076.858182 211.113364 
L 1077.872727 211.739838 
L 1078.887273 210.018009 
L 1079.901818 208.837835 
L 1080.916364 207.92006 
L 1081.930909 210.682629 
L 1082.945455 209.775595 
L 1083.96 208.713211 
L 1084.974545 211.465105 
L 1085.989091 210.048896 
L 1087.003636 210.956387 
L 1088.018182 210.32337 
L 1089.032727 210.443828 
L 1090.047273 210.048896 
L 1091.061818 208.984462 
L 1092.076364 208.190335 
L 1093.090909 209.380403 
L 1094.105455 210.048896 
L 1095.12 211.465105 
L 1096.134545 210.956387 
L 1097.149091 208.837835 
L 1098.163636 211.855187 
L 1099.178182 207.26299 
L 1100.192727 207.663358 
L 1102.221818 209.775595 
L 1104.250909 206.191233 
L 1106.28 210.837946 
L 1107.294545 210.718725 
L 1108.309091 211.784201 
L 1109.323636 211.784201 
L 1110.338182 210.718725 
L 1111.352727 211.389887 
L 1112.367273 209.681532 
L 1113.381818 210.994728 
L 1114.396364 210.563571 
L 1115.410909 208.984462 
L 1116.425455 206.993204 
L 1117.44 208.984462 
L 1118.454545 208.984462 
L 1119.469091 209.897127 
L 1120.483636 209.231986 
L 1121.498182 210.837946 
L 1122.512727 210.837946 
L 1123.527273 209.927136 
L 1124.541818 207.522329 
L 1125.556364 211.623904 
L 1126.570909 208.859642 
L 1127.585455 208.461684 
L 1128.6 209.653249 
L 1129.614545 208.31701 
L 1130.629091 209.775595 
L 1131.643636 207.792051 
L 1132.658182 208.587773 
L 1133.672727 210.169941 
L 1134.687273 209.50327 
L 1135.701818 211.348519 
L 1136.716364 207.522329 
L 1137.730909 208.568146 
L 1138.745455 208.713211 
L 1139.76 208.587773 
L 1140.774545 210.837946 
L 1141.789091 211.113364 
L 1143.818182 208.062879 
L 1144.832727 209.380403 
L 1145.847273 211.113364 
L 1146.861818 207.522329 
L 1147.876364 209.108631 
L 1148.890909 208.442969 
L 1149.905455 208.062879 
L 1150.92 207.132182 
L 1151.934545 208.734009 
L 1152.949091 206.993204 
L 1153.963636 209.653249 
L 1154.978182 208.062879 
L 1155.992727 207.26299 
L 1157.007273 209.530219 
L 1159.036364 208.062879 
L 1160.050909 208.334716 
L 1161.065455 210.080272 
L 1162.08 210.994728 
L 1163.094545 213.242232 
L 1164.109091 209.406473 
L 1165.123636 211.667485 
L 1166.138182 209.132521 
L 1167.152727 208.734009 
L 1168.167273 210.202163 
L 1169.181818 206.861875 
L 1170.196364 208.734009 
L 1171.210909 207.934674 
L 1172.225455 208.334716 
L 1173.24 208.859642 
L 1174.254545 208.587773 
L 1175.269091 208.713211 
L 1176.283636 207.26299 
L 1177.298182 209.282012 
L 1178.312727 210.956387 
L 1179.327273 209.132521 
L 1180.341818 211.231251 
L 1181.356364 210.956387 
L 1182.370909 211.231251 
L 1183.385455 210.718725 
L 1184.4 210.443828 
L 1185.414545 209.380403 
L 1186.429091 209.653249 
L 1187.443636 209.256787 
L 1188.458182 209.108631 
L 1189.472727 209.775595 
L 1190.487273 209.927136 
L 1191.501818 211.074209 
L 1192.516364 211.231251 
L 1193.530909 207.123817 
L 1194.545455 210.994728 
L 1195.56 208.607692 
L 1196.574545 207.26299 
L 1197.589091 208.984462 
L 1198.603636 209.50327 
L 1199.618182 208.173768 
L 1200.632727 207.92006 
L 1201.647273 210.048896 
L 1202.661818 207.26299 
L 1203.676364 205.119508 
L 1205.705455 208.734009 
L 1206.72 206.592641 
L 1207.734545 208.047223 
L 1208.749091 207.650794 
L 1209.763636 206.592641 
L 1210.778182 208.190335 
L 1211.792727 204.047717 
L 1212.807273 205.391377 
L 1213.821818 205.789043 
L 1214.836364 210.718725 
L 1215.850909 211.623904 
L 1216.865455 211.900265 
L 1217.88 207.132182 
L 1218.894545 207.403563 
L 1219.909091 209.282012 
L 1220.923636 210.32337 
L 1221.938182 210.048896 
L 1222.952727 208.734009 
L 1225.996364 210.59882 
L 1227.010909 207.805753 
L 1228.025455 208.062879 
L 1229.04 208.587773 
L 1230.054545 206.729732 
L 1231.069091 206.724492 
L 1232.083636 208.062879 
L 1233.098182 206.592641 
L 1234.112727 207.934674 
L 1235.127273 205.92252 
L 1236.141818 205.653808 
L 1237.156364 207.792051 
L 1238.170909 208.207097 
L 1239.185455 207.92006 
L 1240.2 207.253584 
L 1241.214545 208.062879 
L 1242.229091 209.132521 
L 1244.258182 207.132182 
L 1245.272727 207.805753 
L 1245.272727 207.805753 
" clip-path="url(#pfb8197635a)" style="fill: none; stroke: #ff7f0e; stroke-width: 1.5; stroke-linecap: square"/>
   </g>
   <g id="patch_3">
    <path d="M 180 640.8 
L 180 86.4 
" style="fill: none; stroke: #000000; stroke-width: 0.8; stroke-linejoin: miter; stroke-linecap: square"/>
   </g>
   <g id="patch_4">
    <path d="M 1296 640.8 
L 1296 86.4 
" style="fill: none; stroke: #000000; stroke-width: 0.8; stroke-linejoin: miter; stroke-linecap: square"/>
   </g>
   <g id="patch_5">
    <path d="M 180 640.8 
L 1296 640.8 
" style="fill: none; stroke: #000000; stroke-width: 0.8; stroke-linejoin: miter; stroke-linecap: square"/>
   </g>
   <g id="patch_6">
    <path d="M 180 86.4 
L 1296 86.4 
" style="fill: none; stroke: #000000; stroke-width: 0.8; stroke-linejoin: miter; stroke-linecap: square"/>
   </g>
   <g id="text_14">
    <!-- F1 score -->
    <g transform="translate(712.705312 80.4)scale(0.12 -0.12)">
     <use xlink:href="#DejaVuSans-46"/>
     <use xlink:href="#DejaVuSans-31" x="57.519531"/>
     <use xlink:href="#DejaVuSans-20" x="121.142578"/>
     <use xlink:href="#DejaVuSans-73" x="152.929688"/>
     <use xlink:href="#DejaVuSans-63" x="205.029297"/>
     <use xlink:href="#DejaVuSans-6f" x="260.009766"/>
     <use xlink:href="#DejaVuSans-72" x="321.191406"/>
     <use xlink:href="#DejaVuSans-65" x="360.054688"/>
    </g>
   </g>
   <g id="legend_1">
    <g id="patch_7">
     <path d="M 187 123.75625 
L 347.076563 123.75625 
Q 349.076563 123.75625 349.076563 121.75625 
L 349.076563 93.4 
Q 349.076563 91.4 347.076563 91.4 
L 187 91.4 
Q 185 91.4 185 93.4 
L 185 121.75625 
Q 185 123.75625 187 123.75625 
z
" style="fill: #ffffff; opacity: 0.8; stroke: #cccccc; stroke-linejoin: miter"/>
    </g>
    <g id="line2d_14">
     <path d="M 189 99.498437 
L 199 99.498437 
L 209 99.498437 
" style="fill: none; stroke: #1f77b4; stroke-width: 1.5; stroke-linecap: square"/>
    </g>
    <g id="text_15">
     <!-- F1 score (training data) -->
     <g transform="translate(217 102.998437)scale(0.1 -0.1)">
      <defs>
       <path id="DejaVuSans-28" d="M 1984 4856 
Q 1566 4138 1362 3434 
Q 1159 2731 1159 2009 
Q 1159 1288 1364 580 
Q 1569 -128 1984 -844 
L 1484 -844 
Q 1016 -109 783 600 
Q 550 1309 550 2009 
Q 550 2706 781 3412 
Q 1013 4119 1484 4856 
L 1984 4856 
z
" transform="scale(0.015625)"/>
       <path id="DejaVuSans-74" d="M 1172 4494 
L 1172 3500 
L 2356 3500 
L 2356 3053 
L 1172 3053 
L 1172 1153 
Q 1172 725 1289 603 
Q 1406 481 1766 481 
L 2356 481 
L 2356 0 
L 1766 0 
Q 1100 0 847 248 
Q 594 497 594 1153 
L 594 3053 
L 172 3053 
L 172 3500 
L 594 3500 
L 594 4494 
L 1172 4494 
z
" transform="scale(0.015625)"/>
       <path id="DejaVuSans-69" d="M 603 3500 
L 1178 3500 
L 1178 0 
L 603 0 
L 603 3500 
z
M 603 4863 
L 1178 4863 
L 1178 4134 
L 603 4134 
L 603 4863 
z
" transform="scale(0.015625)"/>
       <path id="DejaVuSans-6e" d="M 3513 2113 
L 3513 0 
L 2938 0 
L 2938 2094 
Q 2938 2591 2744 2837 
Q 2550 3084 2163 3084 
Q 1697 3084 1428 2787 
Q 1159 2491 1159 1978 
L 1159 0 
L 581 0 
L 581 3500 
L 1159 3500 
L 1159 2956 
Q 1366 3272 1645 3428 
Q 1925 3584 2291 3584 
Q 2894 3584 3203 3211 
Q 3513 2838 3513 2113 
z
" transform="scale(0.015625)"/>
       <path id="DejaVuSans-67" d="M 2906 1791 
Q 2906 2416 2648 2759 
Q 2391 3103 1925 3103 
Q 1463 3103 1205 2759 
Q 947 2416 947 1791 
Q 947 1169 1205 825 
Q 1463 481 1925 481 
Q 2391 481 2648 825 
Q 2906 1169 2906 1791 
z
M 3481 434 
Q 3481 -459 3084 -895 
Q 2688 -1331 1869 -1331 
Q 1566 -1331 1297 -1286 
Q 1028 -1241 775 -1147 
L 775 -588 
Q 1028 -725 1275 -790 
Q 1522 -856 1778 -856 
Q 2344 -856 2625 -561 
Q 2906 -266 2906 331 
L 2906 616 
Q 2728 306 2450 153 
Q 2172 0 1784 0 
Q 1141 0 747 490 
Q 353 981 353 1791 
Q 353 2603 747 3093 
Q 1141 3584 1784 3584 
Q 2172 3584 2450 3431 
Q 2728 3278 2906 2969 
L 2906 3500 
L 3481 3500 
L 3481 434 
z
" transform="scale(0.015625)"/>
       <path id="DejaVuSans-64" d="M 2906 2969 
L 2906 4863 
L 3481 4863 
L 3481 0 
L 2906 0 
L 2906 525 
Q 2725 213 2448 61 
Q 2172 -91 1784 -91 
Q 1150 -91 751 415 
Q 353 922 353 1747 
Q 353 2572 751 3078 
Q 1150 3584 1784 3584 
Q 2172 3584 2448 3432 
Q 2725 3281 2906 2969 
z
M 947 1747 
Q 947 1113 1208 752 
Q 1469 391 1925 391 
Q 2381 391 2643 752 
Q 2906 1113 2906 1747 
Q 2906 2381 2643 2742 
Q 2381 3103 1925 3103 
Q 1469 3103 1208 2742 
Q 947 2381 947 1747 
z
" transform="scale(0.015625)"/>
       <path id="DejaVuSans-29" d="M 513 4856 
L 1013 4856 
Q 1481 4119 1714 3412 
Q 1947 2706 1947 2009 
Q 1947 1309 1714 600 
Q 1481 -109 1013 -844 
L 513 -844 
Q 928 -128 1133 580 
Q 1338 1288 1338 2009 
Q 1338 2731 1133 3434 
Q 928 4138 513 4856 
z
" transform="scale(0.015625)"/>
      </defs>
      <use xlink:href="#DejaVuSans-46"/>
      <use xlink:href="#DejaVuSans-31" x="57.519531"/>
      <use xlink:href="#DejaVuSans-20" x="121.142578"/>
      <use xlink:href="#DejaVuSans-73" x="152.929688"/>
      <use xlink:href="#DejaVuSans-63" x="205.029297"/>
      <use xlink:href="#DejaVuSans-6f" x="260.009766"/>
      <use xlink:href="#DejaVuSans-72" x="321.191406"/>
      <use xlink:href="#DejaVuSans-65" x="360.054688"/>
      <use xlink:href="#DejaVuSans-20" x="421.578125"/>
      <use xlink:href="#DejaVuSans-28" x="453.365234"/>
      <use xlink:href="#DejaVuSans-74" x="492.378906"/>
      <use xlink:href="#DejaVuSans-72" x="531.587891"/>
      <use xlink:href="#DejaVuSans-61" x="572.701172"/>
      <use xlink:href="#DejaVuSans-69" x="633.980469"/>
      <use xlink:href="#DejaVuSans-6e" x="661.763672"/>
      <use xlink:href="#DejaVuSans-69" x="725.142578"/>
      <use xlink:href="#DejaVuSans-6e" x="752.925781"/>
      <use xlink:href="#DejaVuSans-67" x="816.304688"/>
      <use xlink:href="#DejaVuSans-20" x="879.78125"/>
      <use xlink:href="#DejaVuSans-64" x="911.568359"/>
      <use xlink:href="#DejaVuSans-61" x="975.044922"/>
      <use xlink:href="#DejaVuSans-74" x="1036.324219"/>
      <use xlink:href="#DejaVuSans-61" x="1075.533203"/>
      <use xlink:href="#DejaVuSans-29" x="1136.8125"/>
     </g>
    </g>
    <g id="line2d_15">
     <path d="M 189 114.176562 
L 199 114.176562 
L 209 114.176562 
" style="fill: none; stroke: #ff7f0e; stroke-width: 1.5; stroke-linecap: square"/>
    </g>
    <g id="text_16">
     <!-- F1 score (validation data) -->
     <g transform="translate(217 117.676562)scale(0.1 -0.1)">
      <use xlink:href="#DejaVuSans-46"/>
      <use xlink:href="#DejaVuSans-31" x="57.519531"/>
      <use xlink:href="#DejaVuSans-20" x="121.142578"/>
      <use xlink:href="#DejaVuSans-73" x="152.929688"/>
      <use xlink:href="#DejaVuSans-63" x="205.029297"/>
      <use xlink:href="#DejaVuSans-6f" x="260.009766"/>
      <use xlink:href="#DejaVuSans-72" x="321.191406"/>
      <use xlink:href="#DejaVuSans-65" x="360.054688"/>
      <use xlink:href="#DejaVuSans-20" x="421.578125"/>
      <use xlink:href="#DejaVuSans-28" x="453.365234"/>
      <use xlink:href="#DejaVuSans-76" x="492.378906"/>
      <use xlink:href="#DejaVuSans-61" x="551.558594"/>
      <use xlink:href="#DejaVuSans-6c" x="612.837891"/>
      <use xlink:href="#DejaVuSans-69" x="640.621094"/>
      <use xlink:href="#DejaVuSans-64" x="668.404297"/>
      <use xlink:href="#DejaVuSans-61" x="731.880859"/>
      <use xlink:href="#DejaVuSans-74" x="793.160156"/>
      <use xlink:href="#DejaVuSans-69" x="832.369141"/>
      <use xlink:href="#DejaVuSans-6f" x="860.152344"/>
      <use xlink:href="#DejaVuSans-6e" x="921.333984"/>
      <use xlink:href="#DejaVuSans-20" x="984.712891"/>
      <use xlink:href="#DejaVuSans-64" x="1016.5"/>
      <use xlink:href="#DejaVuSans-61" x="1079.976562"/>
      <use xlink:href="#DejaVuSans-74" x="1141.255859"/>
      <use xlink:href="#DejaVuSans-61" x="1180.464844"/>
      <use xlink:href="#DejaVuSans-29" x="1241.744141"/>
     </g>
    </g>
   </g>
  </g>
 </g>
 <defs>
  <clipPath id="pfb8197635a">
   <rect x="180" y="86.4" width="1116" height="554.4"/>
  </clipPath>
 </defs>
</svg>
