<?xml version="1.0" encoding="utf-8" standalone="no"?>
<!DOCTYPE svg PUBLIC "-//W3C//DTD SVG 1.1//EN"
  "http://www.w3.org/Graphics/SVG/1.1/DTD/svg11.dtd">
<svg xmlns:xlink="http://www.w3.org/1999/xlink" width="1440pt" height="720pt" viewBox="0 0 1440 720" xmlns="http://www.w3.org/2000/svg" version="1.1">
 <metadata>
  <rdf:RDF xmlns:dc="http://purl.org/dc/elements/1.1/" xmlns:cc="http://creativecommons.org/ns#" xmlns:rdf="http://www.w3.org/1999/02/22-rdf-syntax-ns#">
   <cc:Work>
    <dc:type rdf:resource="http://purl.org/dc/dcmitype/StillImage"/>
    <dc:date>2022-05-24T18:41:09.000302</dc:date>
    <dc:format>image/svg+xml</dc:format>
    <dc:creator>
     <cc:Agent>
      <dc:title>Matplotlib v3.5.0, https://matplotlib.org/</dc:title>
     </cc:Agent>
    </dc:creator>
   </cc:Work>
  </rdf:RDF>
 </metadata>
 <defs>
  <style type="text/css">*{stroke-linejoin: round; stroke-linecap: butt}</style>
 </defs>
 <g id="figure_1">
  <g id="patch_1">
   <path d="M 0 720 
L 1440 720 
L 1440 0 
L 0 0 
z
" style="fill: #ffffff"/>
  </g>
  <g id="axes_1">
   <g id="patch_2">
    <path d="M 180 640.8 
L 1296 640.8 
L 1296 86.4 
L 180 86.4 
z
" style="fill: #ffffff"/>
   </g>
   <g id="matplotlib.axis_1">
    <g id="xtick_1">
     <g id="line2d_1">
      <defs>
       <path id="m698e20f74c" d="M 0 0 
L 0 3.5 
" style="stroke: #000000; stroke-width: 0.8"/>
      </defs>
      <g>
       <use xlink:href="#m698e20f74c" x="230.727273" y="640.8" style="stroke: #000000; stroke-width: 0.8"/>
      </g>
     </g>
     <g id="text_1">
      <!-- 0 -->
      <g transform="translate(227.546023 655.398438)scale(0.1 -0.1)">
       <defs>
        <path id="DejaVuSans-30" d="M 2034 4250 
Q 1547 4250 1301 3770 
Q 1056 3291 1056 2328 
Q 1056 1369 1301 889 
Q 1547 409 2034 409 
Q 2525 409 2770 889 
Q 3016 1369 3016 2328 
Q 3016 3291 2770 3770 
Q 2525 4250 2034 4250 
z
M 2034 4750 
Q 2819 4750 3233 4129 
Q 3647 3509 3647 2328 
Q 3647 1150 3233 529 
Q 2819 -91 2034 -91 
Q 1250 -91 836 529 
Q 422 1150 422 2328 
Q 422 3509 836 4129 
Q 1250 4750 2034 4750 
z
" transform="scale(0.015625)"/>
       </defs>
       <use xlink:href="#DejaVuSans-30"/>
      </g>
     </g>
    </g>
    <g id="xtick_2">
     <g id="line2d_2">
      <g>
       <use xlink:href="#m698e20f74c" x="434.042995" y="640.8" style="stroke: #000000; stroke-width: 0.8"/>
      </g>
     </g>
     <g id="text_2">
      <!-- 100 -->
      <g transform="translate(424.499245 655.398438)scale(0.1 -0.1)">
       <defs>
        <path id="DejaVuSans-31" d="M 794 531 
L 1825 531 
L 1825 4091 
L 703 3866 
L 703 4441 
L 1819 4666 
L 2450 4666 
L 2450 531 
L 3481 531 
L 3481 0 
L 794 0 
L 794 531 
z
" transform="scale(0.015625)"/>
       </defs>
       <use xlink:href="#DejaVuSans-31"/>
       <use xlink:href="#DejaVuSans-30" x="63.623047"/>
       <use xlink:href="#DejaVuSans-30" x="127.246094"/>
      </g>
     </g>
    </g>
    <g id="xtick_3">
     <g id="line2d_3">
      <g>
       <use xlink:href="#m698e20f74c" x="637.358717" y="640.8" style="stroke: #000000; stroke-width: 0.8"/>
      </g>
     </g>
     <g id="text_3">
      <!-- 200 -->
      <g transform="translate(627.814967 655.398438)scale(0.1 -0.1)">
       <defs>
        <path id="DejaVuSans-32" d="M 1228 531 
L 3431 531 
L 3431 0 
L 469 0 
L 469 531 
Q 828 903 1448 1529 
Q 2069 2156 2228 2338 
Q 2531 2678 2651 2914 
Q 2772 3150 2772 3378 
Q 2772 3750 2511 3984 
Q 2250 4219 1831 4219 
Q 1534 4219 1204 4116 
Q 875 4013 500 3803 
L 500 4441 
Q 881 4594 1212 4672 
Q 1544 4750 1819 4750 
Q 2544 4750 2975 4387 
Q 3406 4025 3406 3419 
Q 3406 3131 3298 2873 
Q 3191 2616 2906 2266 
Q 2828 2175 2409 1742 
Q 1991 1309 1228 531 
z
" transform="scale(0.015625)"/>
       </defs>
       <use xlink:href="#DejaVuSans-32"/>
       <use xlink:href="#DejaVuSans-30" x="63.623047"/>
       <use xlink:href="#DejaVuSans-30" x="127.246094"/>
      </g>
     </g>
    </g>
    <g id="xtick_4">
     <g id="line2d_4">
      <g>
       <use xlink:href="#m698e20f74c" x="840.67444" y="640.8" style="stroke: #000000; stroke-width: 0.8"/>
      </g>
     </g>
     <g id="text_4">
      <!-- 300 -->
      <g transform="translate(831.13069 655.398438)scale(0.1 -0.1)">
       <defs>
        <path id="DejaVuSans-33" d="M 2597 2516 
Q 3050 2419 3304 2112 
Q 3559 1806 3559 1356 
Q 3559 666 3084 287 
Q 2609 -91 1734 -91 
Q 1441 -91 1130 -33 
Q 819 25 488 141 
L 488 750 
Q 750 597 1062 519 
Q 1375 441 1716 441 
Q 2309 441 2620 675 
Q 2931 909 2931 1356 
Q 2931 1769 2642 2001 
Q 2353 2234 1838 2234 
L 1294 2234 
L 1294 2753 
L 1863 2753 
Q 2328 2753 2575 2939 
Q 2822 3125 2822 3475 
Q 2822 3834 2567 4026 
Q 2313 4219 1838 4219 
Q 1578 4219 1281 4162 
Q 984 4106 628 3988 
L 628 4550 
Q 988 4650 1302 4700 
Q 1616 4750 1894 4750 
Q 2613 4750 3031 4423 
Q 3450 4097 3450 3541 
Q 3450 3153 3228 2886 
Q 3006 2619 2597 2516 
z
" transform="scale(0.015625)"/>
       </defs>
       <use xlink:href="#DejaVuSans-33"/>
       <use xlink:href="#DejaVuSans-30" x="63.623047"/>
       <use xlink:href="#DejaVuSans-30" x="127.246094"/>
      </g>
     </g>
    </g>
    <g id="xtick_5">
     <g id="line2d_5">
      <g>
       <use xlink:href="#m698e20f74c" x="1043.990162" y="640.8" style="stroke: #000000; stroke-width: 0.8"/>
      </g>
     </g>
     <g id="text_5">
      <!-- 400 -->
      <g transform="translate(1034.446412 655.398438)scale(0.1 -0.1)">
       <defs>
        <path id="DejaVuSans-34" d="M 2419 4116 
L 825 1625 
L 2419 1625 
L 2419 4116 
z
M 2253 4666 
L 3047 4666 
L 3047 1625 
L 3713 1625 
L 3713 1100 
L 3047 1100 
L 3047 0 
L 2419 0 
L 2419 1100 
L 313 1100 
L 313 1709 
L 2253 4666 
z
" transform="scale(0.015625)"/>
       </defs>
       <use xlink:href="#DejaVuSans-34"/>
       <use xlink:href="#DejaVuSans-30" x="63.623047"/>
       <use xlink:href="#DejaVuSans-30" x="127.246094"/>
      </g>
     </g>
    </g>
    <g id="xtick_6">
     <g id="line2d_6">
      <g>
       <use xlink:href="#m698e20f74c" x="1247.305884" y="640.8" style="stroke: #000000; stroke-width: 0.8"/>
      </g>
     </g>
     <g id="text_6">
      <!-- 500 -->
      <g transform="translate(1237.762134 655.398438)scale(0.1 -0.1)">
       <defs>
        <path id="DejaVuSans-35" d="M 691 4666 
L 3169 4666 
L 3169 4134 
L 1269 4134 
L 1269 2991 
Q 1406 3038 1543 3061 
Q 1681 3084 1819 3084 
Q 2600 3084 3056 2656 
Q 3513 2228 3513 1497 
Q 3513 744 3044 326 
Q 2575 -91 1722 -91 
Q 1428 -91 1123 -41 
Q 819 9 494 109 
L 494 744 
Q 775 591 1075 516 
Q 1375 441 1709 441 
Q 2250 441 2565 725 
Q 2881 1009 2881 1497 
Q 2881 1984 2565 2268 
Q 2250 2553 1709 2553 
Q 1456 2553 1204 2497 
Q 953 2441 691 2322 
L 691 4666 
z
" transform="scale(0.015625)"/>
       </defs>
       <use xlink:href="#DejaVuSans-35"/>
       <use xlink:href="#DejaVuSans-30" x="63.623047"/>
       <use xlink:href="#DejaVuSans-30" x="127.246094"/>
      </g>
     </g>
    </g>
    <g id="text_7">
     <!-- No. epoch -->
     <g transform="translate(712.88125 669.076563)scale(0.1 -0.1)">
      <defs>
       <path id="DejaVuSans-4e" d="M 628 4666 
L 1478 4666 
L 3547 763 
L 3547 4666 
L 4159 4666 
L 4159 0 
L 3309 0 
L 1241 3903 
L 1241 0 
L 628 0 
L 628 4666 
z
" transform="scale(0.015625)"/>
       <path id="DejaVuSans-6f" d="M 1959 3097 
Q 1497 3097 1228 2736 
Q 959 2375 959 1747 
Q 959 1119 1226 758 
Q 1494 397 1959 397 
Q 2419 397 2687 759 
Q 2956 1122 2956 1747 
Q 2956 2369 2687 2733 
Q 2419 3097 1959 3097 
z
M 1959 3584 
Q 2709 3584 3137 3096 
Q 3566 2609 3566 1747 
Q 3566 888 3137 398 
Q 2709 -91 1959 -91 
Q 1206 -91 779 398 
Q 353 888 353 1747 
Q 353 2609 779 3096 
Q 1206 3584 1959 3584 
z
" transform="scale(0.015625)"/>
       <path id="DejaVuSans-2e" d="M 684 794 
L 1344 794 
L 1344 0 
L 684 0 
L 684 794 
z
" transform="scale(0.015625)"/>
       <path id="DejaVuSans-20" transform="scale(0.015625)"/>
       <path id="DejaVuSans-65" d="M 3597 1894 
L 3597 1613 
L 953 1613 
Q 991 1019 1311 708 
Q 1631 397 2203 397 
Q 2534 397 2845 478 
Q 3156 559 3463 722 
L 3463 178 
Q 3153 47 2828 -22 
Q 2503 -91 2169 -91 
Q 1331 -91 842 396 
Q 353 884 353 1716 
Q 353 2575 817 3079 
Q 1281 3584 2069 3584 
Q 2775 3584 3186 3129 
Q 3597 2675 3597 1894 
z
M 3022 2063 
Q 3016 2534 2758 2815 
Q 2500 3097 2075 3097 
Q 1594 3097 1305 2825 
Q 1016 2553 972 2059 
L 3022 2063 
z
" transform="scale(0.015625)"/>
       <path id="DejaVuSans-70" d="M 1159 525 
L 1159 -1331 
L 581 -1331 
L 581 3500 
L 1159 3500 
L 1159 2969 
Q 1341 3281 1617 3432 
Q 1894 3584 2278 3584 
Q 2916 3584 3314 3078 
Q 3713 2572 3713 1747 
Q 3713 922 3314 415 
Q 2916 -91 2278 -91 
Q 1894 -91 1617 61 
Q 1341 213 1159 525 
z
M 3116 1747 
Q 3116 2381 2855 2742 
Q 2594 3103 2138 3103 
Q 1681 3103 1420 2742 
Q 1159 2381 1159 1747 
Q 1159 1113 1420 752 
Q 1681 391 2138 391 
Q 2594 391 2855 752 
Q 3116 1113 3116 1747 
z
" transform="scale(0.015625)"/>
       <path id="DejaVuSans-63" d="M 3122 3366 
L 3122 2828 
Q 2878 2963 2633 3030 
Q 2388 3097 2138 3097 
Q 1578 3097 1268 2742 
Q 959 2388 959 1747 
Q 959 1106 1268 751 
Q 1578 397 2138 397 
Q 2388 397 2633 464 
Q 2878 531 3122 666 
L 3122 134 
Q 2881 22 2623 -34 
Q 2366 -91 2075 -91 
Q 1284 -91 818 406 
Q 353 903 353 1747 
Q 353 2603 823 3093 
Q 1294 3584 2113 3584 
Q 2378 3584 2631 3529 
Q 2884 3475 3122 3366 
z
" transform="scale(0.015625)"/>
       <path id="DejaVuSans-68" d="M 3513 2113 
L 3513 0 
L 2938 0 
L 2938 2094 
Q 2938 2591 2744 2837 
Q 2550 3084 2163 3084 
Q 1697 3084 1428 2787 
Q 1159 2491 1159 1978 
L 1159 0 
L 581 0 
L 581 4863 
L 1159 4863 
L 1159 2956 
Q 1366 3272 1645 3428 
Q 1925 3584 2291 3584 
Q 2894 3584 3203 3211 
Q 3513 2838 3513 2113 
z
" transform="scale(0.015625)"/>
      </defs>
      <use xlink:href="#DejaVuSans-4e"/>
      <use xlink:href="#DejaVuSans-6f" x="74.804688"/>
      <use xlink:href="#DejaVuSans-2e" x="134.236328"/>
      <use xlink:href="#DejaVuSans-20" x="166.023438"/>
      <use xlink:href="#DejaVuSans-65" x="197.810547"/>
      <use xlink:href="#DejaVuSans-70" x="259.333984"/>
      <use xlink:href="#DejaVuSans-6f" x="322.810547"/>
      <use xlink:href="#DejaVuSans-63" x="383.992188"/>
      <use xlink:href="#DejaVuSans-68" x="438.972656"/>
     </g>
    </g>
   </g>
   <g id="matplotlib.axis_2">
    <g id="ytick_1">
     <g id="line2d_7">
      <defs>
       <path id="mc0481c861e" d="M 0 0 
L -3.5 0 
" style="stroke: #000000; stroke-width: 0.8"/>
      </defs>
      <g>
       <use xlink:href="#mc0481c861e" x="180" y="610.332338" style="stroke: #000000; stroke-width: 0.8"/>
      </g>
     </g>
     <g id="text_8">
      <!-- 0.1 -->
      <g transform="translate(157.096875 614.131557)scale(0.1 -0.1)">
       <use xlink:href="#DejaVuSans-30"/>
       <use xlink:href="#DejaVuSans-2e" x="63.623047"/>
       <use xlink:href="#DejaVuSans-31" x="95.410156"/>
      </g>
     </g>
    </g>
    <g id="ytick_2">
     <g id="line2d_8">
      <g>
       <use xlink:href="#mc0481c861e" x="180" y="542.576319" style="stroke: #000000; stroke-width: 0.8"/>
      </g>
     </g>
     <g id="text_9">
      <!-- 0.2 -->
      <g transform="translate(157.096875 546.375538)scale(0.1 -0.1)">
       <use xlink:href="#DejaVuSans-30"/>
       <use xlink:href="#DejaVuSans-2e" x="63.623047"/>
       <use xlink:href="#DejaVuSans-32" x="95.410156"/>
      </g>
     </g>
    </g>
    <g id="ytick_3">
     <g id="line2d_9">
      <g>
       <use xlink:href="#mc0481c861e" x="180" y="474.820299" style="stroke: #000000; stroke-width: 0.8"/>
      </g>
     </g>
     <g id="text_10">
      <!-- 0.3 -->
      <g transform="translate(157.096875 478.619518)scale(0.1 -0.1)">
       <use xlink:href="#DejaVuSans-30"/>
       <use xlink:href="#DejaVuSans-2e" x="63.623047"/>
       <use xlink:href="#DejaVuSans-33" x="95.410156"/>
      </g>
     </g>
    </g>
    <g id="ytick_4">
     <g id="line2d_10">
      <g>
       <use xlink:href="#mc0481c861e" x="180" y="407.06428" style="stroke: #000000; stroke-width: 0.8"/>
      </g>
     </g>
     <g id="text_11">
      <!-- 0.4 -->
      <g transform="translate(157.096875 410.863499)scale(0.1 -0.1)">
       <use xlink:href="#DejaVuSans-30"/>
       <use xlink:href="#DejaVuSans-2e" x="63.623047"/>
       <use xlink:href="#DejaVuSans-34" x="95.410156"/>
      </g>
     </g>
    </g>
    <g id="ytick_5">
     <g id="line2d_11">
      <g>
       <use xlink:href="#mc0481c861e" x="180" y="339.308261" style="stroke: #000000; stroke-width: 0.8"/>
      </g>
     </g>
     <g id="text_12">
      <!-- 0.5 -->
      <g transform="translate(157.096875 343.10748)scale(0.1 -0.1)">
       <use xlink:href="#DejaVuSans-30"/>
       <use xlink:href="#DejaVuSans-2e" x="63.623047"/>
       <use xlink:href="#DejaVuSans-35" x="95.410156"/>
      </g>
     </g>
    </g>
    <g id="ytick_6">
     <g id="line2d_12">
      <g>
       <use xlink:href="#mc0481c861e" x="180" y="271.552241" style="stroke: #000000; stroke-width: 0.8"/>
      </g>
     </g>
     <g id="text_13">
      <!-- 0.6 -->
      <g transform="translate(157.096875 275.35146)scale(0.1 -0.1)">
       <defs>
        <path id="DejaVuSans-36" d="M 2113 2584 
Q 1688 2584 1439 2293 
Q 1191 2003 1191 1497 
Q 1191 994 1439 701 
Q 1688 409 2113 409 
Q 2538 409 2786 701 
Q 3034 994 3034 1497 
Q 3034 2003 2786 2293 
Q 2538 2584 2113 2584 
z
M 3366 4563 
L 3366 3988 
Q 3128 4100 2886 4159 
Q 2644 4219 2406 4219 
Q 1781 4219 1451 3797 
Q 1122 3375 1075 2522 
Q 1259 2794 1537 2939 
Q 1816 3084 2150 3084 
Q 2853 3084 3261 2657 
Q 3669 2231 3669 1497 
Q 3669 778 3244 343 
Q 2819 -91 2113 -91 
Q 1303 -91 875 529 
Q 447 1150 447 2328 
Q 447 3434 972 4092 
Q 1497 4750 2381 4750 
Q 2619 4750 2861 4703 
Q 3103 4656 3366 4563 
z
" transform="scale(0.015625)"/>
       </defs>
       <use xlink:href="#DejaVuSans-30"/>
       <use xlink:href="#DejaVuSans-2e" x="63.623047"/>
       <use xlink:href="#DejaVuSans-36" x="95.410156"/>
      </g>
     </g>
    </g>
    <g id="ytick_7">
     <g id="line2d_13">
      <g>
       <use xlink:href="#mc0481c861e" x="180" y="203.796222" style="stroke: #000000; stroke-width: 0.8"/>
      </g>
     </g>
     <g id="text_14">
      <!-- 0.7 -->
      <g transform="translate(157.096875 207.595441)scale(0.1 -0.1)">
       <defs>
        <path id="DejaVuSans-37" d="M 525 4666 
L 3525 4666 
L 3525 4397 
L 1831 0 
L 1172 0 
L 2766 4134 
L 525 4134 
L 525 4666 
z
" transform="scale(0.015625)"/>
       </defs>
       <use xlink:href="#DejaVuSans-30"/>
       <use xlink:href="#DejaVuSans-2e" x="63.623047"/>
       <use xlink:href="#DejaVuSans-37" x="95.410156"/>
      </g>
     </g>
    </g>
    <g id="ytick_8">
     <g id="line2d_14">
      <g>
       <use xlink:href="#mc0481c861e" x="180" y="136.040203" style="stroke: #000000; stroke-width: 0.8"/>
      </g>
     </g>
     <g id="text_15">
      <!-- 0.8 -->
      <g transform="translate(157.096875 139.839421)scale(0.1 -0.1)">
       <defs>
        <path id="DejaVuSans-38" d="M 2034 2216 
Q 1584 2216 1326 1975 
Q 1069 1734 1069 1313 
Q 1069 891 1326 650 
Q 1584 409 2034 409 
Q 2484 409 2743 651 
Q 3003 894 3003 1313 
Q 3003 1734 2745 1975 
Q 2488 2216 2034 2216 
z
M 1403 2484 
Q 997 2584 770 2862 
Q 544 3141 544 3541 
Q 544 4100 942 4425 
Q 1341 4750 2034 4750 
Q 2731 4750 3128 4425 
Q 3525 4100 3525 3541 
Q 3525 3141 3298 2862 
Q 3072 2584 2669 2484 
Q 3125 2378 3379 2068 
Q 3634 1759 3634 1313 
Q 3634 634 3220 271 
Q 2806 -91 2034 -91 
Q 1263 -91 848 271 
Q 434 634 434 1313 
Q 434 1759 690 2068 
Q 947 2378 1403 2484 
z
M 1172 3481 
Q 1172 3119 1398 2916 
Q 1625 2713 2034 2713 
Q 2441 2713 2670 2916 
Q 2900 3119 2900 3481 
Q 2900 3844 2670 4047 
Q 2441 4250 2034 4250 
Q 1625 4250 1398 4047 
Q 1172 3844 1172 3481 
z
" transform="scale(0.015625)"/>
       </defs>
       <use xlink:href="#DejaVuSans-30"/>
       <use xlink:href="#DejaVuSans-2e" x="63.623047"/>
       <use xlink:href="#DejaVuSans-38" x="95.410156"/>
      </g>
     </g>
    </g>
    <g id="text_16">
     <!-- F1 score value -->
     <g transform="translate(151.017188 399.925781)rotate(-90)scale(0.1 -0.1)">
      <defs>
       <path id="DejaVuSans-46" d="M 628 4666 
L 3309 4666 
L 3309 4134 
L 1259 4134 
L 1259 2759 
L 3109 2759 
L 3109 2228 
L 1259 2228 
L 1259 0 
L 628 0 
L 628 4666 
z
" transform="scale(0.015625)"/>
       <path id="DejaVuSans-73" d="M 2834 3397 
L 2834 2853 
Q 2591 2978 2328 3040 
Q 2066 3103 1784 3103 
Q 1356 3103 1142 2972 
Q 928 2841 928 2578 
Q 928 2378 1081 2264 
Q 1234 2150 1697 2047 
L 1894 2003 
Q 2506 1872 2764 1633 
Q 3022 1394 3022 966 
Q 3022 478 2636 193 
Q 2250 -91 1575 -91 
Q 1294 -91 989 -36 
Q 684 19 347 128 
L 347 722 
Q 666 556 975 473 
Q 1284 391 1588 391 
Q 1994 391 2212 530 
Q 2431 669 2431 922 
Q 2431 1156 2273 1281 
Q 2116 1406 1581 1522 
L 1381 1569 
Q 847 1681 609 1914 
Q 372 2147 372 2553 
Q 372 3047 722 3315 
Q 1072 3584 1716 3584 
Q 2034 3584 2315 3537 
Q 2597 3491 2834 3397 
z
" transform="scale(0.015625)"/>
       <path id="DejaVuSans-72" d="M 2631 2963 
Q 2534 3019 2420 3045 
Q 2306 3072 2169 3072 
Q 1681 3072 1420 2755 
Q 1159 2438 1159 1844 
L 1159 0 
L 581 0 
L 581 3500 
L 1159 3500 
L 1159 2956 
Q 1341 3275 1631 3429 
Q 1922 3584 2338 3584 
Q 2397 3584 2469 3576 
Q 2541 3569 2628 3553 
L 2631 2963 
z
" transform="scale(0.015625)"/>
       <path id="DejaVuSans-76" d="M 191 3500 
L 800 3500 
L 1894 563 
L 2988 3500 
L 3597 3500 
L 2284 0 
L 1503 0 
L 191 3500 
z
" transform="scale(0.015625)"/>
       <path id="DejaVuSans-61" d="M 2194 1759 
Q 1497 1759 1228 1600 
Q 959 1441 959 1056 
Q 959 750 1161 570 
Q 1363 391 1709 391 
Q 2188 391 2477 730 
Q 2766 1069 2766 1631 
L 2766 1759 
L 2194 1759 
z
M 3341 1997 
L 3341 0 
L 2766 0 
L 2766 531 
Q 2569 213 2275 61 
Q 1981 -91 1556 -91 
Q 1019 -91 701 211 
Q 384 513 384 1019 
Q 384 1609 779 1909 
Q 1175 2209 1959 2209 
L 2766 2209 
L 2766 2266 
Q 2766 2663 2505 2880 
Q 2244 3097 1772 3097 
Q 1472 3097 1187 3025 
Q 903 2953 641 2809 
L 641 3341 
Q 956 3463 1253 3523 
Q 1550 3584 1831 3584 
Q 2591 3584 2966 3190 
Q 3341 2797 3341 1997 
z
" transform="scale(0.015625)"/>
       <path id="DejaVuSans-6c" d="M 603 4863 
L 1178 4863 
L 1178 0 
L 603 0 
L 603 4863 
z
" transform="scale(0.015625)"/>
       <path id="DejaVuSans-75" d="M 544 1381 
L 544 3500 
L 1119 3500 
L 1119 1403 
Q 1119 906 1312 657 
Q 1506 409 1894 409 
Q 2359 409 2629 706 
Q 2900 1003 2900 1516 
L 2900 3500 
L 3475 3500 
L 3475 0 
L 2900 0 
L 2900 538 
Q 2691 219 2414 64 
Q 2138 -91 1772 -91 
Q 1169 -91 856 284 
Q 544 659 544 1381 
z
M 1991 3584 
L 1991 3584 
z
" transform="scale(0.015625)"/>
      </defs>
      <use xlink:href="#DejaVuSans-46"/>
      <use xlink:href="#DejaVuSans-31" x="57.519531"/>
      <use xlink:href="#DejaVuSans-20" x="121.142578"/>
      <use xlink:href="#DejaVuSans-73" x="152.929688"/>
      <use xlink:href="#DejaVuSans-63" x="205.029297"/>
      <use xlink:href="#DejaVuSans-6f" x="260.009766"/>
      <use xlink:href="#DejaVuSans-72" x="321.191406"/>
      <use xlink:href="#DejaVuSans-65" x="360.054688"/>
      <use xlink:href="#DejaVuSans-20" x="421.578125"/>
      <use xlink:href="#DejaVuSans-76" x="453.365234"/>
      <use xlink:href="#DejaVuSans-61" x="512.544922"/>
      <use xlink:href="#DejaVuSans-6c" x="573.824219"/>
      <use xlink:href="#DejaVuSans-75" x="601.607422"/>
      <use xlink:href="#DejaVuSans-65" x="664.986328"/>
     </g>
    </g>
   </g>
   <g id="line2d_15">
    <path d="M 230.727273 259.618241 
L 232.76043 213.177271 
L 234.793587 180.91129 
L 236.826744 224.223254 
L 238.859902 240.173802 
L 240.893059 234.039774 
L 242.926216 225.461723 
L 244.959373 235.119366 
L 246.992531 231.604635 
L 249.025688 227.180217 
L 251.058845 221.682305 
L 253.092002 233.936629 
L 255.125159 221.871189 
L 257.158317 214.662537 
L 259.191474 236.448299 
L 261.224631 225.693537 
L 263.257788 231.050543 
L 267.324103 209.891286 
L 269.35726 217.905552 
L 271.390417 207.337373 
L 273.423574 200.560404 
L 275.456732 200.817823 
L 277.489889 209.364736 
L 279.523046 200.597034 
L 281.556203 214.63669 
L 283.589361 197.712967 
L 285.622518 201.771814 
L 287.655675 203.591919 
L 289.688832 196.877669 
L 291.721989 196.611568 
L 293.755147 194.739648 
L 295.788304 217.164393 
L 297.821461 200.229806 
L 299.854618 199.569217 
L 301.887776 198.234388 
L 303.920933 195.928443 
L 305.95409 190.233489 
L 307.987247 218.816775 
L 310.020404 206.446948 
L 312.053562 208.590219 
L 314.086719 203.815656 
L 316.119876 197.259314 
L 318.153033 191.836399 
L 320.186191 199.126428 
L 324.252505 209.439167 
L 326.285662 199.686174 
L 328.318819 201.792734 
L 330.351977 196.17423 
L 332.385134 200.73584 
L 334.418291 186.1116 
L 336.451448 190.638921 
L 338.484606 194.384173 
L 340.517763 196.803158 
L 342.55092 192.432088 
L 344.584077 191.991682 
L 346.617234 188.759167 
L 348.650392 195.974846 
L 350.683549 187.347524 
L 352.716706 185.024375 
L 354.749863 177.741252 
L 356.783021 190.430531 
L 358.816178 190.061123 
L 360.849335 192.344088 
L 362.882492 186.70216 
L 364.915649 185.384172 
L 366.948807 190.66283 
L 368.981964 182.936756 
L 371.015121 176.410865 
L 373.048278 182.718875 
L 375.081436 184.10245 
L 377.114593 187.623601 
L 379.14775 183.51718 
L 381.180907 189.329414 
L 383.214064 175.630169 
L 385.247222 177.085792 
L 387.280379 186.182719 
L 389.313536 181.127354 
L 393.379851 183.32353 
L 395.413008 177.837047 
L 397.446165 176.471444 
L 399.479322 185.822195 
L 401.51248 176.965321 
L 403.545637 187.45802 
L 405.578794 186.778449 
L 407.611951 181.986722 
L 409.645108 180.73642 
L 411.678266 176.654836 
L 413.711423 178.977863 
L 417.777737 173.161389 
L 419.810895 181.383076 
L 421.844052 176.801315 
L 423.877209 182.060426 
L 425.910366 181.684313 
L 427.943523 182.276974 
L 429.976681 176.516353 
L 432.009838 181.891573 
L 434.042995 183.085941 
L 436.076152 188.855245 
L 438.10931 178.938487 
L 440.142467 181.168467 
L 442.175624 178.971967 
L 444.208781 184.342422 
L 446.241938 177.773117 
L 448.275096 178.566616 
L 450.308253 174.993003 
L 452.34141 175.244687 
L 454.374567 176.481662 
L 456.407725 183.75279 
L 458.440882 175.785088 
L 460.474039 170.486965 
L 462.507196 175.967107 
L 464.540353 185.626082 
L 466.573511 167.636499 
L 468.606668 175.734404 
L 470.639825 173.001946 
L 472.672982 166.696925 
L 474.70614 177.904411 
L 476.739297 172.144032 
L 478.772454 177.950854 
L 480.805611 165.650571 
L 482.838768 171.703827 
L 484.871926 174.51843 
L 486.905083 164.048994 
L 488.93824 166.025068 
L 490.971397 169.726703 
L 493.004555 163.146413 
L 495.037712 171.663522 
L 497.070869 163.717871 
L 499.104026 163.407386 
L 501.137183 167.395962 
L 503.170341 167.08483 
L 505.203498 173.965792 
L 507.236655 170.794179 
L 509.269812 176.481177 
L 511.30297 168.880784 
L 513.336127 170.494194 
L 515.369284 180.726848 
L 517.402441 174.883477 
L 519.435598 164.736682 
L 521.468756 161.854716 
L 523.501913 165.778634 
L 525.53507 181.461869 
L 527.568227 170.525048 
L 529.601385 172.083574 
L 531.634542 179.912349 
L 533.667699 173.195394 
L 535.700856 174.885415 
L 537.734013 169.75776 
L 539.767171 165.620443 
L 541.800328 168.312435 
L 543.833485 166.007177 
L 545.866642 172.080142 
L 547.8998 174.290897 
L 549.932957 171.427952 
L 551.966114 174.713574 
L 553.999271 161.749026 
L 556.032428 168.507337 
L 558.065586 173.768427 
L 560.098743 168.90029 
L 562.1319 182.394941 
L 564.165057 185.775994 
L 566.198215 179.82661 
L 568.231372 172.501769 
L 570.264529 170.666116 
L 572.297686 167.796144 
L 574.330844 170.986415 
L 576.364001 168.755265 
L 578.397158 173.997172 
L 580.430315 167.108496 
L 582.463472 180.858991 
L 584.49663 210.194421 
L 586.529787 180.343184 
L 588.562944 172.021905 
L 590.596101 171.844047 
L 592.629259 172.342649 
L 594.662416 174.207945 
L 596.695573 162.654475 
L 598.72873 171.879586 
L 600.761887 180.260353 
L 602.795045 178.729612 
L 604.828202 172.550716 
L 606.861359 160.565886 
L 608.894516 164.617585 
L 610.927674 161.837067 
L 612.960831 164.550625 
L 614.993988 161.736991 
L 617.027145 170.025113 
L 619.060302 162.70217 
L 621.09346 171.88318 
L 623.126617 172.166567 
L 625.159774 173.166477 
L 627.192931 198.703589 
L 629.226089 187.997815 
L 631.259246 187.518437 
L 633.292403 179.444844 
L 635.32556 168.419377 
L 637.358717 159.200121 
L 639.391875 163.249639 
L 641.425032 158.884143 
L 643.458189 165.028873 
L 645.491346 163.035352 
L 647.524504 179.614262 
L 649.557661 165.732796 
L 651.590818 164.771333 
L 653.623975 168.87097 
L 655.657132 167.159746 
L 657.69029 165.984965 
L 659.723447 190.964511 
L 661.756604 183.366945 
L 663.789761 179.71563 
L 665.822919 156.010739 
L 667.856076 161.735497 
L 669.889233 160.010946 
L 671.92239 161.574358 
L 673.955547 170.465843 
L 675.988705 168.178031 
L 678.021862 175.837226 
L 680.055019 172.938661 
L 682.088176 163.913702 
L 684.121334 160.479137 
L 688.187648 156.342548 
L 690.220805 167.730477 
L 692.253962 155.994827 
L 694.28712 160.847173 
L 696.320277 166.358412 
L 698.353434 163.361225 
L 700.386591 156.810053 
L 702.419749 161.150631 
L 704.452906 162.341647 
L 706.486063 168.263326 
L 708.51922 158.557665 
L 710.552377 163.464128 
L 712.585535 157.65044 
L 714.618692 164.508261 
L 716.651849 157.221664 
L 718.685006 154.796663 
L 720.718164 164.456244 
L 722.751321 153.208817 
L 724.784478 160.134526 
L 726.817635 150.613024 
L 728.850792 155.837605 
L 730.88395 164.55947 
L 732.917107 156.835859 
L 734.950264 158.255458 
L 736.983421 155.999673 
L 739.016579 150.871694 
L 741.049736 156.667128 
L 743.082893 165.314441 
L 745.11605 158.327264 
L 747.149208 165.413507 
L 749.182365 156.861101 
L 751.215522 159.786401 
L 753.248679 161.278856 
L 755.281836 154.103926 
L 757.314994 163.68524 
L 759.348151 181.820535 
L 761.381308 188.239807 
L 763.414465 178.130248 
L 765.447623 169.482854 
L 767.48078 171.222874 
L 769.513937 163.237362 
L 771.547094 150.848392 
L 773.580251 155.080493 
L 775.613409 159.008774 
L 777.646566 153.896909 
L 779.679723 157.157128 
L 781.71288 157.829268 
L 783.746038 167.064758 
L 785.779195 168.642912 
L 789.845509 160.288597 
L 791.878666 152.103298 
L 793.911824 160.194176 
L 795.944981 155.95226 
L 797.978138 153.423305 
L 800.011295 148.746354 
L 802.044453 159.462951 
L 804.07761 172.672196 
L 806.110767 190.746711 
L 808.143924 178.283835 
L 810.177081 163.107804 
L 812.210239 169.584182 
L 814.243396 162.453677 
L 816.276553 166.650926 
L 818.30971 166.265848 
L 820.342868 162.85503 
L 822.376025 158.510252 
L 824.409182 163.750624 
L 826.442339 164.612375 
L 828.475496 155.282018 
L 830.508654 156.199542 
L 832.541811 155.94079 
L 834.574968 169.560476 
L 836.608125 157.196221 
L 838.641283 156.737884 
L 840.67444 170.808193 
L 842.707597 155.196724 
L 844.740754 157.297468 
L 846.773911 158.945045 
L 848.807069 157.037303 
L 850.840226 161.094091 
L 852.873383 156.232133 
L 854.90654 158.431702 
L 856.939698 165.331524 
L 858.972855 155.062562 
L 861.006012 145.686489 
L 863.039169 148.279293 
L 865.072326 162.922717 
L 867.105484 143.717402 
L 869.138641 160.086305 
L 871.171798 159.621223 
L 873.204955 155.712409 
L 875.238113 154.548856 
L 877.27127 155.093215 
L 879.304427 146.17972 
L 881.337584 150.030419 
L 883.370741 155.213766 
L 885.403899 153.542282 
L 887.437056 155.23194 
L 889.470213 155.996644 
L 891.50337 163.20578 
L 893.536528 158.459083 
L 895.569685 160.63018 
L 897.602842 157.997434 
L 899.635999 149.283727 
L 901.669156 153.112739 
L 903.702314 156.292994 
L 905.735471 146.883401 
L 907.768628 155.232263 
L 909.801785 158.147588 
L 911.834943 163.252264 
L 913.8681 156.666037 
L 915.901257 164.369899 
L 917.934414 154.994351 
L 919.967572 157.731292 
L 922.000729 154.406456 
L 924.033886 153.876756 
L 926.067043 150.534675 
L 928.1002 151.893453 
L 930.133358 159.966764 
L 932.166515 158.611782 
L 934.199672 158.577737 
L 936.232829 158.800464 
L 938.265987 146.488671 
L 940.299144 156.199098 
L 942.332301 153.205505 
L 944.365458 157.712351 
L 946.398615 160.743018 
L 948.431773 153.226748 
L 950.46493 148.609205 
L 952.498087 154.023962 
L 956.564402 158.914392 
L 958.597559 153.748814 
L 960.630716 153.795864 
L 962.663873 145.063135 
L 964.69703 159.100086 
L 966.730188 146.055776 
L 968.763345 170.065378 
L 970.796502 166.536876 
L 972.829659 174.398323 
L 974.862817 176.905025 
L 976.895974 176.104378 
L 978.929131 163.534237 
L 980.962288 168.410249 
L 982.995445 146.548119 
L 985.028603 156.170101 
L 987.06176 158.21269 
L 989.094917 150.649775 
L 991.128074 143.620678 
L 993.161232 150.198383 
L 995.194389 156.114086 
L 997.227546 160.698391 
L 999.260703 151.676097 
L 1001.29386 150.589963 
L 1003.327018 157.595757 
L 1005.360175 143.415236 
L 1007.393332 148.117387 
L 1009.426489 145.103077 
L 1011.459647 151.538382 
L 1013.492804 142.56455 
L 1017.559118 153.820661 
L 1019.592275 149.520105 
L 1021.625433 160.932911 
L 1023.65859 143.882943 
L 1025.691747 152.233622 
L 1027.724904 147.008799 
L 1029.758062 146.271436 
L 1031.791219 164.723718 
L 1033.824376 156.865341 
L 1035.857533 211.196997 
L 1037.89069 202.723908 
L 1039.923848 187.297083 
L 1041.957005 178.012119 
L 1043.990162 159.123065 
L 1046.023319 162.08968 
L 1048.056477 142.573556 
L 1050.089634 162.897799 
L 1052.122791 161.1537 
L 1054.155948 153.627253 
L 1056.189105 159.020889 
L 1058.222263 153.504723 
L 1060.25542 154.132721 
L 1062.288577 154.95865 
L 1064.321734 145.463681 
L 1066.354892 146.432696 
L 1068.388049 153.446729 
L 1070.421206 159.459478 
L 1072.454363 149.312522 
L 1074.48752 153.435219 
L 1076.520678 148.812668 
L 1078.553835 144.491112 
L 1080.586992 154.099403 
L 1082.620149 157.797726 
L 1084.653307 151.743743 
L 1086.686464 144.337807 
L 1088.719621 155.398047 
L 1090.752778 143.953981 
L 1092.785936 147.339114 
L 1094.819093 147.109763 
L 1096.85225 151.249907 
L 1098.885407 153.876635 
L 1100.918564 151.654289 
L 1102.951722 154.932439 
L 1104.984879 151.202978 
L 1107.018036 170.696324 
L 1109.051193 161.403567 
L 1111.084351 155.789627 
L 1113.117508 154.775298 
L 1115.150665 146.76499 
L 1117.183822 152.532517 
L 1119.216979 149.748163 
L 1121.250137 141.5751 
L 1123.283294 144.197184 
L 1125.316451 162.39536 
L 1127.349608 146.139698 
L 1129.382766 147.282493 
L 1131.415923 158.438729 
L 1133.44908 143.980717 
L 1135.482237 146.482007 
L 1137.515394 146.432171 
L 1139.548552 155.71455 
L 1141.581709 140.324677 
L 1143.614866 142.158674 
L 1145.648023 154.005708 
L 1147.681181 148.483726 
L 1149.714338 151.612934 
L 1151.747495 151.116553 
L 1153.780652 145.035188 
L 1155.813809 152.72859 
L 1157.846967 150.818143 
L 1159.880124 153.671597 
L 1161.913281 158.544903 
L 1163.946438 153.957851 
L 1165.979596 150.483668 
L 1168.012753 149.445391 
L 1170.04591 155.167565 
L 1172.079067 153.240721 
L 1174.112224 140.879052 
L 1176.145382 159.11943 
L 1178.178539 147.62452 
L 1180.211696 155.268368 
L 1184.278011 148.474478 
L 1186.311168 153.256512 
L 1188.344325 147.235968 
L 1190.377482 153.294879 
L 1192.410639 144.660449 
L 1194.443797 150.376686 
L 1196.476954 150.07036 
L 1198.510111 144.371731 
L 1200.543268 143.377233 
L 1202.576426 150.557534 
L 1204.609583 150.401523 
L 1206.64274 156.245703 
L 1208.675897 143.375375 
L 1210.709054 146.796249 
L 1212.742212 145.672273 
L 1214.775369 148.804025 
L 1216.808526 153.627213 
L 1218.841683 146.624448 
L 1220.874841 152.481954 
L 1222.907998 151.68579 
L 1224.941155 151.836873 
L 1226.974312 156.098699 
L 1229.007469 150.560886 
L 1231.040627 156.201036 
L 1233.073784 152.378607 
L 1235.106941 158.942339 
L 1239.173256 148.197876 
L 1241.206413 154.989706 
L 1245.272727 142.090018 
L 1245.272727 142.090018 
" clip-path="url(#p5b5b533f2e)" style="fill: none; stroke: #1f77b4; stroke-width: 1.5; stroke-linecap: square"/>
   </g>
   <g id="line2d_16">
    <path d="M 230.727273 316.697621 
L 232.76043 195.715206 
L 234.793587 188.843372 
L 236.826744 296.993057 
L 238.859902 267.751039 
L 240.893059 232.117292 
L 242.926216 222.656449 
L 244.959373 253.069007 
L 246.992531 226.670306 
L 249.025688 216.188431 
L 251.058845 246.109132 
L 253.092002 217.797318 
L 255.125159 209.746059 
L 257.158317 216.280995 
L 259.191474 230.648422 
L 261.224631 241.466266 
L 263.257788 345.53463 
L 265.290946 283.24753 
L 267.324103 215.959808 
L 269.35726 394.881697 
L 271.390417 189.318389 
L 273.423574 316.960653 
L 275.456732 225.760699 
L 277.489889 246.164339 
L 279.523046 271.918685 
L 281.556203 236.818191 
L 283.589361 246.615528 
L 285.622518 210.295587 
L 287.655675 185.846669 
L 289.688832 191.015801 
L 291.721989 205.248824 
L 293.755147 266.016472 
L 295.788304 167.620708 
L 297.821461 193.227768 
L 299.854618 264.849284 
L 301.887776 279.75683 
L 303.920933 188.749757 
L 305.95409 166.404573 
L 307.987247 208.902481 
L 310.020404 185.429081 
L 312.053562 285.729112 
L 314.086719 315.298295 
L 316.119876 171.534894 
L 318.153033 384.57657 
L 320.186191 195.406053 
L 322.219348 173.625381 
L 324.252505 268.102637 
L 326.285662 210.498081 
L 328.318819 429.768692 
L 330.351977 358.439993 
L 332.385134 211.595604 
L 334.418291 191.884862 
L 336.451448 185.666589 
L 338.484606 174.356887 
L 340.517763 256.87294 
L 342.55092 198.020787 
L 344.584077 398.134243 
L 346.617234 178.461855 
L 348.650392 162.847882 
L 350.683549 168.091525 
L 352.716706 327.20506 
L 354.749863 202.627144 
L 356.783021 189.686545 
L 358.816178 178.051172 
L 360.849335 249.673536 
L 364.915649 154.625306 
L 366.948807 342.082862 
L 368.981964 474.354604 
L 371.015121 241.951259 
L 373.048278 214.786723 
L 375.081436 181.32694 
L 377.114593 176.890688 
L 379.14775 169.351843 
L 381.180907 161.219166 
L 383.214064 187.084411 
L 385.247222 163.609193 
L 387.280379 237.83882 
L 389.313536 191.164501 
L 391.346693 167.218911 
L 393.379851 261.038001 
L 395.413008 178.232949 
L 397.446165 233.125078 
L 399.479322 269.717623 
L 401.51248 223.363886 
L 403.545637 215.075158 
L 405.578794 176.322219 
L 407.611951 167.477137 
L 409.645108 411.157067 
L 411.678266 245.17614 
L 413.711423 166.395203 
L 415.74458 161.436562 
L 417.777737 401.154308 
L 419.810895 199.909386 
L 421.844052 173.774 
L 423.877209 169.662288 
L 425.910366 189.78864 
L 427.943523 211.39836 
L 429.976681 140.603702 
L 434.042995 248.054432 
L 436.076152 170.9806 
L 438.10931 156.967275 
L 440.142467 177.780588 
L 442.175624 269.057316 
L 444.208781 223.559514 
L 446.241938 169.692214 
L 448.275096 344.377498 
L 450.308253 165.460273 
L 452.34141 267.029952 
L 454.374567 184.015661 
L 456.407725 253.079104 
L 458.440882 177.451283 
L 460.474039 314.128805 
L 462.507196 181.520065 
L 464.540353 161.71587 
L 466.573511 242.733288 
L 468.606668 270.926287 
L 470.639825 169.237107 
L 472.672982 165.363792 
L 474.70614 249.668165 
L 476.739297 175.49839 
L 478.772454 198.968237 
L 480.805611 154.75555 
L 482.838768 150.622433 
L 484.871926 152.097078 
L 486.905083 432.712267 
L 488.93824 158.103245 
L 490.971397 227.70612 
L 493.004555 192.620084 
L 495.037712 166.222675 
L 497.070869 513.18892 
L 499.104026 159.821456 
L 501.137183 164.587578 
L 503.170341 409.638806 
L 505.203498 154.710399 
L 507.236655 167.539412 
L 509.269812 182.09641 
L 511.30297 353.09276 
L 513.336127 253.364106 
L 515.369284 272.187129 
L 517.402441 151.440083 
L 519.435598 235.622128 
L 521.468756 169.99959 
L 523.501913 201.357538 
L 525.53507 133.346708 
L 527.568227 183.491898 
L 529.601385 152.062548 
L 531.634542 553.544143 
L 533.667699 241.093748 
L 535.700856 246.302014 
L 537.734013 127.515291 
L 539.767171 164.452851 
L 541.800328 178.076252 
L 543.833485 200.128034 
L 545.866642 377.411757 
L 547.8998 462.701017 
L 549.932957 152.181727 
L 551.966114 210.587011 
L 553.999271 309.549426 
L 556.032428 154.353146 
L 558.065586 241.642712 
L 560.098743 224.765271 
L 562.1319 256.036309 
L 564.165057 271.517736 
L 566.198215 250.927675 
L 568.231372 208.342129 
L 570.264529 181.384126 
L 572.297686 174.219374 
L 574.330844 145.908691 
L 576.364001 151.312585 
L 578.397158 166.170134 
L 580.430315 154.97755 
L 582.463472 274.046367 
L 584.49663 206.452804 
L 586.529787 237.57502 
L 588.562944 175.344884 
L 590.596101 182.605633 
L 592.629259 166.959634 
L 594.662416 237.159895 
L 596.695573 372.217344 
L 598.72873 174.668786 
L 600.761887 289.884683 
L 602.795045 235.698457 
L 604.828202 208.360424 
L 606.861359 383.718575 
L 608.894516 353.909016 
L 610.927674 387.977069 
L 612.960831 249.637229 
L 614.993988 182.793952 
L 617.027145 142.048017 
L 619.060302 207.919331 
L 621.09346 303.241175 
L 623.126617 225.544231 
L 625.159774 389.026028 
L 627.192931 210.654414 
L 629.226089 244.374322 
L 631.259246 290.113388 
L 633.292403 176.481056 
L 635.32556 135.091493 
L 637.358717 154.022266 
L 639.391875 399.834785 
L 641.425032 267.32182 
L 643.458189 167.917624 
L 645.491346 581.252392 
L 647.524504 136.824728 
L 649.557661 246.734747 
L 651.590818 247.215539 
L 653.623975 168.533022 
L 655.657132 343.235572 
L 657.69029 458.155118 
L 659.723447 134.254862 
L 661.756604 234.451789 
L 663.789761 139.151633 
L 667.856076 336.636623 
L 669.889233 157.193637 
L 671.92239 189.19295 
L 673.955547 208.812825 
L 675.988705 156.922931 
L 678.021862 173.071207 
L 680.055019 209.462833 
L 682.088176 295.09723 
L 684.121334 462.237591 
L 686.154491 316.061465 
L 688.187648 159.288808 
L 690.220805 145.873919 
L 692.253962 237.948144 
L 694.28712 247.152982 
L 696.320277 136.137444 
L 698.353434 156.794545 
L 700.386591 159.801101 
L 702.419749 142.266867 
L 704.452906 157.707424 
L 706.486063 273.786283 
L 708.51922 300.336511 
L 710.552377 152.995943 
L 712.585535 321.885491 
L 714.618692 292.866685 
L 716.651849 190.075298 
L 718.685006 146.161062 
L 720.718164 176.182121 
L 722.751321 243.913682 
L 724.784478 154.099605 
L 726.817635 141.070157 
L 728.850792 214.306335 
L 730.88395 334.818821 
L 732.917107 259.093913 
L 734.950264 349.096006 
L 736.983421 392.871214 
L 739.016579 177.438077 
L 741.049736 294.887709 
L 743.082893 252.153341 
L 745.11605 216.138838 
L 747.149208 330.776774 
L 751.215522 160.548439 
L 753.248679 117.424471 
L 755.281836 279.569763 
L 757.314994 244.77402 
L 759.348151 326.03763 
L 761.381308 185.175741 
L 763.414465 311.382939 
L 765.447623 472.559276 
L 767.48078 514.846169 
L 769.513937 158.528991 
L 771.547094 149.390265 
L 773.580251 355.390022 
L 775.613409 145.59033 
L 777.646566 151.614751 
L 779.679723 146.572915 
L 781.71288 453.456945 
L 783.746038 171.020662 
L 785.779195 229.11429 
L 787.812352 340.640001 
L 789.845509 319.668476 
L 791.878666 330.576421 
L 793.911824 400.027769 
L 795.944981 127.850412 
L 797.978138 329.929562 
L 800.011295 152.71502 
L 802.044453 398.909387 
L 804.07761 325.305153 
L 806.110767 141.056305 
L 808.143924 241.334084 
L 810.177081 257.987788 
L 812.210239 269.613064 
L 814.243396 320.112719 
L 816.276553 185.533397 
L 818.30971 285.875066 
L 820.342868 223.654865 
L 822.376025 296.41958 
L 824.409182 205.515855 
L 826.442339 194.953975 
L 828.475496 347.979583 
L 830.508654 265.399741 
L 832.541811 146.637735 
L 834.574968 233.987273 
L 836.608125 296.221811 
L 838.641283 411.987964 
L 842.707597 133.292713 
L 844.740754 574.973783 
L 846.773911 173.200442 
L 848.807069 229.890665 
L 850.840226 390.206604 
L 852.873383 159.082477 
L 854.90654 149.399069 
L 856.939698 161.699635 
L 858.972855 164.425308 
L 861.006012 137.991028 
L 863.039169 136.165552 
L 865.072326 367.756861 
L 867.105484 174.902822 
L 869.138641 136.128276 
L 871.171798 232.105499 
L 873.204955 501.306003 
L 875.238113 298.562407 
L 877.27127 130.248759 
L 879.304427 365.812732 
L 881.337584 354.4957 
L 883.370741 224.472313 
L 885.403899 268.525759 
L 887.437056 170.15039 
L 889.470213 536.536085 
L 891.50337 191.899885 
L 893.536528 203.879707 
L 895.569685 212.790416 
L 897.602842 180.926435 
L 899.635999 237.677438 
L 901.669156 258.448791 
L 903.702314 144.366723 
L 905.735471 243.022006 
L 907.768628 387.362398 
L 909.801785 136.287638 
L 911.834943 433.943789 
L 913.8681 207.964603 
L 915.901257 248.090819 
L 917.934414 142.22632 
L 919.967572 179.447348 
L 922.000729 523.939875 
L 926.067043 155.129926 
L 928.1002 392.991322 
L 930.133358 229.867645 
L 932.166515 303.459742 
L 934.199672 181.937088 
L 936.232829 192.094746 
L 938.265987 190.822919 
L 940.299144 240.981799 
L 942.332301 154.036765 
L 944.365458 242.763214 
L 946.398615 155.680585 
L 948.431773 231.190884 
L 950.46493 260.572273 
L 952.498087 195.901304 
L 954.531244 192.118776 
L 956.564402 430.31507 
L 958.597559 516.852017 
L 960.630716 215.116634 
L 962.663873 131.59522 
L 964.69703 449.038604 
L 966.730188 228.016646 
L 968.763345 377.115326 
L 970.796502 407.239591 
L 972.829659 195.781802 
L 974.862817 242.891479 
L 976.895974 134.4242 
L 978.929131 173.215304 
L 980.962288 297.03526 
L 982.995445 411.119711 
L 985.028603 146.585435 
L 987.06176 171.185194 
L 989.094917 156.625531 
L 991.128074 132.238726 
L 993.161232 437.893857 
L 995.194389 360.87186 
L 997.227546 186.50116 
L 999.260703 372.280184 
L 1001.29386 462.871102 
L 1003.327018 162.845136 
L 1005.360175 427.729111 
L 1007.393332 118.083203 
L 1009.426489 252.357168 
L 1011.459647 242.984528 
L 1013.492804 135.690898 
L 1015.525961 171.339104 
L 1017.559118 258.674749 
L 1019.592275 248.285034 
L 1021.625433 233.29175 
L 1023.65859 188.927778 
L 1025.691747 615.6 
L 1027.724904 150.588186 
L 1029.758062 234.247559 
L 1031.791219 342.954426 
L 1033.824376 410.000561 
L 1035.857533 368.156437 
L 1037.89069 149.405813 
L 1039.923848 506.639242 
L 1041.957005 204.335824 
L 1043.990162 185.954984 
L 1046.023319 122.300281 
L 1048.056477 387.032689 
L 1050.089634 329.051011 
L 1052.122791 150.828724 
L 1054.155948 245.067947 
L 1056.189105 164.835062 
L 1058.222263 161.457522 
L 1060.25542 328.368411 
L 1062.288577 187.817008 
L 1064.321734 165.387095 
L 1066.354892 242.821975 
L 1068.388049 175.28374 
L 1070.421206 153.84994 
L 1072.454363 522.615132 
L 1074.48752 392.056937 
L 1076.520678 146.380033 
L 1078.553835 240.57665 
L 1080.586992 258.742395 
L 1082.620149 259.588153 
L 1084.653307 179.276597 
L 1086.686464 255.823234 
L 1088.719621 168.13595 
L 1090.752778 197.945105 
L 1092.785936 209.052555 
L 1094.819093 144.263336 
L 1096.85225 133.012718 
L 1098.885407 217.003617 
L 1100.918564 448.967505 
L 1102.951722 143.713727 
L 1104.984879 249.865086 
L 1107.018036 161.706783 
L 1109.051193 301.673118 
L 1111.084351 328.538355 
L 1113.117508 146.122332 
L 1115.150665 274.298051 
L 1117.183822 262.13718 
L 1119.216979 374.828484 
L 1121.250137 231.324641 
L 1123.283294 167.568247 
L 1125.316451 258.565587 
L 1127.349608 124.580419 
L 1129.382766 410.140841 
L 1131.415923 215.437459 
L 1133.44908 156.902334 
L 1135.482237 427.743872 
L 1139.548552 184.335152 
L 1141.581709 160.700734 
L 1143.614866 117.7772 
L 1145.648023 117.905061 
L 1147.681181 153.547653 
L 1149.714338 155.678122 
L 1151.747495 280.137506 
L 1153.780652 306.992363 
L 1155.813809 176.73904 
L 1157.846967 146.999631 
L 1159.880124 222.563037 
L 1161.913281 336.530611 
L 1163.946438 317.480135 
L 1165.979596 380.549749 
L 1168.012753 146.661401 
L 1170.04591 193.456715 
L 1172.079067 148.304494 
L 1176.145382 172.068591 
L 1178.178539 269.553051 
L 1180.211696 134.462486 
L 1182.244853 215.534263 
L 1184.278011 281.705603 
L 1186.311168 262.50889 
L 1188.344325 392.220035 
L 1190.377482 111.6 
L 1192.410639 178.95969 
L 1194.443797 205.336663 
L 1196.476954 197.012356 
L 1198.510111 255.544734 
L 1200.543268 166.615871 
L 1202.576426 147.532804 
L 1204.609583 134.389024 
L 1206.64274 125.035405 
L 1208.675897 132.786235 
L 1210.709054 113.548652 
L 1214.775369 192.473645 
L 1216.808526 306.13667 
L 1218.841683 261.540965 
L 1220.874841 295.688638 
L 1222.907998 121.653665 
L 1224.941155 263.981758 
L 1226.974312 142.580422 
L 1229.007469 331.045016 
L 1231.040627 218.004982 
L 1233.073784 235.80665 
L 1235.106941 228.554866 
L 1237.140098 161.755125 
L 1239.173256 133.58874 
L 1241.206413 428.990822 
L 1243.23957 146.836998 
L 1245.272727 211.928988 
L 1245.272727 211.928988 
" clip-path="url(#p5b5b533f2e)" style="fill: none; stroke: #ff7f0e; stroke-width: 1.5; stroke-linecap: square"/>
   </g>
   <g id="patch_3">
    <path d="M 180 640.8 
L 180 86.4 
" style="fill: none; stroke: #000000; stroke-width: 0.8; stroke-linejoin: miter; stroke-linecap: square"/>
   </g>
   <g id="patch_4">
    <path d="M 1296 640.8 
L 1296 86.4 
" style="fill: none; stroke: #000000; stroke-width: 0.8; stroke-linejoin: miter; stroke-linecap: square"/>
   </g>
   <g id="patch_5">
    <path d="M 180 640.8 
L 1296 640.8 
" style="fill: none; stroke: #000000; stroke-width: 0.8; stroke-linejoin: miter; stroke-linecap: square"/>
   </g>
   <g id="patch_6">
    <path d="M 180 86.4 
L 1296 86.4 
" style="fill: none; stroke: #000000; stroke-width: 0.8; stroke-linejoin: miter; stroke-linecap: square"/>
   </g>
   <g id="text_17">
    <!-- F1 score -->
    <g transform="translate(712.705312 80.4)scale(0.12 -0.12)">
     <use xlink:href="#DejaVuSans-46"/>
     <use xlink:href="#DejaVuSans-31" x="57.519531"/>
     <use xlink:href="#DejaVuSans-20" x="121.142578"/>
     <use xlink:href="#DejaVuSans-73" x="152.929688"/>
     <use xlink:href="#DejaVuSans-63" x="205.029297"/>
     <use xlink:href="#DejaVuSans-6f" x="260.009766"/>
     <use xlink:href="#DejaVuSans-72" x="321.191406"/>
     <use xlink:href="#DejaVuSans-65" x="360.054688"/>
    </g>
   </g>
   <g id="legend_1">
    <g id="patch_7">
     <path d="M 187 123.75625 
L 347.076563 123.75625 
Q 349.076563 123.75625 349.076563 121.75625 
L 349.076563 93.4 
Q 349.076563 91.4 347.076563 91.4 
L 187 91.4 
Q 185 91.4 185 93.4 
L 185 121.75625 
Q 185 123.75625 187 123.75625 
z
" style="fill: #ffffff; opacity: 0.8; stroke: #cccccc; stroke-linejoin: miter"/>
    </g>
    <g id="line2d_17">
     <path d="M 189 99.498437 
L 199 99.498437 
L 209 99.498437 
" style="fill: none; stroke: #1f77b4; stroke-width: 1.5; stroke-linecap: square"/>
    </g>
    <g id="text_18">
     <!-- F1 score (training data) -->
     <g transform="translate(217 102.998437)scale(0.1 -0.1)">
      <defs>
       <path id="DejaVuSans-28" d="M 1984 4856 
Q 1566 4138 1362 3434 
Q 1159 2731 1159 2009 
Q 1159 1288 1364 580 
Q 1569 -128 1984 -844 
L 1484 -844 
Q 1016 -109 783 600 
Q 550 1309 550 2009 
Q 550 2706 781 3412 
Q 1013 4119 1484 4856 
L 1984 4856 
z
" transform="scale(0.015625)"/>
       <path id="DejaVuSans-74" d="M 1172 4494 
L 1172 3500 
L 2356 3500 
L 2356 3053 
L 1172 3053 
L 1172 1153 
Q 1172 725 1289 603 
Q 1406 481 1766 481 
L 2356 481 
L 2356 0 
L 1766 0 
Q 1100 0 847 248 
Q 594 497 594 1153 
L 594 3053 
L 172 3053 
L 172 3500 
L 594 3500 
L 594 4494 
L 1172 4494 
z
" transform="scale(0.015625)"/>
       <path id="DejaVuSans-69" d="M 603 3500 
L 1178 3500 
L 1178 0 
L 603 0 
L 603 3500 
z
M 603 4863 
L 1178 4863 
L 1178 4134 
L 603 4134 
L 603 4863 
z
" transform="scale(0.015625)"/>
       <path id="DejaVuSans-6e" d="M 3513 2113 
L 3513 0 
L 2938 0 
L 2938 2094 
Q 2938 2591 2744 2837 
Q 2550 3084 2163 3084 
Q 1697 3084 1428 2787 
Q 1159 2491 1159 1978 
L 1159 0 
L 581 0 
L 581 3500 
L 1159 3500 
L 1159 2956 
Q 1366 3272 1645 3428 
Q 1925 3584 2291 3584 
Q 2894 3584 3203 3211 
Q 3513 2838 3513 2113 
z
" transform="scale(0.015625)"/>
       <path id="DejaVuSans-67" d="M 2906 1791 
Q 2906 2416 2648 2759 
Q 2391 3103 1925 3103 
Q 1463 3103 1205 2759 
Q 947 2416 947 1791 
Q 947 1169 1205 825 
Q 1463 481 1925 481 
Q 2391 481 2648 825 
Q 2906 1169 2906 1791 
z
M 3481 434 
Q 3481 -459 3084 -895 
Q 2688 -1331 1869 -1331 
Q 1566 -1331 1297 -1286 
Q 1028 -1241 775 -1147 
L 775 -588 
Q 1028 -725 1275 -790 
Q 1522 -856 1778 -856 
Q 2344 -856 2625 -561 
Q 2906 -266 2906 331 
L 2906 616 
Q 2728 306 2450 153 
Q 2172 0 1784 0 
Q 1141 0 747 490 
Q 353 981 353 1791 
Q 353 2603 747 3093 
Q 1141 3584 1784 3584 
Q 2172 3584 2450 3431 
Q 2728 3278 2906 2969 
L 2906 3500 
L 3481 3500 
L 3481 434 
z
" transform="scale(0.015625)"/>
       <path id="DejaVuSans-64" d="M 2906 2969 
L 2906 4863 
L 3481 4863 
L 3481 0 
L 2906 0 
L 2906 525 
Q 2725 213 2448 61 
Q 2172 -91 1784 -91 
Q 1150 -91 751 415 
Q 353 922 353 1747 
Q 353 2572 751 3078 
Q 1150 3584 1784 3584 
Q 2172 3584 2448 3432 
Q 2725 3281 2906 2969 
z
M 947 1747 
Q 947 1113 1208 752 
Q 1469 391 1925 391 
Q 2381 391 2643 752 
Q 2906 1113 2906 1747 
Q 2906 2381 2643 2742 
Q 2381 3103 1925 3103 
Q 1469 3103 1208 2742 
Q 947 2381 947 1747 
z
" transform="scale(0.015625)"/>
       <path id="DejaVuSans-29" d="M 513 4856 
L 1013 4856 
Q 1481 4119 1714 3412 
Q 1947 2706 1947 2009 
Q 1947 1309 1714 600 
Q 1481 -109 1013 -844 
L 513 -844 
Q 928 -128 1133 580 
Q 1338 1288 1338 2009 
Q 1338 2731 1133 3434 
Q 928 4138 513 4856 
z
" transform="scale(0.015625)"/>
      </defs>
      <use xlink:href="#DejaVuSans-46"/>
      <use xlink:href="#DejaVuSans-31" x="57.519531"/>
      <use xlink:href="#DejaVuSans-20" x="121.142578"/>
      <use xlink:href="#DejaVuSans-73" x="152.929688"/>
      <use xlink:href="#DejaVuSans-63" x="205.029297"/>
      <use xlink:href="#DejaVuSans-6f" x="260.009766"/>
      <use xlink:href="#DejaVuSans-72" x="321.191406"/>
      <use xlink:href="#DejaVuSans-65" x="360.054688"/>
      <use xlink:href="#DejaVuSans-20" x="421.578125"/>
      <use xlink:href="#DejaVuSans-28" x="453.365234"/>
      <use xlink:href="#DejaVuSans-74" x="492.378906"/>
      <use xlink:href="#DejaVuSans-72" x="531.587891"/>
      <use xlink:href="#DejaVuSans-61" x="572.701172"/>
      <use xlink:href="#DejaVuSans-69" x="633.980469"/>
      <use xlink:href="#DejaVuSans-6e" x="661.763672"/>
      <use xlink:href="#DejaVuSans-69" x="725.142578"/>
      <use xlink:href="#DejaVuSans-6e" x="752.925781"/>
      <use xlink:href="#DejaVuSans-67" x="816.304688"/>
      <use xlink:href="#DejaVuSans-20" x="879.78125"/>
      <use xlink:href="#DejaVuSans-64" x="911.568359"/>
      <use xlink:href="#DejaVuSans-61" x="975.044922"/>
      <use xlink:href="#DejaVuSans-74" x="1036.324219"/>
      <use xlink:href="#DejaVuSans-61" x="1075.533203"/>
      <use xlink:href="#DejaVuSans-29" x="1136.8125"/>
     </g>
    </g>
    <g id="line2d_18">
     <path d="M 189 114.176562 
L 199 114.176562 
L 209 114.176562 
" style="fill: none; stroke: #ff7f0e; stroke-width: 1.5; stroke-linecap: square"/>
    </g>
    <g id="text_19">
     <!-- F1 score (validation data) -->
     <g transform="translate(217 117.676562)scale(0.1 -0.1)">
      <use xlink:href="#DejaVuSans-46"/>
      <use xlink:href="#DejaVuSans-31" x="57.519531"/>
      <use xlink:href="#DejaVuSans-20" x="121.142578"/>
      <use xlink:href="#DejaVuSans-73" x="152.929688"/>
      <use xlink:href="#DejaVuSans-63" x="205.029297"/>
      <use xlink:href="#DejaVuSans-6f" x="260.009766"/>
      <use xlink:href="#DejaVuSans-72" x="321.191406"/>
      <use xlink:href="#DejaVuSans-65" x="360.054688"/>
      <use xlink:href="#DejaVuSans-20" x="421.578125"/>
      <use xlink:href="#DejaVuSans-28" x="453.365234"/>
      <use xlink:href="#DejaVuSans-76" x="492.378906"/>
      <use xlink:href="#DejaVuSans-61" x="551.558594"/>
      <use xlink:href="#DejaVuSans-6c" x="612.837891"/>
      <use xlink:href="#DejaVuSans-69" x="640.621094"/>
      <use xlink:href="#DejaVuSans-64" x="668.404297"/>
      <use xlink:href="#DejaVuSans-61" x="731.880859"/>
      <use xlink:href="#DejaVuSans-74" x="793.160156"/>
      <use xlink:href="#DejaVuSans-69" x="832.369141"/>
      <use xlink:href="#DejaVuSans-6f" x="860.152344"/>
      <use xlink:href="#DejaVuSans-6e" x="921.333984"/>
      <use xlink:href="#DejaVuSans-20" x="984.712891"/>
      <use xlink:href="#DejaVuSans-64" x="1016.5"/>
      <use xlink:href="#DejaVuSans-61" x="1079.976562"/>
      <use xlink:href="#DejaVuSans-74" x="1141.255859"/>
      <use xlink:href="#DejaVuSans-61" x="1180.464844"/>
      <use xlink:href="#DejaVuSans-29" x="1241.744141"/>
     </g>
    </g>
   </g>
  </g>
 </g>
 <defs>
  <clipPath id="p5b5b533f2e">
   <rect x="180" y="86.4" width="1116" height="554.4"/>
  </clipPath>
 </defs>
</svg>
