<?xml version="1.0" encoding="utf-8" standalone="no"?>
<!DOCTYPE svg PUBLIC "-//W3C//DTD SVG 1.1//EN"
  "http://www.w3.org/Graphics/SVG/1.1/DTD/svg11.dtd">
<svg xmlns:xlink="http://www.w3.org/1999/xlink" width="1440pt" height="720pt" viewBox="0 0 1440 720" xmlns="http://www.w3.org/2000/svg" version="1.1">
 <metadata>
  <rdf:RDF xmlns:dc="http://purl.org/dc/elements/1.1/" xmlns:cc="http://creativecommons.org/ns#" xmlns:rdf="http://www.w3.org/1999/02/22-rdf-syntax-ns#">
   <cc:Work>
    <dc:type rdf:resource="http://purl.org/dc/dcmitype/StillImage"/>
    <dc:date>2022-07-15T12:16:53.096293</dc:date>
    <dc:format>image/svg+xml</dc:format>
    <dc:creator>
     <cc:Agent>
      <dc:title>Matplotlib v3.5.0, https://matplotlib.org/</dc:title>
     </cc:Agent>
    </dc:creator>
   </cc:Work>
  </rdf:RDF>
 </metadata>
 <defs>
  <style type="text/css">*{stroke-linejoin: round; stroke-linecap: butt}</style>
 </defs>
 <g id="figure_1">
  <g id="patch_1">
   <path d="M 0 720 
L 1440 720 
L 1440 0 
L 0 0 
z
" style="fill: #ffffff"/>
  </g>
  <g id="axes_1">
   <g id="patch_2">
    <path d="M 180 640.8 
L 1296 640.8 
L 1296 86.4 
L 180 86.4 
z
" style="fill: #ffffff"/>
   </g>
   <g id="matplotlib.axis_1">
    <g id="xtick_1">
     <g id="line2d_1">
      <defs>
       <path id="m71496444c0" d="M 0 0 
L 0 3.5 
" style="stroke: #000000; stroke-width: 0.8"/>
      </defs>
      <g>
       <use xlink:href="#m71496444c0" x="230.727273" y="640.8" style="stroke: #000000; stroke-width: 0.8"/>
      </g>
     </g>
     <g id="text_1">
      <!-- 0 -->
      <g transform="translate(227.546023 655.398438)scale(0.1 -0.1)">
       <defs>
        <path id="DejaVuSans-30" d="M 2034 4250 
Q 1547 4250 1301 3770 
Q 1056 3291 1056 2328 
Q 1056 1369 1301 889 
Q 1547 409 2034 409 
Q 2525 409 2770 889 
Q 3016 1369 3016 2328 
Q 3016 3291 2770 3770 
Q 2525 4250 2034 4250 
z
M 2034 4750 
Q 2819 4750 3233 4129 
Q 3647 3509 3647 2328 
Q 3647 1150 3233 529 
Q 2819 -91 2034 -91 
Q 1250 -91 836 529 
Q 422 1150 422 2328 
Q 422 3509 836 4129 
Q 1250 4750 2034 4750 
z
" transform="scale(0.015625)"/>
       </defs>
       <use xlink:href="#DejaVuSans-30"/>
      </g>
     </g>
    </g>
    <g id="xtick_2">
     <g id="line2d_2">
      <g>
       <use xlink:href="#m71496444c0" x="435.68595" y="640.8" style="stroke: #000000; stroke-width: 0.8"/>
      </g>
     </g>
     <g id="text_2">
      <!-- 20 -->
      <g transform="translate(429.32345 655.398438)scale(0.1 -0.1)">
       <defs>
        <path id="DejaVuSans-32" d="M 1228 531 
L 3431 531 
L 3431 0 
L 469 0 
L 469 531 
Q 828 903 1448 1529 
Q 2069 2156 2228 2338 
Q 2531 2678 2651 2914 
Q 2772 3150 2772 3378 
Q 2772 3750 2511 3984 
Q 2250 4219 1831 4219 
Q 1534 4219 1204 4116 
Q 875 4013 500 3803 
L 500 4441 
Q 881 4594 1212 4672 
Q 1544 4750 1819 4750 
Q 2544 4750 2975 4387 
Q 3406 4025 3406 3419 
Q 3406 3131 3298 2873 
Q 3191 2616 2906 2266 
Q 2828 2175 2409 1742 
Q 1991 1309 1228 531 
z
" transform="scale(0.015625)"/>
       </defs>
       <use xlink:href="#DejaVuSans-32"/>
       <use xlink:href="#DejaVuSans-30" x="63.623047"/>
      </g>
     </g>
    </g>
    <g id="xtick_3">
     <g id="line2d_3">
      <g>
       <use xlink:href="#m71496444c0" x="640.644628" y="640.8" style="stroke: #000000; stroke-width: 0.8"/>
      </g>
     </g>
     <g id="text_3">
      <!-- 40 -->
      <g transform="translate(634.282128 655.398438)scale(0.1 -0.1)">
       <defs>
        <path id="DejaVuSans-34" d="M 2419 4116 
L 825 1625 
L 2419 1625 
L 2419 4116 
z
M 2253 4666 
L 3047 4666 
L 3047 1625 
L 3713 1625 
L 3713 1100 
L 3047 1100 
L 3047 0 
L 2419 0 
L 2419 1100 
L 313 1100 
L 313 1709 
L 2253 4666 
z
" transform="scale(0.015625)"/>
       </defs>
       <use xlink:href="#DejaVuSans-34"/>
       <use xlink:href="#DejaVuSans-30" x="63.623047"/>
      </g>
     </g>
    </g>
    <g id="xtick_4">
     <g id="line2d_4">
      <g>
       <use xlink:href="#m71496444c0" x="845.603306" y="640.8" style="stroke: #000000; stroke-width: 0.8"/>
      </g>
     </g>
     <g id="text_4">
      <!-- 60 -->
      <g transform="translate(839.240806 655.398438)scale(0.1 -0.1)">
       <defs>
        <path id="DejaVuSans-36" d="M 2113 2584 
Q 1688 2584 1439 2293 
Q 1191 2003 1191 1497 
Q 1191 994 1439 701 
Q 1688 409 2113 409 
Q 2538 409 2786 701 
Q 3034 994 3034 1497 
Q 3034 2003 2786 2293 
Q 2538 2584 2113 2584 
z
M 3366 4563 
L 3366 3988 
Q 3128 4100 2886 4159 
Q 2644 4219 2406 4219 
Q 1781 4219 1451 3797 
Q 1122 3375 1075 2522 
Q 1259 2794 1537 2939 
Q 1816 3084 2150 3084 
Q 2853 3084 3261 2657 
Q 3669 2231 3669 1497 
Q 3669 778 3244 343 
Q 2819 -91 2113 -91 
Q 1303 -91 875 529 
Q 447 1150 447 2328 
Q 447 3434 972 4092 
Q 1497 4750 2381 4750 
Q 2619 4750 2861 4703 
Q 3103 4656 3366 4563 
z
" transform="scale(0.015625)"/>
       </defs>
       <use xlink:href="#DejaVuSans-36"/>
       <use xlink:href="#DejaVuSans-30" x="63.623047"/>
      </g>
     </g>
    </g>
    <g id="xtick_5">
     <g id="line2d_5">
      <g>
       <use xlink:href="#m71496444c0" x="1050.561983" y="640.8" style="stroke: #000000; stroke-width: 0.8"/>
      </g>
     </g>
     <g id="text_5">
      <!-- 80 -->
      <g transform="translate(1044.199483 655.398438)scale(0.1 -0.1)">
       <defs>
        <path id="DejaVuSans-38" d="M 2034 2216 
Q 1584 2216 1326 1975 
Q 1069 1734 1069 1313 
Q 1069 891 1326 650 
Q 1584 409 2034 409 
Q 2484 409 2743 651 
Q 3003 894 3003 1313 
Q 3003 1734 2745 1975 
Q 2488 2216 2034 2216 
z
M 1403 2484 
Q 997 2584 770 2862 
Q 544 3141 544 3541 
Q 544 4100 942 4425 
Q 1341 4750 2034 4750 
Q 2731 4750 3128 4425 
Q 3525 4100 3525 3541 
Q 3525 3141 3298 2862 
Q 3072 2584 2669 2484 
Q 3125 2378 3379 2068 
Q 3634 1759 3634 1313 
Q 3634 634 3220 271 
Q 2806 -91 2034 -91 
Q 1263 -91 848 271 
Q 434 634 434 1313 
Q 434 1759 690 2068 
Q 947 2378 1403 2484 
z
M 1172 3481 
Q 1172 3119 1398 2916 
Q 1625 2713 2034 2713 
Q 2441 2713 2670 2916 
Q 2900 3119 2900 3481 
Q 2900 3844 2670 4047 
Q 2441 4250 2034 4250 
Q 1625 4250 1398 4047 
Q 1172 3844 1172 3481 
z
" transform="scale(0.015625)"/>
       </defs>
       <use xlink:href="#DejaVuSans-38"/>
       <use xlink:href="#DejaVuSans-30" x="63.623047"/>
      </g>
     </g>
    </g>
    <g id="xtick_6">
     <g id="line2d_6">
      <g>
       <use xlink:href="#m71496444c0" x="1255.520661" y="640.8" style="stroke: #000000; stroke-width: 0.8"/>
      </g>
     </g>
     <g id="text_6">
      <!-- 100 -->
      <g transform="translate(1245.976911 655.398438)scale(0.1 -0.1)">
       <defs>
        <path id="DejaVuSans-31" d="M 794 531 
L 1825 531 
L 1825 4091 
L 703 3866 
L 703 4441 
L 1819 4666 
L 2450 4666 
L 2450 531 
L 3481 531 
L 3481 0 
L 794 0 
L 794 531 
z
" transform="scale(0.015625)"/>
       </defs>
       <use xlink:href="#DejaVuSans-31"/>
       <use xlink:href="#DejaVuSans-30" x="63.623047"/>
       <use xlink:href="#DejaVuSans-30" x="127.246094"/>
      </g>
     </g>
    </g>
    <g id="text_7">
     <!-- No. epoch -->
     <g transform="translate(712.88125 669.076563)scale(0.1 -0.1)">
      <defs>
       <path id="DejaVuSans-4e" d="M 628 4666 
L 1478 4666 
L 3547 763 
L 3547 4666 
L 4159 4666 
L 4159 0 
L 3309 0 
L 1241 3903 
L 1241 0 
L 628 0 
L 628 4666 
z
" transform="scale(0.015625)"/>
       <path id="DejaVuSans-6f" d="M 1959 3097 
Q 1497 3097 1228 2736 
Q 959 2375 959 1747 
Q 959 1119 1226 758 
Q 1494 397 1959 397 
Q 2419 397 2687 759 
Q 2956 1122 2956 1747 
Q 2956 2369 2687 2733 
Q 2419 3097 1959 3097 
z
M 1959 3584 
Q 2709 3584 3137 3096 
Q 3566 2609 3566 1747 
Q 3566 888 3137 398 
Q 2709 -91 1959 -91 
Q 1206 -91 779 398 
Q 353 888 353 1747 
Q 353 2609 779 3096 
Q 1206 3584 1959 3584 
z
" transform="scale(0.015625)"/>
       <path id="DejaVuSans-2e" d="M 684 794 
L 1344 794 
L 1344 0 
L 684 0 
L 684 794 
z
" transform="scale(0.015625)"/>
       <path id="DejaVuSans-20" transform="scale(0.015625)"/>
       <path id="DejaVuSans-65" d="M 3597 1894 
L 3597 1613 
L 953 1613 
Q 991 1019 1311 708 
Q 1631 397 2203 397 
Q 2534 397 2845 478 
Q 3156 559 3463 722 
L 3463 178 
Q 3153 47 2828 -22 
Q 2503 -91 2169 -91 
Q 1331 -91 842 396 
Q 353 884 353 1716 
Q 353 2575 817 3079 
Q 1281 3584 2069 3584 
Q 2775 3584 3186 3129 
Q 3597 2675 3597 1894 
z
M 3022 2063 
Q 3016 2534 2758 2815 
Q 2500 3097 2075 3097 
Q 1594 3097 1305 2825 
Q 1016 2553 972 2059 
L 3022 2063 
z
" transform="scale(0.015625)"/>
       <path id="DejaVuSans-70" d="M 1159 525 
L 1159 -1331 
L 581 -1331 
L 581 3500 
L 1159 3500 
L 1159 2969 
Q 1341 3281 1617 3432 
Q 1894 3584 2278 3584 
Q 2916 3584 3314 3078 
Q 3713 2572 3713 1747 
Q 3713 922 3314 415 
Q 2916 -91 2278 -91 
Q 1894 -91 1617 61 
Q 1341 213 1159 525 
z
M 3116 1747 
Q 3116 2381 2855 2742 
Q 2594 3103 2138 3103 
Q 1681 3103 1420 2742 
Q 1159 2381 1159 1747 
Q 1159 1113 1420 752 
Q 1681 391 2138 391 
Q 2594 391 2855 752 
Q 3116 1113 3116 1747 
z
" transform="scale(0.015625)"/>
       <path id="DejaVuSans-63" d="M 3122 3366 
L 3122 2828 
Q 2878 2963 2633 3030 
Q 2388 3097 2138 3097 
Q 1578 3097 1268 2742 
Q 959 2388 959 1747 
Q 959 1106 1268 751 
Q 1578 397 2138 397 
Q 2388 397 2633 464 
Q 2878 531 3122 666 
L 3122 134 
Q 2881 22 2623 -34 
Q 2366 -91 2075 -91 
Q 1284 -91 818 406 
Q 353 903 353 1747 
Q 353 2603 823 3093 
Q 1294 3584 2113 3584 
Q 2378 3584 2631 3529 
Q 2884 3475 3122 3366 
z
" transform="scale(0.015625)"/>
       <path id="DejaVuSans-68" d="M 3513 2113 
L 3513 0 
L 2938 0 
L 2938 2094 
Q 2938 2591 2744 2837 
Q 2550 3084 2163 3084 
Q 1697 3084 1428 2787 
Q 1159 2491 1159 1978 
L 1159 0 
L 581 0 
L 581 4863 
L 1159 4863 
L 1159 2956 
Q 1366 3272 1645 3428 
Q 1925 3584 2291 3584 
Q 2894 3584 3203 3211 
Q 3513 2838 3513 2113 
z
" transform="scale(0.015625)"/>
      </defs>
      <use xlink:href="#DejaVuSans-4e"/>
      <use xlink:href="#DejaVuSans-6f" x="74.804688"/>
      <use xlink:href="#DejaVuSans-2e" x="134.236328"/>
      <use xlink:href="#DejaVuSans-20" x="166.023438"/>
      <use xlink:href="#DejaVuSans-65" x="197.810547"/>
      <use xlink:href="#DejaVuSans-70" x="259.333984"/>
      <use xlink:href="#DejaVuSans-6f" x="322.810547"/>
      <use xlink:href="#DejaVuSans-63" x="383.992188"/>
      <use xlink:href="#DejaVuSans-68" x="438.972656"/>
     </g>
    </g>
   </g>
   <g id="matplotlib.axis_2">
    <g id="ytick_1">
     <g id="line2d_7">
      <defs>
       <path id="m454f65d2cf" d="M 0 0 
L -3.5 0 
" style="stroke: #000000; stroke-width: 0.8"/>
      </defs>
      <g>
       <use xlink:href="#m454f65d2cf" x="180" y="621.694339" style="stroke: #000000; stroke-width: 0.8"/>
      </g>
     </g>
     <g id="text_8">
      <!-- 0.0 -->
      <g transform="translate(157.096875 625.493558)scale(0.1 -0.1)">
       <use xlink:href="#DejaVuSans-30"/>
       <use xlink:href="#DejaVuSans-2e" x="63.623047"/>
       <use xlink:href="#DejaVuSans-30" x="95.410156"/>
      </g>
     </g>
    </g>
    <g id="ytick_2">
     <g id="line2d_8">
      <g>
       <use xlink:href="#m454f65d2cf" x="180" y="502.943909" style="stroke: #000000; stroke-width: 0.8"/>
      </g>
     </g>
     <g id="text_9">
      <!-- 0.2 -->
      <g transform="translate(157.096875 506.743128)scale(0.1 -0.1)">
       <use xlink:href="#DejaVuSans-30"/>
       <use xlink:href="#DejaVuSans-2e" x="63.623047"/>
       <use xlink:href="#DejaVuSans-32" x="95.410156"/>
      </g>
     </g>
    </g>
    <g id="ytick_3">
     <g id="line2d_9">
      <g>
       <use xlink:href="#m454f65d2cf" x="180" y="384.193479" style="stroke: #000000; stroke-width: 0.8"/>
      </g>
     </g>
     <g id="text_10">
      <!-- 0.4 -->
      <g transform="translate(157.096875 387.992697)scale(0.1 -0.1)">
       <use xlink:href="#DejaVuSans-30"/>
       <use xlink:href="#DejaVuSans-2e" x="63.623047"/>
       <use xlink:href="#DejaVuSans-34" x="95.410156"/>
      </g>
     </g>
    </g>
    <g id="ytick_4">
     <g id="line2d_10">
      <g>
       <use xlink:href="#m454f65d2cf" x="180" y="265.443049" style="stroke: #000000; stroke-width: 0.8"/>
      </g>
     </g>
     <g id="text_11">
      <!-- 0.6 -->
      <g transform="translate(157.096875 269.242267)scale(0.1 -0.1)">
       <use xlink:href="#DejaVuSans-30"/>
       <use xlink:href="#DejaVuSans-2e" x="63.623047"/>
       <use xlink:href="#DejaVuSans-36" x="95.410156"/>
      </g>
     </g>
    </g>
    <g id="ytick_5">
     <g id="line2d_11">
      <g>
       <use xlink:href="#m454f65d2cf" x="180" y="146.692618" style="stroke: #000000; stroke-width: 0.8"/>
      </g>
     </g>
     <g id="text_12">
      <!-- 0.8 -->
      <g transform="translate(157.096875 150.491837)scale(0.1 -0.1)">
       <use xlink:href="#DejaVuSans-30"/>
       <use xlink:href="#DejaVuSans-2e" x="63.623047"/>
       <use xlink:href="#DejaVuSans-38" x="95.410156"/>
      </g>
     </g>
    </g>
    <g id="text_13">
     <!-- F1 score value -->
     <g transform="translate(151.017188 399.925781)rotate(-90)scale(0.1 -0.1)">
      <defs>
       <path id="DejaVuSans-46" d="M 628 4666 
L 3309 4666 
L 3309 4134 
L 1259 4134 
L 1259 2759 
L 3109 2759 
L 3109 2228 
L 1259 2228 
L 1259 0 
L 628 0 
L 628 4666 
z
" transform="scale(0.015625)"/>
       <path id="DejaVuSans-73" d="M 2834 3397 
L 2834 2853 
Q 2591 2978 2328 3040 
Q 2066 3103 1784 3103 
Q 1356 3103 1142 2972 
Q 928 2841 928 2578 
Q 928 2378 1081 2264 
Q 1234 2150 1697 2047 
L 1894 2003 
Q 2506 1872 2764 1633 
Q 3022 1394 3022 966 
Q 3022 478 2636 193 
Q 2250 -91 1575 -91 
Q 1294 -91 989 -36 
Q 684 19 347 128 
L 347 722 
Q 666 556 975 473 
Q 1284 391 1588 391 
Q 1994 391 2212 530 
Q 2431 669 2431 922 
Q 2431 1156 2273 1281 
Q 2116 1406 1581 1522 
L 1381 1569 
Q 847 1681 609 1914 
Q 372 2147 372 2553 
Q 372 3047 722 3315 
Q 1072 3584 1716 3584 
Q 2034 3584 2315 3537 
Q 2597 3491 2834 3397 
z
" transform="scale(0.015625)"/>
       <path id="DejaVuSans-72" d="M 2631 2963 
Q 2534 3019 2420 3045 
Q 2306 3072 2169 3072 
Q 1681 3072 1420 2755 
Q 1159 2438 1159 1844 
L 1159 0 
L 581 0 
L 581 3500 
L 1159 3500 
L 1159 2956 
Q 1341 3275 1631 3429 
Q 1922 3584 2338 3584 
Q 2397 3584 2469 3576 
Q 2541 3569 2628 3553 
L 2631 2963 
z
" transform="scale(0.015625)"/>
       <path id="DejaVuSans-76" d="M 191 3500 
L 800 3500 
L 1894 563 
L 2988 3500 
L 3597 3500 
L 2284 0 
L 1503 0 
L 191 3500 
z
" transform="scale(0.015625)"/>
       <path id="DejaVuSans-61" d="M 2194 1759 
Q 1497 1759 1228 1600 
Q 959 1441 959 1056 
Q 959 750 1161 570 
Q 1363 391 1709 391 
Q 2188 391 2477 730 
Q 2766 1069 2766 1631 
L 2766 1759 
L 2194 1759 
z
M 3341 1997 
L 3341 0 
L 2766 0 
L 2766 531 
Q 2569 213 2275 61 
Q 1981 -91 1556 -91 
Q 1019 -91 701 211 
Q 384 513 384 1019 
Q 384 1609 779 1909 
Q 1175 2209 1959 2209 
L 2766 2209 
L 2766 2266 
Q 2766 2663 2505 2880 
Q 2244 3097 1772 3097 
Q 1472 3097 1187 3025 
Q 903 2953 641 2809 
L 641 3341 
Q 956 3463 1253 3523 
Q 1550 3584 1831 3584 
Q 2591 3584 2966 3190 
Q 3341 2797 3341 1997 
z
" transform="scale(0.015625)"/>
       <path id="DejaVuSans-6c" d="M 603 4863 
L 1178 4863 
L 1178 0 
L 603 0 
L 603 4863 
z
" transform="scale(0.015625)"/>
       <path id="DejaVuSans-75" d="M 544 1381 
L 544 3500 
L 1119 3500 
L 1119 1403 
Q 1119 906 1312 657 
Q 1506 409 1894 409 
Q 2359 409 2629 706 
Q 2900 1003 2900 1516 
L 2900 3500 
L 3475 3500 
L 3475 0 
L 2900 0 
L 2900 538 
Q 2691 219 2414 64 
Q 2138 -91 1772 -91 
Q 1169 -91 856 284 
Q 544 659 544 1381 
z
M 1991 3584 
L 1991 3584 
z
" transform="scale(0.015625)"/>
      </defs>
      <use xlink:href="#DejaVuSans-46"/>
      <use xlink:href="#DejaVuSans-31" x="57.519531"/>
      <use xlink:href="#DejaVuSans-20" x="121.142578"/>
      <use xlink:href="#DejaVuSans-73" x="152.929688"/>
      <use xlink:href="#DejaVuSans-63" x="205.029297"/>
      <use xlink:href="#DejaVuSans-6f" x="260.009766"/>
      <use xlink:href="#DejaVuSans-72" x="321.191406"/>
      <use xlink:href="#DejaVuSans-65" x="360.054688"/>
      <use xlink:href="#DejaVuSans-20" x="421.578125"/>
      <use xlink:href="#DejaVuSans-76" x="453.365234"/>
      <use xlink:href="#DejaVuSans-61" x="512.544922"/>
      <use xlink:href="#DejaVuSans-6c" x="573.824219"/>
      <use xlink:href="#DejaVuSans-75" x="601.607422"/>
      <use xlink:href="#DejaVuSans-65" x="664.986328"/>
     </g>
    </g>
   </g>
   <g id="line2d_12">
    <path d="M 230.727273 296.16787 
L 240.975207 221.641168 
L 251.22314 193.476861 
L 261.471074 293.963793 
L 271.719008 298.930904 
L 281.966942 265.041601 
L 292.214876 225.635716 
L 302.46281 199.721601 
L 312.710744 186.476997 
L 322.958678 180.373288 
L 333.206612 174.034905 
L 343.454545 169.27826 
L 353.702479 167.342689 
L 363.950413 163.782239 
L 374.198347 263.074427 
L 384.446281 293.78861 
L 394.694215 235.124445 
L 404.942149 204.801289 
L 415.190083 188.633793 
L 425.438017 181.216322 
L 435.68595 171.294486 
L 445.933884 166.077129 
L 456.181818 165.11904 
L 466.429752 155.747666 
L 476.677686 154.093732 
L 486.92562 150.098936 
L 497.173554 318.903468 
L 507.421488 290.831673 
L 517.669421 281.858653 
L 527.917355 272.132171 
L 538.165289 262.462421 
L 548.413223 260.987314 
L 558.661157 259.972282 
L 568.909091 256.419972 
L 579.157025 287.448458 
L 589.404959 239.923452 
L 599.652893 229.582593 
L 609.900826 217.832914 
L 620.14876 212.291346 
L 630.396694 294.909353 
L 640.644628 260.839205 
L 650.892562 246.144657 
L 661.140496 234.934929 
L 671.38843 228.220488 
L 681.636364 223.400388 
L 691.884298 216.103528 
L 702.132231 206.860444 
L 712.380165 207.715121 
L 722.628099 279.747864 
L 732.876033 252.931613 
L 743.123967 244.000672 
L 753.371901 239.047823 
L 763.619835 238.668332 
L 773.867769 235.995685 
L 784.115702 232.443375 
L 794.363636 230.029645 
L 804.61157 228.281289 
L 814.859504 223.742153 
L 825.107438 219.700642 
L 835.355372 216.640329 
L 845.603306 256.2983 
L 855.85124 266.433505 
L 866.099174 242.828932 
L 876.347107 235.395853 
L 886.595041 233.382742 
L 896.842975 230.750299 
L 907.090909 230.970144 
L 917.338843 225.834397 
L 927.586777 220.961283 
L 937.834711 217.946836 
L 948.082645 253.371232 
L 958.330579 228.834157 
L 968.578512 218.6344 
L 978.826446 215.944766 
L 989.07438 212.862724 
L 999.322314 209.822548 
L 1009.570248 211.747608 
L 1019.818182 247.35515 
L 1030.066116 214.329903 
L 1040.31405 203.405493 
L 1050.561983 199.359239 
L 1060.809917 199.381676 
L 1071.057851 200.23777 
L 1081.305785 239.813281 
L 1091.553719 201.605467 
L 1101.801653 200.639946 
L 1112.049587 194.579803 
L 1122.297521 192.892177 
L 1132.545455 192.842383 
L 1142.793388 193.366125 
L 1153.041322 221.028808 
L 1163.289256 181.428311 
L 1173.53719 179.082211 
L 1183.785124 177.009396 
L 1194.033058 176.604813 
L 1204.280992 174.48999 
L 1214.528926 176.051166 
L 1224.77686 172.883514 
L 1235.024793 270.284121 
L 1245.272727 245.409209 
" clip-path="url(#p80998ab30b)" style="fill: none; stroke: #1f77b4; stroke-width: 1.5; stroke-linecap: square"/>
   </g>
   <g id="line2d_13">
    <path d="M 230.727273 296.015833 
L 240.975207 440.572554 
L 251.22314 281.319657 
L 261.471074 492.943088 
L 271.719008 279.708297 
L 281.966942 318.235581 
L 292.214876 261.665606 
L 302.46281 255.056416 
L 312.710744 169.805895 
L 322.958678 172.227341 
L 333.206612 277.662591 
L 343.454545 206.740789 
L 353.702479 227.825001 
L 363.950413 164.102239 
L 374.198347 553.330553 
L 384.446281 233.75604 
L 394.694215 234.216504 
L 404.942149 193.108306 
L 415.190083 187.238598 
L 425.438017 136.760406 
L 435.68595 258.805497 
L 445.933884 240.193622 
L 456.181818 133.437107 
L 466.429752 256.476208 
L 476.677686 208.089693 
L 486.92562 256.553288 
L 497.173554 419.689661 
L 507.421488 241.838355 
L 517.669421 264.679558 
L 527.917355 380.628602 
L 538.165289 216.67625 
L 548.413223 409.21078 
L 558.661157 255.6256 
L 568.909091 615.6 
L 579.157025 280.403329 
L 589.404959 232.82 
L 599.652893 256.502113 
L 609.900826 202.836415 
L 620.14876 235.480826 
L 630.396694 494.204702 
L 640.644628 282.256794 
L 650.892562 255.895416 
L 661.140496 235.310315 
L 671.38843 194.744156 
L 681.636364 268.671629 
L 691.884298 241.822677 
L 702.132231 200.464198 
L 712.380165 321.408506 
L 722.628099 192.509996 
L 732.876033 248.353335 
L 743.123967 214.984413 
L 753.371901 335.8472 
L 763.619835 265.793222 
L 773.867769 221.018615 
L 784.115702 237.875445 
L 794.363636 263.561575 
L 804.61157 215.902369 
L 814.859504 235.507581 
L 825.107438 233.574629 
L 835.355372 259.691283 
L 845.603306 525.4777 
L 855.85124 408.156323 
L 866.099174 261.491627 
L 876.347107 252.920288 
L 886.595041 279.064086 
L 896.842975 364.509979 
L 907.090909 227.207084 
L 917.338843 259.046718 
L 927.586777 292.477609 
L 937.834711 209.066574 
L 948.082645 236.813982 
L 958.330579 242.786711 
L 968.578512 217.951932 
L 978.826446 328.747092 
L 989.07438 232.395987 
L 999.322314 254.432731 
L 1009.570248 222.827878 
L 1019.818182 171.567664 
L 1030.066116 233.001269 
L 1040.31405 245.370315 
L 1050.561983 226.834813 
L 1060.809917 246.008899 
L 1071.057851 231.305362 
L 1081.305785 267.320317 
L 1091.553719 198.789595 
L 1101.801653 202.160919 
L 1112.049587 253.502247 
L 1122.297521 215.580104 
L 1132.545455 236.904581 
L 1142.793388 218.999735 
L 1153.041322 207.101417 
L 1163.289256 202.308568 
L 1173.53719 201.204741 
L 1183.785124 150.291495 
L 1194.033058 194.942306 
L 1204.280992 174.050618 
L 1214.528926 190.675889 
L 1224.77686 279.683913 
L 1235.024793 111.6 
L 1245.272727 279.757808 
" clip-path="url(#p80998ab30b)" style="fill: none; stroke: #ff7f0e; stroke-width: 1.5; stroke-linecap: square"/>
   </g>
   <g id="patch_3">
    <path d="M 180 640.8 
L 180 86.4 
" style="fill: none; stroke: #000000; stroke-width: 0.8; stroke-linejoin: miter; stroke-linecap: square"/>
   </g>
   <g id="patch_4">
    <path d="M 1296 640.8 
L 1296 86.4 
" style="fill: none; stroke: #000000; stroke-width: 0.8; stroke-linejoin: miter; stroke-linecap: square"/>
   </g>
   <g id="patch_5">
    <path d="M 180 640.8 
L 1296 640.8 
" style="fill: none; stroke: #000000; stroke-width: 0.8; stroke-linejoin: miter; stroke-linecap: square"/>
   </g>
   <g id="patch_6">
    <path d="M 180 86.4 
L 1296 86.4 
" style="fill: none; stroke: #000000; stroke-width: 0.8; stroke-linejoin: miter; stroke-linecap: square"/>
   </g>
   <g id="text_14">
    <!-- F1 score -->
    <g transform="translate(712.705312 80.4)scale(0.12 -0.12)">
     <use xlink:href="#DejaVuSans-46"/>
     <use xlink:href="#DejaVuSans-31" x="57.519531"/>
     <use xlink:href="#DejaVuSans-20" x="121.142578"/>
     <use xlink:href="#DejaVuSans-73" x="152.929688"/>
     <use xlink:href="#DejaVuSans-63" x="205.029297"/>
     <use xlink:href="#DejaVuSans-6f" x="260.009766"/>
     <use xlink:href="#DejaVuSans-72" x="321.191406"/>
     <use xlink:href="#DejaVuSans-65" x="360.054688"/>
    </g>
   </g>
   <g id="legend_1">
    <g id="patch_7">
     <path d="M 187 123.75625 
L 347.076563 123.75625 
Q 349.076563 123.75625 349.076563 121.75625 
L 349.076563 93.4 
Q 349.076563 91.4 347.076563 91.4 
L 187 91.4 
Q 185 91.4 185 93.4 
L 185 121.75625 
Q 185 123.75625 187 123.75625 
z
" style="fill: #ffffff; opacity: 0.8; stroke: #cccccc; stroke-linejoin: miter"/>
    </g>
    <g id="line2d_14">
     <path d="M 189 99.498437 
L 199 99.498437 
L 209 99.498437 
" style="fill: none; stroke: #1f77b4; stroke-width: 1.5; stroke-linecap: square"/>
    </g>
    <g id="text_15">
     <!-- F1 score (training data) -->
     <g transform="translate(217 102.998437)scale(0.1 -0.1)">
      <defs>
       <path id="DejaVuSans-28" d="M 1984 4856 
Q 1566 4138 1362 3434 
Q 1159 2731 1159 2009 
Q 1159 1288 1364 580 
Q 1569 -128 1984 -844 
L 1484 -844 
Q 1016 -109 783 600 
Q 550 1309 550 2009 
Q 550 2706 781 3412 
Q 1013 4119 1484 4856 
L 1984 4856 
z
" transform="scale(0.015625)"/>
       <path id="DejaVuSans-74" d="M 1172 4494 
L 1172 3500 
L 2356 3500 
L 2356 3053 
L 1172 3053 
L 1172 1153 
Q 1172 725 1289 603 
Q 1406 481 1766 481 
L 2356 481 
L 2356 0 
L 1766 0 
Q 1100 0 847 248 
Q 594 497 594 1153 
L 594 3053 
L 172 3053 
L 172 3500 
L 594 3500 
L 594 4494 
L 1172 4494 
z
" transform="scale(0.015625)"/>
       <path id="DejaVuSans-69" d="M 603 3500 
L 1178 3500 
L 1178 0 
L 603 0 
L 603 3500 
z
M 603 4863 
L 1178 4863 
L 1178 4134 
L 603 4134 
L 603 4863 
z
" transform="scale(0.015625)"/>
       <path id="DejaVuSans-6e" d="M 3513 2113 
L 3513 0 
L 2938 0 
L 2938 2094 
Q 2938 2591 2744 2837 
Q 2550 3084 2163 3084 
Q 1697 3084 1428 2787 
Q 1159 2491 1159 1978 
L 1159 0 
L 581 0 
L 581 3500 
L 1159 3500 
L 1159 2956 
Q 1366 3272 1645 3428 
Q 1925 3584 2291 3584 
Q 2894 3584 3203 3211 
Q 3513 2838 3513 2113 
z
" transform="scale(0.015625)"/>
       <path id="DejaVuSans-67" d="M 2906 1791 
Q 2906 2416 2648 2759 
Q 2391 3103 1925 3103 
Q 1463 3103 1205 2759 
Q 947 2416 947 1791 
Q 947 1169 1205 825 
Q 1463 481 1925 481 
Q 2391 481 2648 825 
Q 2906 1169 2906 1791 
z
M 3481 434 
Q 3481 -459 3084 -895 
Q 2688 -1331 1869 -1331 
Q 1566 -1331 1297 -1286 
Q 1028 -1241 775 -1147 
L 775 -588 
Q 1028 -725 1275 -790 
Q 1522 -856 1778 -856 
Q 2344 -856 2625 -561 
Q 2906 -266 2906 331 
L 2906 616 
Q 2728 306 2450 153 
Q 2172 0 1784 0 
Q 1141 0 747 490 
Q 353 981 353 1791 
Q 353 2603 747 3093 
Q 1141 3584 1784 3584 
Q 2172 3584 2450 3431 
Q 2728 3278 2906 2969 
L 2906 3500 
L 3481 3500 
L 3481 434 
z
" transform="scale(0.015625)"/>
       <path id="DejaVuSans-64" d="M 2906 2969 
L 2906 4863 
L 3481 4863 
L 3481 0 
L 2906 0 
L 2906 525 
Q 2725 213 2448 61 
Q 2172 -91 1784 -91 
Q 1150 -91 751 415 
Q 353 922 353 1747 
Q 353 2572 751 3078 
Q 1150 3584 1784 3584 
Q 2172 3584 2448 3432 
Q 2725 3281 2906 2969 
z
M 947 1747 
Q 947 1113 1208 752 
Q 1469 391 1925 391 
Q 2381 391 2643 752 
Q 2906 1113 2906 1747 
Q 2906 2381 2643 2742 
Q 2381 3103 1925 3103 
Q 1469 3103 1208 2742 
Q 947 2381 947 1747 
z
" transform="scale(0.015625)"/>
       <path id="DejaVuSans-29" d="M 513 4856 
L 1013 4856 
Q 1481 4119 1714 3412 
Q 1947 2706 1947 2009 
Q 1947 1309 1714 600 
Q 1481 -109 1013 -844 
L 513 -844 
Q 928 -128 1133 580 
Q 1338 1288 1338 2009 
Q 1338 2731 1133 3434 
Q 928 4138 513 4856 
z
" transform="scale(0.015625)"/>
      </defs>
      <use xlink:href="#DejaVuSans-46"/>
      <use xlink:href="#DejaVuSans-31" x="57.519531"/>
      <use xlink:href="#DejaVuSans-20" x="121.142578"/>
      <use xlink:href="#DejaVuSans-73" x="152.929688"/>
      <use xlink:href="#DejaVuSans-63" x="205.029297"/>
      <use xlink:href="#DejaVuSans-6f" x="260.009766"/>
      <use xlink:href="#DejaVuSans-72" x="321.191406"/>
      <use xlink:href="#DejaVuSans-65" x="360.054688"/>
      <use xlink:href="#DejaVuSans-20" x="421.578125"/>
      <use xlink:href="#DejaVuSans-28" x="453.365234"/>
      <use xlink:href="#DejaVuSans-74" x="492.378906"/>
      <use xlink:href="#DejaVuSans-72" x="531.587891"/>
      <use xlink:href="#DejaVuSans-61" x="572.701172"/>
      <use xlink:href="#DejaVuSans-69" x="633.980469"/>
      <use xlink:href="#DejaVuSans-6e" x="661.763672"/>
      <use xlink:href="#DejaVuSans-69" x="725.142578"/>
      <use xlink:href="#DejaVuSans-6e" x="752.925781"/>
      <use xlink:href="#DejaVuSans-67" x="816.304688"/>
      <use xlink:href="#DejaVuSans-20" x="879.78125"/>
      <use xlink:href="#DejaVuSans-64" x="911.568359"/>
      <use xlink:href="#DejaVuSans-61" x="975.044922"/>
      <use xlink:href="#DejaVuSans-74" x="1036.324219"/>
      <use xlink:href="#DejaVuSans-61" x="1075.533203"/>
      <use xlink:href="#DejaVuSans-29" x="1136.8125"/>
     </g>
    </g>
    <g id="line2d_15">
     <path d="M 189 114.176562 
L 199 114.176562 
L 209 114.176562 
" style="fill: none; stroke: #ff7f0e; stroke-width: 1.5; stroke-linecap: square"/>
    </g>
    <g id="text_16">
     <!-- F1 score (validation data) -->
     <g transform="translate(217 117.676562)scale(0.1 -0.1)">
      <use xlink:href="#DejaVuSans-46"/>
      <use xlink:href="#DejaVuSans-31" x="57.519531"/>
      <use xlink:href="#DejaVuSans-20" x="121.142578"/>
      <use xlink:href="#DejaVuSans-73" x="152.929688"/>
      <use xlink:href="#DejaVuSans-63" x="205.029297"/>
      <use xlink:href="#DejaVuSans-6f" x="260.009766"/>
      <use xlink:href="#DejaVuSans-72" x="321.191406"/>
      <use xlink:href="#DejaVuSans-65" x="360.054688"/>
      <use xlink:href="#DejaVuSans-20" x="421.578125"/>
      <use xlink:href="#DejaVuSans-28" x="453.365234"/>
      <use xlink:href="#DejaVuSans-76" x="492.378906"/>
      <use xlink:href="#DejaVuSans-61" x="551.558594"/>
      <use xlink:href="#DejaVuSans-6c" x="612.837891"/>
      <use xlink:href="#DejaVuSans-69" x="640.621094"/>
      <use xlink:href="#DejaVuSans-64" x="668.404297"/>
      <use xlink:href="#DejaVuSans-61" x="731.880859"/>
      <use xlink:href="#DejaVuSans-74" x="793.160156"/>
      <use xlink:href="#DejaVuSans-69" x="832.369141"/>
      <use xlink:href="#DejaVuSans-6f" x="860.152344"/>
      <use xlink:href="#DejaVuSans-6e" x="921.333984"/>
      <use xlink:href="#DejaVuSans-20" x="984.712891"/>
      <use xlink:href="#DejaVuSans-64" x="1016.5"/>
      <use xlink:href="#DejaVuSans-61" x="1079.976562"/>
      <use xlink:href="#DejaVuSans-74" x="1141.255859"/>
      <use xlink:href="#DejaVuSans-61" x="1180.464844"/>
      <use xlink:href="#DejaVuSans-29" x="1241.744141"/>
     </g>
    </g>
   </g>
  </g>
 </g>
 <defs>
  <clipPath id="p80998ab30b">
   <rect x="180" y="86.4" width="1116" height="554.4"/>
  </clipPath>
 </defs>
</svg>
