<?xml version="1.0" encoding="utf-8" standalone="no"?>
<!DOCTYPE svg PUBLIC "-//W3C//DTD SVG 1.1//EN"
  "http://www.w3.org/Graphics/SVG/1.1/DTD/svg11.dtd">
<svg xmlns:xlink="http://www.w3.org/1999/xlink" width="1080pt" height="576pt" viewBox="0 0 1080 576" xmlns="http://www.w3.org/2000/svg" version="1.1">
 <metadata>
  <rdf:RDF xmlns:dc="http://purl.org/dc/elements/1.1/" xmlns:cc="http://creativecommons.org/ns#" xmlns:rdf="http://www.w3.org/1999/02/22-rdf-syntax-ns#">
   <cc:Work>
    <dc:type rdf:resource="http://purl.org/dc/dcmitype/StillImage"/>
    <dc:date>2022-05-15T19:23:56.759918</dc:date>
    <dc:format>image/svg+xml</dc:format>
    <dc:creator>
     <cc:Agent>
      <dc:title>Matplotlib v3.5.1, https://matplotlib.org/</dc:title>
     </cc:Agent>
    </dc:creator>
   </cc:Work>
  </rdf:RDF>
 </metadata>
 <defs>
  <style type="text/css">*{stroke-linejoin: round; stroke-linecap: butt}</style>
 </defs>
 <g id="figure_1">
  <g id="patch_1">
   <path d="M 0 576 
L 1080 576 
L 1080 0 
L 0 0 
z
" style="fill: #ffffff"/>
  </g>
  <g id="axes_1">
   <g id="patch_2">
    <path d="M 135 504 
L 972 504 
L 972 69.12 
L 135 69.12 
z
" style="fill: #ffffff"/>
   </g>
   <g id="matplotlib.axis_1">
    <g id="xtick_1">
     <g id="line2d_1">
      <path d="M 173.045455 504 
L 173.045455 69.12 
" clip-path="url(#p867487f7f7)" style="fill: none; stroke: #cccccc; stroke-linecap: round"/>
     </g>
     <g id="text_1">
      <!-- 0 -->
      <g style="fill: #262626" transform="translate(169.54608 521.858281)scale(0.11 -0.11)">
       <defs>
        <path id="DejaVuSans-30" d="M 2034 4250 
Q 1547 4250 1301 3770 
Q 1056 3291 1056 2328 
Q 1056 1369 1301 889 
Q 1547 409 2034 409 
Q 2525 409 2770 889 
Q 3016 1369 3016 2328 
Q 3016 3291 2770 3770 
Q 2525 4250 2034 4250 
z
M 2034 4750 
Q 2819 4750 3233 4129 
Q 3647 3509 3647 2328 
Q 3647 1150 3233 529 
Q 2819 -91 2034 -91 
Q 1250 -91 836 529 
Q 422 1150 422 2328 
Q 422 3509 836 4129 
Q 1250 4750 2034 4750 
z
" transform="scale(0.015625)"/>
       </defs>
       <use xlink:href="#DejaVuSans-30"/>
      </g>
     </g>
    </g>
    <g id="xtick_2">
     <g id="line2d_2">
      <path d="M 326.764463 504 
L 326.764463 69.12 
" clip-path="url(#p867487f7f7)" style="fill: none; stroke: #cccccc; stroke-linecap: round"/>
     </g>
     <g id="text_2">
      <!-- 20 -->
      <g style="fill: #262626" transform="translate(319.765713 521.858281)scale(0.11 -0.11)">
       <defs>
        <path id="DejaVuSans-32" d="M 1228 531 
L 3431 531 
L 3431 0 
L 469 0 
L 469 531 
Q 828 903 1448 1529 
Q 2069 2156 2228 2338 
Q 2531 2678 2651 2914 
Q 2772 3150 2772 3378 
Q 2772 3750 2511 3984 
Q 2250 4219 1831 4219 
Q 1534 4219 1204 4116 
Q 875 4013 500 3803 
L 500 4441 
Q 881 4594 1212 4672 
Q 1544 4750 1819 4750 
Q 2544 4750 2975 4387 
Q 3406 4025 3406 3419 
Q 3406 3131 3298 2873 
Q 3191 2616 2906 2266 
Q 2828 2175 2409 1742 
Q 1991 1309 1228 531 
z
" transform="scale(0.015625)"/>
       </defs>
       <use xlink:href="#DejaVuSans-32"/>
       <use xlink:href="#DejaVuSans-30" x="63.623047"/>
      </g>
     </g>
    </g>
    <g id="xtick_3">
     <g id="line2d_3">
      <path d="M 480.483471 504 
L 480.483471 69.12 
" clip-path="url(#p867487f7f7)" style="fill: none; stroke: #cccccc; stroke-linecap: round"/>
     </g>
     <g id="text_3">
      <!-- 40 -->
      <g style="fill: #262626" transform="translate(473.484721 521.858281)scale(0.11 -0.11)">
       <defs>
        <path id="DejaVuSans-34" d="M 2419 4116 
L 825 1625 
L 2419 1625 
L 2419 4116 
z
M 2253 4666 
L 3047 4666 
L 3047 1625 
L 3713 1625 
L 3713 1100 
L 3047 1100 
L 3047 0 
L 2419 0 
L 2419 1100 
L 313 1100 
L 313 1709 
L 2253 4666 
z
" transform="scale(0.015625)"/>
       </defs>
       <use xlink:href="#DejaVuSans-34"/>
       <use xlink:href="#DejaVuSans-30" x="63.623047"/>
      </g>
     </g>
    </g>
    <g id="xtick_4">
     <g id="line2d_4">
      <path d="M 634.202479 504 
L 634.202479 69.12 
" clip-path="url(#p867487f7f7)" style="fill: none; stroke: #cccccc; stroke-linecap: round"/>
     </g>
     <g id="text_4">
      <!-- 60 -->
      <g style="fill: #262626" transform="translate(627.203729 521.858281)scale(0.11 -0.11)">
       <defs>
        <path id="DejaVuSans-36" d="M 2113 2584 
Q 1688 2584 1439 2293 
Q 1191 2003 1191 1497 
Q 1191 994 1439 701 
Q 1688 409 2113 409 
Q 2538 409 2786 701 
Q 3034 994 3034 1497 
Q 3034 2003 2786 2293 
Q 2538 2584 2113 2584 
z
M 3366 4563 
L 3366 3988 
Q 3128 4100 2886 4159 
Q 2644 4219 2406 4219 
Q 1781 4219 1451 3797 
Q 1122 3375 1075 2522 
Q 1259 2794 1537 2939 
Q 1816 3084 2150 3084 
Q 2853 3084 3261 2657 
Q 3669 2231 3669 1497 
Q 3669 778 3244 343 
Q 2819 -91 2113 -91 
Q 1303 -91 875 529 
Q 447 1150 447 2328 
Q 447 3434 972 4092 
Q 1497 4750 2381 4750 
Q 2619 4750 2861 4703 
Q 3103 4656 3366 4563 
z
" transform="scale(0.015625)"/>
       </defs>
       <use xlink:href="#DejaVuSans-36"/>
       <use xlink:href="#DejaVuSans-30" x="63.623047"/>
      </g>
     </g>
    </g>
    <g id="xtick_5">
     <g id="line2d_5">
      <path d="M 787.921488 504 
L 787.921488 69.12 
" clip-path="url(#p867487f7f7)" style="fill: none; stroke: #cccccc; stroke-linecap: round"/>
     </g>
     <g id="text_5">
      <!-- 80 -->
      <g style="fill: #262626" transform="translate(780.922738 521.858281)scale(0.11 -0.11)">
       <defs>
        <path id="DejaVuSans-38" d="M 2034 2216 
Q 1584 2216 1326 1975 
Q 1069 1734 1069 1313 
Q 1069 891 1326 650 
Q 1584 409 2034 409 
Q 2484 409 2743 651 
Q 3003 894 3003 1313 
Q 3003 1734 2745 1975 
Q 2488 2216 2034 2216 
z
M 1403 2484 
Q 997 2584 770 2862 
Q 544 3141 544 3541 
Q 544 4100 942 4425 
Q 1341 4750 2034 4750 
Q 2731 4750 3128 4425 
Q 3525 4100 3525 3541 
Q 3525 3141 3298 2862 
Q 3072 2584 2669 2484 
Q 3125 2378 3379 2068 
Q 3634 1759 3634 1313 
Q 3634 634 3220 271 
Q 2806 -91 2034 -91 
Q 1263 -91 848 271 
Q 434 634 434 1313 
Q 434 1759 690 2068 
Q 947 2378 1403 2484 
z
M 1172 3481 
Q 1172 3119 1398 2916 
Q 1625 2713 2034 2713 
Q 2441 2713 2670 2916 
Q 2900 3119 2900 3481 
Q 2900 3844 2670 4047 
Q 2441 4250 2034 4250 
Q 1625 4250 1398 4047 
Q 1172 3844 1172 3481 
z
" transform="scale(0.015625)"/>
       </defs>
       <use xlink:href="#DejaVuSans-38"/>
       <use xlink:href="#DejaVuSans-30" x="63.623047"/>
      </g>
     </g>
    </g>
    <g id="xtick_6">
     <g id="line2d_6">
      <path d="M 941.640496 504 
L 941.640496 69.12 
" clip-path="url(#p867487f7f7)" style="fill: none; stroke: #cccccc; stroke-linecap: round"/>
     </g>
     <g id="text_6">
      <!-- 100 -->
      <g style="fill: #262626" transform="translate(931.142371 521.858281)scale(0.11 -0.11)">
       <defs>
        <path id="DejaVuSans-31" d="M 794 531 
L 1825 531 
L 1825 4091 
L 703 3866 
L 703 4441 
L 1819 4666 
L 2450 4666 
L 2450 531 
L 3481 531 
L 3481 0 
L 794 0 
L 794 531 
z
" transform="scale(0.015625)"/>
       </defs>
       <use xlink:href="#DejaVuSans-31"/>
       <use xlink:href="#DejaVuSans-30" x="63.623047"/>
       <use xlink:href="#DejaVuSans-30" x="127.246094"/>
      </g>
     </g>
    </g>
    <g id="text_7">
     <!-- Iterations -->
     <g style="fill: #262626" transform="translate(524.924062 537.264063)scale(0.12 -0.12)">
      <defs>
       <path id="DejaVuSans-49" d="M 628 4666 
L 1259 4666 
L 1259 0 
L 628 0 
L 628 4666 
z
" transform="scale(0.015625)"/>
       <path id="DejaVuSans-74" d="M 1172 4494 
L 1172 3500 
L 2356 3500 
L 2356 3053 
L 1172 3053 
L 1172 1153 
Q 1172 725 1289 603 
Q 1406 481 1766 481 
L 2356 481 
L 2356 0 
L 1766 0 
Q 1100 0 847 248 
Q 594 497 594 1153 
L 594 3053 
L 172 3053 
L 172 3500 
L 594 3500 
L 594 4494 
L 1172 4494 
z
" transform="scale(0.015625)"/>
       <path id="DejaVuSans-65" d="M 3597 1894 
L 3597 1613 
L 953 1613 
Q 991 1019 1311 708 
Q 1631 397 2203 397 
Q 2534 397 2845 478 
Q 3156 559 3463 722 
L 3463 178 
Q 3153 47 2828 -22 
Q 2503 -91 2169 -91 
Q 1331 -91 842 396 
Q 353 884 353 1716 
Q 353 2575 817 3079 
Q 1281 3584 2069 3584 
Q 2775 3584 3186 3129 
Q 3597 2675 3597 1894 
z
M 3022 2063 
Q 3016 2534 2758 2815 
Q 2500 3097 2075 3097 
Q 1594 3097 1305 2825 
Q 1016 2553 972 2059 
L 3022 2063 
z
" transform="scale(0.015625)"/>
       <path id="DejaVuSans-72" d="M 2631 2963 
Q 2534 3019 2420 3045 
Q 2306 3072 2169 3072 
Q 1681 3072 1420 2755 
Q 1159 2438 1159 1844 
L 1159 0 
L 581 0 
L 581 3500 
L 1159 3500 
L 1159 2956 
Q 1341 3275 1631 3429 
Q 1922 3584 2338 3584 
Q 2397 3584 2469 3576 
Q 2541 3569 2628 3553 
L 2631 2963 
z
" transform="scale(0.015625)"/>
       <path id="DejaVuSans-61" d="M 2194 1759 
Q 1497 1759 1228 1600 
Q 959 1441 959 1056 
Q 959 750 1161 570 
Q 1363 391 1709 391 
Q 2188 391 2477 730 
Q 2766 1069 2766 1631 
L 2766 1759 
L 2194 1759 
z
M 3341 1997 
L 3341 0 
L 2766 0 
L 2766 531 
Q 2569 213 2275 61 
Q 1981 -91 1556 -91 
Q 1019 -91 701 211 
Q 384 513 384 1019 
Q 384 1609 779 1909 
Q 1175 2209 1959 2209 
L 2766 2209 
L 2766 2266 
Q 2766 2663 2505 2880 
Q 2244 3097 1772 3097 
Q 1472 3097 1187 3025 
Q 903 2953 641 2809 
L 641 3341 
Q 956 3463 1253 3523 
Q 1550 3584 1831 3584 
Q 2591 3584 2966 3190 
Q 3341 2797 3341 1997 
z
" transform="scale(0.015625)"/>
       <path id="DejaVuSans-69" d="M 603 3500 
L 1178 3500 
L 1178 0 
L 603 0 
L 603 3500 
z
M 603 4863 
L 1178 4863 
L 1178 4134 
L 603 4134 
L 603 4863 
z
" transform="scale(0.015625)"/>
       <path id="DejaVuSans-6f" d="M 1959 3097 
Q 1497 3097 1228 2736 
Q 959 2375 959 1747 
Q 959 1119 1226 758 
Q 1494 397 1959 397 
Q 2419 397 2687 759 
Q 2956 1122 2956 1747 
Q 2956 2369 2687 2733 
Q 2419 3097 1959 3097 
z
M 1959 3584 
Q 2709 3584 3137 3096 
Q 3566 2609 3566 1747 
Q 3566 888 3137 398 
Q 2709 -91 1959 -91 
Q 1206 -91 779 398 
Q 353 888 353 1747 
Q 353 2609 779 3096 
Q 1206 3584 1959 3584 
z
" transform="scale(0.015625)"/>
       <path id="DejaVuSans-6e" d="M 3513 2113 
L 3513 0 
L 2938 0 
L 2938 2094 
Q 2938 2591 2744 2837 
Q 2550 3084 2163 3084 
Q 1697 3084 1428 2787 
Q 1159 2491 1159 1978 
L 1159 0 
L 581 0 
L 581 3500 
L 1159 3500 
L 1159 2956 
Q 1366 3272 1645 3428 
Q 1925 3584 2291 3584 
Q 2894 3584 3203 3211 
Q 3513 2838 3513 2113 
z
" transform="scale(0.015625)"/>
       <path id="DejaVuSans-73" d="M 2834 3397 
L 2834 2853 
Q 2591 2978 2328 3040 
Q 2066 3103 1784 3103 
Q 1356 3103 1142 2972 
Q 928 2841 928 2578 
Q 928 2378 1081 2264 
Q 1234 2150 1697 2047 
L 1894 2003 
Q 2506 1872 2764 1633 
Q 3022 1394 3022 966 
Q 3022 478 2636 193 
Q 2250 -91 1575 -91 
Q 1294 -91 989 -36 
Q 684 19 347 128 
L 347 722 
Q 666 556 975 473 
Q 1284 391 1588 391 
Q 1994 391 2212 530 
Q 2431 669 2431 922 
Q 2431 1156 2273 1281 
Q 2116 1406 1581 1522 
L 1381 1569 
Q 847 1681 609 1914 
Q 372 2147 372 2553 
Q 372 3047 722 3315 
Q 1072 3584 1716 3584 
Q 2034 3584 2315 3537 
Q 2597 3491 2834 3397 
z
" transform="scale(0.015625)"/>
      </defs>
      <use xlink:href="#DejaVuSans-49"/>
      <use xlink:href="#DejaVuSans-74" x="29.492188"/>
      <use xlink:href="#DejaVuSans-65" x="68.701172"/>
      <use xlink:href="#DejaVuSans-72" x="130.224609"/>
      <use xlink:href="#DejaVuSans-61" x="171.337891"/>
      <use xlink:href="#DejaVuSans-74" x="232.617188"/>
      <use xlink:href="#DejaVuSans-69" x="271.826172"/>
      <use xlink:href="#DejaVuSans-6f" x="299.609375"/>
      <use xlink:href="#DejaVuSans-6e" x="360.791016"/>
      <use xlink:href="#DejaVuSans-73" x="424.169922"/>
     </g>
    </g>
   </g>
   <g id="matplotlib.axis_2">
    <g id="ytick_1">
     <g id="line2d_7">
      <path d="M 135 484.243696 
L 972 484.243696 
" clip-path="url(#p867487f7f7)" style="fill: none; stroke: #cccccc; stroke-linecap: round"/>
     </g>
     <g id="text_8">
      <!-- 0 -->
      <g style="fill: #262626" transform="translate(118.50125 488.422836)scale(0.11 -0.11)">
       <use xlink:href="#DejaVuSans-30"/>
      </g>
     </g>
    </g>
    <g id="ytick_2">
     <g id="line2d_8">
      <path d="M 135 394.389963 
L 972 394.389963 
" clip-path="url(#p867487f7f7)" style="fill: none; stroke: #cccccc; stroke-linecap: round"/>
     </g>
     <g id="text_9">
      <!-- 1 -->
      <g style="fill: #262626" transform="translate(118.50125 398.569104)scale(0.11 -0.11)">
       <use xlink:href="#DejaVuSans-31"/>
      </g>
     </g>
    </g>
    <g id="ytick_3">
     <g id="line2d_9">
      <path d="M 135 304.536231 
L 972 304.536231 
" clip-path="url(#p867487f7f7)" style="fill: none; stroke: #cccccc; stroke-linecap: round"/>
     </g>
     <g id="text_10">
      <!-- 2 -->
      <g style="fill: #262626" transform="translate(118.50125 308.715371)scale(0.11 -0.11)">
       <use xlink:href="#DejaVuSans-32"/>
      </g>
     </g>
    </g>
    <g id="ytick_4">
     <g id="line2d_10">
      <path d="M 135 214.682498 
L 972 214.682498 
" clip-path="url(#p867487f7f7)" style="fill: none; stroke: #cccccc; stroke-linecap: round"/>
     </g>
     <g id="text_11">
      <!-- 3 -->
      <g style="fill: #262626" transform="translate(118.50125 218.861639)scale(0.11 -0.11)">
       <defs>
        <path id="DejaVuSans-33" d="M 2597 2516 
Q 3050 2419 3304 2112 
Q 3559 1806 3559 1356 
Q 3559 666 3084 287 
Q 2609 -91 1734 -91 
Q 1441 -91 1130 -33 
Q 819 25 488 141 
L 488 750 
Q 750 597 1062 519 
Q 1375 441 1716 441 
Q 2309 441 2620 675 
Q 2931 909 2931 1356 
Q 2931 1769 2642 2001 
Q 2353 2234 1838 2234 
L 1294 2234 
L 1294 2753 
L 1863 2753 
Q 2328 2753 2575 2939 
Q 2822 3125 2822 3475 
Q 2822 3834 2567 4026 
Q 2313 4219 1838 4219 
Q 1578 4219 1281 4162 
Q 984 4106 628 3988 
L 628 4550 
Q 988 4650 1302 4700 
Q 1616 4750 1894 4750 
Q 2613 4750 3031 4423 
Q 3450 4097 3450 3541 
Q 3450 3153 3228 2886 
Q 3006 2619 2597 2516 
z
" transform="scale(0.015625)"/>
       </defs>
       <use xlink:href="#DejaVuSans-33"/>
      </g>
     </g>
    </g>
    <g id="ytick_5">
     <g id="line2d_11">
      <path d="M 135 124.828766 
L 972 124.828766 
" clip-path="url(#p867487f7f7)" style="fill: none; stroke: #cccccc; stroke-linecap: round"/>
     </g>
     <g id="text_12">
      <!-- 4 -->
      <g style="fill: #262626" transform="translate(118.50125 129.007906)scale(0.11 -0.11)">
       <use xlink:href="#DejaVuSans-34"/>
      </g>
     </g>
    </g>
    <g id="text_13">
     <!-- Factor -->
     <g style="fill: #262626" transform="translate(112.005625 304.929375)rotate(-90)scale(0.12 -0.12)">
      <defs>
       <path id="DejaVuSans-46" d="M 628 4666 
L 3309 4666 
L 3309 4134 
L 1259 4134 
L 1259 2759 
L 3109 2759 
L 3109 2228 
L 1259 2228 
L 1259 0 
L 628 0 
L 628 4666 
z
" transform="scale(0.015625)"/>
       <path id="DejaVuSans-63" d="M 3122 3366 
L 3122 2828 
Q 2878 2963 2633 3030 
Q 2388 3097 2138 3097 
Q 1578 3097 1268 2742 
Q 959 2388 959 1747 
Q 959 1106 1268 751 
Q 1578 397 2138 397 
Q 2388 397 2633 464 
Q 2878 531 3122 666 
L 3122 134 
Q 2881 22 2623 -34 
Q 2366 -91 2075 -91 
Q 1284 -91 818 406 
Q 353 903 353 1747 
Q 353 2603 823 3093 
Q 1294 3584 2113 3584 
Q 2378 3584 2631 3529 
Q 2884 3475 3122 3366 
z
" transform="scale(0.015625)"/>
      </defs>
      <use xlink:href="#DejaVuSans-46"/>
      <use xlink:href="#DejaVuSans-61" x="48.394531"/>
      <use xlink:href="#DejaVuSans-63" x="109.673828"/>
      <use xlink:href="#DejaVuSans-74" x="164.654297"/>
      <use xlink:href="#DejaVuSans-6f" x="203.863281"/>
      <use xlink:href="#DejaVuSans-72" x="265.044922"/>
     </g>
    </g>
   </g>
   <g id="line2d_12">
    <path d="M 173.045455 411.462172 
L 180.731405 399.781187 
L 188.417355 435.72268 
L 196.103306 435.72268 
L 203.789256 435.72268 
L 211.475207 435.72268 
L 219.161157 415.056322 
L 226.847107 415.056322 
L 234.533058 415.056322 
L 242.219008 415.056322 
L 249.904959 415.056322 
L 257.590909 415.056322 
L 265.27686 419.549008 
L 272.96281 419.549008 
L 280.64876 419.549008 
L 288.334711 419.549008 
L 296.020661 419.549008 
L 303.706612 419.549008 
L 311.392562 419.549008 
L 319.078512 419.549008 
L 326.764463 419.549008 
L 334.450413 419.549008 
L 342.136364 419.549008 
L 349.822314 419.549008 
L 357.508264 419.549008 
L 365.194215 419.549008 
L 372.880165 419.549008 
L 380.566116 419.549008 
L 388.252066 419.549008 
L 395.938017 419.549008 
L 403.623967 419.549008 
L 411.309917 419.549008 
L 418.995868 419.549008 
L 426.681818 419.549008 
L 434.367769 419.549008 
L 442.053719 419.549008 
L 449.739669 419.549008 
L 457.42562 419.549008 
L 465.11157 419.549008 
L 472.797521 419.549008 
L 480.483471 419.549008 
L 488.169421 419.549008 
L 495.855372 419.549008 
L 503.541322 419.549008 
L 511.227273 419.549008 
L 518.913223 419.549008 
L 526.599174 419.549008 
L 534.285124 419.549008 
L 541.971074 419.549008 
L 549.657025 419.549008 
L 557.342975 419.549008 
L 565.028926 419.549008 
L 572.714876 419.549008 
L 580.400826 419.549008 
L 588.086777 419.549008 
L 595.772727 419.549008 
L 603.458678 419.549008 
L 611.144628 419.549008 
L 618.830579 419.549008 
L 626.516529 419.549008 
L 634.202479 419.549008 
L 641.88843 419.549008 
L 649.57438 419.549008 
L 657.260331 419.549008 
L 664.946281 419.549008 
L 672.632231 419.549008 
L 680.318182 419.549008 
L 688.004132 419.549008 
L 695.690083 419.549008 
L 703.376033 419.549008 
L 711.061983 419.549008 
L 718.747934 419.549008 
L 726.433884 419.549008 
L 734.119835 419.549008 
L 741.805785 419.549008 
L 749.491736 419.549008 
L 757.177686 419.549008 
L 764.863636 419.549008 
L 772.549587 419.549008 
L 780.235537 419.549008 
L 787.921488 419.549008 
L 795.607438 419.549008 
L 803.293388 419.549008 
L 810.979339 419.549008 
L 818.665289 419.549008 
L 826.35124 419.549008 
L 834.03719 419.549008 
L 841.72314 419.549008 
L 849.409091 419.549008 
L 857.095041 419.549008 
L 864.780992 419.549008 
L 872.466942 419.549008 
L 880.152893 419.549008 
L 887.838843 419.549008 
L 895.524793 419.549008 
L 903.210744 419.549008 
L 910.896694 419.549008 
L 918.582645 419.549008 
L 926.268595 419.549008 
L 933.954545 419.549008 
" clip-path="url(#p867487f7f7)" style="fill: none; stroke: #4c72b0; stroke-width: 1.5; stroke-linecap: round"/>
   </g>
   <g id="line2d_13">
    <path d="M 173.045455 484.134011 
L 180.731405 484.035295 
L 188.417355 484.134011 
L 196.103306 484.188853 
L 203.789256 484.188853 
L 211.475207 484.188853 
L 219.161157 484.155948 
L 226.847107 484.155948 
L 234.533058 484.155948 
L 242.219008 484.221759 
L 249.904959 484.221759 
L 257.590909 484.221759 
L 265.27686 484.134011 
L 272.96281 484.134011 
L 280.64876 484.134011 
L 288.334711 484.155948 
L 296.020661 484.155948 
L 303.706612 484.155948 
L 311.392562 484.155948 
L 319.078512 484.155948 
L 326.764463 484.155948 
L 334.450413 484.155948 
L 342.136364 484.232727 
L 349.822314 484.232727 
L 357.508264 484.232727 
L 365.194215 484.232727 
L 372.880165 484.232727 
L 380.566116 484.232727 
L 388.252066 484.232727 
L 395.938017 484.232727 
L 403.623967 484.232727 
L 411.309917 484.232727 
L 418.995868 484.232727 
L 426.681818 484.232727 
L 434.367769 484.232727 
L 442.053719 484.232727 
L 449.739669 484.232727 
L 457.42562 484.232727 
L 465.11157 484.232727 
L 472.797521 484.232727 
L 480.483471 484.232727 
L 488.169421 484.232727 
L 495.855372 484.232727 
L 503.541322 484.232727 
L 511.227273 484.101106 
L 518.913223 484.232727 
L 526.599174 484.232727 
L 534.285124 484.232727 
L 541.971074 484.232727 
L 549.657025 484.232727 
L 557.342975 484.232727 
L 565.028926 484.232727 
L 572.714876 484.232727 
L 580.400826 484.232727 
L 588.086777 484.232727 
L 595.772727 484.232727 
L 603.458678 484.232727 
L 611.144628 484.232727 
L 618.830579 484.232727 
L 626.516529 484.232727 
L 634.202479 484.232727 
L 641.88843 484.232727 
L 649.57438 484.232727 
L 657.260331 484.232727 
L 664.946281 484.232727 
L 672.632231 484.232727 
L 680.318182 484.232727 
L 688.004132 484.232727 
L 695.690083 484.232727 
L 703.376033 484.232727 
L 711.061983 484.232727 
L 718.747934 484.232727 
L 726.433884 484.232727 
L 734.119835 484.232727 
L 741.805785 484.232727 
L 749.491736 484.232727 
L 757.177686 484.232727 
L 764.863636 484.232727 
L 772.549587 484.232727 
L 780.235537 484.232727 
L 787.921488 484.232727 
L 795.607438 484.232727 
L 803.293388 484.232727 
L 810.979339 484.232727 
L 818.665289 484.232727 
L 826.35124 484.232727 
L 834.03719 484.232727 
L 841.72314 484.232727 
L 849.409091 484.232727 
L 857.095041 484.232727 
L 864.780992 484.232727 
L 872.466942 484.232727 
L 880.152893 484.232727 
L 887.838843 484.232727 
L 895.524793 484.232727 
L 903.210744 484.232727 
L 910.896694 484.232727 
L 918.582645 484.232727 
L 926.268595 484.232727 
L 933.954545 484.232727 
" clip-path="url(#p867487f7f7)" style="fill: none; stroke: #dd8452; stroke-width: 1.5; stroke-linecap: round"/>
   </g>
   <g id="line2d_14">
    <path d="M 173.045455 142.799512 
L 180.731405 97.872646 
L 188.417355 97.872646 
L 196.103306 97.872646 
L 203.789256 97.872646 
L 211.475207 97.872646 
L 219.161157 97.872646 
L 226.847107 97.872646 
L 234.533058 97.872646 
L 242.219008 97.872646 
L 249.904959 97.872646 
L 257.590909 97.872646 
L 265.27686 88.887273 
L 272.96281 88.887273 
L 280.64876 88.887273 
L 288.334711 88.887273 
L 296.020661 88.887273 
L 303.706612 88.887273 
L 311.392562 88.887273 
L 319.078512 88.887273 
L 326.764463 88.887273 
L 334.450413 88.887273 
L 342.136364 88.887273 
L 349.822314 88.887273 
L 357.508264 88.887273 
L 365.194215 88.887273 
L 372.880165 88.887273 
L 380.566116 88.887273 
L 388.252066 88.887273 
L 395.938017 88.887273 
L 403.623967 88.887273 
L 411.309917 88.887273 
L 418.995868 88.887273 
L 426.681818 88.887273 
L 434.367769 88.887273 
L 442.053719 88.887273 
L 449.739669 88.887273 
L 457.42562 88.887273 
L 465.11157 88.887273 
L 472.797521 88.887273 
L 480.483471 88.887273 
L 488.169421 88.887273 
L 495.855372 88.887273 
L 503.541322 88.887273 
L 511.227273 88.887273 
L 518.913223 88.887273 
L 526.599174 88.887273 
L 534.285124 88.887273 
L 541.971074 88.887273 
L 549.657025 88.887273 
L 557.342975 88.887273 
L 565.028926 88.887273 
L 572.714876 88.887273 
L 580.400826 88.887273 
L 588.086777 88.887273 
L 595.772727 88.887273 
L 603.458678 88.887273 
L 611.144628 88.887273 
L 618.830579 88.887273 
L 626.516529 88.887273 
L 634.202479 88.887273 
L 641.88843 88.887273 
L 649.57438 88.887273 
L 657.260331 88.887273 
L 664.946281 88.887273 
L 672.632231 88.887273 
L 680.318182 88.887273 
L 688.004132 88.887273 
L 695.690083 88.887273 
L 703.376033 88.887273 
L 711.061983 88.887273 
L 718.747934 88.887273 
L 726.433884 88.887273 
L 734.119835 88.887273 
L 741.805785 88.887273 
L 749.491736 88.887273 
L 757.177686 88.887273 
L 764.863636 88.887273 
L 772.549587 88.887273 
L 780.235537 88.887273 
L 787.921488 88.887273 
L 795.607438 88.887273 
L 803.293388 88.887273 
L 810.979339 88.887273 
L 818.665289 88.887273 
L 826.35124 88.887273 
L 834.03719 88.887273 
L 841.72314 88.887273 
L 849.409091 88.887273 
L 857.095041 88.887273 
L 864.780992 88.887273 
L 872.466942 88.887273 
L 880.152893 88.887273 
L 887.838843 88.887273 
L 895.524793 88.887273 
L 903.210744 88.887273 
L 910.896694 88.887273 
L 918.582645 88.887273 
L 926.268595 88.887273 
L 933.954545 88.887273 
" clip-path="url(#p867487f7f7)" style="fill: none; stroke: #55a868; stroke-width: 1.5; stroke-linecap: round"/>
   </g>
   <g id="patch_3">
    <path d="M 135 504 
L 135 69.12 
" style="fill: none; stroke: #cccccc; stroke-width: 1.25; stroke-linejoin: miter; stroke-linecap: square"/>
   </g>
   <g id="patch_4">
    <path d="M 972 504 
L 972 69.12 
" style="fill: none; stroke: #cccccc; stroke-width: 1.25; stroke-linejoin: miter; stroke-linecap: square"/>
   </g>
   <g id="patch_5">
    <path d="M 135 504 
L 972 504 
" style="fill: none; stroke: #cccccc; stroke-width: 1.25; stroke-linejoin: miter; stroke-linecap: square"/>
   </g>
   <g id="patch_6">
    <path d="M 135 69.12 
L 972 69.12 
" style="fill: none; stroke: #cccccc; stroke-width: 1.25; stroke-linejoin: miter; stroke-linecap: square"/>
   </g>
   <g id="legend_1">
    <g id="patch_7">
     <path d="M 834.15625 312.734844 
L 964.3 312.734844 
Q 966.5 312.734844 966.5 310.534844 
L 966.5 262.585156 
Q 966.5 260.385156 964.3 260.385156 
L 834.15625 260.385156 
Q 831.95625 260.385156 831.95625 262.585156 
L 831.95625 310.534844 
Q 831.95625 312.734844 834.15625 312.734844 
z
" style="fill: #ffffff; opacity: 0.8; stroke: #cccccc; stroke-linejoin: miter"/>
    </g>
    <g id="line2d_15">
     <path d="M 836.35625 269.293437 
L 847.35625 269.293437 
L 858.35625 269.293437 
" style="fill: none; stroke: #4c72b0; stroke-width: 1.5; stroke-linecap: round"/>
    </g>
    <g id="text_14">
     <!-- eta -->
     <g style="fill: #262626" transform="translate(867.15625 273.143438)scale(0.11 -0.11)">
      <use xlink:href="#DejaVuSans-65"/>
      <use xlink:href="#DejaVuSans-74" x="61.523438"/>
      <use xlink:href="#DejaVuSans-61" x="100.732422"/>
     </g>
    </g>
    <g id="line2d_16">
     <path d="M 836.35625 285.439375 
L 847.35625 285.439375 
L 858.35625 285.439375 
" style="fill: none; stroke: #dd8452; stroke-width: 1.5; stroke-linecap: round"/>
    </g>
    <g id="text_15">
     <!-- max_depth -->
     <g style="fill: #262626" transform="translate(867.15625 289.289375)scale(0.11 -0.11)">
      <defs>
       <path id="DejaVuSans-6d" d="M 3328 2828 
Q 3544 3216 3844 3400 
Q 4144 3584 4550 3584 
Q 5097 3584 5394 3201 
Q 5691 2819 5691 2113 
L 5691 0 
L 5113 0 
L 5113 2094 
Q 5113 2597 4934 2840 
Q 4756 3084 4391 3084 
Q 3944 3084 3684 2787 
Q 3425 2491 3425 1978 
L 3425 0 
L 2847 0 
L 2847 2094 
Q 2847 2600 2669 2842 
Q 2491 3084 2119 3084 
Q 1678 3084 1418 2786 
Q 1159 2488 1159 1978 
L 1159 0 
L 581 0 
L 581 3500 
L 1159 3500 
L 1159 2956 
Q 1356 3278 1631 3431 
Q 1906 3584 2284 3584 
Q 2666 3584 2933 3390 
Q 3200 3197 3328 2828 
z
" transform="scale(0.015625)"/>
       <path id="DejaVuSans-78" d="M 3513 3500 
L 2247 1797 
L 3578 0 
L 2900 0 
L 1881 1375 
L 863 0 
L 184 0 
L 1544 1831 
L 300 3500 
L 978 3500 
L 1906 2253 
L 2834 3500 
L 3513 3500 
z
" transform="scale(0.015625)"/>
       <path id="DejaVuSans-5f" d="M 3263 -1063 
L 3263 -1509 
L -63 -1509 
L -63 -1063 
L 3263 -1063 
z
" transform="scale(0.015625)"/>
       <path id="DejaVuSans-64" d="M 2906 2969 
L 2906 4863 
L 3481 4863 
L 3481 0 
L 2906 0 
L 2906 525 
Q 2725 213 2448 61 
Q 2172 -91 1784 -91 
Q 1150 -91 751 415 
Q 353 922 353 1747 
Q 353 2572 751 3078 
Q 1150 3584 1784 3584 
Q 2172 3584 2448 3432 
Q 2725 3281 2906 2969 
z
M 947 1747 
Q 947 1113 1208 752 
Q 1469 391 1925 391 
Q 2381 391 2643 752 
Q 2906 1113 2906 1747 
Q 2906 2381 2643 2742 
Q 2381 3103 1925 3103 
Q 1469 3103 1208 2742 
Q 947 2381 947 1747 
z
" transform="scale(0.015625)"/>
       <path id="DejaVuSans-70" d="M 1159 525 
L 1159 -1331 
L 581 -1331 
L 581 3500 
L 1159 3500 
L 1159 2969 
Q 1341 3281 1617 3432 
Q 1894 3584 2278 3584 
Q 2916 3584 3314 3078 
Q 3713 2572 3713 1747 
Q 3713 922 3314 415 
Q 2916 -91 2278 -91 
Q 1894 -91 1617 61 
Q 1341 213 1159 525 
z
M 3116 1747 
Q 3116 2381 2855 2742 
Q 2594 3103 2138 3103 
Q 1681 3103 1420 2742 
Q 1159 2381 1159 1747 
Q 1159 1113 1420 752 
Q 1681 391 2138 391 
Q 2594 391 2855 752 
Q 3116 1113 3116 1747 
z
" transform="scale(0.015625)"/>
       <path id="DejaVuSans-68" d="M 3513 2113 
L 3513 0 
L 2938 0 
L 2938 2094 
Q 2938 2591 2744 2837 
Q 2550 3084 2163 3084 
Q 1697 3084 1428 2787 
Q 1159 2491 1159 1978 
L 1159 0 
L 581 0 
L 581 4863 
L 1159 4863 
L 1159 2956 
Q 1366 3272 1645 3428 
Q 1925 3584 2291 3584 
Q 2894 3584 3203 3211 
Q 3513 2838 3513 2113 
z
" transform="scale(0.015625)"/>
      </defs>
      <use xlink:href="#DejaVuSans-6d"/>
      <use xlink:href="#DejaVuSans-61" x="97.412109"/>
      <use xlink:href="#DejaVuSans-78" x="158.691406"/>
      <use xlink:href="#DejaVuSans-5f" x="217.871094"/>
      <use xlink:href="#DejaVuSans-64" x="267.871094"/>
      <use xlink:href="#DejaVuSans-65" x="331.347656"/>
      <use xlink:href="#DejaVuSans-70" x="392.871094"/>
      <use xlink:href="#DejaVuSans-74" x="456.347656"/>
      <use xlink:href="#DejaVuSans-68" x="495.556641"/>
     </g>
    </g>
    <g id="line2d_17">
     <path d="M 836.35625 301.89125 
L 847.35625 301.89125 
L 858.35625 301.89125 
" style="fill: none; stroke: #55a868; stroke-width: 1.5; stroke-linecap: round"/>
    </g>
    <g id="text_16">
     <!-- min_child_weight -->
     <g style="fill: #262626" transform="translate(867.15625 305.74125)scale(0.11 -0.11)">
      <defs>
       <path id="DejaVuSans-6c" d="M 603 4863 
L 1178 4863 
L 1178 0 
L 603 0 
L 603 4863 
z
" transform="scale(0.015625)"/>
       <path id="DejaVuSans-77" d="M 269 3500 
L 844 3500 
L 1563 769 
L 2278 3500 
L 2956 3500 
L 3675 769 
L 4391 3500 
L 4966 3500 
L 4050 0 
L 3372 0 
L 2619 2869 
L 1863 0 
L 1184 0 
L 269 3500 
z
" transform="scale(0.015625)"/>
       <path id="DejaVuSans-67" d="M 2906 1791 
Q 2906 2416 2648 2759 
Q 2391 3103 1925 3103 
Q 1463 3103 1205 2759 
Q 947 2416 947 1791 
Q 947 1169 1205 825 
Q 1463 481 1925 481 
Q 2391 481 2648 825 
Q 2906 1169 2906 1791 
z
M 3481 434 
Q 3481 -459 3084 -895 
Q 2688 -1331 1869 -1331 
Q 1566 -1331 1297 -1286 
Q 1028 -1241 775 -1147 
L 775 -588 
Q 1028 -725 1275 -790 
Q 1522 -856 1778 -856 
Q 2344 -856 2625 -561 
Q 2906 -266 2906 331 
L 2906 616 
Q 2728 306 2450 153 
Q 2172 0 1784 0 
Q 1141 0 747 490 
Q 353 981 353 1791 
Q 353 2603 747 3093 
Q 1141 3584 1784 3584 
Q 2172 3584 2450 3431 
Q 2728 3278 2906 2969 
L 2906 3500 
L 3481 3500 
L 3481 434 
z
" transform="scale(0.015625)"/>
      </defs>
      <use xlink:href="#DejaVuSans-6d"/>
      <use xlink:href="#DejaVuSans-69" x="97.412109"/>
      <use xlink:href="#DejaVuSans-6e" x="125.195312"/>
      <use xlink:href="#DejaVuSans-5f" x="188.574219"/>
      <use xlink:href="#DejaVuSans-63" x="238.574219"/>
      <use xlink:href="#DejaVuSans-68" x="293.554688"/>
      <use xlink:href="#DejaVuSans-69" x="356.933594"/>
      <use xlink:href="#DejaVuSans-6c" x="384.716797"/>
      <use xlink:href="#DejaVuSans-64" x="412.5"/>
      <use xlink:href="#DejaVuSans-5f" x="475.976562"/>
      <use xlink:href="#DejaVuSans-77" x="525.976562"/>
      <use xlink:href="#DejaVuSans-65" x="607.763672"/>
      <use xlink:href="#DejaVuSans-69" x="669.287109"/>
      <use xlink:href="#DejaVuSans-67" x="697.070312"/>
      <use xlink:href="#DejaVuSans-68" x="760.546875"/>
      <use xlink:href="#DejaVuSans-74" x="823.925781"/>
     </g>
    </g>
   </g>
  </g>
 </g>
 <defs>
  <clipPath id="p867487f7f7">
   <rect x="135" y="69.12" width="837" height="434.88"/>
  </clipPath>
 </defs>
</svg>
