<?xml version="1.0" encoding="UTF-8" standalone="no"?>
<svg
   xmlns:dc="http://purl.org/dc/elements/1.1/"
   xmlns:cc="http://creativecommons.org/ns#"
   xmlns:rdf="http://www.w3.org/1999/02/22-rdf-syntax-ns#"
   xmlns:svg="http://www.w3.org/2000/svg"
   xmlns="http://www.w3.org/2000/svg"
   xmlns:xlink="http://www.w3.org/1999/xlink"
   xmlns:sodipodi="http://sodipodi.sourceforge.net/DTD/sodipodi-0.dtd"
   xmlns:inkscape="http://www.inkscape.org/namespaces/inkscape"
   width="1440pt"
   height="720pt"
   viewBox="0 0 1440 720"
   version="1.1"
   id="svg1377"
   sodipodi:docname="F1Score1D_2.svg"
   inkscape:version="0.92.5 (2060ec1f9f, 2020-04-08)">
  <sodipodi:namedview
     pagecolor="#ffffff"
     bordercolor="#666666"
     borderopacity="1"
     objecttolerance="10"
     gridtolerance="10"
     guidetolerance="10"
     inkscape:pageopacity="0"
     inkscape:pageshadow="2"
     inkscape:window-width="1858"
     inkscape:window-height="1016"
     id="namedview1379"
     showgrid="false"
     inkscape:zoom="0.48208478"
     inkscape:cx="750.46595"
     inkscape:cy="687.72297"
     inkscape:window-x="62"
     inkscape:window-y="27"
     inkscape:window-maximized="1"
     inkscape:current-layer="axes_1" />
  <metadata
     id="metadata931">
    <rdf:RDF>
      <cc:Work>
        <dc:type
           rdf:resource="http://purl.org/dc/dcmitype/StillImage" />
        <dc:date>2022-05-23T19:50:27.237741</dc:date>
        <dc:format>image/svg+xml</dc:format>
        <dc:creator>
          <cc:Agent>
            <dc:title>Matplotlib v3.5.0, https://matplotlib.org/</dc:title>
          </cc:Agent>
        </dc:creator>
        <dc:title></dc:title>
      </cc:Work>
    </rdf:RDF>
  </metadata>
  <defs
     id="defs935">
    <style
       type="text/css"
       id="style933">*{stroke-linejoin: round; stroke-linecap: butt}</style>
  </defs>
  <g
     id="figure_1">
    <g
       id="axes_1">
      <g
         id="g5519">
        <g
           style="stroke-linecap:butt;stroke-linejoin:round"
           transform="translate(-26.951872,20.626432)"
           id="patch_1">
          <path
             inkscape:connector-curvature="0"
             id="path937"
             style="fill:#ffffff;stroke-linecap:butt;stroke-linejoin:round"
             d="M 0,720 H 1440 V 0 H 0 Z" />
        </g>
        <g
           id="patch_2">
          <path
             id="path940"
             style="fill: #ffffff"
             d="M 180 640.8  L 1296 640.8  L 1296 86.4  L 180 86.4  z " />
        </g>
        <g
           id="matplotlib.axis_1">
          <g
             id="xtick_1">
            <g
               id="line2d_1">
              <defs
                 id="defs944">
                <path
                   style="stroke: #000000; stroke-width: 0.8"
                   d="M 0 0  L 0 3.5  "
                   id="mcbda8dda3d" />
              </defs>
              <g
                 id="g948">
                <use
                   id="use946"
                   style="stroke: #000000; stroke-width: 0.8"
                   y="640.8"
                   x="230.727273"
                   xlink:href="#mcbda8dda3d" />
              </g>
            </g>
            <g
               id="text_1">
              <!-- 0 -->
              <g
                 id="g956"
                 transform="translate(227.546023 655.398438)scale(0.1 -0.1)">
                <defs
                   id="defs952">
                  <path
                     transform="scale(0.015625)"
                     d="M 2034 4250  Q 1547 4250 1301 3770  Q 1056 3291 1056 2328  Q 1056 1369 1301 889  Q 1547 409 2034 409  Q 2525 409 2770 889  Q 3016 1369 3016 2328  Q 3016 3291 2770 3770  Q 2525 4250 2034 4250  z M 2034 4750  Q 2819 4750 3233 4129  Q 3647 3509 3647 2328  Q 3647 1150 3233 529  Q 2819 -91 2034 -91  Q 1250 -91 836 529  Q 422 1150 422 2328  Q 422 3509 836 4129  Q 1250 4750 2034 4750  z "
                     id="DejaVuSans-30" />
                </defs>
                <use
                   id="use954"
                   xlink:href="#DejaVuSans-30" />
              </g>
            </g>
          </g>
          <g
             id="xtick_2">
            <g
               id="line2d_2">
              <g
                 id="g962">
                <use
                   id="use960"
                   style="stroke: #000000; stroke-width: 0.8"
                   y="640.8"
                   x="435.68595"
                   xlink:href="#mcbda8dda3d" />
              </g>
            </g>
            <g
               id="text_2">
              <!-- 20 -->
              <g
                 id="g972"
                 transform="translate(429.32345 655.398438)scale(0.1 -0.1)">
                <defs
                   id="defs966">
                  <path
                     transform="scale(0.015625)"
                     d="M 1228 531  L 3431 531  L 3431 0  L 469 0  L 469 531  Q 828 903 1448 1529  Q 2069 2156 2228 2338  Q 2531 2678 2651 2914  Q 2772 3150 2772 3378  Q 2772 3750 2511 3984  Q 2250 4219 1831 4219  Q 1534 4219 1204 4116  Q 875 4013 500 3803  L 500 4441  Q 881 4594 1212 4672  Q 1544 4750 1819 4750  Q 2544 4750 2975 4387  Q 3406 4025 3406 3419  Q 3406 3131 3298 2873  Q 3191 2616 2906 2266  Q 2828 2175 2409 1742  Q 1991 1309 1228 531  z "
                     id="DejaVuSans-32" />
                </defs>
                <use
                   id="use968"
                   xlink:href="#DejaVuSans-32" />
                <use
                   id="use970"
                   x="63.623047"
                   xlink:href="#DejaVuSans-30" />
              </g>
            </g>
          </g>
          <g
             id="xtick_3">
            <g
               id="line2d_3">
              <g
                 id="g978">
                <use
                   id="use976"
                   style="stroke: #000000; stroke-width: 0.8"
                   y="640.8"
                   x="640.644628"
                   xlink:href="#mcbda8dda3d" />
              </g>
            </g>
            <g
               id="text_3">
              <!-- 40 -->
              <g
                 id="g988"
                 transform="translate(634.282128 655.398438)scale(0.1 -0.1)">
                <defs
                   id="defs982">
                  <path
                     transform="scale(0.015625)"
                     d="M 2419 4116  L 825 1625  L 2419 1625  L 2419 4116  z M 2253 4666  L 3047 4666  L 3047 1625  L 3713 1625  L 3713 1100  L 3047 1100  L 3047 0  L 2419 0  L 2419 1100  L 313 1100  L 313 1709  L 2253 4666  z "
                     id="DejaVuSans-34" />
                </defs>
                <use
                   id="use984"
                   xlink:href="#DejaVuSans-34" />
                <use
                   id="use986"
                   x="63.623047"
                   xlink:href="#DejaVuSans-30" />
              </g>
            </g>
          </g>
          <g
             id="xtick_4">
            <g
               id="line2d_4">
              <g
                 id="g994">
                <use
                   id="use992"
                   style="stroke: #000000; stroke-width: 0.8"
                   y="640.8"
                   x="845.603306"
                   xlink:href="#mcbda8dda3d" />
              </g>
            </g>
            <g
               id="text_4">
              <!-- 60 -->
              <g
                 id="g1004"
                 transform="translate(839.240806 655.398438)scale(0.1 -0.1)">
                <defs
                   id="defs998">
                  <path
                     transform="scale(0.015625)"
                     d="M 2113 2584  Q 1688 2584 1439 2293  Q 1191 2003 1191 1497  Q 1191 994 1439 701  Q 1688 409 2113 409  Q 2538 409 2786 701  Q 3034 994 3034 1497  Q 3034 2003 2786 2293  Q 2538 2584 2113 2584  z M 3366 4563  L 3366 3988  Q 3128 4100 2886 4159  Q 2644 4219 2406 4219  Q 1781 4219 1451 3797  Q 1122 3375 1075 2522  Q 1259 2794 1537 2939  Q 1816 3084 2150 3084  Q 2853 3084 3261 2657  Q 3669 2231 3669 1497  Q 3669 778 3244 343  Q 2819 -91 2113 -91  Q 1303 -91 875 529  Q 447 1150 447 2328  Q 447 3434 972 4092  Q 1497 4750 2381 4750  Q 2619 4750 2861 4703  Q 3103 4656 3366 4563  z "
                     id="DejaVuSans-36" />
                </defs>
                <use
                   id="use1000"
                   xlink:href="#DejaVuSans-36" />
                <use
                   id="use1002"
                   x="63.623047"
                   xlink:href="#DejaVuSans-30" />
              </g>
            </g>
          </g>
          <g
             id="xtick_5">
            <g
               id="line2d_5">
              <g
                 id="g1010">
                <use
                   id="use1008"
                   style="stroke: #000000; stroke-width: 0.8"
                   y="640.8"
                   x="1050.561983"
                   xlink:href="#mcbda8dda3d" />
              </g>
            </g>
            <g
               id="text_5">
              <!-- 80 -->
              <g
                 id="g1020"
                 transform="translate(1044.199483 655.398438)scale(0.1 -0.1)">
                <defs
                   id="defs1014">
                  <path
                     transform="scale(0.015625)"
                     d="M 2034 2216  Q 1584 2216 1326 1975  Q 1069 1734 1069 1313  Q 1069 891 1326 650  Q 1584 409 2034 409  Q 2484 409 2743 651  Q 3003 894 3003 1313  Q 3003 1734 2745 1975  Q 2488 2216 2034 2216  z M 1403 2484  Q 997 2584 770 2862  Q 544 3141 544 3541  Q 544 4100 942 4425  Q 1341 4750 2034 4750  Q 2731 4750 3128 4425  Q 3525 4100 3525 3541  Q 3525 3141 3298 2862  Q 3072 2584 2669 2484  Q 3125 2378 3379 2068  Q 3634 1759 3634 1313  Q 3634 634 3220 271  Q 2806 -91 2034 -91  Q 1263 -91 848 271  Q 434 634 434 1313  Q 434 1759 690 2068  Q 947 2378 1403 2484  z M 1172 3481  Q 1172 3119 1398 2916  Q 1625 2713 2034 2713  Q 2441 2713 2670 2916  Q 2900 3119 2900 3481  Q 2900 3844 2670 4047  Q 2441 4250 2034 4250  Q 1625 4250 1398 4047  Q 1172 3844 1172 3481  z "
                     id="DejaVuSans-38" />
                </defs>
                <use
                   id="use1016"
                   xlink:href="#DejaVuSans-38" />
                <use
                   id="use1018"
                   x="63.623047"
                   xlink:href="#DejaVuSans-30" />
              </g>
            </g>
          </g>
          <g
             id="xtick_6">
            <g
               id="line2d_6">
              <g
                 id="g1026">
                <use
                   id="use1024"
                   style="stroke: #000000; stroke-width: 0.8"
                   y="640.8"
                   x="1255.520661"
                   xlink:href="#mcbda8dda3d" />
              </g>
            </g>
            <g
               id="text_6">
              <!-- 100 -->
              <g
                 id="g1038"
                 transform="translate(1245.976911 655.398438)scale(0.1 -0.1)">
                <defs
                   id="defs1030">
                  <path
                     transform="scale(0.015625)"
                     d="M 794 531  L 1825 531  L 1825 4091  L 703 3866  L 703 4441  L 1819 4666  L 2450 4666  L 2450 531  L 3481 531  L 3481 0  L 794 0  L 794 531  z "
                     id="DejaVuSans-31" />
                </defs>
                <use
                   id="use1032"
                   xlink:href="#DejaVuSans-31" />
                <use
                   id="use1034"
                   x="63.623047"
                   xlink:href="#DejaVuSans-30" />
                <use
                   id="use1036"
                   x="127.246094"
                   xlink:href="#DejaVuSans-30" />
              </g>
            </g>
          </g>
          <g
             id="text_7">
            <!-- No. epoch -->
            <g
               id="g1070"
               transform="translate(712.88125 669.076563)scale(0.1 -0.1)">
              <defs
                 id="defs1050">
                <path
                   transform="scale(0.015625)"
                   d="M 628 4666  L 1478 4666  L 3547 763  L 3547 4666  L 4159 4666  L 4159 0  L 3309 0  L 1241 3903  L 1241 0  L 628 0  L 628 4666  z "
                   id="DejaVuSans-4e" />
                <path
                   transform="scale(0.015625)"
                   d="M 1959 3097  Q 1497 3097 1228 2736  Q 959 2375 959 1747  Q 959 1119 1226 758  Q 1494 397 1959 397  Q 2419 397 2687 759  Q 2956 1122 2956 1747  Q 2956 2369 2687 2733  Q 2419 3097 1959 3097  z M 1959 3584  Q 2709 3584 3137 3096  Q 3566 2609 3566 1747  Q 3566 888 3137 398  Q 2709 -91 1959 -91  Q 1206 -91 779 398  Q 353 888 353 1747  Q 353 2609 779 3096  Q 1206 3584 1959 3584  z "
                   id="DejaVuSans-6f" />
                <path
                   transform="scale(0.015625)"
                   d="M 684 794  L 1344 794  L 1344 0  L 684 0  L 684 794  z "
                   id="DejaVuSans-2e" />
                <path
                   transform="scale(0.015625)"
                   id="DejaVuSans-20" />
                <path
                   transform="scale(0.015625)"
                   d="M 3597 1894  L 3597 1613  L 953 1613  Q 991 1019 1311 708  Q 1631 397 2203 397  Q 2534 397 2845 478  Q 3156 559 3463 722  L 3463 178  Q 3153 47 2828 -22  Q 2503 -91 2169 -91  Q 1331 -91 842 396  Q 353 884 353 1716  Q 353 2575 817 3079  Q 1281 3584 2069 3584  Q 2775 3584 3186 3129  Q 3597 2675 3597 1894  z M 3022 2063  Q 3016 2534 2758 2815  Q 2500 3097 2075 3097  Q 1594 3097 1305 2825  Q 1016 2553 972 2059  L 3022 2063  z "
                   id="DejaVuSans-65" />
                <path
                   transform="scale(0.015625)"
                   d="M 1159 525  L 1159 -1331  L 581 -1331  L 581 3500  L 1159 3500  L 1159 2969  Q 1341 3281 1617 3432  Q 1894 3584 2278 3584  Q 2916 3584 3314 3078  Q 3713 2572 3713 1747  Q 3713 922 3314 415  Q 2916 -91 2278 -91  Q 1894 -91 1617 61  Q 1341 213 1159 525  z M 3116 1747  Q 3116 2381 2855 2742  Q 2594 3103 2138 3103  Q 1681 3103 1420 2742  Q 1159 2381 1159 1747  Q 1159 1113 1420 752  Q 1681 391 2138 391  Q 2594 391 2855 752  Q 3116 1113 3116 1747  z "
                   id="DejaVuSans-70" />
                <path
                   transform="scale(0.015625)"
                   d="M 3122 3366  L 3122 2828  Q 2878 2963 2633 3030  Q 2388 3097 2138 3097  Q 1578 3097 1268 2742  Q 959 2388 959 1747  Q 959 1106 1268 751  Q 1578 397 2138 397  Q 2388 397 2633 464  Q 2878 531 3122 666  L 3122 134  Q 2881 22 2623 -34  Q 2366 -91 2075 -91  Q 1284 -91 818 406  Q 353 903 353 1747  Q 353 2603 823 3093  Q 1294 3584 2113 3584  Q 2378 3584 2631 3529  Q 2884 3475 3122 3366  z "
                   id="DejaVuSans-63" />
                <path
                   transform="scale(0.015625)"
                   d="M 3513 2113  L 3513 0  L 2938 0  L 2938 2094  Q 2938 2591 2744 2837  Q 2550 3084 2163 3084  Q 1697 3084 1428 2787  Q 1159 2491 1159 1978  L 1159 0  L 581 0  L 581 4863  L 1159 4863  L 1159 2956  Q 1366 3272 1645 3428  Q 1925 3584 2291 3584  Q 2894 3584 3203 3211  Q 3513 2838 3513 2113  z "
                   id="DejaVuSans-68" />
              </defs>
              <use
                 id="use1052"
                 xlink:href="#DejaVuSans-4e" />
              <use
                 id="use1054"
                 x="74.804688"
                 xlink:href="#DejaVuSans-6f" />
              <use
                 id="use1056"
                 x="134.236328"
                 xlink:href="#DejaVuSans-2e" />
              <use
                 id="use1058"
                 x="166.023438"
                 xlink:href="#DejaVuSans-20" />
              <use
                 id="use1060"
                 x="197.810547"
                 xlink:href="#DejaVuSans-65" />
              <use
                 id="use1062"
                 x="259.333984"
                 xlink:href="#DejaVuSans-70" />
              <use
                 id="use1064"
                 x="322.810547"
                 xlink:href="#DejaVuSans-6f" />
              <use
                 id="use1066"
                 x="383.992188"
                 xlink:href="#DejaVuSans-63" />
              <use
                 id="use1068"
                 x="438.972656"
                 xlink:href="#DejaVuSans-68" />
            </g>
          </g>
        </g>
        <g
           id="matplotlib.axis_2">
          <g
             id="ytick_1">
            <g
               id="line2d_7">
              <defs
                 id="defs1075">
                <path
                   style="stroke: #000000; stroke-width: 0.8"
                   d="M 0 0  L -3.5 0  "
                   id="m478033c959" />
              </defs>
              <g
                 id="g1079">
                <use
                   id="use1077"
                   style="stroke: #000000; stroke-width: 0.8"
                   y="615.6"
                   x="180"
                   xlink:href="#m478033c959" />
              </g>
            </g>
            <g
               id="text_8">
              <!-- 0.0 -->
              <g
                 id="g1088"
                 transform="translate(157.096875 619.399219)scale(0.1 -0.1)">
                <use
                   id="use1082"
                   xlink:href="#DejaVuSans-30" />
                <use
                   id="use1084"
                   x="63.623047"
                   xlink:href="#DejaVuSans-2e" />
                <use
                   id="use1086"
                   x="95.410156"
                   xlink:href="#DejaVuSans-30" />
              </g>
            </g>
          </g>
          <g
             id="ytick_2">
            <g
               id="line2d_8">
              <g
                 id="g1094">
                <use
                   id="use1092"
                   style="stroke: #000000; stroke-width: 0.8"
                   y="514.641762"
                   x="180"
                   xlink:href="#m478033c959" />
              </g>
            </g>
            <g
               id="text_9">
              <!-- 0.2 -->
              <g
                 id="g1103"
                 transform="translate(157.096875 518.44098)scale(0.1 -0.1)">
                <use
                   id="use1097"
                   xlink:href="#DejaVuSans-30" />
                <use
                   id="use1099"
                   x="63.623047"
                   xlink:href="#DejaVuSans-2e" />
                <use
                   id="use1101"
                   x="95.410156"
                   xlink:href="#DejaVuSans-32" />
              </g>
            </g>
          </g>
          <g
             id="ytick_3">
            <g
               id="line2d_9">
              <g
                 id="g1109">
                <use
                   id="use1107"
                   style="stroke: #000000; stroke-width: 0.8"
                   y="413.683523"
                   x="180"
                   xlink:href="#m478033c959" />
              </g>
            </g>
            <g
               id="text_10">
              <!-- 0.4 -->
              <g
                 id="g1118"
                 transform="translate(157.096875 417.482742)scale(0.1 -0.1)">
                <use
                   id="use1112"
                   xlink:href="#DejaVuSans-30" />
                <use
                   id="use1114"
                   x="63.623047"
                   xlink:href="#DejaVuSans-2e" />
                <use
                   id="use1116"
                   x="95.410156"
                   xlink:href="#DejaVuSans-34" />
              </g>
            </g>
          </g>
          <g
             id="ytick_4">
            <g
               id="line2d_10">
              <g
                 id="g1124">
                <use
                   id="use1122"
                   style="stroke: #000000; stroke-width: 0.8"
                   y="312.725285"
                   x="180"
                   xlink:href="#m478033c959" />
              </g>
            </g>
            <g
               id="text_11">
              <!-- 0.6 -->
              <g
                 id="g1133"
                 transform="translate(157.096875 316.524504)scale(0.1 -0.1)">
                <use
                   id="use1127"
                   xlink:href="#DejaVuSans-30" />
                <use
                   id="use1129"
                   x="63.623047"
                   xlink:href="#DejaVuSans-2e" />
                <use
                   id="use1131"
                   x="95.410156"
                   xlink:href="#DejaVuSans-36" />
              </g>
            </g>
          </g>
          <g
             id="ytick_5">
            <g
               id="line2d_11">
              <g
                 id="g1139">
                <use
                   id="use1137"
                   style="stroke: #000000; stroke-width: 0.8"
                   y="211.767047"
                   x="180"
                   xlink:href="#m478033c959" />
              </g>
            </g>
            <g
               id="text_12">
              <!-- 0.8 -->
              <g
                 id="g1148"
                 transform="translate(157.096875 215.566266)scale(0.1 -0.1)">
                <use
                   id="use1142"
                   xlink:href="#DejaVuSans-30" />
                <use
                   id="use1144"
                   x="63.623047"
                   xlink:href="#DejaVuSans-2e" />
                <use
                   id="use1146"
                   x="95.410156"
                   xlink:href="#DejaVuSans-38" />
              </g>
            </g>
          </g>
          <g
             id="ytick_6">
            <g
               id="line2d_12">
              <g
                 id="g1154">
                <use
                   id="use1152"
                   style="stroke: #000000; stroke-width: 0.8"
                   y="110.808809"
                   x="180"
                   xlink:href="#m478033c959" />
              </g>
            </g>
            <g
               id="text_13">
              <!-- 1.0 -->
              <g
                 id="g1163"
                 transform="translate(157.096875 114.608027)scale(0.1 -0.1)">
                <use
                   id="use1157"
                   xlink:href="#DejaVuSans-31" />
                <use
                   id="use1159"
                   x="63.623047"
                   xlink:href="#DejaVuSans-2e" />
                <use
                   id="use1161"
                   x="95.410156"
                   xlink:href="#DejaVuSans-30" />
              </g>
            </g>
          </g>
        </g>
        <g
           id="line2d_13">
          <path
             id="path1208"
             style="fill: none; stroke: #1f77b4; stroke-width: 1.5; stroke-linecap: square"
             clip-path="url(#p5d8373876a)"
             d="M 230.727273 323.098137  L 240.975207 297.830981  L 251.22314 331.448131  L 261.471074 315.566173  L 271.719008 289.545886  L 281.966942 313.488182  L 292.214876 301.112066  L 302.46281 292.910706  L 312.710744 282.910963  L 322.958678 286.411419  L 333.206612 284.606897  L 343.454545 283.120134  L 353.702479 281.763049  L 363.950413 284.393063  L 374.198347 280.342509  L 384.446281 287.45902  L 394.694215 284.211933  L 404.942149 283.145197  L 415.190083 289.691331  L 425.438017 286.030777  L 435.68595 294.592921  L 445.933884 286.427336  L 456.181818 282.743704  L 466.429752 276.627346  L 476.677686 282.462172  L 486.92562 279.473089  L 497.173554 285.518681  L 507.421488 287.279575  L 517.669421 292.803984  L 527.917355 285.783334  L 538.165289 275.449404  L 548.413223 274.314549  L 558.661157 276.516622  L 568.909091 279.377319  L 579.157025 275.618107  L 589.404959 278.370067  L 599.652893 276.527514  L 609.900826 284.431094  L 620.14876 275.193717  L 630.396694 284.420743  L 640.644628 275.556126  L 650.892562 280.314708  L 661.140496 277.639172  L 671.38843 281.410539  L 681.636364 272.291499  L 691.884298 281.265546  L 702.132231 286.020367  L 712.380165 285.602626  L 722.628099 284.071814  L 732.876033 275.319665  L 743.123967 276.471159  L 753.371901 280.934218  L 763.619835 281.937378  L 773.867769 273.819001  L 784.115702 273.904631  L 794.363636 277.31347  L 804.61157 279.94574  L 814.859504 277.294515  L 825.107438 278.670404  L 835.355372 278.861462  L 845.603306 267.261975  L 855.85124 277.829628  L 866.099174 281.618266  L 876.347107 279.633518  L 886.595041 277.747097  L 896.842975 279.099458  L 907.090909 268.505388  L 917.338843 266.070705  L 927.586777 281.519909  L 937.834711 288.391474  L 948.082645 280.362277  L 958.330579 280.271562  L 968.578512 280.596993  L 978.826446 279.490721  L 989.07438 280.63388  L 999.322314 275.958462  L 1009.570248 276.655057  L 1019.818182 279.006035  L 1030.066116 276.846416  L 1040.31405 277.902591  L 1050.561983 282.174922  L 1060.809917 280.254141  L 1071.057851 282.664784  L 1081.305785 278.696069  L 1091.553719 280.413727  L 1101.801653 277.095122  L 1112.049587 274.570055  L 1122.297521 280.734193  L 1132.545455 276.579566  L 1142.793388 283.886623  L 1153.041322 276.319486  L 1163.289256 277.179489  L 1173.53719 275.567529  L 1183.785124 283.433559  L 1194.033058 268.303227  L 1204.280992 277.503776  L 1214.528926 278.473659  L 1224.77686 282.310408  L 1235.024793 274.091086  L 1245.272727 271.861121  " />
        </g>
        <g
           id="line2d_14">
          <path
             id="path1211"
             style="fill: none; stroke: #ff7f0e; stroke-width: 1.5; stroke-linecap: square"
             clip-path="url(#p5d8373876a)"
             d="M 230.727273 326.484981  L 240.975207 497.004482  L 251.22314 367.767881  L 261.471074 194.05962  L 271.719008 325.88202  L 281.966942 286.643968  L 292.214876 437.272765  L 302.46281 322.335348  L 312.710744 328.208025  L 322.958678 349.491694  L 333.206612 339.777484  L 343.454545 353.462905  L 353.702479 344.036787  L 363.950413 348.678418  L 374.198347 346.747346  L 384.446281 307.213019  L 394.694215 322.091907  L 404.942149 332.46119  L 415.190083 325.686147  L 425.438017 615.6  L 435.68595 331.673008  L 445.933884 344.490964  L 456.181818 316.839884  L 466.429752 309.388645  L 476.677686 313.337833  L 486.92562 566.766211  L 497.173554 505.931501  L 507.421488 271.714443  L 517.669421 343.722519  L 527.917355 267.353653  L 538.165289 252.105256  L 548.413223 494.319122  L 558.661157 334.417084  L 568.909091 464.540586  L 579.157025 324.732632  L 589.404959 268.541283  L 599.652893 325.955645  L 609.900826 429.177059  L 620.14876 305.258359  L 630.396694 275.515959  L 640.644628 304.822415  L 650.892562 466.872413  L 661.140496 326.629463  L 671.38843 461.593912  L 681.636364 324.424231  L 691.884298 450.024182  L 702.132231 313.730149  L 712.380165 111.6  L 722.628099 173.158459  L 732.876033 365.662781  L 743.123967 335.796915  L 753.371901 342.343892  L 763.619835 460.546658  L 773.867769 331.077177  L 784.115702 334.681376  L 794.363636 377.624873  L 804.61157 352.76631  L 814.859504 311.789028  L 825.107438 317.289307  L 835.355372 535.529675  L 845.603306 596.344792  L 855.85124 313.389825  L 866.099174 343.102348  L 876.347107 470.03596  L 886.595041 325.356324  L 896.842975 466.846537  L 907.090909 482.727141  L 917.338843 373.967929  L 927.586777 351.905646  L 937.834711 347.324552  L 948.082645 505.505795  L 958.330579 410.26719  L 968.578512 389.970946  L 978.826446 335.701717  L 989.07438 353.499432  L 999.322314 350.607142  L 1009.570248 316.445762  L 1019.818182 319.281818  L 1030.066116 348.500628  L 1040.31405 615.6  L 1050.561983 348.095164  L 1060.809917 356.842709  L 1071.057851 419.664724  L 1081.305785 334.610519  L 1091.553719 400.987555  L 1101.801653 303.458471  L 1112.049587 325.840077  L 1122.297521 327.760166  L 1132.545455 341.355294  L 1142.793388 557.949805  L 1153.041322 550.024476  L 1163.289256 286.094804  L 1173.53719 303.368779  L 1183.785124 457.024779  L 1194.033058 300.774871  L 1204.280992 335.048058  L 1214.528926 312.712666  L 1224.77686 302.445983  L 1235.024793 564.295381  L 1245.272727 337.426837  " />
        </g>
        <g
           id="patch_3">
          <path
             id="path1214"
             style="fill: none; stroke: #000000; stroke-width: 0.8; stroke-linejoin: miter; stroke-linecap: square"
             d="M 180 640.8  L 180 86.4  " />
        </g>
        <g
           id="patch_4">
          <path
             id="path1217"
             style="fill: none; stroke: #000000; stroke-width: 0.8; stroke-linejoin: miter; stroke-linecap: square"
             d="M 1296 640.8  L 1296 86.4  " />
        </g>
        <g
           id="patch_5">
          <path
             id="path1220"
             style="fill: none; stroke: #000000; stroke-width: 0.8; stroke-linejoin: miter; stroke-linecap: square"
             d="M 180 640.8  L 1296 640.8  " />
        </g>
        <g
           id="patch_6">
          <path
             id="path1223"
             style="fill: none; stroke: #000000; stroke-width: 0.8; stroke-linejoin: miter; stroke-linecap: square"
             d="M 180 86.4  L 1296 86.4  " />
        </g>
        <g
           id="text_15">
          <!-- F1 score -->
          <g
             id="g1242"
             transform="translate(712.705312 80.4)scale(0.12 -0.12)">
            <path
               style="stroke-width:0.015625;stroke-linecap:butt;stroke-linejoin:round"
               inkscape:connector-curvature="0"
               id="use1226"
               d="m 9.8125,72.90625 h 41.890625 v -8.3125 H 19.671875 V 43.109375 h 28.90625 V 34.8125 H 19.671875 V 0 H 9.8125 Z" />
            <use
               id="use1228"
               x="57.519531"
               xlink:href="#DejaVuSans-31" />
            <use
               id="use1230"
               x="121.142578"
               xlink:href="#DejaVuSans-20" />
            <path
               style="stroke-width:0.015625;stroke-linecap:butt;stroke-linejoin:round"
               inkscape:connector-curvature="0"
               id="use1232"
               d="m 197.21094,53.078125 v -8.5 q -3.79688,1.953125 -7.90625,2.921875 -4.09375,0.984375 -8.5,0.984375 -6.6875,0 -10.03125,-2.046875 -3.34375,-2.046875 -3.34375,-6.15625 0,-3.125 2.39062,-4.90625 2.39063,-1.78125 9.625,-3.390625 l 3.07813,-0.6875 q 9.5625,-2.046875 13.59375,-5.78125 4.03125,-3.734375 4.03125,-10.421875 0,-7.625 -6.03125,-12.078125 -6.03125,-4.4375 -16.57813,-4.4375 -4.39062,0 -9.15625,0.859375 Q 163.61719,0.296875 158.35156,2 v 9.28125 q 4.98438,-2.59375 9.8125,-3.890625 4.82813,-1.28125 9.57813,-1.28125 6.34375,0 9.75,2.171875 3.42187,2.171875 3.42187,6.125 0,3.65625 -2.46875,5.609375 -2.45312,1.953125 -10.8125,3.765625 l -3.125,0.734375 q -8.34375,1.75 -12.0625,5.390625 -3.70312,3.640625 -3.70312,9.984375 0,7.71875 5.46875,11.90625 Q 169.67969,56 179.74219,56 q 4.96875,0 9.35937,-0.734375 4.40625,-0.71875 8.10938,-2.1875 z" />
            <use
               id="use1234"
               x="205.029297"
               xlink:href="#DejaVuSans-63" />
            <use
               id="use1236"
               x="260.009766"
               xlink:href="#DejaVuSans-6f" />
            <path
               style="stroke-width:0.015625;stroke-linecap:butt;stroke-linejoin:round"
               inkscape:connector-curvature="0"
               id="use1238"
               d="m 362.30078,46.296875 q -1.51562,0.875 -3.29687,1.28125 Q 357.22266,48 355.08203,48 347.45703,48 343.37891,43.046875 339.30078,38.09375 339.30078,28.8125 V 0 h -9.03125 v 54.6875 h 9.03125 v -8.5 q 2.84375,4.984375 7.375,7.390625 Q 351.22266,56 357.72266,56 q 0.92187,0 2.04687,-0.125 1.125,-0.109375 2.48438,-0.359375 z" />
            <use
               id="use1240"
               x="360.054688"
               xlink:href="#DejaVuSans-65" />
          </g>
        </g>
        <g
           id="legend_1">
          <g
             id="patch_7">
            <path
               id="path1245"
               style="fill: #ffffff; opacity: 0.8; stroke: #cccccc; stroke-linejoin: miter"
               d="M 187 123.75625  L 347.076563 123.75625  Q 349.076563 123.75625 349.076563 121.75625  L 349.076563 93.4  Q 349.076563 91.4 347.076563 91.4  L 187 91.4  Q 185 91.4 185 93.4  L 185 121.75625  Q 185 123.75625 187 123.75625  z " />
          </g>
          <g
             id="line2d_15">
            <path
               id="path1248"
               style="fill: none; stroke: #1f77b4; stroke-width: 1.5; stroke-linecap: square"
               d="M 189 99.498437  L 199 99.498437  L 209 99.498437  " />
          </g>
          <g
             id="line2d_16">
            <path
               id="path1311"
               style="fill: none; stroke: #ff7f0e; stroke-width: 1.5; stroke-linecap: square"
               d="M 189 114.176562  L 199 114.176562  L 209 114.176562  " />
          </g>
          <g
             style="display:none;stroke-linecap:butt;stroke-linejoin:round"
             transform="translate(-9.6256685,44.828113)"
             id="text_17">
            <!-- F1 score (validation data) -->
            <g
               style="stroke-linecap:butt;stroke-linejoin:round"
               id="g1366"
               transform="matrix(0.1,0,0,-0.1,217,117.67656)">
              <path
                 style="stroke-width:0.015625;stroke-linecap:butt;stroke-linejoin:round"
                 inkscape:connector-curvature="0"
                 id="use1314"
                 d="m 9.8125,72.90625 h 41.890625 v -8.3125 H 19.671875 V 43.109375 h 28.90625 V 34.8125 H 19.671875 V 0 H 9.8125 Z" />
              <use
                 height="100%"
                 width="100%"
                 y="0"
                 style="stroke-linecap:butt;stroke-linejoin:round"
                 id="use1316"
                 x="57.519531"
                 xlink:href="#DejaVuSans-31" />
              <use
                 height="100%"
                 width="100%"
                 y="0"
                 style="stroke-linecap:butt;stroke-linejoin:round"
                 id="use1318"
                 x="121.14258"
                 xlink:href="#DejaVuSans-20" />
              <path
                 style="stroke-width:0.015625;stroke-linecap:butt;stroke-linejoin:round"
                 inkscape:connector-curvature="0"
                 id="use1320"
                 d="m 197.21094,53.078125 v -8.5 q -3.79688,1.953125 -7.90625,2.921875 -4.09375,0.984375 -8.5,0.984375 -6.6875,0 -10.03125,-2.046875 -3.34375,-2.046875 -3.34375,-6.15625 0,-3.125 2.39062,-4.90625 2.39063,-1.78125 9.625,-3.390625 l 3.07813,-0.6875 q 9.5625,-2.046875 13.59375,-5.78125 4.03125,-3.734375 4.03125,-10.421875 0,-7.625 -6.03125,-12.078125 -6.03125,-4.4375 -16.57813,-4.4375 -4.39062,0 -9.15625,0.859375 Q 163.61719,0.296875 158.35156,2 v 9.28125 q 4.98438,-2.59375 9.8125,-3.890625 4.82813,-1.28125 9.57813,-1.28125 6.34375,0 9.75,2.171875 3.42187,2.171875 3.42187,6.125 0,3.65625 -2.46875,5.609375 -2.45312,1.953125 -10.8125,3.765625 l -3.125,0.734375 q -8.34375,1.75 -12.0625,5.390625 -3.70312,3.640625 -3.70312,9.984375 0,7.71875 5.46875,11.90625 Q 169.67969,56 179.74219,56 q 4.96875,0 9.35937,-0.734375 4.40625,-0.71875 8.10938,-2.1875 z" />
              <use
                 height="100%"
                 width="100%"
                 y="0"
                 style="stroke-linecap:butt;stroke-linejoin:round"
                 id="use1322"
                 x="205.0293"
                 xlink:href="#DejaVuSans-63" />
              <use
                 height="100%"
                 width="100%"
                 y="0"
                 style="stroke-linecap:butt;stroke-linejoin:round"
                 id="use1324"
                 x="260.00977"
                 xlink:href="#DejaVuSans-6f" />
              <path
                 style="stroke-width:0.015625;stroke-linecap:butt;stroke-linejoin:round"
                 inkscape:connector-curvature="0"
                 id="use1326"
                 d="m 362.30078,46.296875 q -1.51562,0.875 -3.29687,1.28125 Q 357.22266,48 355.08203,48 347.45703,48 343.37891,43.046875 339.30078,38.09375 339.30078,28.8125 V 0 h -9.03125 v 54.6875 h 9.03125 v -8.5 q 2.84375,4.984375 7.375,7.390625 Q 351.22266,56 357.72266,56 q 0.92187,0 2.04687,-0.125 1.125,-0.109375 2.48438,-0.359375 z" />
              <use
                 height="100%"
                 width="100%"
                 y="0"
                 style="stroke-linecap:butt;stroke-linejoin:round"
                 id="use1328"
                 x="360.05469"
                 xlink:href="#DejaVuSans-65" />
              <use
                 height="100%"
                 width="100%"
                 y="0"
                 style="stroke-linecap:butt;stroke-linejoin:round"
                 id="use1330"
                 x="421.57812"
                 xlink:href="#DejaVuSans-20" />
              <path
                 style="stroke-width:0.015625;stroke-linecap:butt;stroke-linejoin:round"
                 inkscape:connector-curvature="0"
                 id="use1332"
                 d="m 484.36523,75.875 q -6.53125,-11.21875 -9.71875,-22.21875 -3.17187,-10.984375 -3.17187,-22.265625 0,-11.265625 3.20312,-22.328125 3.20313,-11.0625 9.6875,-22.25 h -7.8125 q -7.3125,11.484375 -10.95312,22.5625 -3.64063,11.078125 -3.64063,22.015625 0,10.890625 3.60938,21.921875 3.625,11.046875 10.98437,22.5625 z" />
              <path
                 style="stroke-width:0.015625;stroke-linecap:butt;stroke-linejoin:round"
                 inkscape:connector-curvature="0"
                 id="use1334"
                 d="m 495.36328,54.6875 h 9.51563 L 521.97266,8.796875 539.06641,54.6875 h 9.51562 L 528.06641,0 h -12.20313 z" />
              <path
                 style="stroke-width:0.015625;stroke-linecap:butt;stroke-linejoin:round"
                 inkscape:connector-curvature="0"
                 id="use1336"
                 d="m 585.83984,27.484375 q -10.89062,0 -15.09375,-2.484375 -4.20312,-2.484375 -4.20312,-8.5 0,-4.78125 3.15625,-7.59375 3.15625,-2.796875 8.5625,-2.796875 7.48437,0 12,5.296875 4.51562,5.296875 4.51562,14.078125 v 2 z m 17.92188,3.71875 V 0 h -8.98438 v 8.296875 q -3.07812,-4.96875 -7.67187,-7.34375 -4.59375,-2.375 -11.23438,-2.375 -8.39062,0 -13.35937,4.71875 -4.95313,4.71875 -4.95313,12.625 0,9.21875 6.17188,13.90625 6.1875,4.6875 18.4375,4.6875 h 12.60937 v 0.890625 q 0,6.203125 -4.07812,9.59375 -4.07813,3.390625 -11.45313,3.390625 -4.6875,0 -9.14062,-1.125 -4.4375,-1.125 -8.53125,-3.375 v 8.3125 q 4.92187,1.90625 9.5625,2.84375 Q 575.77734,56 580.16797,56 q 11.875,0 17.73437,-6.15625 5.85938,-6.140625 5.85938,-18.640625 z" />
              <path
                 style="stroke-width:0.015625;stroke-linecap:butt;stroke-linejoin:round"
                 inkscape:connector-curvature="0"
                 id="use1338"
                 d="m 622.25977,75.984375 h 8.98437 V 0 h -8.98437 z" />
              <path
                 style="stroke-width:0.015625;stroke-linecap:butt;stroke-linejoin:round"
                 inkscape:connector-curvature="0"
                 id="use1340"
                 d="m 650.04297,54.6875 h 8.98437 V 0 h -8.98437 z m 0,21.296875 h 8.98437 V 64.59375 h -8.98437 z" />
              <path
                 style="stroke-width:0.015625;stroke-linecap:butt;stroke-linejoin:round"
                 inkscape:connector-curvature="0"
                 id="use1342"
                 d="m 713.81055,46.390625 v 29.59375 h 8.98437 V 0 h -8.98437 v 8.203125 q -2.82813,-4.875 -7.15625,-7.25 -4.3125,-2.375 -10.375,-2.375 -9.90625,0 -16.14063,7.90625 -6.21875,7.921875 -6.21875,20.8125 0,12.890625 6.21875,20.796875 Q 686.37305,56 696.2793,56 q 6.0625,0 10.375,-2.375 4.32812,-2.359375 7.15625,-7.234375 z m -30.60938,-19.09375 q 0,-9.90625 4.07813,-15.546875 4.07812,-5.640625 11.20312,-5.640625 7.125,0 11.21875,5.640625 4.10938,5.640625 4.10938,15.546875 0,9.90625 -4.10938,15.546875 -4.09375,5.640625 -11.21875,5.640625 -7.125,0 -11.20312,-5.640625 -4.07813,-5.640625 -4.07813,-15.546875 z" />
              <path
                 style="stroke-width:0.015625;stroke-linecap:butt;stroke-linejoin:round"
                 inkscape:connector-curvature="0"
                 id="use1344"
                 d="m 766.16211,27.484375 q -10.89063,0 -15.09375,-2.484375 -4.20313,-2.484375 -4.20313,-8.5 0,-4.78125 3.15625,-7.59375 3.15625,-2.796875 8.5625,-2.796875 7.48438,0 12,5.296875 4.51563,5.296875 4.51563,14.078125 v 2 z m 17.92187,3.71875 V 0 h -8.98437 v 8.296875 q -3.07813,-4.96875 -7.67188,-7.34375 -4.59375,-2.375 -11.23437,-2.375 -8.39063,0 -13.35938,4.71875 -4.95312,4.71875 -4.95312,12.625 0,9.21875 6.17187,13.90625 6.1875,4.6875 18.4375,4.6875 h 12.60938 v 0.890625 q 0,6.203125 -4.07813,9.59375 -4.07812,3.390625 -11.45312,3.390625 -4.6875,0 -9.14063,-1.125 -4.4375,-1.125 -8.53125,-3.375 v 8.3125 q 4.92188,1.90625 9.5625,2.84375 Q 756.09961,56 760.49023,56 q 11.875,0 17.73438,-6.15625 5.85937,-6.140625 5.85937,-18.640625 z" />
              <path
                 style="stroke-width:0.015625;stroke-linecap:butt;stroke-linejoin:round"
                 inkscape:connector-curvature="0"
                 id="use1346"
                 d="M 811.47266,70.21875 V 54.6875 h 18.5 v -6.984375 h -18.5 v -29.6875 q 0,-6.6875 1.82812,-8.59375 1.82813,-1.90625 7.45313,-1.90625 h 9.21875 V 0 h -9.21875 q -10.40625,0 -14.35938,3.875 -3.95312,3.890625 -3.95312,14.140625 v 29.6875 h -6.59375 V 54.6875 h 6.59375 v 15.53125 z" />
              <path
                 style="stroke-width:0.015625;stroke-linecap:butt;stroke-linejoin:round"
                 inkscape:connector-curvature="0"
                 id="use1348"
                 d="m 841.79102,54.6875 h 8.98437 V 0 h -8.98437 z m 0,21.296875 h 8.98437 V 64.59375 h -8.98437 z" />
              <use
                 height="100%"
                 width="100%"
                 y="0"
                 style="stroke-linecap:butt;stroke-linejoin:round"
                 id="use1350"
                 x="860.15234"
                 xlink:href="#DejaVuSans-6f" />
              <path
                 style="stroke-width:0.015625;stroke-linecap:butt;stroke-linejoin:round"
                 inkscape:connector-curvature="0"
                 id="use1352"
                 d="M 976.22461,33.015625 V 0 h -8.98438 v 32.71875 q 0,7.765625 -3.03125,11.609375 -3.03125,3.859375 -9.07812,3.859375 -7.28125,0 -11.48438,-4.640625 -4.20312,-4.625 -4.20312,-12.640625 V 0 h -9.03125 v 54.6875 h 9.03125 v -8.5 q 3.23437,4.9375 7.59375,7.375 4.375,2.4375 10.09375,2.4375 9.42187,0 14.25,-5.828125 4.84375,-5.828125 4.84375,-17.15625 z" />
              <use
                 height="100%"
                 width="100%"
                 y="0"
                 style="stroke-linecap:butt;stroke-linejoin:round"
                 id="use1354"
                 x="984.71289"
                 xlink:href="#DejaVuSans-20" />
              <path
                 style="stroke-width:0.015625;stroke-linecap:butt;stroke-linejoin:round"
                 inkscape:connector-curvature="0"
                 id="use1356"
                 d="m 1061.9063,46.390625 v 29.59375 h 8.9843 V 0 h -8.9843 v 8.203125 q -2.8282,-4.875 -7.1563,-7.25 -4.3125,-2.375 -10.375,-2.375 -9.9062,0 -16.1406,7.90625 -6.2188,7.921875 -6.2188,20.8125 0,12.890625 6.2188,20.796875 Q 1034.4688,56 1044.375,56 q 6.0625,0 10.375,-2.375 4.3281,-2.359375 7.1563,-7.234375 z m -30.6094,-19.09375 q 0,-9.90625 4.0781,-15.546875 4.0781,-5.640625 11.2031,-5.640625 7.125,0 11.2188,5.640625 4.1094,5.640625 4.1094,15.546875 0,9.90625 -4.1094,15.546875 -4.0938,5.640625 -11.2188,5.640625 -7.125,0 -11.2031,-5.640625 -4.0781,-5.640625 -4.0781,-15.546875 z" />
              <path
                 style="stroke-width:0.015625;stroke-linecap:butt;stroke-linejoin:round"
                 inkscape:connector-curvature="0"
                 id="use1358"
                 d="m 1114.2578,27.484375 q -10.8906,0 -15.0937,-2.484375 -4.2032,-2.484375 -4.2032,-8.5 0,-4.78125 3.1563,-7.59375 3.1562,-2.796875 8.5625,-2.796875 7.4844,0 12,5.296875 4.5156,5.296875 4.5156,14.078125 v 2 z m 17.9219,3.71875 V 0 h -8.9844 v 8.296875 q -3.0781,-4.96875 -7.6719,-7.34375 -4.5937,-2.375 -11.2343,-2.375 -8.3907,0 -13.3594,4.71875 -4.9531,4.71875 -4.9531,12.625 0,9.21875 6.1718,13.90625 6.1875,4.6875 18.4375,4.6875 h 12.6094 v 0.890625 q 0,6.203125 -4.0781,9.59375 -4.0781,3.390625 -11.4531,3.390625 -4.6875,0 -9.1407,-1.125 -4.4375,-1.125 -8.5312,-3.375 v 8.3125 q 4.9219,1.90625 9.5625,2.84375 Q 1104.1953,56 1108.5859,56 q 11.875,0 17.7344,-6.15625 5.8594,-6.140625 5.8594,-18.640625 z" />
              <path
                 style="stroke-width:0.015625;stroke-linecap:butt;stroke-linejoin:round"
                 inkscape:connector-curvature="0"
                 id="use1360"
                 d="M 1159.5684,70.21875 V 54.6875 h 18.5 v -6.984375 h -18.5 v -29.6875 q 0,-6.6875 1.8281,-8.59375 1.8281,-1.90625 7.4531,-1.90625 h 9.2188 V 0 h -9.2188 q -10.4062,0 -14.3594,3.875 -3.9531,3.890625 -3.9531,14.140625 v 29.6875 h -6.5937 V 54.6875 h 6.5937 v 15.53125 z" />
              <path
                 style="stroke-width:0.015625;stroke-linecap:butt;stroke-linejoin:round"
                 inkscape:connector-curvature="0"
                 id="use1362"
                 d="m 1214.7461,27.484375 q -10.8906,0 -15.0938,-2.484375 -4.2031,-2.484375 -4.2031,-8.5 0,-4.78125 3.1563,-7.59375 3.1562,-2.796875 8.5625,-2.796875 7.4843,0 12,5.296875 4.5156,5.296875 4.5156,14.078125 v 2 z m 17.9219,3.71875 V 0 h -8.9844 v 8.296875 q -3.0781,-4.96875 -7.6719,-7.34375 -4.5937,-2.375 -11.2344,-2.375 -8.3906,0 -13.3593,4.71875 -4.9532,4.71875 -4.9532,12.625 0,9.21875 6.1719,13.90625 6.1875,4.6875 18.4375,4.6875 h 12.6094 v 0.890625 q 0,6.203125 -4.0781,9.59375 -4.0782,3.390625 -11.4532,3.390625 -4.6875,0 -9.1406,-1.125 -4.4375,-1.125 -8.5312,-3.375 v 8.3125 q 4.9218,1.90625 9.5625,2.84375 Q 1204.6836,56 1209.0742,56 q 11.875,0 17.7344,-6.15625 5.8594,-6.140625 5.8594,-18.640625 z" />
              <path
                 style="stroke-width:0.015625;stroke-linecap:butt;stroke-linejoin:round"
                 inkscape:connector-curvature="0"
                 id="use1364"
                 d="m 1249.7598,75.875 h 7.8125 q 7.3125,-11.515625 10.9531,-22.5625 3.6406,-11.03125 3.6406,-21.921875 0,-10.9375 -3.6406,-22.015625 -3.6406,-11.078125 -10.9531,-22.5625 h -7.8125 q 6.4843,11.1875 9.6875,22.25 3.2031,11.0625 3.2031,22.328125 0,11.28125 -3.2031,22.265625 -3.2032,11 -9.6875,22.21875 z" />
            </g>
          </g>
          <text
             id="text5187"
             y="116.33307"
             x="217.81514"
             style="font-style:normal;font-weight:normal;font-size:30px;line-height:1.25;font-family:sans-serif;letter-spacing:0px;word-spacing:0px;fill:#000000;fill-opacity:1;stroke:none;stroke-width:0.75;stroke-linecap:butt;stroke-linejoin:round"
             xml:space="preserve"><tspan
               y="116.33307"
               x="217.81514"
               style="font-style:normal;font-variant:normal;font-weight:normal;font-stretch:normal;font-size:7px;font-family:sans-serif;-inkscape-font-specification:'sans-serif, Normal';font-variant-ligatures:normal;font-variant-caps:normal;font-variant-numeric:normal;font-feature-settings:normal;text-align:start;writing-mode:lr-tb;text-anchor:start;stroke-width:0.75;stroke-linecap:butt;stroke-linejoin:round"
               id="tspan5185"
               sodipodi:role="line">Micro F1 score (validation data)</tspan></text>
          <text
             id="text5209"
             y="103.40718"
             x="217.26509"
             style="font-style:normal;font-variant:normal;font-weight:normal;font-stretch:normal;font-size:30px;line-height:1.25;font-family:sans-serif;-inkscape-font-specification:'sans-serif, Normal';font-variant-ligatures:normal;font-variant-caps:normal;font-variant-numeric:normal;font-feature-settings:normal;text-align:start;letter-spacing:0px;word-spacing:0px;writing-mode:lr-tb;text-anchor:start;fill:#000000;fill-opacity:1;stroke:none;stroke-width:0.75;stroke-linecap:butt;stroke-linejoin:round"
             xml:space="preserve"><tspan
               y="103.40718"
               x="217.26509"
               style="font-style:normal;font-variant:normal;font-weight:normal;font-stretch:normal;font-size:7px;font-family:sans-serif;-inkscape-font-specification:'sans-serif, Normal';font-variant-ligatures:normal;font-variant-caps:normal;font-variant-numeric:normal;font-feature-settings:normal;text-align:start;writing-mode:lr-tb;text-anchor:start;stroke-width:0.75;stroke-linecap:butt;stroke-linejoin:round"
               id="tspan5207"
               sodipodi:role="line">Micro F1 score (training data)</tspan></text>
        </g>
        <text
           transform="rotate(-90)"
           id="text5289"
           y="127.49009"
           x="-430.58435"
           style="font-style:normal;font-variant:normal;font-weight:normal;font-stretch:normal;font-size:13px;line-height:1.25;font-family:sans-serif;-inkscape-font-specification:'sans-serif, Normal';font-variant-ligatures:normal;font-variant-caps:normal;font-variant-numeric:normal;font-feature-settings:normal;text-align:start;letter-spacing:0px;word-spacing:0px;writing-mode:lr-tb;text-anchor:start;fill:#000000;fill-opacity:1;stroke:none;stroke-width:0.75;stroke-linecap:butt;stroke-linejoin:round"
           xml:space="preserve"><tspan
             y="127.49009"
             x="-430.58435"
             style="font-style:normal;font-variant:normal;font-weight:normal;font-stretch:normal;font-size:13px;font-family:sans-serif;-inkscape-font-specification:'sans-serif, Normal';font-variant-ligatures:normal;font-variant-caps:normal;font-variant-numeric:normal;font-feature-settings:normal;text-align:start;writing-mode:lr-tb;text-anchor:start;stroke-width:0.75;stroke-linecap:butt;stroke-linejoin:round"
             id="tspan5287"
             sodipodi:role="line">Micro F1 score value</tspan></text>
      </g>
    </g>
  </g>
  <defs
     id="defs1375">
    <clipPath
       id="p5d8373876a">
      <rect
         x="180"
         y="86.4"
         width="1116"
         height="554.4"
         id="rect1372" />
    </clipPath>
  </defs>
</svg>
